<?xml version="1.0" encoding="UTF-8" standalone="no"?>
<svg
   version="1.1"
   viewBox="0 0 356 61"
   id="svg98"
   sodipodi:docname="Abbott-detroit_1912_logo.svg"
   inkscape:version="1.2.2 (732a01da63, 2022-12-09)"
   width="356"
   height="61"
   xmlns:inkscape="http://www.inkscape.org/namespaces/inkscape"
   xmlns:sodipodi="http://sodipodi.sourceforge.net/DTD/sodipodi-0.dtd"
   xmlns="http://www.w3.org/2000/svg"
   xmlns:svg="http://www.w3.org/2000/svg">
  <defs
     id="defs102" />
  <sodipodi:namedview
     id="namedview100"
     pagecolor="#ffffff"
     bordercolor="#000000"
     borderopacity="0.25"
     inkscape:showpageshadow="2"
     inkscape:pageopacity="0.0"
     inkscape:pagecheckerboard="0"
     inkscape:deskcolor="#d1d1d1"
     showgrid="false"
     inkscape:zoom="2.9351602"
     inkscape:cx="175.96995"
     inkscape:cy="42.757461"
     inkscape:window-width="1920"
     inkscape:window-height="991"
     inkscape:window-x="-9"
     inkscape:window-y="-9"
     inkscape:window-maximized="1"
     inkscape:current-layer="svg98" />
  <g
     id="g297"
     transform="translate(-6.1325443,-27.596449)">
    <path
       fill="#060606"
       d="m 213.8,32.86 a 0.44,0.43 72 0 0 0.63,0.33 l 10.11,-5.25 a 0.9,0.75 47 0 1 0.87,0.11 q 12.66,9.65 13.06,25.95 0.25,9.89 -1.22,16.5 -0.25,1.12 -2.19,5.99 -2.48,6.21 -7,9.07 -4.79,3.03 -9.41,-0.25 -2.04,-1.45 -4.01,-3 a 0.38,0.36 29.3 0 0 -0.58,0.15 q -0.68,1.93 0.38,3.86 a 1.09,1.09 74.9 0 1 -0.93,1.62 q -6.12,0.14 -12.38,0.02 -1.36,-0.03 -1.88,-0.7 -0.74,-0.97 0.06,-2.45 0.48,-0.87 2.26,-2.54 a 1.15,1.14 -21.4 0 0 0.37,-0.84 q 0.26,-22.44 -0.49,-44.88 a 1.03,0.96 18.7 0 0 -0.42,-0.78 q -1.66,-1.25 -2.28,-2.52 -1.59,-3.26 2,-3.35 5.75,-0.15 12.08,-0.15 a 0.63,0.59 -3.6 0 1 0.62,0.51 z m 5,4.31 q -2.38,-1.74 -4.88,0.55 a 1.14,1.03 70.5 0 0 -0.35,0.84 q 0.15,17.4 0.39,34.79 0.05,3.32 1.05,5.1 1.5,2.68 4.24,3.55 4.32,1.38 7,-1.53 1.58,-1.71 3.15,-5.64 1.51,-3.8 1.59,-7.87 0.07,-3.11 -0.51,-7.92 -1.3,-10.79 -8.66,-18.8 -2.43,-2.64 -3.02,-3.07 z"
       id="path52"
       style="display:inline" />
    <ellipse
       fill="#060606"
       cx="0"
       cy="0"
       transform="rotate(97.5,152.36165,162.90483)"
       rx="5.1100001"
       ry="4.7399998"
       id="ellipse54"
       style="display:inline" />
    <path
       fill="#060606"
       d="M 41.18,64.94 Q 38,64.75 35.82,64.96 a 2.35,2.34 3.4 0 0 -2.06,1.82 q -2.13,9.36 -7.74,15.55 -3.72,4.11 -8.04,5.37 -4.91,1.43 -10.2,-0.35 A 1.45,1.2 -2 0 1 7.03,86.77 Q 6.21,85.44 7.45,84.79 7.92,84.55 9.11,84.46 15.66,84 18.44,78.44 21.7,71.89 21.8,63 21.95,48.46 31.34,37.59 34.41,34.03 38.47,32 q 3.02,-1.51 7.84,-1.68 6.66,-0.22 13.27,-0.01 2.81,0.09 0.93,2.18 -1.29,1.43 -2.39,2.99 -1.04,1.47 -1.77,3.35 -6.41,16.7 -2.61,34.42 1.59,7.38 6.61,12.94 a 1.23,0.93 33.2 0 1 0.31,0.87 q -0.2,1.33 -1.72,1.38 -4.53,0.12 -16.19,0.07 -0.04,0 -2.51,0.12 -4.64,0.23 -1.69,-4.29 5.13,-7.86 7.03,-17.48 A 1.41,1.41 -81.5 0 0 44.34,65.18 Q 43.09,65.06 41.18,64.94 Z M 38.42,37.17 q -2.94,5 -3.41,10.81 -0.38,4.6 -0.22,9.21 a 0.58,0.54 89.9 0 0 0.52,0.56 l 10.01,0.49 a 0.85,0.81 87.5 0 0 0.83,-0.95 Q 45.24,49.59 43.78,41.69 43.22,38.64 41.71,35.3 A 0.79,0.79 58.5 0 0 40.5,35.01 q -1.54,1.23 -2.08,2.16 z"
       id="path56"
       style="display:inline" />
    <path
       fill="#060606"
       d="m 78.82,72.88 q 0.03,1.62 -1.61,2.14 -0.74,0.24 -2.43,0.07 -2.01,-0.2 -4.03,-0.05 -7.41,0.56 -2.95,-4.71 a 4.12,3.64 -27.5 0 0 0.95,-2.47 L 68.98,37.19 Q 69,35.26 67.3,34.18 65.61,33.1 66.33,31.5 a 1.3,1.06 -2.3 0 1 0.7,-0.62 q 2.08,-0.77 4.31,-0.79 3.87,-0.03 4.32,0.01 3.04,0.28 2.9,3.93 -0.06,1.38 -0.06,1.44 0,7.17 0,14.88 0,0.72 0.55,0.29 l 5.51,-4.35 a 2.21,1.95 -47.2 0 1 2.36,-0.24 q 5.55,3.35 7.66,9.51 4.05,11.86 -5.52,17.73 -2.43,1.49 -4.54,1.26 -2.47,-0.28 -4.55,-2.19 -1.17,-1.07 -1.15,0.52 z m 3.68,-3.09 a 2.63,2.61 -41.5 0 0 2.4,0.14 q 4.7,-2.08 3.85,-7.43 -0.91,-5.67 -6.81,-8.94 -1.35,-0.74 -2.48,0.31 -0.7,0.65 -0.83,2 -0.59,6.13 0.12,9.38 0.59,2.67 3.75,4.54 z"
       id="path58"
       style="display:inline" />
    <path
       fill="#060606"
       d="m 107.41,72.96 q -0.58,2.38 -2.99,2.12 -2.76,-0.3 -2.88,-0.3 -1.8,0.05 -3.61,0.14 -1.84,0.09 -2.77,-0.41 -2.2,-1.17 0.38,-3.72 0.77,-0.76 1.54,-1.51 a 1.16,1.11 68.5 0 0 0.35,-0.85 Q 97.3,53.09 97.02,37.76 97,36.57 96.41,35.93 q -0.53,-0.57 -1.26,-0.92 -0.53,-0.26 -0.77,-0.59 -1.39,-1.92 0.15,-3.1 0.8,-0.61 2.45,-0.86 4.51,-0.66 8.98,0.28 a 1.62,1.62 -84.1 0 1 1.29,1.59 V 48.6 q 0,1.09 0.96,0.51 l 5.57,-3.39 a 1.6,1.45 45 0 1 1.65,0.08 q 9.1,6.23 8.57,17.45 -0.16,3.45 -1.28,6.06 -1.28,2.96 -4.16,4.16 -4.62,1.9 -10.11,-0.98 a 0.72,0.72 20.5 0 0 -1.04,0.47 z m 2.52,-3.39 q 3.95,2.61 6.91,-0.77 1.73,-1.98 1.16,-4.54 -1.62,-7.32 -8.08,-10.96 -2.67,-1.5 -2.67,1.57 0,4.76 0.02,9.63 0.01,3.31 2.66,5.07 z"
       id="path60"
       style="display:inline" />
    <path
       fill="#060606"
       d="m 277.31,37.25 q 4.45,0.56 8.94,2.74 a 0.91,0.91 19.7 0 1 0.49,1.03 q -0.64,2.84 -3.26,3.61 a 1.06,0.93 52.8 0 1 -0.87,-0.18 q -2.12,-1.55 -4.96,-2.29 a 0.73,0.72 6.7 0 0 -0.91,0.71 l 0.49,29.32 a 1.49,1.49 -1.8 0 1 -1.43,1.52 q -4.47,0.17 -8.18,-0.09 -1.82,-0.13 -2.63,-0.68 -1.78,-1.19 0.73,-3.53 a 3.26,3.04 -22.9 0 0 1.04,-2.33 l -0.28,-23.3 q -0.03,-2.43 -2.2,-1.27 -3.23,1.72 -3.88,-1.2 a 0.87,0.85 -26.8 0 1 0.29,-0.84 q 1.49,-1.26 3.43,-1.46 1.23,-0.12 0.2,-0.82 -2.03,-1.37 -1,-3.44 a 1.29,1.1 0.6 0 1 0.72,-0.6 q 5.87,-1.89 11.91,-0.46 a 0.83,0.66 6.1 0 1 0.62,0.61 l 0.27,2.38 a 0.65,0.54 90 0 0 0.47,0.57 z"
       id="path62"
       style="display:inline" />
    <path
       fill="#060606"
       d="m 341.36,37.3 q -1.84,-1.45 -0.4,-2.87 0.75,-0.74 2.19,-0.85 4.4,-0.33 8.8,0.17 a 1.03,0.91 -9 0 1 0.76,0.48 l 1.39,2.5 a 0.88,0.79 74 0 0 0.72,0.45 q 4.52,-0.03 7.81,2.97 a 1.56,1.33 19.8 0 1 0.48,0.84 q 0.33,1.93 -1.14,3.2 -0.42,0.36 -1.6,1.49 -1.27,1.23 -2.59,-0.25 -1.04,-1.15 -2.44,-1.8 -1.9,-0.87 -1.67,1.13 0.11,0.93 0.11,0.98 0.74,11.79 0.72,25.55 -0.01,1.91 -1.84,2.45 -4.42,1.29 -9.86,0.06 a 0.98,0.91 -3.6 0 1 -0.69,-0.57 q -1.17,-2.92 1.47,-4.72 A 0.96,0.85 -19.4 0 0 344,67.75 l -0.72,-24.46 a 0.57,0.55 86.6 0 0 -0.6,-0.55 l -3.89,0.35 q -2.01,0.19 -1.16,-1.6 1.1,-2.29 3.38,-2.74 1.74,-0.35 0.35,-1.45 z"
       id="path64"
       style="display:inline" />
    <path
       fill="#060606"
       d="m 185.56,46.56 q -0.16,17.09 -0.06,22.19 0.06,2.91 -0.64,4.96 a 0.81,0.8 5.7 0 1 -0.67,0.54 q -4.03,0.51 -8.06,0.15 -1.73,-0.16 -2.6,-0.81 -1.91,-1.42 1.09,-3.49 a 2.22,2.08 73.6 0 0 0.91,-1.81 l -0.18,-23.8 a 1.32,1.12 -88.9 0 0 -1.06,-1.3 l -4.14,-0.24 q -1.85,-0.1 -1.74,2.03 0.63,12.14 0.01,22.52 -0.18,3 0.75,5.76 a 0.91,0.88 80.8 0 1 -0.83,1.2 l -11.09,-0.21 q -3.79,-0.07 -1.06,-2.56 l 1.86,-1.7 a 1.25,0.95 -27.1 0 0 0.39,-0.81 V 43.81 a 0.44,0.44 86.6 0 0 -0.49,-0.44 q -4.41,0.5 -8.7,1.63 -1.04,0.27 -1.7,-0.74 a 0.54,0.52 -32.8 0 1 0.17,-0.72 q 3.81,-2.54 7.92,-2.76 2.45,-0.13 0.46,-1.57 -2.45,-1.76 -0.65,-3.78 a 1.29,1.1 -66.4 0 1 0.86,-0.42 l 10.21,-0.2 q 1.86,-0.04 1.91,1.94 0.07,2.35 3.33,1.57 a 0.98,0.98 -8.2 0 0 0.75,-1 q -0.11,-2.69 2.3,-2.76 3.5,-0.11 6.99,-0.25 2.05,-0.08 2.74,0.56 1,0.93 0.94,3.12 a 1.73,1.73 -87.2 0 0 1.68,1.78 q 4.75,0.12 9.35,3.09 a 1.26,1.1 39.9 0 1 0.3,1.87 l -4.13,3.56 a 1.55,1.08 31.2 0 1 -1.43,0.09 l -5.23,-2.15 a 0.35,0.33 -79.3 0 0 -0.46,0.33 z"
       id="path66"
       style="display:inline" />
    <path
       fill="#060606"
       d="m 250.82,62.49 q 1.61,2.43 4.46,2.75 1.56,0.17 3.3,-0.65 1.63,-0.77 2.94,-1.8 1.43,-1.12 1.48,0.7 0.13,4.57 -3.58,7.14 -4.87,3.37 -9.97,2.06 -3.73,-0.95 -6.19,-4.49 -2.57,-3.7 -2.51,-7.7 0.15,-10.23 9,-14.5 3.46,-1.67 7.14,0.02 5.35,2.46 6.64,8.38 0.51,2.31 -1.59,3.15 l -10.91,4.35 a 0.42,0.39 -27.2 0 0 -0.21,0.59 z m 1.49,-13.05 q -2.79,-2.11 -3.87,1.75 -0.95,3.4 -0.02,6.77 a 0.64,0.64 -9.6 0 0 0.65,0.46 q 2.32,-0.13 4.67,-1.63 a 1.73,1.73 -17.2 0 0 0.8,-1.51 q -0.11,-4.25 -2.23,-5.84 z"
       id="path72"
       style="display:inline" />
    <path
       fill="#060606"
       d="m 329.9,51.48 a 0.9,0.86 9.8 0 0 -0.6,-0.81 q -2.05,-0.72 -2.7,-2.84 -0.74,-2.44 1.63,-2.33 l 9.38,0.44 q 1.89,0.09 1.94,2.04 l 0.69,24.16 a 1.76,1.72 -89.6 0 1 -1.79,1.81 l -9.46,-0.45 q -2.91,-0.14 -1.22,-2.37 l 2.12,-2.78 a 1.54,0.67 -42.9 0 0 0.37,-0.85 z"
       id="path74"
       style="display:inline" />
    <path
       fill="#060606"
       d="m 295.08,53.36 q -0.35,1.22 -0.65,2.46 a 1.77,1.28 -21 0 1 -0.52,0.8 q -1.42,1.23 -1.41,3.88 0.02,5.51 0.57,11.83 a 1.02,1.01 86 0 1 -0.96,1.11 q -4.66,0.21 -8.39,-0.09 -2.3,-0.18 -2.91,-1.22 -0.86,-1.46 1.23,-3.92 a 3.53,3.09 67.2 0 0 0.74,-2.23 l -0.3,-11.84 q -0.06,-2.22 -1.62,-3.49 -3.72,-3.01 0.14,-4.4 1.19,-0.43 5.54,-0.3 0.06,0 2.9,-0.24 2.86,-0.24 2.82,3.12 0,0.55 0.23,0.75 0.4,0.36 1,-0.33 1.95,-2.27 4.79,-3.17 2.6,-0.82 4.7,0.24 2.02,1.01 2.67,3.11 0.77,2.48 -1.57,4.45 a 1.51,1.49 -65.5 0 1 -0.89,0.34 q -3.45,0.15 -5.14,-2.84 a 0.6,0.55 64 0 0 -0.71,-0.28 q -0.8,0.32 -1.45,0.88 -0.55,0.48 -0.81,1.38 z"
       id="path76"
       style="display:inline" />
    <path
       fill="#060606"
       d="m 314.5674,73.3108 a 13.62,12.16 98.2 0 1 -10.0931,-15.2152 13.62,12.16 98.2 0 1 13.9783,-11.7464 13.62,12.16 98.2 0 1 10.0931,15.2152 13.62,12.16 98.2 0 1 -13.9783,11.7464 z m 8.6198,-8.9242 a 8.42,4.25 36.4 0 0 -4.2552,-8.4174 8.42,4.25 36.4 0 0 -9.2992,-1.5758 8.42,4.25 36.4 0 0 4.2552,8.4174 8.42,4.25 36.4 0 0 9.2992,1.5758 z"
       id="path78"
       style="display:inline" />
    <path
       fill="#060606"
       d="m 138.3295,74.6549 a 14.19,13.58 101.3 0 1 -10.5362,-16.5758 14.19,13.58 101.3 0 1 16.0972,-11.254 14.19,13.58 101.3 0 1 10.5362,16.5758 14.19,13.58 101.3 0 1 -16.0972,11.254 z m 8.6854,-7.2661 a 9.29,3.55 53.2 0 0 -2.7223,-9.5653 9.29,3.55 53.2 0 0 -8.4075,-5.3123 9.29,3.55 53.2 0 0 2.7223,9.5653 9.29,3.55 53.2 0 0 8.4075,5.3123 z"
       id="path80"
       style="display:inline" />
    <path
       fill="#060606"
       d="m 188.56,63.24 q -0.69,-0.7 -0.63,-1.74 0.03,-0.56 -0.09,-0.98 -1.02,-3.3 1.72,-4.46 4.08,-1.71 8.31,-3.9 a 0.98,0.91 -17.4 0 1 1.42,0.68 l 0.39,3.9 q 0.18,1.89 -2.05,3.23 -4.69,2.82 -8.2,3.5 a 1.01,0.84 -25.1 0 1 -0.87,-0.23 z"
       id="path84"
       style="display:inline" />
    <rect
       fill="#060606"
       x="-59.240002"
       y="-3.5899999"
       transform="rotate(0.3,-15132.204,56779.886)"
       width="118.48"
       height="7.1799998"
       rx="2.0599999"
       id="rect94"
       style="display:inline" />
    <rect
       fill="#060606"
       x="-67.660004"
       y="-3.4000001"
       transform="rotate(-0.2,23177.869,-37072.963)"
       width="135.32001"
       height="6.8000002"
       rx="1.05"
       id="rect96"
       style="display:inline" />
  </g>
</svg>
