<?xml version="1.0" encoding="UTF-8" standalone="no"?>
<!-- Created with Inkscape (http://www.inkscape.org/) -->
<!DOCTYPE svg PUBLIC "-//W3C//DTD SVG 1.1//EN" "http://www.w3.org/Graphics/SVG/1.1/DTD/svg11.dtd">
<svg
   xmlns:dc="http://purl.org/dc/elements/1.1/"
   xmlns:cc="http://creativecommons.org/ns#"
   xmlns:rdf="http://www.w3.org/1999/02/22-rdf-syntax-ns#"
   xmlns:svg="http://www.w3.org/2000/svg"
   xmlns="http://www.w3.org/2000/svg"
   version="1.1"
   width="400"
   height="230"
   id="svg75070"
   xml:space="preserve"><metadata
     id="metadata75076"><rdf:RDF><cc:Work
         rdf:about=""><dc:format>image/svg+xml</dc:format><dc:type
           rdf:resource="http://purl.org/dc/dcmitype/StillImage" /><dc:title></dc:title></cc:Work></rdf:RDF></metadata><defs
     id="defs75074" /><g
     transform="matrix(1.25,0,0,-1.25,0,230)"
     id="g75078"><g
       transform="matrix(0.58087655,0,0,0.58087655,-17.275333,-135.13476)"
       id="g75813"><path
         d="m 566.8594,423.3374 c 0,62.1 -117.148,112.5 -261.648,112.5 -144.551,0 -261.699,-50.4 -261.699,-112.5 0,-62.151 117.148,-112.502 261.699,-112.502 144.5,0 261.648,50.351 261.648,112.502"
         id="path75090"
         style="fill:#f8d120;fill-opacity:1;fill-rule:nonzero;stroke:none" /><path
         d="m 501.5127,423.3374 c 0,46.799 -89.15,84.7 -199.05,84.7 -109.951,0 -199.102,-37.901 -199.102,-84.7 0,-46.799 89.151,-84.749 199.102,-84.749 109.9,0 199.05,37.95 199.05,84.749"
         id="path75094"
         style="fill:#fffffb;fill-opacity:1;fill-rule:nonzero;stroke:none" /><path
         d="m 229.2617,368.8867 c -58.049,11.65 -113.35,77.5 23.35,113.45 -223.35,-10.95 -113.35,-129.3 -23.35,-113.45"
         id="path75098"
         style="fill:#2e52a3;fill-opacity:1;fill-rule:nonzero;stroke:none" /><path
         d="m 488.4121,423.3374 c 0,32.6 -67.148,58.999 -150,58.999 -82.852,0 -150,-26.399 -150,-58.999 0,-32.652 67.148,-59.05 150,-59.05 82.852,0 150,26.398 150,59.05"
         id="path75102"
         style="fill:#f2d719;fill-opacity:1;fill-rule:nonzero;stroke:none" /><path
         d="m 245.0229,418.7524 -1.61,9.8 c -0.23,1.533 -0.69,3.966 -1.38,7.3 -2.378,-3.735 -6.173,-9.434 -11.385,-17.1 l 14.375,0 z m 18.515,-15.8 -15.755,0 -1.265,7.1 -21.505,0 -4.945,-7.1 -13.34,0 36.57,51.3 10.465,0 9.775,-51.3 z"
         id="path75106"
         style="fill:black;fill-opacity:1;fill-rule:nonzero;stroke:none" /><path
         d="m 313.2168,436.2524 c 0,3.133 -0.978,5.35 -2.933,6.65 -1.954,1.3 -5.194,1.95 -9.717,1.95 l -5.175,0 -7.82,-32.4 3.795,0 c 6.056,0 10.695,1.333 13.915,4 3.22,2.665 5.52,6.966 6.9,12.9 0.69,2.8 1.035,5.1 1.035,6.9 m 15.295,0 c 0,-2.334 -0.345,-4.9 -1.034,-7.7 -1.995,-8 -6.058,-14.235 -12.191,-18.7 -6.134,-4.467 -13.799,-6.7 -23,-6.7 -4.447,0 -11.807,-0.035 -22.08,-0.1 l 12.535,51.2 22.31,0 c 15.641,0 23.46,-6 23.46,-18"
         id="path75110"
         style="fill:black;fill-opacity:1;fill-rule:nonzero;stroke:none" /><path
         d="m 359.793,418.7524 -1.609,9.8 c -0.231,1.533 -0.691,3.966 -1.38,7.3 -2.378,-3.735 -6.173,-9.434 -11.386,-17.1 l 14.375,0 z m 18.516,-15.8 -15.755,0 -1.266,7.1 -21.505,0 -4.945,-7.1 -13.34,0 36.57,51.3 10.465,0 9.776,-51.3 z"
         id="path75114"
         style="fill:black;fill-opacity:1;fill-rule:nonzero;stroke:none" /><path
         d="m 462.7178,454.3521 -12.535,-51.3 -15.066,0 6.901,27.6 -4.715,-5.9 -18.63,-21.7 -7.016,0 -8.049,22 c -0.92,2.6 -1.495,4.833 -1.725,6.7 l -6.9,-28.7 -10.925,0 12.535,51.3 12.42,0 11.615,-34.3 27.83,34.3 14.26,0 z"
         id="path75118"
         style="fill:black;fill-opacity:1;fill-rule:nonzero;stroke:none" /><path
         d="m 106.2651,285.3633 c 0.042,0.623 0.064,1.174 0.064,1.65 0,1.651 -0.494,2.732 -1.48,3.246 -0.987,0.512 -2.832,0.769 -5.534,0.769 l -3.41,0 -6.693,-26.729 3.475,0 c 3.045,0 5.201,0.357 6.467,1.072 1.265,0.715 2.349,2.246 3.25,4.593 0.772,1.979 1.544,4.545 2.317,7.7 0.772,3.152 1.286,5.72 1.544,7.699 m 7.851,1.32 c -0.087,-1.797 -0.666,-4.803 -1.738,-9.019 -0.859,-3.485 -1.673,-6.252 -2.446,-8.306 -1.458,-3.849 -3.754,-6.654 -6.885,-8.415 -2.918,-1.649 -6.843,-2.475 -11.776,-2.475 l -14.092,0 c -0.429,0 -0.601,0.183 -0.515,0.55 l 1.029,4.181 c 0.086,0.365 0.343,0.55 0.773,0.55 l 2.895,0 6.95,27.83 -2.896,0 c -0.429,0 -0.601,0.182 -0.514,0.55 l 1.029,4.179 c 0.085,0.367 0.343,0.55 0.772,0.55 l 14.093,0 c 5.277,0 8.966,-0.953 11.068,-2.859 1.715,-1.615 2.466,-4.052 2.253,-7.316"
         id="path75122"
         style="fill:black;fill-opacity:1;fill-rule:nonzero;stroke:none" /><path
         d="m 134.4497,281.459 c -0.687,0.366 -1.631,0.402 -2.831,0.109 -1.931,-0.513 -3.679,-1.814 -5.245,-3.904 -1.566,-2.09 -2.714,-4.29 -3.443,-6.601 -0.601,-1.87 -0.9,-3.501 -0.9,-4.894 0,-1.614 0.342,-2.605 1.029,-2.97 0.429,-0.258 0.943,-0.294 1.545,-0.11 0.772,0.293 1.586,1.008 2.445,2.144 3.046,3.96 5.148,8.031 6.306,12.21 l 1.094,4.016 z m 6.178,1.87 -4.569,-20.02 1.995,0 c 0.772,0 1.072,-0.33 0.901,-0.991 l -0.644,-2.859 c -0.172,-0.66 -0.622,-0.99 -1.351,-0.99 l -7.143,0 -0.322,1.65 1.867,6.38 c -2.918,-5.794 -6.178,-8.636 -9.782,-8.525 -1.287,0.037 -2.467,0.512 -3.539,1.429 -0.987,0.807 -1.684,1.797 -2.091,2.971 -0.409,1.173 -0.612,2.475 -0.612,3.904 0,4.547 1.48,8.856 4.441,12.926 3.388,4.62 7.528,6.947 12.419,6.984 2.745,0 5.555,-0.954 8.43,-2.859"
         id="path75126"
         style="fill:black;fill-opacity:1;fill-rule:nonzero;stroke:none" /><path
         d="m 168.8125,284.9785 -0.836,-3.795 c -0.173,-0.697 -0.538,-1.045 -1.095,-1.045 -0.086,0 -0.332,0.055 -0.739,0.165 -0.409,0.111 -0.763,0.165 -1.062,0.165 -2.918,0 -5.535,-1.686 -7.851,-5.059 -1.287,-1.87 -2.424,-4.383 -3.411,-7.535 -0.215,-0.735 -1.051,-3.87 -2.509,-9.406 l -7.143,0 5.598,22.441 -1.994,0 c -0.73,0 -1.03,0.329 -0.901,0.989 l 0.772,2.86 c 0.129,0.66 0.579,0.991 1.351,0.991 l 6.564,0 1.737,-2.42 -1.48,-5.17 c 1.587,2.675 3.432,4.748 5.534,6.215 1.759,1.246 3.411,1.87 4.955,1.87 0.6,0 1.158,-0.056 1.674,-0.165 0.685,-0.111 0.964,-0.478 0.836,-1.101"
         id="path75130"
         style="fill:black;fill-opacity:1;fill-rule:nonzero;stroke:none" /><path
         d="m 186.5723,293.4492 c 0,-1.211 -0.504,-2.237 -1.512,-3.08 -1.009,-0.845 -2.199,-1.266 -3.571,-1.266 -1.416,0 -2.618,0.421 -3.604,1.266 -0.987,0.843 -1.48,1.869 -1.48,3.08 0,1.173 0.493,2.19 1.48,3.052 0.986,0.861 2.188,1.293 3.604,1.293 1.372,0 2.562,-0.432 3.571,-1.293 1.008,-0.862 1.512,-1.879 1.512,-3.052 m -3.41,-7.756 -5.02,-20.13 c -0.043,-0.257 -0.086,-0.531 -0.129,-0.825 -0.086,-0.439 -0.107,-0.788 -0.064,-1.045 0.042,-0.33 0.15,-0.476 0.322,-0.439 l 1.995,0.054 c 0.3,0.037 0.547,-0.046 0.74,-0.247 0.193,-0.202 0.246,-0.431 0.161,-0.687 l -0.708,-2.915 c -0.172,-0.624 -0.644,-0.954 -1.416,-0.99 l -2.895,-0.111 c -3.862,-0.145 -5.792,1.467 -5.792,4.841 0,0.732 0.107,1.521 0.321,2.364 l 3.862,15.29 -3.411,0 c -0.772,0 -1.073,0.33 -0.901,0.991 l 0.708,2.915 c 0.171,0.623 0.644,0.934 1.416,0.934 l 10.811,0 z"
         id="path75134"
         style="fill:black;fill-opacity:1;fill-rule:nonzero;stroke:none" /><path
         d="m 213.3418,262.3184 -0.772,-2.859 c -0.129,-0.661 -0.58,-0.991 -1.352,-0.991 l -9.202,0 4.312,17.161 c 0.643,2.53 0.965,4.161 0.965,4.894 0,1.101 -0.408,1.65 -1.222,1.65 -1.76,0 -3.969,-1.944 -6.628,-5.83 -1.288,-1.87 -2.468,-4.529 -3.54,-7.974 -0.386,-1.138 -1.287,-4.438 -2.703,-9.901 l -7.142,0 5.598,22.441 -1.995,0 c -0.73,0 -1.029,0.329 -0.901,0.989 l 0.772,2.86 c 0.129,0.661 0.58,0.991 1.352,0.991 l 6.563,0 1.738,-2.42 -0.708,-2.75 c 1.329,1.833 2.96,3.28 4.891,4.344 1.715,0.88 3.324,1.321 4.826,1.321 3.903,0 5.856,-2.091 5.856,-6.271 0,-1.504 -0.28,-3.354 -0.837,-5.554 l -2.767,-11.111 1.995,0 c 0.729,0 1.03,-0.33 0.901,-0.99"
         id="path75138"
         style="fill:black;fill-opacity:1;fill-rule:nonzero;stroke:none" /><path
         d="m 236.5713,281.459 c -0.687,0.366 -1.631,0.402 -2.831,0.109 -1.931,-0.476 -3.668,-1.769 -5.212,-3.877 -1.545,-2.109 -2.703,-4.317 -3.476,-6.628 -0.601,-1.87 -0.9,-3.501 -0.9,-4.894 0,-1.614 0.364,-2.605 1.093,-2.97 0.429,-0.258 0.923,-0.275 1.481,-0.055 0.772,0.255 1.608,0.953 2.509,2.089 3.046,3.96 5.126,8.031 6.242,12.21 l 1.094,4.016 z m 6.178,1.87 -6.306,-25.301 c -0.773,-3.079 -1.91,-5.517 -3.411,-7.314 -2.574,-3.006 -5.942,-4.51 -10.103,-4.51 -3.046,0 -5.32,0.88 -6.821,2.64 -0.386,0.44 -0.235,0.898 0.45,1.375 l 3.218,1.98 c 0.386,0.22 0.814,0.239 1.287,0.055 0.386,-0.184 0.793,-0.366 1.222,-0.55 0.601,-0.221 1.223,-0.33 1.867,-0.33 2.144,0 3.774,2.219 4.89,6.654 l 1.737,4.125 c -2.23,-2.859 -4.568,-4.253 -7.014,-4.179 -1.33,0.037 -2.531,0.512 -3.603,1.429 -0.987,0.807 -1.684,1.797 -2.091,2.971 -0.409,1.173 -0.612,2.475 -0.612,3.904 0,4.547 1.501,8.856 4.505,12.926 3.346,4.62 7.485,6.947 12.419,6.984 2.703,0 5.491,-0.954 8.366,-2.859"
         id="path75142"
         style="fill:black;fill-opacity:1;fill-rule:nonzero;stroke:none" /><path
         d="m 278.269,284.7588 -0.772,-2.915 c -0.129,-0.66 -0.58,-0.99 -1.352,-0.99 l -5.598,0 -3.797,-15.29 c -0.086,-0.257 -0.15,-0.532 -0.193,-0.826 -0.043,-0.439 -0.043,-0.788 0,-1.044 0.043,-0.331 0.15,-0.495 0.322,-0.495 l 4.569,0.11 c 0.3,0 0.536,-0.092 0.708,-0.275 0.171,-0.184 0.235,-0.422 0.193,-0.715 l -0.708,-2.86 c -0.172,-0.624 -0.643,-0.954 -1.416,-0.99 l -5.47,-0.11 c -3.732,0 -5.598,1.576 -5.598,4.73 0,0.733 0.107,1.558 0.321,2.475 l 3.797,15.29 -1.93,0 c -0.772,0 -1.073,0.33 -0.901,0.99 l 0.708,2.915 c 0.171,0.623 0.643,0.935 1.415,0.935 l 1.931,0 1.544,6.05 c 0.171,0.806 0.708,1.21 1.609,1.21 l 4.505,0 c 0.943,0 1.308,-0.404 1.093,-1.21 l -1.48,-6.05 5.599,0 c 0.729,0 1.029,-0.312 0.901,-0.935"
         id="path75146"
         style="fill:black;fill-opacity:1;fill-rule:nonzero;stroke:none" /><path
         d="m 295.9658,278.6533 c -0.386,1.54 -1.395,2.328 -3.025,2.365 -3.132,0 -5.427,-2.952 -6.885,-8.854 -0.515,-2.018 -0.772,-3.667 -0.772,-4.95 0,-2.75 1.072,-4.125 3.217,-4.125 3.131,0.036 5.448,3.06 6.95,9.075 0.729,2.969 0.901,5.133 0.515,6.489 m 7.143,2.091 c 0.299,-0.954 0.45,-2.018 0.45,-3.191 0,-1.466 -0.258,-3.263 -0.772,-5.389 -0.944,-3.704 -2.275,-6.619 -3.99,-8.745 -2.874,-3.558 -6.735,-5.354 -11.583,-5.391 -2.231,0 -4.141,0.477 -5.727,1.431 -1.587,0.953 -2.661,2.272 -3.217,3.96 -0.258,0.88 -0.387,1.87 -0.387,2.969 0,1.503 0.3,3.428 0.901,5.776 0.901,3.666 2.166,6.525 3.797,8.58 2.917,3.593 6.799,5.389 11.647,5.389 2.231,0 4.14,-0.486 5.727,-1.458 1.587,-0.971 2.639,-2.282 3.154,-3.931"
         id="path75150"
         style="fill:black;fill-opacity:1;fill-rule:nonzero;stroke:none" /><path
         d="m 344.0342,296.3086 -1.03,-4.18 c -0.086,-0.367 -0.344,-0.549 -0.772,-0.549 l -3.926,0 -6.949,-27.831 3.925,0 c 0.429,0 0.601,-0.184 0.515,-0.549 l -1.03,-4.181 c -0.087,-0.367 -0.343,-0.55 -0.772,-0.55 l -15.572,0 c -0.429,0 -0.601,0.183 -0.515,0.55 l 1.029,4.181 c 0.085,0.365 0.343,0.549 0.773,0.549 l 3.925,0 6.95,27.831 -3.926,0 c -0.429,0 -0.601,0.182 -0.515,0.549 l 1.03,4.18 c 0.086,0.366 0.342,0.55 0.772,0.55 l 15.573,0 c 0.428,0 0.6,-0.184 0.515,-0.55"
         id="path75154"
         style="fill:black;fill-opacity:1;fill-rule:nonzero;stroke:none" /><path
         d="m 368.4219,262.3184 -0.772,-2.859 c -0.129,-0.661 -0.58,-0.991 -1.352,-0.991 l -9.201,0 4.311,17.161 c 0.643,2.53 0.965,4.161 0.965,4.894 0,1.101 -0.408,1.65 -1.222,1.65 -1.76,0 -3.969,-1.944 -6.628,-5.83 -1.288,-1.87 -2.468,-4.529 -3.539,-7.974 -0.387,-1.138 -1.288,-4.438 -2.704,-9.901 l -7.142,0 5.598,22.441 -1.995,0 c -0.73,0 -1.029,0.329 -0.901,0.989 l 0.772,2.86 c 0.129,0.661 0.58,0.991 1.352,0.991 l 6.563,0 1.738,-2.42 -0.708,-2.75 c 1.33,1.833 2.961,3.28 4.89,4.344 1.716,0.88 3.325,1.321 4.827,1.321 3.903,0 5.856,-2.091 5.856,-6.271 0,-1.504 -0.279,-3.354 -0.837,-5.554 l -2.767,-11.111 1.995,0 c 0.729,0 1.03,-0.33 0.901,-0.99"
         id="path75158"
         style="fill:black;fill-opacity:1;fill-rule:nonzero;stroke:none" /><path
         d="m 400.2754,262.3184 -0.772,-2.859 c -0.129,-0.661 -0.58,-0.991 -1.352,-0.991 l -9.201,0 4.311,17.161 c 0.643,2.53 0.965,4.161 0.965,4.894 0,1.101 -0.408,1.65 -1.222,1.65 -1.76,0 -3.969,-1.944 -6.628,-5.83 -1.288,-1.87 -2.468,-4.529 -3.539,-7.974 -0.387,-1.138 -1.288,-4.438 -2.704,-9.901 l -7.142,0 5.598,22.441 -1.995,0 c -0.73,0 -1.029,0.329 -0.901,0.989 l 0.772,2.86 c 0.129,0.661 0.58,0.991 1.352,0.991 l 6.563,0 1.738,-2.42 -0.708,-2.75 c 1.33,1.833 2.961,3.28 4.89,4.344 1.716,0.88 3.325,1.321 4.827,1.321 3.903,0 5.856,-2.091 5.856,-6.271 0,-1.504 -0.279,-3.354 -0.837,-5.554 l -2.767,-11.111 1.995,0 c 0.729,0 1.03,-0.33 0.901,-0.99"
         id="path75162"
         style="fill:black;fill-opacity:1;fill-rule:nonzero;stroke:none" /><path
         d="m 422.4756,278.6533 c -0.386,1.54 -1.395,2.328 -3.024,2.365 -3.132,0 -5.428,-2.952 -6.885,-8.854 -0.516,-2.018 -0.773,-3.667 -0.773,-4.95 0,-2.75 1.072,-4.125 3.218,-4.125 3.131,0.036 5.447,3.06 6.949,9.075 0.73,2.969 0.902,5.133 0.515,6.489 m 7.144,2.091 c 0.298,-0.954 0.45,-2.018 0.45,-3.191 0,-1.466 -0.258,-3.263 -0.773,-5.389 -0.944,-3.704 -2.274,-6.619 -3.989,-8.745 -2.875,-3.558 -6.736,-5.354 -11.583,-5.391 -2.231,0 -4.141,0.477 -5.728,1.431 -1.587,0.953 -2.66,2.272 -3.217,3.96 -0.257,0.88 -0.386,1.87 -0.386,2.969 0,1.503 0.3,3.428 0.9,5.776 0.902,3.666 2.166,6.525 3.797,8.58 2.917,3.593 6.799,5.389 11.648,5.389 2.23,0 4.139,-0.486 5.727,-1.458 1.586,-0.971 2.638,-2.282 3.154,-3.931"
         id="path75166"
         style="fill:black;fill-opacity:1;fill-rule:nonzero;stroke:none" /><path
         d="m 461.665,285.749 -16.409,-27.28 -6.693,0 -2.381,22.384 -2.123,0 c -0.773,0 -1.074,0.331 -0.902,0.991 l 0.708,2.915 c 0.171,0.623 0.644,0.934 1.416,0.934 l 7.98,0 0.385,-17.215 -0.321,-3.959 1.48,4.235 9.266,17.49 7.594,-0.495 z"
         id="path75170"
         style="fill:black;fill-opacity:1;fill-rule:nonzero;stroke:none" /><path
         d="m 477.752,281.459 c -0.687,0.366 -1.631,0.402 -2.831,0.109 -1.931,-0.513 -3.679,-1.814 -5.245,-3.904 -1.567,-2.09 -2.713,-4.29 -3.443,-6.601 -0.601,-1.87 -0.9,-3.501 -0.9,-4.894 0,-1.614 0.343,-2.605 1.029,-2.97 0.429,-0.258 0.944,-0.294 1.544,-0.11 0.773,0.293 1.587,1.008 2.446,2.144 3.046,3.96 5.148,8.031 6.306,12.21 l 1.094,4.016 z m 6.178,1.87 -4.569,-20.02 1.995,0 c 0.772,0 1.072,-0.33 0.901,-0.991 l -0.644,-2.859 c -0.172,-0.66 -0.622,-0.99 -1.351,-0.99 l -7.143,0 -0.322,1.65 1.866,6.38 c -2.918,-5.794 -6.178,-8.636 -9.781,-8.525 -1.287,0.037 -2.467,0.512 -3.539,1.429 -0.987,0.807 -1.684,1.797 -2.091,2.971 -0.408,1.173 -0.611,2.475 -0.611,3.904 0,4.547 1.479,8.856 4.439,12.926 3.389,4.62 7.529,6.947 12.42,6.984 2.745,0 5.555,-0.954 8.43,-2.859"
         id="path75174"
         style="fill:black;fill-opacity:1;fill-rule:nonzero;stroke:none" /><path
         d="m 507.5459,284.7588 -0.771,-2.915 c -0.129,-0.66 -0.58,-0.99 -1.352,-0.99 l -5.599,0 -3.797,-15.29 c -0.085,-0.257 -0.15,-0.532 -0.192,-0.826 -0.044,-0.439 -0.044,-0.788 0,-1.044 0.042,-0.331 0.149,-0.495 0.321,-0.495 l 4.57,0.11 c 0.299,0 0.535,-0.092 0.707,-0.275 0.171,-0.184 0.235,-0.422 0.193,-0.715 l -0.708,-2.86 c -0.172,-0.624 -0.643,-0.954 -1.415,-0.99 l -5.47,-0.11 c -3.732,0 -5.598,1.576 -5.598,4.73 0,0.733 0.106,1.558 0.321,2.475 l 3.797,15.29 -1.931,0 c -0.772,0 -1.072,0.33 -0.9,0.99 l 0.708,2.915 c 0.171,0.623 0.642,0.935 1.415,0.935 l 1.93,0 1.544,6.05 c 0.172,0.806 0.708,1.21 1.61,1.21 l 4.504,0 c 0.943,0 1.308,-0.404 1.094,-1.21 l -1.48,-6.05 5.599,0 c 0.728,0 1.029,-0.312 0.9,-0.935"
         id="path75178"
         style="fill:black;fill-opacity:1;fill-rule:nonzero;stroke:none" /><path
         d="m 524.6641,279.5342 c 0.128,1.466 -0.387,2.199 -1.545,2.199 -1.373,0 -2.725,-0.624 -4.054,-1.87 -1.716,-1.649 -2.832,-3.648 -3.346,-5.994 2.745,0.365 5.019,1.246 6.821,2.64 1.287,0.953 1.995,1.961 2.124,3.025 m 2.123,-6.216 c -2.702,-1.649 -6.692,-2.714 -11.969,-3.189 -0.216,-1.137 -0.322,-2.11 -0.322,-2.915 0,-2.714 1.223,-4.071 3.668,-4.071 1.845,0 3.861,0.788 6.049,2.366 0.643,0.44 1.18,0.475 1.609,0.11 l 2.188,-2.035 c 0.471,-0.441 0.407,-0.9 -0.194,-1.375 -2.831,-2.787 -6.477,-4.181 -10.939,-4.181 -6.478,0 -9.717,2.86 -9.717,8.58 0,1.576 0.258,3.392 0.773,5.446 0.943,3.813 2.316,6.764 4.118,8.855 3.003,3.52 6.927,5.279 11.776,5.279 2.231,0 4.032,-0.531 5.405,-1.594 1.373,-1.064 2.06,-2.439 2.06,-4.125 0,-1.321 -0.44,-2.65 -1.319,-3.988 -0.88,-1.339 -1.942,-2.392 -3.186,-3.163"
         id="path75182"
         style="fill:black;fill-opacity:1;fill-rule:nonzero;stroke:none" /></g></g></svg>