<?xml version="1.0" encoding="UTF-8"?>
<!-- Generator: Adobe Illustrator 13.0.0, SVG Export Plug-In . SVG Version: 6.00 Build 14948)  -->
<!DOCTYPE svg PUBLIC "-//W3C//DTD SVG 1.1//EN" "http://www.w3.org/Graphics/SVG/1.1/DTD/svg11.dtd">
<svg version="1.1" xmlns="http://www.w3.org/2000/svg" xmlns:xlink="http://www.w3.org/1999/xlink" x="0px" y="0px" width="149px" height="200px" viewBox="0 0 149 200" enable-background="new 0 0 149 200" xml:space="preserve">
<g id="Layer_4">
</g>
<g id="Layer_2">
</g>
<g id="Layer_1">
	<g>
		<g>
			<path fill="#F62E02" d="M61.9,184.1c2.9-1.8,6.3-3.8,6.8-7.399c1-4.7-0.5-11.3-5.9-12.5c-6.5-1.2-13.1-0.5-19.7-0.5     c0.1,11.8,0.003,23.688,0.103,35.487c0.013,0.013,5.984,0.016,6.197,0.013c0.1-4.8,0.1-9.7,0-14.5c1.7,0.2,3.5,0.1,5.1,0.7     c4.4,3.6,9.695,13.69,9.7,13.699c-0.013,0.01,6.856-0.034,6.847-0.021C68.647,193.678,65.7,188.7,61.9,184.1z M59.6,178.4     c-3.3,0.699-6.6,0.399-9.9,0.5c-0.1-3-0.1-6.101-0.1-9.101c3.1,0,6.2-0.2,9.3,0.2C63.3,170,63.5,177.5,59.6,178.4z"/>
		</g>
	</g>
	<g>
		<g>
			<path fill="#F62E02" d="M27.219,163.594c0,0-6.984,0.016-6.986,0.004c-3.7,11.8-8.252,23.723-11.752,35.622     c2.2,0,4.001,0.066,6.52,0.08c1-2.6,1.9-5.2,2.9-7.7c4-0.1,8.1,0,12.1,0c1,2.601,1.847,5.108,2.847,7.709     c-0.017,0.016,6.613-0.018,6.613-0.018C35.76,187.291,31.418,175.394,27.219,163.594z M19.8,185.3c1.1-4.2,2.4-8.3,3.8-12.399     c1.7,4,3.1,8.199,4.3,12.399H19.8z"/>
		</g>
	</g>
</g>
<g id="Layer_3">
	<g>
		<g>
			<path fill="#F62E02" d="M73.999,8.821c-35.615,0-64.486,29.671-64.486,66.272c0,19.069,7.849,36.245,20.393,48.337L74.74,8.84     C74.492,8.837,74.248,8.821,73.999,8.821z M74.823,8.842l44.335,113.543c11.924-12.026,19.328-28.768,19.328-47.293     C138.486,38.776,110.057,9.298,74.823,8.842z M73.94,122.344c-6.812,0-12.44-5.201-13.455-11.99l-5.813,27.98     c6.102,1.967,12.593,3.031,19.326,3.031c6.616,0,12.997-1.027,19.006-2.93l-5.66-27.74     C86.195,117.317,80.638,122.344,73.94,122.344z M73.94,93.986c4.677,0,8.801,2.452,11.256,6.184L74,45.3l-11.439,55.065     C65,96.524,69.183,93.986,73.94,93.986z"/>
		</g>
		<g>
			<path fill="none" stroke="#F62E02" stroke-width="0.0938" d="M73.999,8.821c-35.615,0-64.486,29.671-64.486,66.272     c0,19.069,7.849,36.245,20.393,48.337L74.74,8.84C74.492,8.837,74.248,8.821,73.999,8.821z M74.823,8.842l44.335,113.543     c11.924-12.026,19.328-28.768,19.328-47.293C138.486,38.776,110.057,9.298,74.823,8.842z M73.94,122.344     c-6.812,0-12.44-5.201-13.455-11.99l-5.813,27.98c6.102,1.967,12.593,3.031,19.326,3.031c6.616,0,12.997-1.027,19.006-2.93     l-5.66-27.74C86.195,117.317,80.638,122.344,73.94,122.344z M73.94,93.986c4.677,0,8.801,2.452,11.256,6.184L74,45.3     l-11.439,55.065C65,96.524,69.183,93.986,73.94,93.986z"/>
		</g>
	</g>
	<g>
		<g>
			<polygon fill="#F62E02" points="111.284,193.447 93.426,193.447 93.426,183.767 109.865,183.767 109.865,177.675 93.426,177.675 93.426,169.831 110.783,169.831 110.783,163.572 87.167,163.572 87.167,199.038 93.426,199.038 93.426,199.031 111.284,199.031"/>
		</g>
	</g>
	<g>
		<rect x="116.608" y="163.804" fill="#F62E02" width="6.59" height="35.318"/>
		<rect x="116.534" y="193.199" fill="#F62E02" width="22.361" height="5.923"/>
	</g>
	<rect x="74.868" y="163.673" fill="#F62E02" width="6.458" height="35.349"/>
</g>
</svg>