<?xml version="1.0" encoding="UTF-8" standalone="no"?>
<svg
   version="1.1"
   viewBox="0 0 125 102"
   id="svg38"
   sodipodi:docname="Emblem_ASA.svg"
   inkscape:version="1.2.2 (732a01da63, 2022-12-09)"
   xmlns:inkscape="http://www.inkscape.org/namespaces/inkscape"
   xmlns:sodipodi="http://sodipodi.sourceforge.net/DTD/sodipodi-0.dtd"
   xmlns="http://www.w3.org/2000/svg"
   xmlns:svg="http://www.w3.org/2000/svg">
  <defs
     id="defs42" />
  <sodipodi:namedview
     id="namedview40"
     pagecolor="#ffffff"
     bordercolor="#000000"
     borderopacity="0.25"
     inkscape:showpageshadow="2"
     inkscape:pageopacity="0.0"
     inkscape:pagecheckerboard="0"
     inkscape:deskcolor="#d1d1d1"
     showgrid="false"
     inkscape:zoom="5.5736652"
     inkscape:cx="13.187014"
     inkscape:cy="48.890629"
     inkscape:window-width="1920"
     inkscape:window-height="991"
     inkscape:window-x="-9"
     inkscape:window-y="-9"
     inkscape:window-maximized="1"
     inkscape:current-layer="svg38" />
  <path
     fill="#515aa0"
     d="m 97.75,68.84 q 2.8,0.77 1.68,-1.91 Q 92.74,50.88 80.34,41.16 72.44,34.96 63.17,31.05 A 0.68,0.67 -79.2 0 1 62.75,30.42 L 62.57,2.16 q 0,-1.32 0.74,-0.23 18.47,27.05 36.88,54.13 4.28,6.31 12.27,19.49 6.09,10.06 10.79,21.55 0.57,1.41 -0.59,0.42 -4.27,-3.63 -8.88,-6.68 -4.51,-2.97 -9.77,-5.18 -19.16,-8.04 -40.2,-7.97 A 0.51,0.5 -0.6 0 1 63.3,77.2 L 63.26,65.52 a 0.77,0.76 -0.7 0 1 0.76,-0.77 q 18.55,-0.06 33.73,4.09 z"
     id="path22"
     style="display:inline" />
  <path
     fill="#515aa0"
     d="M 16.04,69.6 Q 36.69,35.48 59.76,2.54 60.43,1.57 60.43,2.75 L 60.25,30.4 a 1.42,1.39 78.8 0 1 -0.84,1.28 q -23.81,10.4 -34.04,34.08 -0.63,1.47 -1.05,2.78 -0.55,1.7 1.17,1.21 16.19,-4.58 34.33,-5.03 A 1.15,1.15 -0.7 0 1 61,65.87 v 11.15 a 0.95,0.94 -1.3 0 1 -0.91,0.94 Q 52.84,78.23 46.72,79.01 21.46,82.23 2.2,99.38 1.29,100.2 1.72,99.05 7.6,83.56 16.04,69.6 Z"
     id="path24"
     style="display:inline" />
  <g
     id="g179"
     style="display:inline">
    <path
       fill="#f05756"
       d="m 81.58,44.67 q 9.3,8.17 14.68,19.34 1.16,2.42 -1.47,1.87 -19.17,-3.98 -39.04,-3.06 -14,0.65 -27.09,4.31 -2.29,0.65 -1.32,-1.53 10.02,-22.35 32.19,-31.85 2.25,-0.96 4.4,0.08 1.21,0.59 1.31,0.64 9,3.74 16.34,10.2 z M 58.12,45.49 Q 57.58,44.01 58,42.61 q 0.51,-1.7 2.11,-2.12 2.38,-0.62 5.09,2.08 a 2.62,2.6 -26.7 0 0 2.24,0.73 Q 68.31,43.17 68.1,41.8 68,41.11 67.52,40.42 63.88,35.09 58,37.75 q -3.94,1.78 -3.93,6.06 0,2.11 1.17,3.61 1.38,1.76 3.51,2.08 3.82,0.57 6.1,2.2 a 1.09,1.04 16.7 0 1 0.45,0.8 q 0.16,3.11 -3.16,3.85 -2.12,0.47 -3.46,-1.23 -1.43,-1.81 -3.15,-1.25 a 0.67,0.64 78.5 0 0 -0.44,0.69 q 0.26,3.01 3.13,4.26 5.35,2.32 8.48,-1 2.31,-2.46 2.06,-5.77 -0.32,-4.18 -5.51,-4.8 -2.64,-0.32 -4.48,-1.1 A 1.26,1.12 3.8 0 1 58.12,45.49 Z M 47.55,58.81 q 0.64,2.25 2.69,1.75 a 1.39,1.37 82.7 0 0 1.04,-1.37 L 50.94,43.23 q -0.03,-1.1 -0.93,-0.49 -10.88,7.41 -17.15,18.97 -1.21,2.23 2.01,1.28 a 2.81,2.8 2.9 0 0 1.8,-1.62 q 0.93,-2.23 3.54,-2.4 2.46,-0.16 2.58,-0.18 2.07,-0.31 4.16,-0.45 a 0.64,0.57 79.6 0 1 0.6,0.47 z m 34.12,-9.74 q -3.65,-3.28 -8.34,-6.42 -1,-0.66 -1.04,0.54 -0.24,7.08 0.15,14.69 0.07,1.41 0.73,1.99 1.27,1.11 2.59,-1.59 a 1.66,1.62 -72.2 0 1 1.74,-0.92 l 6.84,1.14 a 2.9,2.81 76.3 0 1 1.87,1.18 q 1.74,2.48 4.49,2.04 a 0.53,0.52 71 0 0 0.37,-0.77 q -3.68,-6.76 -9.4,-11.88 z"
       id="path26"
       style="display:inline" />
    <path
       fill="#f05756"
       d="m 79.83,51.74 q 1.04,0.96 1.52,2.14 0.54,1.33 -0.81,1.13 l -3.77,-0.55 a 1.53,1.34 88.3 0 1 -1.16,-1.25 q -0.86,-5.51 2.24,-3.12 1.24,0.96 1.98,1.65 z"
       id="path34"
       style="display:inline" />
    <path
       fill="#f05756"
       d="m 43.3,52.73 c 0.606667,-0.946667 1.4,-1.7 2.38,-2.26 1.746667,-0.98 2.495468,-0.513041 2.022134,1.580292 -0.09333,0.413334 0.08608,-0.451666 -0.112134,1.329708 -0.187444,1.684563 -0.23,2.416667 -1.81,2.29 -0.633333,-0.04667 -1.316667,-0.05333 -2.05,-0.02 -1.573333,0.07333 -1.716667,-0.9 -0.43,-2.92 z"
       id="path36"
       style="display:inline"
       sodipodi:nodetypes="cccsccc" />
  </g>
</svg>
