<?xml version="1.0" encoding="UTF-8" standalone="no"?>
<svg
   xmlns:dc="http://purl.org/dc/elements/1.1/"
   xmlns:cc="http://creativecommons.org/ns#"
   xmlns:rdf="http://www.w3.org/1999/02/22-rdf-syntax-ns#"
   xmlns:svg="http://www.w3.org/2000/svg"
   xmlns="http://www.w3.org/2000/svg"
   xmlns:sodipodi="http://sodipodi.sourceforge.net/DTD/sodipodi-0.dtd"
   xmlns:inkscape="http://www.inkscape.org/namespaces/inkscape"
   id="svg8"
   version="1.1"
   viewBox="0 0 154.80913 149.18891"
   height="149.1889mm"
   width="154.80913mm"
   sodipodi:docname="Associated Equipment Company.svg"
   inkscape:version="0.92.3 (2405546, 2018-03-11)">
  <sodipodi:namedview
     pagecolor="#ffffff"
     bordercolor="#666666"
     borderopacity="1"
     objecttolerance="10"
     gridtolerance="10"
     guidetolerance="10"
     inkscape:pageopacity="0"
     inkscape:pageshadow="2"
     inkscape:window-width="1920"
     inkscape:window-height="1013"
     id="namedview12"
     showgrid="false"
     inkscape:zoom="0.83708191"
     inkscape:cx="3.7134298"
     inkscape:cy="234.38348"
     inkscape:window-x="-9"
     inkscape:window-y="-9"
     inkscape:window-maximized="1"
     inkscape:current-layer="svg8" />
  <defs
     id="defs2">
    <clipPath
       id="clipPath828"
       clipPathUnits="userSpaceOnUse">
      <rect
         y="3.6904759"
         x="-208.64285"
         height="151.94643"
         width="124.73214"
         id="rect830"
         style="opacity:1;fill:#f4d7d7;fill-opacity:1;fill-rule:nonzero;stroke:none;stroke-width:1.85208333;stroke-linecap:round;stroke-linejoin:round;stroke-miterlimit:4;stroke-dasharray:none;stroke-dashoffset:0;stroke-opacity:1;paint-order:stroke fill markers" />
    </clipPath>
  </defs>
  <metadata
     id="metadata5">
    <rdf:RDF>
      <cc:Work
         rdf:about="">
        <dc:format>image/svg+xml</dc:format>
        <dc:type
           rdf:resource="http://purl.org/dc/dcmitype/StillImage" />
        <dc:title />
      </cc:Work>
    </rdf:RDF>
  </metadata>
  <path
     inkscape:connector-curvature="0"
     style="fill:#ffffff;stroke:#ff0000;stroke-width:4;stroke-linecap:butt;stroke-linejoin:miter;stroke-miterlimit:4;stroke-dasharray:none;stroke-opacity:1"
     d="M 77.41467,144.84666 151.51802,2.000927 3.29101,2.042687 Z"
     id="path855" />
  <path
     style="fill:#023dba;stroke:none;stroke-width:0.26458335px;stroke-linecap:butt;stroke-linejoin:miter;stroke-opacity:1;fill-opacity:1"
     d="m 11.12016,6.6971459 h 132.6043 L 77.419403,133.97765 Z"
     id="path828"
     inkscape:connector-curvature="0" />
  <path
     inkscape:connector-curvature="0"
     style="fill:#ff0000;stroke:none;stroke-width:0.28168896px;stroke-linecap:butt;stroke-linejoin:miter;stroke-opacity:1"
     d="m 34.78621,25.482561 16.04468,-0.015 C 62.51775,5.973894 91.72524,5.513103 104.21318,25.460961 l 16.04467,0.02159 v 25.929155 l -14.34257,2.645856 c -12.419,18.409091 -41.9319,16.687623 -55.15877,-2.097971 l -15.9703,-0.01873 z"
     id="path851" />
  <path
     inkscape:connector-curvature="0"
     id="path845"
     d="m 81.31551,67.706622 c 4.53175,-0.296384 10.34566,-2.162926 14.70145,-4.719868 2.96009,-1.737635 6.5161,-4.747611 8.4857,-7.182707 l 1.41262,-1.746485 h 8.67318 6.30493 l 2.35083,-3.501469 -0.06,-12.042802 -0.0774,-15.544271 -8.59908,-0.07017 -8.59907,-0.07017 -1.33635,-1.649622 c -1.63342,-2.016343 -6.06833,-5.811899 -8.3066,-7.109094 -5.844,-3.386903 -11.86966,-4.991569 -18.74379,-4.991569 -6.86148,0 -12.91901,1.596841 -18.59847,4.902793 -2.37419,1.381994 -6.78193,5.136393 -8.45518,7.201894 l -1.3396,1.653646 H 40.4579 31.7871 v 15.610417 12.973588 l 2.19911,2.636829 h 6.47169 8.67078 l 1.41263,1.746485 c 4.29114,5.305343 11.17726,9.434788 18.66688,11.1941 2.40096,0.563989 7.36908,1.054449 9.21344,0.909566 0.49484,-0.03887 1.79705,-0.129363 2.89379,-0.201091 z M 73.32343,65.159976 C 67.05741,64.298513 61.23167,61.834798 56.69124,58.126187 54.78549,56.569577 51.47135,52.887601 51.13537,51.953643 50.94524,51.425151 50.74035,51.411728 42.86331,51.411728 H 34.7862 V 38.447145 25.482562 l 8.02233,-0.0075 8.02235,-0.0075 1.00368,-1.462815 c 2.65859,-3.874717 7.19583,-7.459499 12.19194,-9.632566 10.37782,-4.513859 22.52163,-3.512071 31.84728,2.627205 2.85959,1.88253 5.29555,4.184345 7.07616,6.686469 l 1.26323,1.77514 8.02234,0.0108 8.02234,0.0108 V 38.44717 51.411753 l -8.02234,0.0094 -8.02234,0.0094 -1.19959,1.75637 c -0.65979,0.966004 -2.3502,2.79237 -3.75648,4.058587 -5.60157,5.043672 -12.64299,7.785163 -20.67192,8.04836 -1.90429,0.06243 -4.27209,0.0021 -5.26175,-0.133885 z M 83.45266,54.981918 c 2.07381,-0.651359 4.82526,-2.025862 6.06539,-2.919346 l 0.89971,-0.648216 -12.67081,-0.0013 c -6.96893,-7.94e-4 -12.67079,0.0689 -12.67079,0.154712 0,0.643837 4.96672,2.984394 7.79741,3.674518 3.15517,0.766365 7.2717,0.697555 10.57909,-0.260368 z m 24.01614,-6.632159 c 2.33173,-0.526582 5.84332,-1.998068 6.68996,-2.80334 l 0.64867,-0.616982 -2.48313,-2.352045 -2.48314,-2.352043 -1.31448,0.786146 c -1.63947,0.980501 -2.10848,1.138087 -4.16355,1.398926 -6.13721,0.778968 -11.12935,-2.860609 -8.0995,-5.905034 2.51049,-2.522564 8.46431,-2.924122 12.08558,-0.815118 l 1.13703,0.662197 2.83665,-2.301597 c 1.56016,-1.265881 2.83665,-2.401174 2.83665,-2.522877 0,-0.121703 -0.57354,-0.594259 -1.27458,-1.050126 -8.44308,-5.490472 -22.42077,-3.429402 -26.50462,3.908222 -0.73188,1.314989 -0.86082,1.865561 -0.85816,3.664182 0.002,1.735236 0.14727,2.389045 0.80302,3.628163 l 0.79988,1.511498 -6.35117,-0.05629 -6.35118,-0.05629 -0.0914,-1.256771 -0.0914,-1.256771 H 79.45497 83.67 l 0.0438,-1.389062 c 0.0241,-0.763985 0.0501,-1.805782 0.0578,-2.315105 l 0.0139,-0.926038 -4.18145,-0.02709 -4.18146,-0.02709 -0.0894,-1.626555 -0.0893,-1.626558 h 5.71243 5.71241 v -2.248958 -2.248959 h -9.29014 -9.29016 l -0.0817,4.818275 -0.0817,4.818271 -3.39361,-4.818271 -3.3936,-4.818275 h -4.4146 -4.41459 l -6.81196,9.604338 c -3.74657,5.282385 -6.81195,9.687698 -6.81195,9.789584 0,0.101885 1.94209,0.185245 4.31575,0.185245 h 4.31574 l 1.15745,-1.715169 1.15743,-1.71517 7.04766,-0.004 7.04767,-0.004 1.18529,1.712177 1.18527,1.712174 15.00935,0.09021 c 12.81665,0.07703 15.2284,0.152746 16.50886,0.518297 2.02199,0.577255 7.3933,0.60324 9.85342,0.04767 z M 53.67994,38.853405 c 0,-0.310711 2.77337,-4.110426 3.00015,-4.110426 0.25267,0 2.99786,3.715163 2.99786,4.057102 0,0.09693 -1.34956,0.176231 -2.99901,0.176231 -1.64945,0 -2.999,-0.05531 -2.999,-0.122907 z M 89.96789,25.279886 c 0,-0.307708 -2.8323,-1.878075 -4.7054,-2.608893 C 79.0643,20.252661 70.8693,21.089899 65.85965,24.653281 l -1.16587,0.829281 h 12.63706 c 6.95038,0 12.63705,-0.0912 12.63705,-0.202676 z"
     style="fill:#ffffff;stroke-width:0.28168896" />
</svg>
