<?xml version="1.0" encoding="UTF-8" standalone="no"?>
<!-- Created with Inkscape (http://www.inkscape.org/) -->

<svg
   xmlns:dc="http://purl.org/dc/elements/1.1/"
   xmlns:cc="http://creativecommons.org/ns#"
   xmlns:rdf="http://www.w3.org/1999/02/22-rdf-syntax-ns#"
   xmlns:svg="http://www.w3.org/2000/svg"
   xmlns="http://www.w3.org/2000/svg"
   version="1.1"
   width="800"
   height="800"
   id="svg2">
  <defs
     id="defs4" />
  <metadata
     id="metadata7">
    <rdf:RDF>
      <cc:Work
         rdf:about="">
        <dc:format>image/svg+xml</dc:format>
        <dc:type
           rdf:resource="http://purl.org/dc/dcmitype/StillImage" />
        <dc:title></dc:title>
      </cc:Work>
    </rdf:RDF>
  </metadata>
  <g
     transform="translate(0,-252.36218)"
     id="layer1">
    <rect
       width="767.20398"
       height="767.01288"
       rx="101.24527"
       ry="101.24527"
       x="19.465637"
       y="272.54749"
       id="rect2996"
       style="fill:#303099;fill-opacity:1;stroke:none" />
    <path
       d="m 120.71092,272.5474 262.3403,0 L 35.421849,993.03872 C 25.316392,977.27816 19.465626,958.50514 19.465626,938.31519 l 0,-564.5225 c 0,-56.08991 45.155416,-101.24529 101.245294,-101.24529 z"
       id="rect2996-1"
       style="fill:#810000;fill-opacity:1;stroke:none" />
    <path
       d="M 36.281902,992.54338 383.22643,273.4219 l 40.65211,0 66.58529,107.2374 -157.70205,0 91.81765,138.77783 -250.92152,520.06647 -74.295182,0 -44.156574,-20.3261 z"
       id="path3785"
       style="fill:#c2c2c2;fill-opacity:1;stroke:none" />
    <path
       d="m 207.7391,1039.7234 289.73373,-600.53914 40.65212,0 66.58528,107.2374 -157.70204,0 91.81765,138.77784 -171.32268,355.0879 z"
       id="path3785-7"
       style="fill:#c2c2c2;fill-opacity:1;stroke:none" />
    <path
       d="m 400.84985,1040.1159 208.76663,-432.71609 40.65211,0 66.58529,107.2374 -157.70204,0 91.81765,138.77784 -90.94108,188.48675 z"
       id="path3785-4"
       style="fill:#c2c2c2;fill-opacity:1;stroke:none" />
    <rect
       width="767.20398"
       height="767.01288"
       rx="101.24527"
       ry="101.24527"
       x="19.465637"
       y="272.54749"
       id="rect2996-5"
       style="fill:none;stroke:#c2c2c2;stroke-width:15.7001152;stroke-miterlimit:4;stroke-opacity:1;stroke-dasharray:none" />
  </g>
</svg>
