<svg xmlns="http://www.w3.org/2000/svg" height="202.07" width="297.1" viewBox="0 0 297.09421 202.06709"><title>Autolatina-BG</title><path d="m297.03,100.99a148.51,101.07,0,0,1,-297.03,0,148.51,101.07,0,1,1,297.03,0z" fill="#FFF"/><g transform="translate(-3.4991301e-7,-0.047977)" fill="#C00"><path d="m87.813,8.7587c42.817-12.675,98.457-12.935,146.07,8.7103,23.692,12.214,45.988,28.619,57.476,52.854,9.826,23.765,7.236,54.974-9.3957,75.577h-74.72l-70.38-133.33h-27.04l82.419,154.34,69.565-0.0004c-40.695,32.882-95.497,39.713-145.9,32.727-46.57-5.73-96.44-31.25-112.55-77.02l116.08-0.10038,36.244,68.505,27.04,0.28162z"/><path d="M3.4991E-7,100.97c1.4099-40.384,32.064-69.54,64.688-83.396l43.602,83.156"/></g></svg>