<?xml version="1.0" encoding="UTF-8" standalone="no"?>
<svg
   xmlns:dc="http://purl.org/dc/elements/1.1/"
   xmlns:cc="http://creativecommons.org/ns#"
   xmlns:rdf="http://www.w3.org/1999/02/22-rdf-syntax-ns#"
   xmlns:svg="http://www.w3.org/2000/svg"
   xmlns="http://www.w3.org/2000/svg"
   width="500"
   height="300"
   viewBox="0 0 132.29166 79.375005"
   version="1.1"
   id="svg8">
  <defs
     id="defs2" />
  <metadata
     id="metadata5">
    <rdf:RDF>
      <cc:Work
         rdf:about="">
        <dc:format>image/svg+xml</dc:format>
        <dc:type
           rdf:resource="http://purl.org/dc/dcmitype/StillImage" />
        <dc:title></dc:title>
      </cc:Work>
    </rdf:RDF>
  </metadata>
  <g
     id="layer1">
    <circle
       style="fill:#c0b574;fill-opacity:1;fill-rule:evenodd;stroke:#9b3a54;stroke-width:4.65796;stroke-linecap:round;stroke-linejoin:round;stroke-miterlimit:4;stroke-dasharray:none;stroke-dashoffset:40;stroke-opacity:1"
       id="path926"
       cx="66.403084"
       cy="38.585125"
       r="34.384563" />
    <path
       id="path884"
       style="color:#000000;font-style:normal;font-variant:normal;font-weight:normal;font-stretch:normal;font-size:medium;line-height:normal;font-family:sans-serif;font-variant-ligatures:normal;font-variant-position:normal;font-variant-caps:normal;font-variant-numeric:normal;font-variant-alternates:normal;font-variant-east-asian:normal;font-feature-settings:normal;font-variation-settings:normal;text-indent:0;text-align:start;text-decoration:none;text-decoration-line:none;text-decoration-style:solid;text-decoration-color:#000000;letter-spacing:normal;word-spacing:normal;text-transform:none;writing-mode:lr-tb;direction:ltr;text-orientation:mixed;dominant-baseline:auto;baseline-shift:baseline;text-anchor:start;white-space:normal;shape-padding:0;shape-margin:0;inline-size:0;clip-rule:nonzero;display:inline;overflow:visible;visibility:visible;opacity:1;isolation:auto;mix-blend-mode:normal;color-interpolation:sRGB;color-interpolation-filters:linearRGB;solid-color:#000000;solid-opacity:1;vector-effect:none;fill:#153f7c;fill-opacity:1;fill-rule:nonzero;stroke:none;stroke-width:1.35422;stroke-linecap:butt;stroke-linejoin:miter;stroke-miterlimit:4;stroke-dasharray:none;stroke-dashoffset:0;stroke-opacity:1;color-rendering:auto;image-rendering:auto;shape-rendering:auto;text-rendering:auto;enable-background:accumulate;stop-color:#000000;stop-opacity:1"
       d="m 72.631813,8.7025609 -0.0287,0.048285 -2.530529,4.2863641 -7.883409,13.351062 -6.633541,-11.234121 -2.373072,-4.018337 -0.03357,-0.05668 C 51.742205,11.756646 50.39841,12.5418 49.12226,13.418615 l 0.0378,0.06368 2.362573,4.002239 7.496416,12.698835 c 2.1682,-0.422553 4.429599,-0.658801 6.752509,-0.700514 l 9.038792,-15.307036 2.405961,-4.075022 0.0315,-0.05389 C 75.761393,9.4833183 74.21961,9.0305821 72.631824,8.7025609 Z m 6.912071,2.3233821 -2.408062,4.077121 -8.520945,14.428774 c 1.729421,0.09153 3.420677,0.290357 5.059662,0.596242 l 7.50621,-12.714927 2.400364,-4.066622 c -1.27942,-0.87143 -2.627801,-1.648845 -4.037229,-2.320588 z m -32.506386,4.059626 c -6.77633,5.592696 -11.105357,14.049175 -11.105357,23.50047 0,3.049892 0.452555,5.995904 1.290458,8.776373 0.706341,-2.389999 1.897147,-4.625173 3.461283,-6.647536 -0.05708,-0.702569 -0.09378,-1.411256 -0.09378,-2.128837 0,-0.214797 0.0081,-0.427515 0.01327,-0.64103 3.306424,-3.144811 6.620243,-5.653547 9.931068,-7.523004 l 1.142097,2.028763 c 1.420059,-0.617005 2.907925,-1.147845 4.455717,-1.581583 z m -0.907658,7.509008 2.120438,3.767804 c -2.174521,1.227176 -4.319711,2.679433 -6.437595,4.352846 0.950891,-2.979621 2.42374,-5.723532 4.317157,-8.12065 z" />
    <path
       id="path884-3"
       style="color:#000000;font-style:normal;font-variant:normal;font-weight:normal;font-stretch:normal;font-size:medium;line-height:normal;font-family:sans-serif;font-variant-ligatures:normal;font-variant-position:normal;font-variant-caps:normal;font-variant-numeric:normal;font-variant-alternates:normal;font-variant-east-asian:normal;font-feature-settings:normal;font-variation-settings:normal;text-indent:0;text-align:start;text-decoration:none;text-decoration-line:none;text-decoration-style:solid;text-decoration-color:#000000;letter-spacing:normal;word-spacing:normal;text-transform:none;writing-mode:lr-tb;direction:ltr;text-orientation:mixed;dominant-baseline:auto;baseline-shift:baseline;text-anchor:start;white-space:normal;shape-padding:0;shape-margin:0;inline-size:0;clip-rule:nonzero;display:inline;overflow:visible;visibility:visible;isolation:auto;mix-blend-mode:normal;color-interpolation:sRGB;color-interpolation-filters:linearRGB;solid-color:#000000;solid-opacity:1;vector-effect:none;fill:#153f7c;fill-opacity:1;fill-rule:nonzero;stroke:none;stroke-width:1.35422;stroke-linecap:butt;stroke-linejoin:miter;stroke-miterlimit:4;stroke-dasharray:none;stroke-dashoffset:0;stroke-opacity:1;color-rendering:auto;image-rendering:auto;shape-rendering:auto;text-rendering:auto;enable-background:accumulate;stop-color:#000000"
       d="m 85.365734,15.08559 c 6.776328,5.592687 11.105355,14.049164 11.105355,23.500468 0,3.049888 -0.452553,5.995907 -1.290456,8.776372 -0.706342,-2.390002 -1.897147,-4.625175 -3.461285,-6.647532 0.05708,-0.702572 0.09378,-1.411264 0.09378,-2.12884 0,-0.214793 -0.0081,-0.427515 -0.01327,-0.641035 -3.306424,-3.144806 -6.620245,-5.653546 -9.931069,-7.522998 l -1.142098,2.028763 c -1.420059,-0.617012 -2.907925,-1.147854 -4.455716,-1.581584 z m 0.907657,7.509008 -2.120438,3.767803 c 2.174521,1.227171 4.319711,2.679427 6.437595,4.352841 -0.950892,-2.979617 -2.423741,-5.723532 -4.317157,-8.120644 z" />
    <path
       style="color:#000000;font-style:normal;font-variant:normal;font-weight:normal;font-stretch:normal;font-size:medium;line-height:normal;font-family:sans-serif;font-variant-ligatures:normal;font-variant-position:normal;font-variant-caps:normal;font-variant-numeric:normal;font-variant-alternates:normal;font-variant-east-asian:normal;font-feature-settings:normal;font-variation-settings:normal;text-indent:0;text-align:start;text-decoration:none;text-decoration-line:none;text-decoration-style:solid;text-decoration-color:#000000;letter-spacing:normal;word-spacing:normal;text-transform:none;writing-mode:lr-tb;direction:ltr;text-orientation:mixed;dominant-baseline:auto;baseline-shift:baseline;text-anchor:start;white-space:normal;shape-padding:0;shape-margin:0;inline-size:0;clip-rule:nonzero;display:inline;overflow:visible;visibility:visible;opacity:1;isolation:auto;mix-blend-mode:normal;color-interpolation:sRGB;color-interpolation-filters:linearRGB;solid-color:#000000;solid-opacity:1;vector-effect:none;fill:#9b3a54;fill-opacity:1;fill-rule:evenodd;stroke:#153f7c;stroke-width:0.71661;stroke-linecap:round;stroke-linejoin:round;stroke-miterlimit:4;stroke-dasharray:none;stroke-dashoffset:40;stroke-opacity:1;color-rendering:auto;image-rendering:auto;shape-rendering:auto;text-rendering:auto;enable-background:accumulate;stop-color:#000000;stop-opacity:1"
       d="m 66.40232,1.8714413 c -20.248743,0 -36.712159,16.4660597 -36.712159,36.7147927 0,20.248746 16.463416,36.712166 36.712159,36.712166 20.248744,0 36.7148,-16.46342 36.7148,-36.712166 0,-20.248733 -16.466056,-36.7147927 -36.7148,-36.7147927 z m 0,4.6577848 c 17.731395,0 32.057016,14.3256149 32.057016,32.0570079 0,17.731407 -14.325621,32.054381 -32.057016,32.054381 -17.731394,0 -32.05437,-14.322974 -32.05437,-32.054381 0,-17.731393 14.322976,-32.0570079 32.05437,-32.0570079 z"
       id="path926-4" />
    <path
       id="path1080"
       style="fill:#ffffff;stroke:#153f7c;stroke-width:1.43322;stroke-linecap:butt;stroke-linejoin:miter;stroke-miterlimit:4;stroke-dasharray:none;stroke-opacity:1"
       d="m 66.380373,31.775445 c -2.614688,0 -3.261139,3.677289 -3.261139,7.229782 0,7.979671 -4.62274,11.837363 -10.556701,11.837363 -2.884979,0 -8.066189,-0.704012 -12.285244,-0.704012 -12.601319,0 -25.862703,2.691448 -36.278383,8.701494 -0.9500569,0.548203 -2.1554868,1.830244 0,1.855906 8.418872,0.100212 17.049441,0.305244 25.20942,-1.088211 4.155065,-0.709545 8.143778,-1.260891 12.092794,-1.215576 6.3565,0.039 11.936614,-0.09092 16.032051,1.774728 3.863792,1.760084 6.499932,5.242411 6.426394,14.093566 -0.01124,1.345243 0.440016,1.791526 1.087513,1.791526 h 1.533295 1.533291 c 0.647496,0 1.099047,-0.446283 1.088212,-1.791526 -0.07355,-8.851155 2.56191,-12.333482 6.425698,-14.093566 4.09543,-1.865644 9.675551,-1.735726 16.032051,-1.774728 3.949016,-0.04531 7.937725,0.506031 12.092795,1.215576 8.15997,1.393455 16.79053,1.188426 25.20942,1.088211 2.15546,-0.02565 0.95004,-1.307703 0,-1.855906 -10.41569,-6.010046 -23.67707,-8.701494 -36.278388,-8.701494 -4.219051,0 -9.399565,0.704012 -12.284544,0.704012 -5.933958,0 -10.557401,-3.857692 -10.557401,-11.837363 0,-3.552493 -0.646453,-7.229782 -3.261134,-7.229782 z" />
  </g>
</svg>
