<?xml version="1.0" encoding="UTF-8" standalone="no"?>
<!-- Created with Inkscape (http://www.inkscape.org/) -->

<svg
   xmlns:dc="http://purl.org/dc/elements/1.1/"
   xmlns:cc="http://creativecommons.org/ns#"
   xmlns:rdf="http://www.w3.org/1999/02/22-rdf-syntax-ns#"
   xmlns:svg="http://www.w3.org/2000/svg"
   xmlns="http://www.w3.org/2000/svg"
   xmlns:sodipodi="http://sodipodi.sourceforge.net/DTD/sodipodi-0.dtd"
   xmlns:inkscape="http://www.inkscape.org/namespaces/inkscape"
   width="505"
   height="892.8125"
   id="svg2"
   version="1.1"
   inkscape:version="0.48.1 "
   sodipodi:docname="Logo_Berliet_1959.svg">
  <defs
     id="defs4" />
  <sodipodi:namedview
     id="base"
     pagecolor="#ffffff"
     bordercolor="#666666"
     borderopacity="1.0"
     inkscape:pageopacity="0.0"
     inkscape:pageshadow="2"
     inkscape:zoom="0.088388348"
     inkscape:cx="-1817.9001"
     inkscape:cy="1275.3128"
     inkscape:document-units="px"
     inkscape:current-layer="layer1"
     showgrid="false"
     fit-margin-top="0"
     fit-margin-left="0"
     fit-margin-right="0"
     fit-margin-bottom="0"
     inkscape:window-width="1920"
     inkscape:window-height="1138"
     inkscape:window-x="-8"
     inkscape:window-y="-8"
     inkscape:window-maximized="1"
     showguides="true"
     inkscape:guide-bbox="true" />
  <metadata
     id="metadata7">
    <rdf:RDF>
      <cc:Work
         rdf:about="">
        <dc:format>image/svg+xml</dc:format>
        <dc:type
           rdf:resource="http://purl.org/dc/dcmitype/StillImage" />
        <dc:title />
      </cc:Work>
    </rdf:RDF>
  </metadata>
  <g
     inkscape:label="Calque 1"
     inkscape:groupmode="layer"
     id="layer1"
     transform="translate(-955.879,73.50895)">
    <path
       style="fill:#000000;fill-opacity:1;stroke:none"
       d="m 161.8125,-7.15625 0,196.53125 C 59.209776,220.87442 -15.25,315.71789 -15.25,427.6875 c 0,82.37848 40.300351,155.37676 102.46875,200.71875 l -103.21875,0 255.65625,257.25 249.34375,-257.25 -103.46875,0 C 447.79814,583.06426 488.25,510.06598 488.25,427.6875 488.25,315.84167 413.70743,221.0732 311.1875,189.46875 l 0,-196.625 -149.375,0 z m 48.34375,47.25 52.6875,0 0,139.53125 c -8.71765,-0.90522 -17.57368,-1.375 -26.53125,-1.375 -8.82777,0 -17.56401,0.433 -26.15625,1.3125 l 0,-139.46875 z m 26.5,186.625 c 112.1126,0 202.96875,89.95326 202.96875,200.96875 0,111.01553 -90.85615,201 -202.96875,201 -112.1128,0 -202.96875,-89.98447 -202.96875,-201 0,-111.01549 90.85595,-200.96875 202.96875,-200.96875 z M 100.28125,678.25 379.0625,678.25 239.65625,817.65625 100.28125,678.25 z"
       transform="translate(971.879,-66.3527)"
       id="path2999"
       inkscape:connector-curvature="0" />
  </g>
</svg>
