<?xml version="1.0" encoding="UTF-8"?>
<svg width="163" height="40" version="1.1" viewBox="0 0 163 40" xmlns="http://www.w3.org/2000/svg">
 <path d="m19.71 0.44532c-2.6909-0.002432-5.3526 0.55791-7.8143 1.645v7.5207h16.328c0.991 0.00118 1.9411 0.39534 2.6419 1.0961 0.7007 0.7008 1.095 1.6509 1.0961 2.6419v14.238c-8e-4 0.9912-0.3949 1.9415-1.0958 2.6423-0.7008 0.7008-1.6511 1.095-2.6422 1.0958l-20.728-0.0283-0.0223-26.498c-2.235 1.8155-4.0363 4.1071-5.2728 6.7076-1.2364 2.6004-1.8766 5.4442-1.8739 8.3235v19.385h19.383c5.141 0 10.071-2.0422 13.707-5.6775 3.6352-3.6352 5.6774-8.5655 5.6774-13.706s-2.0422-10.071-5.6774-13.707c-3.6352-3.6352-8.5656-5.6774-13.707-5.6774z" fill="#38e8ff"/>
 <g fill="#0072ce">
  <path d="m120.58 30.337c-1.775 0-3.218-1.1607-3.218-2.5867v-10.064c0-1.427 1.443-2.5872 3.218-2.5872h3.789v-4.8095h2.354v20.048zm1.101-13.739c-0.491-0.0272-0.974 0.1407-1.342 0.4673-0.369 0.3266-0.593 0.7855-0.625 1.2767v8.7526c0.032 0.4912 0.256 0.9498 0.625 1.2764 0.369 0.3264 0.851 0.4943 1.342 0.4671h2.689v-12.24z"/>
  <path d="m152.78 36.016v-20.915h6.143c1.775 0 3.219 1.1601 3.219 2.5861v10.074c0 1.4259-1.444 2.5867-3.219 2.5867h-3.79v5.668zm2.354-7.1685h2.688c0.491 0.0273 0.973-0.1405 1.341-0.467 0.369-0.3263 0.593-0.7849 0.625-1.2759v-8.7614c-0.032-0.491-0.256-0.9495-0.625-1.2759-0.368-0.3263-0.85-0.4941-1.341-0.4669h-2.689z"/>
  <path d="m142.71 30.336c-1.72-0.037-3.12-1.196-3.12-2.5828v-10.069c0-1.4259 1.444-2.5866 3.219-2.5866h2.924c1.775 0.0049 3.219 1.1656 3.219 2.5866v10.069c0 1.384-1.403 2.5425-3.127 2.5828zm1.2-13.738c-0.491-0.0273-0.973 0.1406-1.341 0.4667-0.369 0.3263-0.593 0.7848-0.625 1.2757v8.757c0.032 0.491 0.256 0.9495 0.625 1.276 0.368 0.3263 0.85 0.4942 1.341 0.4669h0.722c0.491 0.0273 0.974-0.1406 1.342-0.4669 0.368-0.3264 0.593-0.785 0.625-1.276v-8.757c-0.032-0.491-0.257-0.9496-0.625-1.2758-0.368-0.3263-0.851-0.494-1.342-0.4666z"/>
  <path d="m130.8 30.337v-15.242h2.214v1.2971s0.502-0.3446 0.915-0.5653c0.986-0.4864 2.071-0.7374 3.171-0.7334h0.898v1.5592h-0.176c-0.442 0.0093-0.883 0.0482-1.32 0.1163-1.997 0.3518-3.353 1.332-3.353 3.0368v10.53z"/>
  <path d="m81.003 36.934v-2.6737h1.3846c2.2562-0.0396 3.4212-0.9703 3.4652-2.7665v-1.1602h-3.221c-0.4467 0.0201-0.8929-0.0492-1.3124-0.2036-0.4197-0.1545-0.8042-0.391-1.1313-0.6959-0.3271-0.3048-0.5902-0.6718-0.7738-1.0794-0.1836-0.4077-0.284-0.8479-0.2956-1.2948v-8.6102c0.023-0.9097 0.4057-1.7733 1.0641-2.4015 0.6586-0.6281 1.5392-0.9695 2.449-0.9495h6.3268v16.258c-0.0673 3.3353-2.7083 5.5778-6.5715 5.5778zm2.6884-19.571c-0.3835-0.0069-0.7539 0.1384-1.0304 0.4041-0.2764 0.2659-0.4363 0.6303-0.4445 1.0137v7.8484c0.0081 0.3836 0.1679 0.7481 0.4443 1.014 0.2765 0.2659 0.647 0.4113 1.0306 0.4044h2.1685v-10.685z"/>
  <path d="m47.589 30.336v-20.043h3.1204v4.7992h3.2483c1.95 0 3.5364 1.3119 3.5364 2.9253v9.3914c0 1.613-1.5864 2.9248-3.5364 2.9248zm3.1199-2.2942h2.1816c0.364 0.0259 0.7237-0.0924 1.0011-0.3294 0.2775-0.237 0.4506-0.5737 0.482-0.9372v-8.1236c-0.0313-0.3637-0.2043-0.7005-0.4818-0.9377-0.2776-0.2371-0.6372-0.3554-1.0013-0.3296h-2.1811z"/>
  <path d="m99.842 30.337v-11.673c-0.0309-0.3637-0.2037-0.7005-0.4818-0.9375-0.2773-0.237-0.6373-0.3552-1.001-0.3292h-2.1809v12.939h-3.1209v-20.047h3.12v4.8144h3.2491c1.9498 0 3.5368 1.3118 3.5368 2.9254v12.308z"/>
  <path d="m74.989 30.337v-15.239h-3.1281v15.239z"/>
  <path d="m74.989 12.842v-2.5491h-3.1205v2.5491z"/>
  <path d="m113.26 30.337c-3.588-0.0168-5.082-1.32-5.155-4.4997v-8.452h-2.664v-2.2936h2.664v-4.8025h3.129v4.8025h2.66v2.2936h-2.66v8.777c0.036 1.3016 0.55 1.7544 2.037 1.7984h0.623v2.3757z"/>
  <path d="m24.646 9.6071v4.2121h-10.873c-0.2645-5e-4 -0.5265 0.0512-0.7709 0.152-0.2446 0.1009-0.4668 0.249-0.6539 0.4358-0.1872 0.1868-0.3357 0.4087-0.437 0.653-0.1013 0.2444-0.1535 0.5062-0.1535 0.7707v9.2658c1e-4 0.2645 0.0523 0.5265 0.1536 0.771 0.1013 0.2443 0.2498 0.4664 0.4369 0.6534 0.1871 0.1871 0.4092 0.3354 0.6537 0.4366s0.5065 0.1532 0.7711 0.1531h13.886l0.025-17.505zm0 12.037v2.7546h-9.1685c-0.2032-2e-4 -0.398-0.081-0.5417-0.2247-0.1436-0.1437-0.2243-0.3386-0.2243-0.5418v-6.2981c0-0.1007 0.0197-0.2003 0.0581-0.2933 0.0385-0.093 0.0949-0.1775 0.166-0.2487 0.0712-0.0712 0.1557-0.1277 0.2487-0.1662 0.0929-0.0386 0.1925-0.0584 0.2932-0.0584h8.4003c0.2035-1e-4 0.3987 0.0806 0.5427 0.2243 0.1441 0.1437 0.2252 0.3388 0.2255 0.5423z"/>
  <path d="m61.587 30.325v-15.245h2.9851v0.9107l0.2577-0.1474c1.0154-0.5161 2.1408-0.7783 3.2798-0.7643h1.2906v2.2626s-0.4665 0-0.5801 0.0038c-0.1756 0.0049-0.461 0.0164-0.8698 0.0544-1.6157 0.155-3.2477 1.0057-3.2477 2.6769v10.249z"/>
 </g>
</svg>
