<svg xmlns="http://www.w3.org/2000/svg" xmlns:svg="http://www.w3.org/2000/svg" viewBox="0 253.76 2663 232.28">
 <clipPath>
  <path d="0" id="svg_1"/>
 </clipPath>
 <g class="layer">
  <title>Layer 1</title>
  <g class="layer" id="svg_2">
   <path d="m75.89,471.2c-24.6,-9.89 -43.4,-23.61 -56.4,-41.16c-13,-17.54 -19.49,-37.6 -19.49,-60.14c0,-22.55 6.49,-42.59 19.49,-60.14c13,-17.54 31.8,-31.26 56.4,-41.16c24.6,-9.89 53.66,-14.84 87.18,-14.84c57.16,0 105.28,13.83 144.38,41.48l0,7.66l-15.46,18.82c-36.96,-27.01 -79.94,-40.52 -128.92,-40.52c-26.64,0 -49.74,3.51 -69.28,10.54c-19.56,7.01 -34.6,17.22 -45.12,30.62c-10.54,13.4 -15.8,29.26 -15.8,47.54c0,18.3 5.26,34.14 15.8,47.54c10.52,13.4 25.56,23.62 45.12,30.63c19.54,7.01 42.64,10.53 69.28,10.53c24.49,0 47,-3.4 67.52,-10.21c20.52,-6.8 40.88,-17.12 61.08,-30.95l15.78,18.83l0,7.65c-19.33,13.62 -40.66,24.04 -63.97,31.27c-23.32,7.23 -50.12,10.85 -80.41,10.85c-33.51,0 -62.58,-4.94 -87.18,-14.84" id="svg_3"/>
   <path d="m534.02,285.03l-72.52,112.31l152.78,0l-72.52,-112.31l-7.74,0zm-16.76,-26.8l41.26,0l143.73,215.68l0,7.65l-33.52,0l-36.73,-56.78l-188.22,0l-36.73,56.78l-33.52,0l0,-7.65l143.73,-215.68z" id="svg_4"/>
   <path d="m901.74,454.12c46.61,0 81.05,-6.69 103.29,-20.1c22.24,-13.4 33.36,-34.78 33.36,-64.12s-11.12,-50.74 -33.36,-64.14c-22.24,-13.4 -56.68,-20.1 -103.29,-20.1l-87.01,0l0,168.46l87.01,0zm-119.24,27.44l0,-223.34l125.68,0c53.93,0 94.6,9.37 121.99,28.08c27.4,18.72 41.09,46.58 41.09,83.6c0,37 -13.69,64.88 -41.09,83.58c-27.39,18.72 -68.06,28.08 -121.99,28.08l-125.68,0z" id="svg_5"/>
   <path d="m1195.35,481.56l-32.24,0l0,-223.35l32.24,0l0,223.35z" id="svg_6"/>
   <path d="m1332.3,258.22l0,195.91l223.67,0l-10.96,27.43l-244.94,0l0,-223.34l32.23,0z" id="svg_7"/>
   <path d="m1683.91,258.22l0,195.91l223.67,0l-10.96,27.43l-244.94,0l0,-223.34l32.23,0z" id="svg_8"/>
   <path d="m2139.29,285.03l-72.51,112.31l152.76,0l-72.52,-112.31l-7.73,0zm-16.76,-26.8l41.25,0l143.75,215.68l0,7.65l-33.54,0l-36.73,-56.78l-188.21,0l-36.74,56.78l-33.52,0l0,-7.65l143.74,-215.68z" id="svg_9"/>
   <path d="m2431.44,471.2c-24.6,-9.89 -43.4,-23.61 -56.4,-41.16c-13,-17.54 -19.49,-37.6 -19.49,-60.14c0,-22.55 6.49,-42.59 19.49,-60.14c13,-17.54 31.8,-31.26 56.4,-41.16c24.6,-9.89 53.66,-14.84 87.18,-14.84c57.14,0 105.28,13.83 144.38,41.48l0,7.66l-15.46,18.82c-36.96,-27.01 -79.94,-40.52 -128.92,-40.52c-26.64,0 -49.74,3.51 -69.28,10.54c-19.56,7.01 -34.6,17.22 -45.12,30.62c-10.54,13.4 -15.8,29.26 -15.8,47.54c0,18.3 5.26,34.14 15.8,47.54c10.52,13.4 25.56,23.62 45.12,30.63c19.54,7.01 42.64,10.53 69.28,10.53c24.49,0 47,-3.4 67.52,-10.21c20.52,-6.8 40.88,-17.12 61.08,-30.95l15.78,18.83l0,7.65c-19.33,13.62 -40.66,24.04 -63.97,31.27c-23.32,7.23 -50.12,10.85 -80.41,10.85c-33.52,0 -62.58,-4.94 -87.18,-14.84" id="svg_10"/>
  </g>
 </g>
</svg>