<svg version="1.1" viewBox="0.0 0.0 960.0 576.0" fill="none" stroke="none" stroke-linecap="square" stroke-miterlimit="10" xmlns:xlink="http://www.w3.org/1999/xlink" xmlns="http://www.w3.org/2000/svg"><clipPath id="g32f3349cee1_0_21.0"><path d="m0 0l960.0 0l0 576.0l-960.0 0l0 -576.0z" clip-rule="nonzero"/></clipPath><g clip-path="url(#g32f3349cee1_0_21.0)"><path fill="#005dab" d="m0 0l960.0 0l0 576.0l-960.0 0z" fill-rule="evenodd"/><path fill="#005dab" d="m0 -3.6745407E-6l960.0 0l0 288.34647l-960.0 0z" fill-rule="evenodd"/><path fill="#e77500" d="m343.83987 -87.17741l-192.12598 88.18897l342.86615 308.25198z" fill-rule="evenodd"/><path fill="#46aa42" d="m0 288.3526l0 -269.92126l480.0 269.92126z" fill-rule="evenodd"/><path fill="#bf0a30" d="m651.3451 82.625854l-103.055115 -78.07874l-68.346466 304.25195z" fill-rule="evenodd"/><path fill="#bf0a30" d="m703.1509 -9.185171l-103.055115 -78.078735l-68.3465 304.25195z" fill-rule="evenodd"/><path fill="#46aa42" d="m52.18935 -80.151405l85.732285 -152.8504l307.65353 500.37796z" fill-rule="evenodd"/><path fill="#800080" d="m532.1993 -27.464542l-151.21262 -13.070866l102.48819 328.9134z" fill-rule="evenodd"/><path fill="#46aa42" d="m520.2021 -29.687712l78.92914 14.803149l-115.212585 289.66928z" fill-rule="evenodd"/><path fill="#46aa42" d="m439.7979 -29.687712l-78.92914 14.803149l115.212585 289.66928z" fill-rule="evenodd"/><path fill="#46aa42" d="m960.0 288.3526l0 -269.92126l-480.0 269.92126z" fill-rule="evenodd"/><path fill="#46aa42" d="m907.81067 -80.151405l-85.7323 -152.8504l-307.65356 500.37796z" fill-rule="evenodd"/><path fill="#e77500" d="m960.0 288.34286l0 -129.25984l-480.0 129.25984z" fill-rule="evenodd"/><path fill="#bf0a30" d="m0 288.34286l0 -129.25984l480.0 129.25984z" fill-rule="evenodd"/><path fill="#005dab" d="m355.19946 304.39935l0 0c0 -68.92688 55.87628 -124.80315 124.80316 -124.80315l0 0c33.099854 0 64.843994 13.148865 88.249146 36.554c23.405151 23.40512 36.554016 55.149292 36.554016 88.249146l0 0c0 68.92688 -55.87628 124.80316 -124.80316 124.80316l0 0c-68.92688 0 -124.80316 -55.87628 -124.80316 -124.80316z" fill-rule="evenodd"/><path fill="#46aa42" d="m364.80316 304.39935l0 0c0 -63.62146 51.57538 -115.19685 115.19684 -115.19685l0 0c30.552094 0 59.852844 12.13678 81.45648 33.740387c21.603577 21.603592 33.740356 50.904373 33.740356 81.45647l0 0c0 63.62146 -51.57538 115.19684 -115.19684 115.19684l0 0c-63.62146 0 -115.19684 -51.57538 -115.19684 -115.19684z" fill-rule="evenodd"/><path fill="#ffffff" d="m398.3937 304.39935l0 0c0 -45.069916 36.536377 -81.60629 81.60629 -81.60629l0 0c21.643341 0 42.400208 8.597778 57.704346 23.901932c15.304199 15.304153 23.901978 36.06102 23.901978 57.70436l0 0c0 45.069916 -36.536438 81.60629 -81.60632 81.60629l0 0c-45.069916 0 -81.60629 -36.536377 -81.60629 -81.60629z" fill-rule="evenodd"/><path fill="#46aa42" d="m439.19684 304.39957l0 0c0 -24.91806 18.268219 -45.118134 40.80316 -45.118134l0 0c10.821655 0 21.200104 4.7535095 28.852173 13.214783c7.6520996 8.461304 11.950989 19.937256 11.950989 31.90335l0 0c0 24.91803 -18.268219 45.118103 -40.80316 45.118103l0 0c-22.534943 0 -40.80316 -20.200073 -40.80316 -45.118103z" fill-rule="evenodd"/><path fill="#46aa42" d="m494.58005 285.54895l89.73227 0l0 37.700806l-89.73227 0z" fill-rule="evenodd"/><path fill="#ffffff" d="m282.42392 417.85565c-2.8027954 0 -5.2696533 0.5192871 -7.4005737 1.5578308c-2.125702 1.0332642 -3.8918762 2.4329224 -5.2984924 4.1989746c-1.4013977 1.7660217 -2.4563599 3.7508545 -3.1649475 5.954468c-0.7085571 2.1983337 -1.0628357 4.449402 -1.0628357 6.753174c0 2.2984924 0.35427856 4.541626 1.0628357 6.729431c0.70858765 2.182495 1.7635498 4.1567993 3.1649475 5.9228516c1.4066162 1.7660522 3.1727905 3.176239 5.2984924 4.230591c2.1309204 1.0491028 4.5977783 1.5736389 7.4005737 1.5736389c2.3251343 0 4.316986 -0.29785156 5.9755554 -0.8935852c1.6638184 -0.60098267 3.049469 -1.3785706 4.1569214 -2.3327637c1.1127014 -0.9541931 2.0154724 -1.9584656 2.7082825 -3.0128174c0.6980591 -1.0543518 1.2150574 -2.0586243 1.5509644 -3.0128174c0.34118652 -0.9541931 0.566864 -1.731781 0.6770935 -2.3327637c0.115448 -0.60098267 0.17318726 -0.90148926 0.17318726 -0.90148926l-4.739502 0c0 0 -0.06561279 0.27676392 -0.19683838 0.83032227c-0.13119507 0.5482483 -0.39102173 1.220398 -0.77941895 2.016449c-0.3831482 0.7907715 -0.96310425 1.5841675 -1.7399292 2.3802185c-0.7715454 0.7907715 -1.7871399 1.4629211 -3.046814 2.016449c-1.254425 0.5482788 -2.818512 0.8223877 -4.6922913 0.8223877c-2.0312195 0 -3.8052368 -0.39535522 -5.322113 -1.1861267c-1.5115967 -0.796051 -2.7765198 -1.8662109 -3.7947388 -3.2105408c-1.0130005 -1.3442993 -1.7714233 -2.8493958 -2.275299 -4.515259c-0.4986267 -1.6711731 -0.7479248 -3.379242 -0.7479248 -5.124176c0 -1.7502441 0.2492981 -3.458313 0.7479248 -5.124176c0.50387573 -1.6711731 1.2622986 -3.178894 2.275299 -4.5231934c1.018219 -1.3443298 2.283142 -2.4118652 3.7947388 -3.2026367c1.5168762 -0.7960205 3.2908936 -1.1940308 5.322113 -1.1940308c1.8737793 0 3.4378662 0.26885986 4.6922913 0.8065796c1.2596741 0.5324402 2.2752686 1.2045898 3.046814 2.016449c0.77679443 0.8065796 1.356781 1.6078796 1.7399292 2.4039307c0.38839722 0.7907715 0.6482239 1.4550171 0.77941895 1.9927368c0.13122559 0.5324402 0.19683838 0.79867554 0.19683838 0.79867554l4.739502 0c0 0 -0.057739258 -0.29785156 -0.17318726 -0.8935547c-0.11022949 -0.60098267 -0.33590698 -1.3706665 -0.6770935 -2.3090515c-0.33590698 -0.94366455 -0.85287476 -1.947937 -1.5509644 -3.0128174c-0.69281006 -1.0701904 -1.595581 -2.074463 -2.7082825 -3.012848c-1.1074524 -0.94363403 -2.493103 -1.7133179 -4.1569214 -2.309021c-1.6585693 -0.60098267 -3.6504211 -0.90148926 -5.9755554 -0.90148926z" fill-rule="evenodd"/><path fill="#ffffff" d="m315.84927 432.08948c1.7425537 0 3.2016907 0.4454651 4.37735 1.3363953c1.1809387 0.8909302 2.0679626 2.0428162 2.6610718 3.455658c0.59832764 1.4075623 0.897522 2.9205627 0.897522 4.5390015c0 1.5868225 -0.29919434 3.0945435 -0.897522 4.5231934c-0.59310913 1.4234009 -1.480133 2.580536 -2.6610718 3.471466c-1.1756897 0.88568115 -2.6348267 1.3284912 -4.37735 1.3284912c-1.7058105 0 -3.1570435 -0.44281006 -4.3537292 -1.3284912c-1.1914673 -0.8909302 -2.0863342 -2.0480652 -2.6846924 -3.471466c-0.59310913 -1.4286499 -0.88964844 -2.9363708 -0.88964844 -4.5231934c0 -1.6184387 0.2965393 -3.1314392 0.88964844 -4.5390015c0.59835815 -1.4128418 1.4932251 -2.5647278 2.6846924 -3.455658c1.1966858 -0.8909302 2.6479187 -1.3363953 4.3537292 -1.3363953zm0 -4.0329285c-2.7397766 0 -5.04657 0.64053345 -6.9203186 1.9215698c-1.8685303 1.2810669 -3.2856445 2.9337463 -4.251404 4.95813c-0.96572876 2.024353 -1.4486084 4.185791 -1.4486084 6.4842834c0 2.2668762 0.48287964 4.42041 1.4486084 6.4605713c0.9657593 2.0401917 2.3828735 3.7008057 4.251404 4.981842c1.8737488 1.2757874 4.180542 1.9136658 6.9203186 1.9136658c2.7397766 0 5.0439453 -0.6378784 6.912445 -1.9136658c1.8737793 -1.2810364 3.293518 -2.9416504 4.2592773 -4.981842c0.9710083 -2.0401611 1.4564819 -4.193695 1.4564819 -6.4605713c0 -2.2984924 -0.48547363 -4.4599304 -1.4564819 -6.4842834c-0.9657593 -2.0243835 -2.385498 -3.677063 -4.2592773 -4.95813c-1.8684998 -1.2810364 -4.1726685 -1.9215698 -6.912445 -1.9215698z" fill-rule="evenodd"/><path fill="#ffffff" d="m335.29898 417.3733l-0.04724121 36.92096l4.5899353 0l0 -36.92096z" fill-rule="evenodd"/><path fill="#ffffff" d="m347.0983 428.54684l0 17.246643c0 2.8151245 0.75845337 5.0161133 2.275299 6.6029053c1.5168457 1.5868225 3.5480652 2.3802185 6.0936584 2.3802185c1.6113281 0 2.915619 -0.26623535 3.9128418 -0.79867554c1.0025024 -0.5324402 1.7766724 -1.1307983 2.3225403 -1.795044c0.5510864 -0.6642456 0.9237366 -1.1914368 1.1179504 -1.581543l0.29129028 0l0 3.6929016l4.5899353 0l0 -25.747406l-4.5899353 0l0 14.036133c0 1.3284912 -0.20993042 2.6253357 -0.6298218 3.890564c-0.41989136 1.2599487 -1.0969543 2.295868 -2.0312195 3.107727c-0.93426514 0.81185913 -2.1755676 1.2177734 -3.7239075 1.2177734c-1.5168457 0 -2.734558 -0.45336914 -3.6530457 -1.3601074c-0.91851807 -0.9067688 -1.3777771 -2.2036133 -1.3777771 -3.8905945l0 -17.001495z" fill-rule="evenodd"/><path fill="#ffffff" d="m386.3253 428.05655c-1.4486084 0 -2.6505432 0.25305176 -3.6058044 0.7591553c-0.9500122 0.500824 -1.7005615 1.0833435 -2.2516785 1.7475891c-0.5458374 0.6642456 -0.9473572 1.2388611 -1.2045593 1.723877l-0.18893433 0l0 -3.740326l-4.597809 0l0 25.747406l4.597809 0l0 -14.431519c0 -1.1650696 0.19155884 -2.3538513 0.57470703 -3.5663757c0.38839722 -1.2177734 1.026123 -2.22995 1.913147 -3.0365295c0.8870239 -0.81185913 2.0732117 -1.217804 3.5585632 -1.217804c1.7425537 0 3.054718 0.5930786 3.9364624 1.7792358c0.8870239 1.1808777 1.3305359 2.725525 1.3305359 4.633911l0 15.839081l4.597809 0l0 -14.431519c0 -1.1967163 0.19421387 -2.393402 0.5826111 -3.590088c0.38839722 -1.2019653 1.0260925 -2.2062378 1.9131165 -3.0128174c0.8870239 -0.81185913 2.0705872 -1.217804 3.5506897 -1.217804c1.7110596 0 3.0179749 0.5930786 3.9207458 1.7792358c0.9027405 1.1808777 1.354126 2.725525 1.354126 4.633911l0 15.839081l4.597809 0l0 -16.084229c0 -2.9785461 -0.7505493 -5.4141235 -2.251648 -7.3067017c-1.5011292 -1.8978271 -3.637329 -2.8467712 -6.4086 -2.8467712c-2.0994568 0 -3.8026123 0.49557495 -5.1095276 1.4866638c-1.3016663 0.9858093 -2.3067932 2.1904297 -3.0153503 3.6138l-0.055114746 0c-0.6403198 -1.5551758 -1.6139526 -2.7940369 -2.920868 -3.7166138c-1.3068848 -0.9225464 -2.9129944 -1.3838501 -4.8182373 -1.3838501z" fill-rule="evenodd"/><path fill="#ffffff" d="m430.53653 431.9946c1.7425537 0 3.1859436 0.4612732 4.330139 1.3838196c1.1441956 0.9225769 1.9971008 2.098175 2.5586853 3.526825c0.566864 1.4234009 0.85028076 2.9284973 0.85028076 4.5152893c0 1.5551758 -0.28341675 3.0549927 -0.85028076 4.499481c-0.5615845 1.4391785 -1.4144897 2.6200867 -2.5586853 3.542633c-1.1442261 0.9225769 -2.5875854 1.3838501 -4.330139 1.3838501c-1.7058105 0 -3.1307983 -0.4612732 -4.274994 -1.3838501c-1.1442261 -0.9225464 -1.9997253 -2.1034546 -2.5665894 -3.542633c-0.566864 -1.4444885 -0.85028076 -2.9443054 -0.85028076 -4.499481c0 -1.586792 0.28341675 -3.0918884 0.85028076 -4.5152893c0.566864 -1.4286499 1.4223633 -2.604248 2.5665894 -3.526825c1.1441956 -0.9225464 2.5691833 -1.3838196 4.274994 -1.3838196zm-12.376251 -14.621307l0 36.92096l4.589905 0l0 -4.0803833l0.2913208 0c0.38839722 0.579895 0.9132385 1.2283325 1.574585 1.9453125c0.6613159 0.7116699 1.5378418 1.3258362 2.629547 1.8424683c1.0969849 0.5166321 2.4537354 0.7749634 4.0703125 0.7749634c1.9315186 0 3.621582 -0.37957764 5.0701904 -1.1387024c1.4538574 -0.7591553 2.6636658 -1.7792358 3.629425 -3.0602722c0.9710083 -1.2810364 1.697937 -2.7149658 2.1808167 -4.3017883c0.48287964 -1.586792 0.7243042 -3.2052307 0.7243042 -4.855316c0 -1.6553345 -0.24142456 -3.2763977 -0.7243042 -4.86322c-0.48287964 -1.586792 -1.2098083 -3.018097 -2.1808167 -4.2938538c-0.96572876 -1.2810669 -2.1755676 -2.3011475 -3.629425 -3.0602722c-1.4486084 -0.7644348 -3.1386719 -1.146637 -5.0701904 -1.146637c-1.6165771 0 -2.9733276 0.25305176 -4.0703125 0.7591553c-1.0917053 0.500824 -1.9682312 1.1070557 -2.629547 1.8187561c-0.66134644 0.71170044 -1.1861877 1.375946 -1.574585 1.9927368l-0.2913208 0l0 -15.253906z" fill-rule="evenodd"/><path fill="#ffffff" d="m449.21027 428.54684l0 17.246643c0 2.8151245 0.75845337 5.0161133 2.275299 6.6029053c1.5168457 1.5868225 3.5480652 2.3802185 6.0936584 2.3802185c1.6113281 0 2.915619 -0.26623535 3.9128418 -0.79867554c1.0025024 -0.5324402 1.7766724 -1.1307983 2.3225403 -1.795044c0.5510864 -0.6642456 0.9237366 -1.1914368 1.1179504 -1.581543l0.29129028 0l0 3.6929016l4.5899353 0l0 -25.747406l-4.5899353 0l0 14.036133c0 1.3284912 -0.20993042 2.6253357 -0.6298218 3.890564c-0.41989136 1.2599487 -1.0969543 2.295868 -2.0312195 3.107727c-0.93426514 0.81185913 -2.1755676 1.2177734 -3.7239075 1.2177734c-1.5168457 0 -2.7345276 -0.45336914 -3.6530457 -1.3601074c-0.91851807 -0.9067688 -1.3777771 -2.2036133 -1.3777771 -3.8905945l0 -17.001495z" fill-rule="evenodd"/><path fill="#ffffff" d="m485.05188 428.05655c-2.6452942 0 -4.7893677 0.7064209 -6.43219 2.1192627c-1.6428223 1.4075623 -2.4642334 3.2131653 -2.4642334 5.4167786c0 1.4233704 0.34640503 2.612152 1.0392456 3.5663452c0.69281006 0.9541931 1.6034546 1.7080688 2.731903 2.2615967c1.1284485 0.5482788 2.3382568 0.98583984 3.629425 1.3126831l3.479828 0.8223877c1.2281799 0.2899475 2.172943 0.71170044 2.8342896 1.2652283c0.6613159 0.5482788 0.9919739 1.29422 0.9919739 2.2378845c0 1.0649109 -0.41989136 1.9637451 -1.2596741 2.6965027c-0.8397827 0.72750854 -2.018097 1.0912781 -3.5349426 1.0912781c-1.3226624 0 -2.380249 -0.21878052 -3.1727905 -0.65634155c-0.7872925 -0.43756104 -1.367279 -0.938385 -1.7399292 -1.5024719c-0.36740112 -0.56933594 -0.6088562 -1.0727844 -0.7243042 -1.5103455c-0.11022949 -0.43756104 -0.16534424 -0.65634155 -0.16534424 -0.65634155l-4.64505 0c0 0 0.04724121 0.27676392 0.14172363 0.83029175c0.099731445 0.5482788 0.32540894 1.2362366 0.677063 2.0639038c0.35690308 0.8224182 0.9053955 1.6474304 1.6454468 2.4751282c0.7453308 0.82766724 1.7530518 1.515625 3.0232239 2.0639038c1.2754211 0.5482483 2.8972473 0.8223877 4.8654785 0.8223877c1.9997253 0 3.6924133 -0.35583496 5.078064 -1.0675354c1.3856201 -0.71170044 2.4484863 -1.6737976 3.1885376 -2.886322c0.7453003 -1.2177734 1.1179504 -2.5383606 1.1179504 -3.961731c0 -2.2036133 -0.7190552 -3.8958435 -2.157196 -5.076721c-1.4328613 -1.1808777 -3.2462769 -2.0322876 -5.4401855 -2.5541992l-3.5270996 -0.8223877c-1.0654602 -0.2583313 -1.9288635 -0.6378784 -2.5901794 -1.1387024c-0.66134644 -0.5061035 -0.9920044 -1.1624451 -0.9920044 -1.9690247c0 -0.84347534 0.35427856 -1.6210632 1.0628357 -2.3327637c0.71383667 -0.71170044 1.8422852 -1.0675354 3.385376 -1.0675354c1.1284485 0 2.0312195 0.1871643 2.708313 0.5614624c0.682312 0.36901855 1.1914368 0.78811646 1.5273438 1.2572937c0.341156 0.46920776 0.55895996 0.8909302 0.6534424 1.2652283c0.09448242 0.36904907 0.14172363 0.55355835 0.14172363 0.55355835l4.456085 0c0 0 -0.049865723 -0.25042725 -0.14959717 -0.7512207c-0.094451904 -0.500824 -0.31228638 -1.1228943 -0.6534424 -1.8662415c-0.33590698 -0.7485657 -0.85028076 -1.4945374 -1.5430908 -2.237854c-0.6928406 -0.74331665 -1.6218262 -1.365387 -2.7870178 -1.8662109c-1.1599731 -0.5061035 -2.6269531 -0.7591553 -4.401001 -0.7591553z" fill-rule="evenodd"/><path fill="#ffffff" d="m505.42038 448.46628c-0.8082886 0 -1.5352173 0.27676392 -2.1807861 0.83032227c-0.64559937 0.5482483 -0.9683838 1.291565 -0.9683838 2.22995c0 0.84347534 0.26504517 1.5578003 0.795166 2.1429749c0.5353699 0.579895 1.1914368 0.90148926 1.9682312 0.9647522l-3.4877014 5.638153l2.4169922 0l0.3385315 -0.4902649c1.5168457 -2.2036133 2.621704 -3.8879395 3.3145142 -5.053009c0.69281006 -1.1650696 1.0392151 -2.2009583 1.0392151 -3.107727c0 -1.0016174 -0.3149109 -1.7765808 -0.94473267 -2.324829c-0.6246033 -0.55355835 -1.3882751 -0.83032227 -2.2910461 -0.83032227z" fill-rule="evenodd"/><path fill="#ffffff" d="m527.4312 418.338l0 35.956238l4.739502 0l0 -35.956238z" fill-rule="evenodd"/><path fill="#ffffff" d="m551.51575 428.05655c-1.5168457 0 -2.7765503 0.26885986 -3.7790527 0.8066101c-0.9971924 0.5324402 -1.7609253 1.1387024 -2.2910156 1.8187561c-0.53009033 0.6800537 -0.90802 1.2151489 -1.133667 1.6052551l-0.2913208 0l0 -3.740326l-4.5977783 0l0 25.747406l4.5977783 0l0 -14.526428c0 -1.3284912 0.21783447 -2.5831604 0.6534424 -3.764038c0.43566895 -1.1808777 1.1048584 -2.1350708 2.0076294 -2.8625793c0.902771 -0.7327881 2.0784302 -1.0991821 3.5270386 -1.0991821c1.805542 0 3.1832886 0.5667114 4.133301 1.7001648c0.95526123 1.1334229 1.4329224 2.5594482 1.4329224 4.2780457l0 16.274017l4.589905 0l0 -16.56659c0 -1.8135071 -0.34643555 -3.447754 -1.0392456 -4.902771c-0.69281006 -1.4602966 -1.7005615 -2.6200867 -3.0231934 -3.47937c-1.3226318 -0.85931396 -2.918274 -1.288971 -4.786743 -1.288971z" fill-rule="evenodd"/><path fill="#ffffff" d="m579.0436 431.9946c1.7058105 0 3.1307983 0.4612732 4.2750244 1.3838196c1.144165 0.9225769 1.9970703 2.098175 2.5587158 3.526825c0.5668335 1.4234009 0.85028076 2.9284973 0.85028076 4.5152893c0 1.5551758 -0.28344727 3.0549927 -0.85028076 4.499481c-0.5615845 1.4391785 -1.4144897 2.6200867 -2.5587158 3.542633c-1.1442261 0.9225769 -2.5692139 1.3838501 -4.2750244 1.3838501c-1.7110596 0 -3.1465454 -0.4612732 -4.3065186 -1.3838501c-1.1599121 -0.9225464 -2.0233154 -2.1034546 -2.590149 -3.542633c-0.56689453 -1.4444885 -0.85028076 -2.9443054 -0.85028076 -4.499481c0 -1.586792 0.28338623 -3.0918884 0.85028076 -4.5152893c0.5668335 -1.4286499 1.4302368 -2.604248 2.590149 -3.526825c1.1599731 -0.9225464 2.595459 -1.3838196 4.3065186 -1.3838196zm7.786377 -14.621307l0 15.253906l-0.2913208 0c-0.3569336 -0.6167908 -0.87390137 -1.2731323 -1.5509644 -1.9690247c-0.677063 -0.6958618 -1.5640869 -1.302124 -2.6610718 -1.8187561c-1.0969849 -0.5219116 -2.4511108 -0.78286743 -4.062439 -0.78286743c-1.9315186 0 -3.6241455 0.38220215 -5.078064 1.146637c-1.4486084 0.75912476 -2.6584473 1.7792053 -3.6293945 3.0602722c-0.9657593 1.2757568 -1.6900635 2.7070618 -2.1729736 4.2938538c-0.48284912 1.5868225 -0.7243042 3.2078857 -0.7243042 4.86322c0 1.6500854 0.24145508 3.2685242 0.7243042 4.855316c0.48291016 1.5868225 1.2072144 3.020752 2.1729736 4.3017883c0.97094727 1.2810364 2.1807861 2.301117 3.6293945 3.0602722c1.4539185 0.75912476 3.1465454 1.1387024 5.078064 1.1387024c1.6113281 0 2.965454 -0.25042725 4.062439 -0.7512207c1.0969849 -0.500824 1.9840088 -1.1070862 2.6610718 -1.8187866c0.677063 -0.7116699 1.1940308 -1.3759155 1.5509644 -1.9927368l0.2913208 0l0 4.0803833l4.589905 0l0 -36.92096z" fill-rule="evenodd"/><path fill="#ffffff" d="m601.6774 417.65796c-0.87127686 0 -1.590332 0.29260254 -2.1572266 0.8777466c-0.5615845 0.58517456 -0.8423462 1.296875 -0.8423462 2.1350708c0 0.81185913 0.28076172 1.510376 0.8423462 2.0955505c0.56689453 0.579895 1.2859497 0.8698425 2.1572266 0.8698425c0.8397827 0 1.5483398 -0.2899475 2.1256714 -0.8698425c0.5826416 -0.58517456 0.87390137 -1.2836914 0.87390137 -2.0955505c0 -0.8381958 -0.29125977 -1.5498962 -0.87390137 -2.1350708c-0.57733154 -0.58514404 -1.2858887 -0.8777466 -2.1256714 -0.8777466zm-2.2752686 10.8888855l0 25.747406l4.5977783 0l0 -25.747406z" fill-rule="evenodd"/><path fill="#ffffff" d="m623.35175 431.9946c1.7058105 0 3.1307983 0.4612732 4.2750244 1.3838196c1.1442261 0.9225769 1.9971313 2.098175 2.5587158 3.526825c0.5668335 1.4234009 0.85028076 2.9284973 0.85028076 4.5152893c0 1.5551758 -0.28344727 3.0549927 -0.85028076 4.499481c-0.5615845 1.4391785 -1.4144897 2.6200867 -2.5587158 3.542633c-1.1442261 0.9225769 -2.5692139 1.3838501 -4.2750244 1.3838501c-1.7110596 0 -3.1465454 -0.4612732 -4.3064575 -1.3838501c-1.1599731 -0.9225464 -2.0233765 -2.1034546 -2.59021 -3.542633c-0.5668335 -1.4444885 -0.85028076 -2.9443054 -0.85028076 -4.499481c0 -1.586792 0.28344727 -3.0918884 0.85028076 -4.5152893c0.5668335 -1.4286499 1.4302368 -2.604248 2.59021 -3.526825c1.1599121 -0.9225464 2.595459 -1.3838196 4.3064575 -1.3838196zm-0.77941895 -3.9380493c-1.9314575 0 -3.6241455 0.38220215 -5.078003 1.146637c-1.4486694 0.75912476 -2.6584473 1.7792053 -3.6294556 3.0602722c-0.9657593 1.2757568 -1.6900635 2.7070618 -2.1729126 4.2938538c-0.48291016 1.5868225 -0.7243042 3.2078857 -0.7243042 4.86322c0 1.6500854 0.24139404 3.2685242 0.7243042 4.855316c0.48284912 1.5868225 1.2071533 3.020752 2.1729126 4.3017883c0.9710083 1.2810364 2.1807861 2.301117 3.6294556 3.0602722c1.4538574 0.75912476 3.1465454 1.1387024 5.078003 1.1387024c1.6113281 0 2.9655151 -0.25042725 4.062439 -0.7512207c1.0969849 -0.500824 1.9840088 -1.1070862 2.6610718 -1.8187866c0.677063 -0.7116699 1.1940918 -1.3759155 1.5509644 -1.9927368l0.2913208 0l0 4.0803833l4.589905 0l0 -25.747406l-4.589905 0l0 4.080353l-0.2913208 0c-0.35687256 -0.6167908 -0.87390137 -1.2731323 -1.5509644 -1.9690247c-0.677063 -0.6958618 -1.5640869 -1.302124 -2.6610718 -1.8187561c-1.0969238 -0.5219116 -2.4511108 -0.78286743 -4.062439 -0.78286743z" fill-rule="evenodd"/><path fill="#ffffff" d="m654.59515 428.05655c-1.5168457 0 -2.7765503 0.26885986 -3.7790527 0.8066101c-0.9971924 0.5324402 -1.7608643 1.1387024 -2.2910156 1.8187561c-0.53009033 0.6800537 -0.90802 1.2151489 -1.133728 1.6052551l-0.29125977 0l0 -3.740326l-4.5978394 0l0 25.747406l4.5978394 0l0 -14.526428c0 -1.3284912 0.21777344 -2.5831604 0.6534424 -3.764038c0.43566895 -1.1808777 1.1048584 -2.1350708 2.0076294 -2.8625793c0.90270996 -0.7327881 2.0784302 -1.0991821 3.5270386 -1.0991821c1.805542 0 3.1832886 0.5667114 4.133301 1.7001648c0.95526123 1.1334229 1.4328613 2.5594482 1.4328613 4.2780457l0 16.274017l4.589966 0l0 -16.56659c0 -1.8135071 -0.34643555 -3.447754 -1.0392456 -4.902771c-0.69281006 -1.4602966 -1.7005615 -2.6200867 -3.0231934 -3.47937c-1.3226929 -0.85931396 -2.918274 -1.288971 -4.786743 -1.288971z" fill-rule="evenodd"/><path fill="#ffffff" d="m682.123 431.9946c1.7058105 0 3.1307983 0.4612732 4.2750244 1.3838196c1.144165 0.9225769 1.9971313 2.098175 2.5587158 3.526825c0.5668335 1.4234009 0.85028076 2.9284973 0.85028076 4.5152893c0 1.5551758 -0.28344727 3.0549927 -0.85028076 4.499481c-0.5616455 1.4391785 -1.4145508 2.6200867 -2.5587158 3.542633c-1.1442261 0.9225769 -2.5692139 1.3838501 -4.2750244 1.3838501c-1.7110596 0 -3.1465454 -0.4612732 -4.3065186 -1.3838501c-1.1599121 -0.9225464 -2.0233154 -2.1034546 -2.59021 -3.542633c-0.5668335 -1.4444885 -0.85028076 -2.9443054 -0.85028076 -4.499481c0 -1.586792 0.28344727 -3.0918884 0.85028076 -4.5152893c0.56689453 -1.4286499 1.4302979 -2.604248 2.59021 -3.526825c1.1599731 -0.9225464 2.595459 -1.3838196 4.3065186 -1.3838196zm-0.77941895 -3.9380493c-1.9315186 0 -3.6242065 0.38220215 -5.078064 1.146637c-1.4486084 0.75912476 -2.6583862 1.7792053 -3.6293945 3.0602722c-0.9657593 1.2757568 -1.6900635 2.7070618 -2.1729736 4.2938538c-0.48284912 1.5868225 -0.7243042 3.2078857 -0.7243042 4.86322c0 1.6500854 0.24145508 3.2685242 0.7243042 4.855316c0.48291016 1.5868225 1.2072144 3.020752 2.1729736 4.3017883c0.9710083 1.2810364 2.1807861 2.301117 3.6293945 3.0602722c1.4538574 0.75912476 3.1465454 1.1387024 5.078064 1.1387024c1.6113281 0 2.965454 -0.25042725 4.062439 -0.7512207c1.0969849 -0.500824 1.9840088 -1.1070862 2.6610718 -1.8187866c0.677063 -0.7116699 1.1940308 -1.3759155 1.5509644 -1.9927368l0.2913208 0l0 4.0803833l4.589905 0l0 -25.747406l-4.589905 0l0 4.080353l-0.2913208 0c-0.3569336 -0.6167908 -0.87390137 -1.2731323 -1.5509644 -1.9690247c-0.677063 -0.6958618 -1.5640869 -1.302124 -2.6610718 -1.8187561c-1.0969849 -0.5219116 -2.4511108 -0.78286743 -4.062439 -0.78286743z" fill-rule="evenodd"/><path fill="#ffffff" d="m12.8307085 413.43597l11.089093 -58.80316l33.632835 0l11.089092 58.80316z" fill-rule="evenodd"/><path fill="#ffffff" d="m13.964567 405.6092l53.543304 0l0 163.21259l-53.543304 0z" fill-rule="evenodd"/><path fill="#ffffff" d="m7.649606 413.43597l2.4395394 -7.811035l61.294147 0l2.4395447 7.811035z" fill-rule="evenodd"/><path fill="#ffffff" d="m7.649606 420.07114l66.17323 0l0 4.4094543l-66.17323 0z" fill-rule="evenodd"/><path fill="#ffffff" d="m7.649606 473.8139l66.17323 0l0 4.4094543l-66.17323 0z" fill-rule="evenodd"/><path fill="#ffffff" d="m21.066929 350.98032l39.33858 0l0 4.4094543l-39.33858 0z" fill-rule="evenodd"/><path fill="#005dab" d="m27.30315 388.15326l0 0c0 -7.4188843 6.0141907 -13.433075 13.433071 -13.433075l0 0c3.5626717 0 6.9794235 1.4152832 9.498615 3.9344788c2.519188 2.519165 3.9344559 5.9359436 3.9344559 9.498596l0 0c0 7.4188843 -6.0141907 13.433075 -13.433071 13.433075l0 0c-7.4188805 0 -13.433071 -6.0141907 -13.433071 -13.433075z" fill-rule="evenodd"/><path fill="#ffffff" d="m24.53643 334.58032l7.212599 0l0 18.204712l-7.212599 0z" fill-rule="evenodd"/><path fill="#ffffff" d="m37.129585 334.58032l7.212597 0l0 18.204712l-7.212597 0z" fill-rule="evenodd"/><path fill="#ffffff" d="m49.722782 334.58032l7.2126007 0l0 18.204712l-7.2126007 0z" fill-rule="evenodd"/><path fill="#ffffff" d="m906.27167 317.23648l46.078735 0l0 251.59055l-46.078735 0z" fill-rule="evenodd"/><path fill="#ffffff" d="m121.16929 552.5803l12.015755 -163.21259l12.015747 163.21259z" fill-rule="evenodd"/><path fill="#ffffff" d="m270.64178 568.8218l50.74173 -68.25195l74.73859 68.25195z" fill-rule="evenodd"/><path fill="#ffffff" d="m331.9882 568.8113l38.44095 -93.73227l38.44095 93.73227z" fill-rule="evenodd"/><path fill="#000000" fill-opacity="0.0" d="m179.79527 559.6667l0 -19.24414l0 0c0 -10.628174 6.951935 -19.24408 15.527557 -19.24408c8.575638 0 15.527557 8.615906 15.527557 19.24408l0 19.24414z" fill-rule="evenodd"/><path stroke="#ffffff" stroke-width="4.0" stroke-linejoin="round" stroke-linecap="butt" d="m179.79527 559.6667l0 -19.24414l0 0c0 -10.628174 6.951935 -19.24408 15.527557 -19.24408c8.575638 0 15.527557 8.615906 15.527557 19.24408l0 19.24414z" fill-rule="evenodd"/><path fill="#005dab" d="m365.15353 510.09442l0 0c0 -2.9136353 2.361969 -5.2755737 5.2756042 -5.2755737l0 0c1.3991699 0 2.7410278 0.55581665 3.7304077 1.545166c0.98934937 0.9893799 1.545166 2.3312378 1.545166 3.7304077l0 0c0 2.9136353 -2.3619385 5.2755737 -5.2755737 5.2755737l0 0c-2.9136353 0 -5.2756042 -2.3619385 -5.2756042 -5.2755737z" fill-rule="evenodd"/><path fill="#ffffff" d="m819.97504 547.84015l12.472473 0l0 20.97638l-12.472473 0z" fill-rule="evenodd"/><path fill="#ffffff" d="m833.6879 547.84015l12.472412 0l0 20.97638l-12.472412 0z" fill-rule="evenodd"/><path fill="#ffffff" d="m847.40076 547.84015l12.472473 0l0 20.97638l-12.472473 0z" fill-rule="evenodd"/><path fill="#ffffff" d="m861.11365 547.84015l12.472412 0l0 20.97638l-12.472412 0z" fill-rule="evenodd"/><path fill="#ffffff" d="m874.82654 547.84015l12.472412 0l0 20.97638l-12.472412 0z" fill-rule="evenodd"/><path fill="#ffffff" d="m888.53937 547.84015l12.472412 0l0 20.97638l-12.472412 0z" fill-rule="evenodd"/><path fill="#ffffff" d="m888.5386 533.1228l12.472473 0l0 12.472473l-12.472473 0z" fill-rule="evenodd"/><path fill="#ffffff" d="m874.8247 533.1228l12.472412 0l0 12.472473l-12.472412 0z" fill-rule="evenodd"/><path fill="#ffffff" d="m861.1108 533.1228l12.472412 0l0 12.472473l-12.472412 0z" fill-rule="evenodd"/><path fill="#ffffff" d="m847.39685 533.1228l12.472473 0l0 12.472473l-12.472473 0z" fill-rule="evenodd"/><path fill="#ffffff" d="m833.6829 533.1228l12.472473 0l0 12.472473l-12.472473 0z" fill-rule="evenodd"/><path fill="#ffffff" d="m819.96906 533.1228l12.472412 0l0 12.472473l-12.472412 0z" fill-rule="evenodd"/><path fill="#ffffff" d="m888.5386 518.40625l12.472473 0l0 12.472473l-12.472473 0z" fill-rule="evenodd"/><path fill="#ffffff" d="m874.8247 518.40625l12.472412 0l0 12.472473l-12.472412 0z" fill-rule="evenodd"/><path fill="#000000" fill-opacity="0.0" d="m179.79527 544.30444l31.055115 0l0 25.763794l-31.055115 0z" fill-rule="evenodd"/><path stroke="#ffffff" stroke-width="4.0" stroke-linejoin="round" stroke-linecap="butt" d="m179.79527 544.30444l31.055115 0l0 25.763794l-31.055115 0z" fill-rule="evenodd"/><path fill="#ffffff" d="m861.1108 518.40625l12.472412 0l0 12.472473l-12.472412 0z" fill-rule="evenodd"/><path fill="#ffffff" d="m847.39685 518.40625l12.472473 0l0 12.472473l-12.472473 0z" fill-rule="evenodd"/><path fill="#ffffff" d="m833.6829 518.40625l12.472473 0l0 12.472473l-12.472473 0z" fill-rule="evenodd"/><path fill="#ffffff" d="m819.96906 518.40625l12.472412 0l0 12.472473l-12.472412 0z" fill-rule="evenodd"/><path fill="#ffffff" d="m888.5386 503.68976l12.472473 0l0 12.472412l-12.472473 0z" fill-rule="evenodd"/><path fill="#ffffff" d="m874.8247 503.68976l12.472412 0l0 12.472412l-12.472412 0z" fill-rule="evenodd"/><path fill="#ffffff" d="m861.1108 503.68976l12.472412 0l0 12.472412l-12.472412 0z" fill-rule="evenodd"/><path fill="#ffffff" d="m847.39685 503.68976l12.472473 0l0 12.472412l-12.472473 0z" fill-rule="evenodd"/><path fill="#ffffff" d="m833.6829 503.68976l12.472473 0l0 12.472412l-12.472473 0z" fill-rule="evenodd"/><path fill="#ffffff" d="m819.96906 503.68976l12.472412 0l0 12.472412l-12.472412 0z" fill-rule="evenodd"/><path fill="#ffffff" d="m888.5438 488.9732l12.472473 0l0 12.472443l-12.472473 0z" fill-rule="evenodd"/><path fill="#ffffff" d="m874.82996 488.9732l12.472412 0l0 12.472443l-12.472412 0z" fill-rule="evenodd"/><path fill="#ffffff" d="m861.116 488.9732l12.472412 0l0 12.472443l-12.472412 0z" fill-rule="evenodd"/><path fill="#ffffff" d="m847.4021 488.9732l12.472473 0l0 12.472443l-12.472473 0z" fill-rule="evenodd"/><path fill="#ffffff" d="m833.6882 488.9732l12.472473 0l0 12.472443l-12.472473 0z" fill-rule="evenodd"/><path fill="#ffffff" d="m819.9743 488.9732l12.472412 0l0 12.472443l-12.472412 0z" fill-rule="evenodd"/><path fill="#000000" fill-opacity="0.0" d="m210.85039 559.6667l0 -19.24414l0 0c0 -10.628174 6.951935 -19.24408 15.527573 -19.24408c8.575623 0 15.527557 8.615906 15.527557 19.24408l0 19.24414z" fill-rule="evenodd"/><path stroke="#ffffff" stroke-width="4.0" stroke-linejoin="round" stroke-linecap="butt" d="m210.85039 559.6667l0 -19.24414l0 0c0 -10.628174 6.951935 -19.24408 15.527573 -19.24408c8.575623 0 15.527557 8.615906 15.527557 19.24408l0 19.24414z" fill-rule="evenodd"/><path fill="#000000" fill-opacity="0.0" d="m241.90552 559.6667l0 -19.24414l0 0c0 -10.628174 6.9519196 -19.24408 15.527557 -19.24408c8.575623 0 15.527557 8.615906 15.527557 19.24408l0 19.24414z" fill-rule="evenodd"/><path stroke="#ffffff" stroke-width="4.0" stroke-linejoin="round" stroke-linecap="butt" d="m241.90552 559.6667l0 -19.24414l0 0c0 -10.628174 6.9519196 -19.24408 15.527557 -19.24408c8.575623 0 15.527557 8.615906 15.527557 19.24408l0 19.24414z" fill-rule="evenodd"/><path fill="#ffffff" d="m711.6313 584.433l12.015747 -157.82678l12.015747 157.82678z" fill-rule="evenodd"/><path fill="#ffffff" d="m711.17456 521.29156l0 0c0 -6.8883667 5.5841064 -12.472443 12.472412 -12.472443l0 0c3.3079224 0 6.4803467 1.3140564 8.819336 3.6531067c2.3390503 2.3389893 3.6531372 5.5114136 3.6531372 8.819336l0 0c0 6.8883057 -5.5841064 12.472412 -12.472473 12.472412l0 0c-6.8883057 0 -12.472412 -5.5841064 -12.472412 -12.472412z" fill-rule="evenodd"/><path fill="#ffffff" d="m698.8438 538.15515l24.803162 -19.748047l24.803162 19.748047z" fill-rule="evenodd"/><path fill="#ffffff" d="m680.93567 536.68005l88.09454 0l0 32.15747l-88.09454 0z" fill-rule="evenodd"/><path fill="#ffffff" d="m396.12204 541.59607l185.13388 0l0 8.472412l-185.13388 0z" fill-rule="evenodd"/><path fill="#ffffff" d="m578.1588 568.21814l0 -29.41211l6.0446167 -5.065613l18.464539 22.876648l0 -30.230957l5.2283325 -4.0839844l27.123413 28.2677l0 -11.929138l1.7978516 -4.0839844l5.5564575 0l13.236206 18.955383l0 -24.51184l6.3726807 -6.0446167l48.85565 49.83728" fill-rule="evenodd"/><path fill="#ffffff" d="m440.7946 565.93066l-32.8425 -8.986877l-0.16275024 9.968506" fill-rule="evenodd"/><path fill="#ffffff" d="m542.68567 565.93066l32.84253 -8.986877l0.16271973 9.968506" fill-rule="evenodd"/><path fill="#000000" fill-opacity="0.0" d="m409.88187 597.9542l0 0c0 -48.50537 36.6492 -87.82678 81.85828 -87.82678l0 0c21.710175 0 42.531097 9.253174 57.882538 25.723877c15.351379 16.470703 23.975708 38.809753 23.975708 62.102905l0 0c0 48.50537 -36.64917 87.82678 -81.858246 87.82678l0 0c-45.209076 0 -81.85828 -39.32141 -81.85828 -87.82678z" fill-rule="evenodd"/><path stroke="#ffffff" stroke-width="4.0" stroke-linejoin="round" stroke-linecap="butt" d="m409.88187 597.9542l0 0c0 -48.50537 36.6492 -87.82678 81.85828 -87.82678l0 0c21.710175 0 42.531097 9.253174 57.882538 25.723877c15.351379 16.470703 23.975708 38.809753 23.975708 62.102905l0 0c0 48.50537 -36.64917 87.82678 -81.858246 87.82678l0 0c-45.209076 0 -81.85828 -39.32141 -81.85828 -87.82678z" fill-rule="evenodd"/><path fill="#000000" fill-opacity="0.0" d="m432.59314 599.2616l0 0c0 -48.50537 26.919342 -87.82675 60.126007 -87.82675l0 0c15.946381 0 31.239655 9.253143 42.515472 25.723846c11.275818 16.470703 17.610474 38.809814 17.610474 62.102905l0 0c0 48.50537 -26.919312 87.82678 -60.125946 87.82678l0 0c-33.206665 0 -60.126007 -39.32141 -60.126007 -87.82678z" fill-rule="evenodd"/><path stroke="#ffffff" stroke-width="4.0" stroke-linejoin="round" stroke-linecap="butt" d="m432.59314 599.2616l0 0c0 -48.50537 26.919342 -87.82675 60.126007 -87.82675l0 0c15.946381 0 31.239655 9.253143 42.515472 25.723846c11.275818 16.470703 17.610474 38.809814 17.610474 62.102905l0 0c0 48.50537 -26.919312 87.82678 -60.125946 87.82678l0 0c-33.206665 0 -60.126007 -39.32141 -60.126007 -87.82678z" fill-rule="evenodd"/><path fill="#ffffff" d="m792.3425 566.8973c-0.47857666 -1.548523 -1.9422607 -6.1661987 -2.871399 -9.291321c-0.9291382 -3.125122 -2.6189575 -6.5030518 -2.7034302 -9.45929c-0.08441162 -2.9562988 0.7891846 -5.9694214 2.1968384 -8.278259c1.4077148 -2.308838 4.081848 -4.1954956 6.2493896 -5.574768c2.1675415 -1.3792725 4.7852173 -2.4475098 6.7558594 -2.7008057c1.9707031 -0.2532959 4.251587 -0.14215088 5.0682983 1.1810913c0.8167114 1.3233032 0.057250977 3.9711304 -0.16802979 6.758545c-0.22528076 2.7874146 -0.6203003 6.643921 -1.1837158 9.965881c-0.5634155 3.3219604 -1.5773926 6.897217 -2.1968384 9.965881c-0.6194458 3.0686646 -2.1390991 6.982483 -1.5197144 8.446167c0.6194458 1.4636841 3.4624023 0.11071777 5.236267 0.33599854c1.7738037 0.22528076 4.224365 0.7904663 5.4067993 1.0157471c1.1824341 0.22528076 1.3499756 1.4623413 1.6876831 0.3359375c0.33770752 -1.1264038 0.42297363 -4.673218 0.338562 -7.0944824c-0.08441162 -2.4212646 -0.61987305 -4.9558105 -0.8451538 -7.4331055c-0.22528076 -2.477234 -0.50653076 -5.093994 -0.50653076 -7.43042c0 -2.3363647 0.28125 -4.532837 0.50653076 -6.5879517c0.22528076 -2.0551147 0.4510498 -3.8000488 0.8451538 -5.742737c0.39416504 -1.942688 0.9846802 -4.1115723 1.5197144 -5.913391c0.53497314 -1.8018799 1.5494385 -3.4055176 1.6902466 -4.897644c0.14086914 -1.4921265 -4.272461E-4 -3.0131226 -0.8450928 -4.0551147c-0.84472656 -1.0419922 -2.449707 -1.8307495 -4.2231445 -2.1968384c-1.7733765 -0.3661499 -4.5030518 -0.19732666 -6.4172974 0c-1.9142456 0.19726562 -3.5197144 0.7611084 -5.0682373 1.1837158c-1.548584 0.4225464 -2.7589722 0.7886963 -4.2230835 1.3516846c-1.4641724 0.5629883 -3.1255493 1.1815796 -4.5617065 2.026245c-1.4361572 0.84472656 -2.1972656 1.324585 -4.0551147 3.0419922c-1.8578491 1.7174072 -4.6990356 5.629944 -7.091858 7.262451c-2.3928223 1.6325684 -5.9698486 1.1535645 -7.2650757 2.532837c-1.2952881 1.3792725 -0.8727417 3.968933 -0.5065918 5.742798c0.3661499 1.7738037 2.1968384 3.408142 2.7034302 4.9002686c0.50653076 1.4921265 0.36437988 2.1661987 0.3359375 4.05249c-0.028442383 1.8862305 -0.19726562 5.1815186 -0.50653076 7.2650757c-0.30932617 2.0835571 -0.7861328 3.7161255 -1.3491211 5.236206c-0.5629883 1.5201416 -1.6907349 3.2371216 -2.0288696 3.8845215" fill-rule="evenodd"/><path fill="#005dab" d="m912.1982 329.1994l0 0c0 -1.4611511 1.1845093 -2.6456604 2.64563 -2.6456604l0 0c0.7017212 0 1.3746338 0.27874756 1.8707886 0.77490234c0.4961548 0.4961548 0.77490234 1.1690979 0.77490234 1.870758l0 0c0 1.4611816 -1.1845093 2.645691 -2.645691 2.645691l0 0c-1.4611206 0 -2.64563 -1.1845093 -2.64563 -2.645691z" fill-rule="evenodd"/><path fill="#005dab" d="m921.78125 329.1994l0 0c0 -1.4611511 1.1845093 -2.6456604 2.64563 -2.6456604l0 0c0.7017212 0 1.3746338 0.27874756 1.8707886 0.77490234c0.4961548 0.4961548 0.77490234 1.1690979 0.77490234 1.870758l0 0c0 1.4611816 -1.1845093 2.645691 -2.645691 2.645691l0 0c-1.4611206 0 -2.64563 -1.1845093 -2.64563 -2.645691z" fill-rule="evenodd"/><path fill="#005dab" d="m931.3643 329.1994l0 0c0 -1.4611511 1.1845093 -2.6456604 2.64563 -2.6456604l0 0c0.7017212 0 1.3746338 0.27874756 1.8707886 0.77490234c0.4961548 0.4961548 0.77490234 1.1690979 0.77490234 1.870758l0 0c0 1.4611816 -1.1845093 2.645691 -2.645691 2.645691l0 0c-1.4611206 0 -2.64563 -1.1845093 -2.64563 -2.645691z" fill-rule="evenodd"/><path fill="#005dab" d="m940.9474 329.1994l0 0c0 -1.4611511 1.1845093 -2.6456604 2.64563 -2.6456604l0 0c0.7017212 0 1.3746338 0.27874756 1.8707886 0.77490234c0.4961548 0.4961548 0.77490234 1.1690979 0.77490234 1.870758l0 0c0 1.4611816 -1.1845093 2.645691 -2.645691 2.645691l0 0c-1.4611206 0 -2.64563 -1.1845093 -2.64563 -2.645691z" fill-rule="evenodd"/><path fill="#005dab" d="m912.1982 337.19415l0 0c0 -1.4611511 1.1845093 -2.6456604 2.64563 -2.6456604l0 0c0.7017212 0 1.3746338 0.27874756 1.8707886 0.77490234c0.4961548 0.4961548 0.77490234 1.1690979 0.77490234 1.870758l0 0c0 1.4611816 -1.1845093 2.645691 -2.645691 2.645691l0 0c-1.4611206 0 -2.64563 -1.1845093 -2.64563 -2.645691z" fill-rule="evenodd"/><path fill="#005dab" d="m921.78125 337.19415l0 0c0 -1.4611511 1.1845093 -2.6456604 2.64563 -2.6456604l0 0c0.7017212 0 1.3746338 0.27874756 1.8707886 0.77490234c0.4961548 0.4961548 0.77490234 1.1690979 0.77490234 1.870758l0 0c0 1.4611816 -1.1845093 2.645691 -2.645691 2.645691l0 0c-1.4611206 0 -2.64563 -1.1845093 -2.64563 -2.645691z" fill-rule="evenodd"/><path fill="#005dab" d="m931.3643 337.19415l0 0c0 -1.4611511 1.1845093 -2.6456604 2.64563 -2.6456604l0 0c0.7017212 0 1.3746338 0.27874756 1.8707886 0.77490234c0.4961548 0.4961548 0.77490234 1.1690979 0.77490234 1.870758l0 0c0 1.4611816 -1.1845093 2.645691 -2.645691 2.645691l0 0c-1.4611206 0 -2.64563 -1.1845093 -2.64563 -2.645691z" fill-rule="evenodd"/><path fill="#005dab" d="m940.9474 337.19415l0 0c0 -1.4611511 1.1845093 -2.6456604 2.64563 -2.6456604l0 0c0.7017212 0 1.3746338 0.27874756 1.8707886 0.77490234c0.4961548 0.4961548 0.77490234 1.1690979 0.77490234 1.870758l0 0c0 1.4611816 -1.1845093 2.645691 -2.645691 2.645691l0 0c-1.4611206 0 -2.64563 -1.1845093 -2.64563 -2.645691z" fill-rule="evenodd"/><path fill="#005dab" d="m912.1982 345.1889l0 0c0 -1.4611511 1.1845093 -2.6456604 2.64563 -2.6456604l0 0c0.7017212 0 1.3746338 0.27874756 1.8707886 0.77490234c0.4961548 0.4961548 0.77490234 1.1690979 0.77490234 1.870758l0 0c0 1.4611816 -1.1845093 2.645691 -2.645691 2.645691l0 0c-1.4611206 0 -2.64563 -1.1845093 -2.64563 -2.645691z" fill-rule="evenodd"/><path fill="#005dab" d="m921.78125 345.1889l0 0c0 -1.4611511 1.1845093 -2.6456604 2.64563 -2.6456604l0 0c0.7017212 0 1.3746338 0.27874756 1.8707886 0.77490234c0.4961548 0.4961548 0.77490234 1.1690979 0.77490234 1.870758l0 0c0 1.4611816 -1.1845093 2.645691 -2.645691 2.645691l0 0c-1.4611206 0 -2.64563 -1.1845093 -2.64563 -2.645691z" fill-rule="evenodd"/><path fill="#005dab" d="m931.3643 345.1889l0 0c0 -1.4611511 1.1845093 -2.6456604 2.64563 -2.6456604l0 0c0.7017212 0 1.3746338 0.27874756 1.8707886 0.77490234c0.4961548 0.4961548 0.77490234 1.1690979 0.77490234 1.870758l0 0c0 1.4611816 -1.1845093 2.645691 -2.645691 2.645691l0 0c-1.4611206 0 -2.64563 -1.1845093 -2.64563 -2.645691z" fill-rule="evenodd"/><path fill="#005dab" d="m940.9474 345.1889l0 0c0 -1.4611511 1.1845093 -2.6456604 2.64563 -2.6456604l0 0c0.7017212 0 1.3746338 0.27874756 1.8707886 0.77490234c0.4961548 0.4961548 0.77490234 1.1690979 0.77490234 1.870758l0 0c0 1.4611816 -1.1845093 2.645691 -2.645691 2.645691l0 0c-1.4611206 0 -2.64563 -1.1845093 -2.64563 -2.645691z" fill-rule="evenodd"/><path fill="#005dab" d="m912.19684 353.18365l0 0c0 -1.4611511 1.1845093 -2.6456604 2.645691 -2.6456604l0 0c0.70166016 0 1.3745728 0.27874756 1.8707886 0.77490234c0.4961548 0.4961548 0.7748413 1.1690979 0.7748413 1.870758l0 0c0 1.4611816 -1.1844482 2.645691 -2.64563 2.645691l0 0c-1.4611816 0 -2.645691 -1.1845093 -2.645691 -2.645691z" fill-rule="evenodd"/><path fill="#005dab" d="m921.7799 353.18365l0 0c0 -1.4611511 1.1845093 -2.6456604 2.645691 -2.6456604l0 0c0.70166016 0 1.3745728 0.27874756 1.8707886 0.77490234c0.4961548 0.4961548 0.7748413 1.1690979 0.7748413 1.870758l0 0c0 1.4611816 -1.1844482 2.645691 -2.64563 2.645691l0 0c-1.4611816 0 -2.645691 -1.1845093 -2.645691 -2.645691z" fill-rule="evenodd"/><path fill="#005dab" d="m931.363 353.18365l0 0c0 -1.4611511 1.1845093 -2.6456604 2.645691 -2.6456604l0 0c0.70166016 0 1.3745728 0.27874756 1.8707275 0.77490234c0.49621582 0.4961548 0.77490234 1.1690979 0.77490234 1.870758l0 0c0 1.4611816 -1.1845093 2.645691 -2.64563 2.645691l0 0c-1.4611816 0 -2.645691 -1.1845093 -2.645691 -2.645691z" fill-rule="evenodd"/><path fill="#005dab" d="m940.94604 353.18365l0 0c0 -1.4611511 1.1845093 -2.6456604 2.645691 -2.6456604l0 0c0.70166016 0 1.3745728 0.27874756 1.8707275 0.77490234c0.49621582 0.4961548 0.77490234 1.1690979 0.77490234 1.870758l0 0c0 1.4611816 -1.1845093 2.645691 -2.64563 2.645691l0 0c-1.4611816 0 -2.645691 -1.1845093 -2.645691 -2.645691z" fill-rule="evenodd"/><path fill="#005dab" d="m912.19684 361.1784l0 0c0 -1.4611511 1.1845093 -2.6456604 2.645691 -2.6456604l0 0c0.70166016 0 1.3745728 0.27874756 1.8707886 0.77490234c0.4961548 0.4961548 0.7748413 1.1690979 0.7748413 1.870758l0 0c0 1.4611816 -1.1844482 2.645691 -2.64563 2.645691l0 0c-1.4611816 0 -2.645691 -1.1845093 -2.645691 -2.645691z" fill-rule="evenodd"/><path fill="#005dab" d="m921.7799 361.1784l0 0c0 -1.4611511 1.1845093 -2.6456604 2.645691 -2.6456604l0 0c0.70166016 0 1.3745728 0.27874756 1.8707886 0.77490234c0.4961548 0.4961548 0.7748413 1.1690979 0.7748413 1.870758l0 0c0 1.4611816 -1.1844482 2.645691 -2.64563 2.645691l0 0c-1.4611816 0 -2.645691 -1.1845093 -2.645691 -2.645691z" fill-rule="evenodd"/><path fill="#005dab" d="m931.363 361.1784l0 0c0 -1.4611511 1.1845093 -2.6456604 2.645691 -2.6456604l0 0c0.70166016 0 1.3745728 0.27874756 1.8707275 0.77490234c0.49621582 0.4961548 0.77490234 1.1690979 0.77490234 1.870758l0 0c0 1.4611816 -1.1845093 2.645691 -2.64563 2.645691l0 0c-1.4611816 0 -2.645691 -1.1845093 -2.645691 -2.645691z" fill-rule="evenodd"/><path fill="#005dab" d="m940.94604 361.1784l0 0c0 -1.4611511 1.1845093 -2.6456604 2.645691 -2.6456604l0 0c0.70166016 0 1.3745728 0.27874756 1.8707275 0.77490234c0.49621582 0.4961548 0.77490234 1.1690979 0.77490234 1.870758l0 0c0 1.4611816 -1.1845093 2.645691 -2.64563 2.645691l0 0c-1.4611816 0 -2.645691 -1.1845093 -2.645691 -2.645691z" fill-rule="evenodd"/><path fill="#005dab" d="m912.19684 369.17316l0 0c0 -1.4611511 1.1845093 -2.6456604 2.645691 -2.6456604l0 0c0.70166016 0 1.3745728 0.27874756 1.8707886 0.77490234c0.4961548 0.4961548 0.7748413 1.1690979 0.7748413 1.870758l0 0c0 1.4611816 -1.1844482 2.645691 -2.64563 2.645691l0 0c-1.4611816 0 -2.645691 -1.1845093 -2.645691 -2.645691z" fill-rule="evenodd"/><path fill="#005dab" d="m181.77953 541.50134l27.086609 0l0 31.370056l-27.086609 0z" fill-rule="evenodd"/><path fill="#005dab" d="m921.7799 369.17316l0 0c0 -1.4611511 1.1845093 -2.6456604 2.645691 -2.6456604l0 0c0.70166016 0 1.3745728 0.27874756 1.8707886 0.77490234c0.4961548 0.4961548 0.7748413 1.1690979 0.7748413 1.870758l0 0c0 1.4611816 -1.1844482 2.645691 -2.64563 2.645691l0 0c-1.4611816 0 -2.645691 -1.1845093 -2.645691 -2.645691z" fill-rule="evenodd"/><path fill="#005dab" d="m931.363 369.17316l0 0c0 -1.4611511 1.1845093 -2.6456604 2.645691 -2.6456604l0 0c0.70166016 0 1.3745728 0.27874756 1.8707275 0.77490234c0.49621582 0.4961548 0.77490234 1.1690979 0.77490234 1.870758l0 0c0 1.4611816 -1.1845093 2.645691 -2.64563 2.645691l0 0c-1.4611816 0 -2.645691 -1.1845093 -2.645691 -2.645691z" fill-rule="evenodd"/><path fill="#005dab" d="m940.94604 369.17316l0 0c0 -1.4611511 1.1845093 -2.6456604 2.645691 -2.6456604l0 0c0.70166016 0 1.3745728 0.27874756 1.8707275 0.77490234c0.49621582 0.4961548 0.77490234 1.1690979 0.77490234 1.870758l0 0c0 1.4611816 -1.1845093 2.645691 -2.64563 2.645691l0 0c-1.4611816 0 -2.645691 -1.1845093 -2.645691 -2.645691z" fill-rule="evenodd"/><path fill="#005dab" d="m912.3858 377.1679l0 0c0 -1.4611511 1.1845093 -2.6456604 2.645691 -2.6456604l0 0c0.70166016 0 1.3746338 0.27874756 1.8707886 0.77490234c0.4961548 0.4961548 0.77490234 1.1690979 0.77490234 1.870758l0 0c0 1.4611816 -1.1845093 2.645691 -2.645691 2.645691l0 0c-1.4611816 0 -2.645691 -1.1845093 -2.645691 -2.645691z" fill-rule="evenodd"/><path fill="#ffffff" d="m51.57874 568.82495l81.60631 -46.362244l81.60629 46.362244z" fill-rule="evenodd"/><path fill="#005dab" d="m921.9689 377.1679l0 0c0 -1.4611511 1.1845093 -2.6456604 2.645691 -2.6456604l0 0c0.70166016 0 1.3746338 0.27874756 1.8707886 0.77490234c0.4961548 0.4961548 0.77490234 1.1690979 0.77490234 1.870758l0 0c0 1.4611816 -1.1845093 2.645691 -2.645691 2.645691l0 0c-1.4611816 0 -2.645691 -1.1845093 -2.645691 -2.645691z" fill-rule="evenodd"/><path fill="#005dab" d="m931.55194 377.1679l0 0c0 -1.4611511 1.1845093 -2.6456604 2.645691 -2.6456604l0 0c0.70166016 0 1.3746338 0.27874756 1.8707886 0.77490234c0.4961548 0.4961548 0.77490234 1.1690979 0.77490234 1.870758l0 0c0 1.4611816 -1.1845093 2.645691 -2.645691 2.645691l0 0c-1.4611816 0 -2.645691 -1.1845093 -2.645691 -2.645691z" fill-rule="evenodd"/><path fill="#005dab" d="m941.135 377.1679l0 0c0 -1.4611511 1.1845093 -2.6456604 2.645691 -2.6456604l0 0c0.70166016 0 1.3746338 0.27874756 1.8707886 0.77490234c0.4961548 0.4961548 0.77490234 1.1690979 0.77490234 1.870758l0 0c0 1.4611816 -1.1845093 2.645691 -2.645691 2.645691l0 0c-1.4611816 0 -2.645691 -1.1845093 -2.645691 -2.645691z" fill-rule="evenodd"/><path fill="#000000" fill-opacity="0.0" d="m210.85039 544.30444l31.05513 0l0 25.763794l-31.05513 0z" fill-rule="evenodd"/><path stroke="#ffffff" stroke-width="4.0" stroke-linejoin="round" stroke-linecap="butt" d="m210.85039 544.30444l31.05513 0l0 25.763794l-31.05513 0z" fill-rule="evenodd"/><path fill="#005dab" d="m212.83464 541.50134l27.086624 0l0 31.370056l-27.086624 0z" fill-rule="evenodd"/><path fill="#000000" fill-opacity="0.0" d="m241.90552 544.30444l31.055115 0l0 25.763794l-31.055115 0z" fill-rule="evenodd"/><path stroke="#ffffff" stroke-width="4.0" stroke-linejoin="round" stroke-linecap="butt" d="m241.90552 544.30444l31.055115 0l0 25.763794l-31.055115 0z" fill-rule="evenodd"/><path fill="#005dab" d="m243.88977 541.50134l27.086609 0l0 31.370056l-27.086609 0z" fill-rule="evenodd"/><path fill="#46aa42" d="m-8.9921255 565.81366l977.98425 0l0 18.204712l-977.98425 0z" fill-rule="evenodd"/></g></svg>