<?xml version="1.0" encoding="UTF-8" standalone="no"?>
<!-- Created with Inkscape (http://www.inkscape.org/) -->

<svg
   width="132.29167mm"
   height="40.006573mm"
   viewBox="0 0 132.29167 40.006573"
   version="1.1"
   id="svg1"
   inkscape:version="1.4 (86a8ad7, 2024-10-11)"
   sodipodi:docname="Daimler_Motors_Company_1891.svg"
   xmlns:inkscape="http://www.inkscape.org/namespaces/inkscape"
   xmlns:sodipodi="http://sodipodi.sourceforge.net/DTD/sodipodi-0.dtd"
   xmlns="http://www.w3.org/2000/svg"
   xmlns:svg="http://www.w3.org/2000/svg">
  <sodipodi:namedview
     id="namedview1"
     pagecolor="#ffffff"
     bordercolor="#000000"
     borderopacity="0.25"
     inkscape:showpageshadow="2"
     inkscape:pageopacity="0.0"
     inkscape:pagecheckerboard="0"
     inkscape:deskcolor="#d1d1d1"
     inkscape:document-units="mm"
     inkscape:zoom="2.7901515"
     inkscape:cx="214.14608"
     inkscape:cy="90.317676"
     inkscape:window-width="1920"
     inkscape:window-height="1001"
     inkscape:window-x="-9"
     inkscape:window-y="-9"
     inkscape:window-maximized="1"
     inkscape:current-layer="layer1" />
  <defs
     id="defs1" />
  <g
     inkscape:label="Layer 1"
     inkscape:groupmode="layer"
     id="layer1"
     transform="translate(24.472986,25.511872)">
    <path
       style="fill:#3b3128;fill-opacity:1;fill-rule:nonzero;stroke:none;stroke-width:1.23628px;stroke-linecap:butt;stroke-linejoin:miter;stroke-opacity:1"
       d="m -8.1740211,-13.23491 c 0,0 -2.0818569,-0.298111 -1.6845058,-0.558004 1.4969205,-0.720785 3.0813865,-1.255399 4.6940795,-1.806692 1.4170896,-0.484426 3.1275188,-1.5217 4.2763885,-1.13744 0.65662781,0.219621 -1.7011542,2.115662 -1.7011542,2.115662 L -2.9376938,7.8910161 c 0,0 12.8428189,-4.4255667 12.8428189,-16.8345098 0,-12.4089433 -11.5577249,-14.4748683 -15.8799748,-14.4748683 -4.2608943,0 -13.9709053,2.760132 -13.9709053,10.309629 0,7.5494962 6.768512,11.1940804 15.0122169,8.2437027 C 3.3101621,-7.8154076 34.115579,-23.348281 65.70198,-23.348281 c 31.586401,0 42.1167,9.372046 42.1167,19.6804886 0,10.3084415 -8.222206,18.1624924 -27.857334,18.1624924 -17.242096,0 -20.862324,-3.804306 -20.862324,-3.804306 0,0 6.504138,2.331672 21.107765,2.331672 14.603624,0 25.280223,-5.5223801 25.280223,-16.0762613 0,-10.5538807 -13.74459,-17.7943337 -39.638414,-17.7943337 -25.893824,0 -42.092801,6.626855 -47.247021,8.222209 -5.154221,1.595354 -23.6848738,10.9220399 -30.802609,10.9220399 -7.117731,0 -12.271952,-3.804306 -12.271952,-10.4311609 0,-6.626856 6.381412,-13.376431 18.2852116,-13.376431 11.9037947,0 20.0032854,7.363173 20.0032854,15.339943 0,7.9767705 -9.0812458,21.844079 -22.7031186,21.844079 -1.5624394,0 1.2271961,-2.307423 1.2271961,-2.307423 z"
       id="path14632"
       sodipodi:nodetypes="ccssccszssssscssssssssscc" />
    <path
       style="fill:#3b3128;fill-opacity:1;fill-rule:nonzero;stroke:none;stroke-width:1.85443;stroke-linecap:butt;stroke-linejoin:miter;stroke-miterlimit:4;stroke-dasharray:none;stroke-dashoffset:0;stroke-opacity:1"
       d="m 15.673593,1.7387834 c 0,0 -0.272084,-4.8919869 6.096002,-4.8919869 0.849087,0 2.820213,0.2386332 2.820213,0.2386332 v -2.4643541 c -0.703162,-1.636212 -1.35394,-1.9395187 -2.700894,-1.9395187 -3.320178,0 -1.777962,3.4276459 -3.796276,3.4276459 -0.97292,0 -1.247569,-0.8128904 -1.247569,-1.2391481 0,-0.5649378 1.159925,-3.6636871 5.629581,-3.6636871 4.400576,0 5.412642,2.0850147 5.412642,2.7117446 v 9.2850132 c 0.368713,0.5332484 0.51653,1.0412519 2.104313,1.7138225 v 0.4772667 h -4.924526 c -0.299232,-0.226919 -0.618892,-0.4742651 -0.954537,-0.7375942 -0.832826,0.9432404 -2.152834,0.7375942 -3.395103,0.7375942 -5.06334,0 -5.043846,-3.6554312 -5.043846,-3.6554312 z m 8.916215,-0.4881141 c 0,-1.24740498 0.135178,-3.4276445 -2.353791,-3.4276445 -1.276875,0 -2.831063,1.2865794 -2.831063,3.1781644 0,1.9094152 1.51519,2.7008977 3.069696,2.7008977 1.624813,0 2.115158,-0.3068107 2.115158,-2.4514176 z"
       id="path14659"
       sodipodi:nodetypes="cscccsssccccccsccssss" />
    <path
       style="fill:#3b3128;fill-opacity:1;fill-rule:nonzero;stroke:none;stroke-width:1.85443;stroke-linecap:butt;stroke-linejoin:miter;stroke-miterlimit:4;stroke-dasharray:none;stroke-dashoffset:0;stroke-opacity:1"
       d="m 33.5324,3.5103921 c 0,0 0,-10.0531399 0,-10.0531399 -0.942627,-1.0691957 -1.884964,-0.903144 -1.884964,-1.4615295 0,-0.1532652 0.06719,-0.4780705 0.245871,-0.4780705 h 4.671431 c 0.264188,0 0.464407,0.188632 0.464407,0.4917289 V 3.1574313 c 0,0.6593557 1.339637,2.2925608 1.339637,2.2925608 H 32.486121 L 32.074374,4.9582619 c 0,0 1.458049,-0.9430955 1.458049,-1.4478698 z"
       id="path14661"
       sodipodi:nodetypes="ccscccccccs" />
    <circle
       style="fill:#3b3128;fill-opacity:1;fill-rule:nonzero;stroke:none;stroke-width:1.85443;stroke-linecap:butt;stroke-linejoin:miter;stroke-miterlimit:4;stroke-dasharray:none;stroke-dashoffset:0;stroke-opacity:1"
       id="path14663"
       cx="35.217949"
       cy="-12.456307"
       r="1.8576453" />
    <path
       style="fill:#3b3128;fill-opacity:1;fill-rule:nonzero;stroke:none;stroke-width:1.85443;stroke-linecap:butt;stroke-linejoin:miter;stroke-miterlimit:4;stroke-dasharray:none;stroke-dashoffset:0;stroke-opacity:1"
       d="m 75.096498,-0.74596833 c 0,-3.78157067 2.842207,-7.92231107 7.976948,-7.92231107 1.236896,0 2.496034,0.1016706 3.56262,0.8245546 1.098424,0.7444606 2.064956,1.8788158 2.064956,2.180461 0,1.5418151 -9.61605,5.06754636 -9.61605,5.06754636 0.522646,2.37075584 1.717919,4.38459004 4.097747,4.38459004 3.246791,0 3.611747,-3.1689254 3.879205,-3.1689254 0.761672,0 1.147365,1.5751713 1.147365,2.0488742 -1.260525,1.4003768 -3.074106,2.8137862 -6.091983,2.8137862 -3.68949,0 -7.020808,-2.0134472 -7.020808,-6.22857593 z m 9.416816,-3.72741037 c 0,-2.0429709 -1.205814,-2.7743487 -2.368688,-2.7743487 -2.391228,0 -3.332836,3.235581 -3.332836,5.2870654 z"
       id="path14669"
       sodipodi:nodetypes="cssccsscsscscc" />
    <path
       style="fill:#3b3128;fill-opacity:1;fill-rule:nonzero;stroke:none;stroke-width:1.85443;stroke-linecap:butt;stroke-linejoin:miter;stroke-miterlimit:4;stroke-dasharray:none;stroke-dashoffset:0;stroke-opacity:1"
       d="M 43.140922,3.5177627 V -6.7588628 c -0.560709,-0.5725561 -1.622627,-0.8196008 -1.622627,-1.2362862 0,-0.5098079 0.231807,-0.4636083 0.231807,-0.4636083 h 4.4429 c 0,0 0.69541,0.5065942 0.69541,1.4680893 0,0 2.358885,-1.7385268 4.481538,-1.7385268 1.781018,0 3.612271,1.7385268 3.612271,1.7385268 1.388119,-0.8597825 3.597823,-1.7385268 4.694023,-1.7385268 3.452441,0 4.095196,2.704375 4.095196,2.704375 v 9.5425811 c 0,0 1.429458,1.9703305 1.429458,1.9703305 h -6.4314 L 58.59451,5.1790196 c 0,0 1.699893,-1.1590181 1.699893,-1.1590181 v -9.5812148 c 0,0 -0.94822,-0.9658482 -2.260088,-0.9658482 -2.041832,0 -2.91686,0.9658482 -2.91686,0.9658482 v 9.5812148 c 0,0 1.352187,1.4680894 1.352187,1.4680894 H 50.424585 L 50.172313,5.1403858 51.601766,3.7881983 c 0.02243,-2.6174964 0,-8.9437549 0,-8.9437549 0,0 -0.7562,-1.3715044 -2.260083,-1.3715044 -1.203908,0 -2.685059,0.9658481 -2.685059,0.9658481 V 4.020002 l 0.925605,1.4680894 c -2.259223,0 -3.74606,0 -5.848841,0 L 41.521066,5.1875886 Z"
       id="path14675"
       sodipodi:nodetypes="ccscccscscccccccscccccccscccccc" />
    <path
       style="fill:#3b3128;fill-opacity:1;fill-rule:nonzero;stroke:none;stroke-width:1.85443;stroke-linecap:butt;stroke-linejoin:miter;stroke-miterlimit:4;stroke-dasharray:none;stroke-dashoffset:0;stroke-opacity:1"
       d="m 68.543934,4.10385 v -17.647631 c -0.588015,-0.363349 -1.404282,-0.422359 -2.13083,-0.601003 l 5.873438,-3.059652 V 4.10385 l 2.103509,1.4478711 H 66.65897 Z"
       id="path14687"
       sodipodi:nodetypes="cccccccc" />
    <path
       style="fill:#3b3128;fill-opacity:1;fill-rule:nonzero;stroke:none;stroke-width:1.85443;stroke-linecap:butt;stroke-linejoin:miter;stroke-miterlimit:4;stroke-dasharray:none;stroke-dashoffset:0;stroke-opacity:1"
       d="M 89.915275,5.1232552 91.800239,3.784657 c 0,0 0,-10.2990035 0,-10.2990035 0,-0.8146197 -1.884964,-1.1736334 -1.884964,-1.9396013 0,0 5.163164,0 5.163164,0 0,0 0.507816,1.2020057 0.819551,1.2020057 0.287177,0 1.647256,-1.4478697 3.53772,-1.4478697 2.11405,0 2.44499,1.3796959 2.44499,1.8166673 0,0.2815414 -0.0257,1.5981211 -1.50251,1.5981211 -1.134537,0 -2.283645,-0.9834596 -3.182583,-0.9834596 -0.564195,0 -1.898622,0.9834596 -1.898622,0.9834596 V 3.784657 l 2.13083,1.6937364 h -7.266674 z"
       id="path14689"
       sodipodi:nodetypes="ccsscsssssccccc" />
  </g>
</svg>
