<svg width="1681" height="1276" xmlns="http://www.w3.org/2000/svg" xmlns:xlink="http://www.w3.org/1999/xlink" overflow="hidden"><defs><clipPath id="clip0"><rect x="1539" y="549" width="1681" height="1276"/></clipPath><clipPath id="clip1"><rect x="1538" y="853" width="1681" height="668"/></clipPath><clipPath id="clip2"><rect x="1538" y="853" width="1681" height="668"/></clipPath><clipPath id="clip3"><rect x="1538" y="853" width="1681" height="668"/></clipPath></defs><g clip-path="url(#clip0)" transform="translate(-1539 -549)"><path d="M1742 1187C1742 834.642 2027.87 549 2380.5 549 2733.13 549 3019 834.642 3019 1187 3019 1539.36 2733.13 1825 2380.5 1825 2027.87 1825 1742 1539.36 1742 1187Z" fill="#FFFFFF" fill-rule="evenodd"/><path d="M1779 1186C1779 854.077 2048.3 585 2380.5 585 2712.7 585 2982 854.077 2982 1186 2982 1517.92 2712.7 1787 2380.5 1787 2048.3 1787 1779 1517.92 1779 1186Z" fill="#B5000B" fill-rule="evenodd"/><path d="M1540 946.599C1540 905.952 1572.95 873 1613.6 873L3146.4 873C3187.05 873 3220 905.952 3220 946.599L3220 1425.4C3220 1466.05 3187.05 1499 3146.4 1499L1613.6 1499C1572.95 1499 1540 1466.05 1540 1425.4Z" fill="#FFFFFF" fill-rule="evenodd"/><path d="M1579 939.468C1579 923.746 1591.75 911 1607.47 911L3153.53 911C3169.25 911 3182 923.746 3182 939.468L3182 1432.53C3182 1448.25 3169.25 1461 3153.53 1461L1607.47 1461C1591.75 1461 1579 1448.25 1579 1432.53Z" fill="#04256B" fill-rule="evenodd"/><path d="M2029.05 1101.22 2013.53 1217.87 2044.57 1217.87ZM1727.44 1014.48 1727.44 1356.52 1801.13 1356.52 1801.13 1014.48ZM2156.37 955.003 2375.86 955.003 2375.86 1089.6 2307.14 1034.45 2307.14 1359.25 2335.48 1416 2196.74 1416 2225.08 1359.25 2225.08 1034.45 2156.37 1089.6ZM1971.71 955.003 1992.98 955.003 2028.12 955.003 2029.97 955.003 2065.12 955.003 2086.39 955.003 2148.45 1351.61 2175.43 1416 2158.53 1416 2102.11 1416 2037.88 1416 2066.33 1362.3 2066.33 1362.3 2061.85 1330.58 1996.24 1330.58 1991.77 1362.3 1991.77 1362.3 1991.77 1362.3 2020.22 1416 1955.98 1416 1899.57 1416 1880.81 1416 1910.74 1344.57ZM1616 955.002 1645.26 955.002 1711.51 955.002 1750.68 955.002 1750.68 955.002 1805.61 955.002C1848.53 955.002 1883.32 989.83 1883.32 1032.79L1883.32 1338.21C1883.32 1381.17 1848.53 1416 1805.61 1416L1741.46 1416 1741.45 1416 1711.51 1416 1645.26 1416 1616 1416 1645.26 1355.76 1645.26 1015.24ZM2624.57 955.001 2748.5 955.001 2727.56 994.764 2727.56 1291.15 2729.65 1301.48C2733.67 1311 2743.09 1317.69 2754.07 1317.69L2754.07 1317.69C2768.71 1317.69 2780.58 1305.81 2780.58 1291.15 2779.45 1233.63 2780.37 1052.64 2780.58 994.764L2759.64 955.001 2883.57 955.001 2862.63 994.764 2862.63 1303.75 2862.63 1303.75 2862.63 1307.32C2862.63 1367.34 2814.03 1416 2754.07 1416L2754.07 1416C2694.11 1416 2645.51 1367.34 2645.51 1307.32 2645.51 1203.13 2645.51 1098.95 2645.51 994.764ZM2607.3 955 2607.3 1169.61 2502.92 1048.47C2494.96 1037.52 2476.81 1048.31 2484.36 1063.54L2607.16 1252.84C2631.17 1289.07 2639.81 1351.33 2594.1 1386.38 2527.49 1440.18 2479.78 1407.63 2440.35 1370.34L2392.18 1416 2392.18 1201.39 2493.66 1297.58C2508.68 1313.49 2523.26 1298.79 2517.46 1286.76L2404.24 1112.23C2375.36 1063.71 2386.65 1014.01 2423.94 980.87 2453.32 956.528 2503.96 938.102 2565.25 985.922ZM2904.81 955 2963.98 955 3035.35 1173.71 3035.35 1007.61 3007.76 955.001 3145 955.001 3117.41 1007.61 3117.41 1416 3055.24 1415.99 2983.87 1197.28 2983.87 1363.39 3011.46 1416 2874.22 1416 2901.81 1363.39 2901.81 955.002 2904.81 955.002Z" fill="#FFFFFF" fill-rule="evenodd"/><g clip-path="url(#clip1)"><g clip-path="url(#clip2)"><g clip-path="url(#clip3)"></g></g></g></g></svg>