<?xml version="1.0" encoding="UTF-8" standalone="no"?>
<!-- Created with Inkscape (http://www.inkscape.org/) -->
<svg
   xmlns:dc="http://purl.org/dc/elements/1.1/"
   xmlns:cc="http://web.resource.org/cc/"
   xmlns:rdf="http://www.w3.org/1999/02/22-rdf-syntax-ns#"
   xmlns:svg="http://www.w3.org/2000/svg"
   xmlns="http://www.w3.org/2000/svg"
   xmlns:sodipodi="http://sodipodi.sourceforge.net/DTD/sodipodi-0.dtd"
   xmlns:inkscape="http://www.inkscape.org/namespaces/inkscape"
   version="1.0"
   width="200"
   height="135"
   id="svg2211"
   sodipodi:version="0.32"
   inkscape:version="0.45.1"
   sodipodi:docname="Delage logo.svg"
   inkscape:output_extension="org.inkscape.output.svg.inkscape"
   sodipodi:docbase="C:\Documents and Settings\PC User\My Documents\My Pictures">
  <metadata
     id="metadata9">
    <rdf:RDF>
      <cc:Work
         rdf:about="">
        <dc:format>image/svg+xml</dc:format>
        <dc:type
           rdf:resource="http://purl.org/dc/dcmitype/StillImage" />
      </cc:Work>
    </rdf:RDF>
  </metadata>
  <sodipodi:namedview
     inkscape:window-height="712"
     inkscape:window-width="1024"
     inkscape:pageshadow="2"
     inkscape:pageopacity="0.0"
     guidetolerance="10.0"
     gridtolerance="10.0"
     objecttolerance="10.0"
     borderopacity="1.0"
     bordercolor="#666666"
     pagecolor="#ffffff"
     id="base"
     inkscape:zoom="2.7925926"
     inkscape:cx="100"
     inkscape:cy="67.5"
     inkscape:window-x="-4"
     inkscape:window-y="-4"
     inkscape:current-layer="svg2211" />
  <defs
     id="defs2214" />
  <path
     style="fill:#ffffff;fill-opacity:1;fill-rule:nonzero;stroke:#333298;stroke-width:1.07160556;stroke-linecap:butt;stroke-linejoin:miter;stroke-miterlimit:80.19999695;stroke-dasharray:none;stroke-dashoffset:0;stroke-opacity:1"
     id="path3233"
     d="M 194.89989,67.5 C 194.90985,102.46293 152.41881,130.80952 99.999998,130.80952 C 47.58119,130.80952 5.090143,102.46293 5.100111,67.5 C 5.090143,32.537067 47.58119,4.1904839 99.999998,4.1904839 C 152.41881,4.1904839 194.90985,32.537067 194.89989,67.5 z " />
  <path
     style="fill:#333298;fill-opacity:1;fill-rule:nonzero;stroke:none;stroke-width:4.67716551;stroke-linecap:butt;stroke-linejoin:miter;stroke-miterlimit:80.19999695;stroke-dasharray:none;stroke-dashoffset:0;stroke-opacity:1"
     id="path2242"
     d="M 188.5586,67.500003 C 188.5679,100.12668 148.91614,126.57913 100,126.57913 C 51.083859,126.57913 11.432097,100.12668 11.441399,67.500003 C 11.432097,34.873321 51.083859,8.4208781 100,8.4208781 C 148.91614,8.4208781 188.5679,34.873321 188.5586,67.500003 z " />
  <path
     style="fill:#ffffff;fill-opacity:1;stroke:none;stroke-width:5;stroke-linecap:round;stroke-linejoin:miter;stroke-miterlimit:4;stroke-dasharray:none;stroke-dashoffset:0;stroke-opacity:1"
     id="path2459"
     d="M 105.94581,23.996251 L 107.53143,27.167472 C 109.97577,39.197359 106.4255,52.317133 104.55436,64.413148 C 103.00455,81.194188 99.820114,108.22721 99.279779,109.10149 C 98.10287,111.00575 102.53463,111.65814 106.98132,110.23407 C 108.40513,109.77809 108.9876,109.35241 108.27569,109.29565 C 106.90069,109.18599 106.50023,102.27704 107.6285,98.066934 C 108.1556,96.100082 108.97426,95.737054 112.80601,95.737054 L 117.33633,95.737054 L 117.33633,101.98243 C 117.33633,108.99845 118.16394,109.86712 123.97,108.7779 C 127.45509,108.12409 128.81765,107.80801 127.36171,104.8895 C 126.55234,103.26709 124.0763,97.373301 123.48461,91.465614 C 122.89293,85.557914 121.97703,76.528511 121.44597,71.402781 C 120.91491,66.277051 119.98644,56.491565 119.40733,49.657258 C 118.82821,42.822951 118.09839,35.741202 117.78936,33.898228 C 117.48033,32.055243 117.76421,29.560576 118.40419,28.36477 C 119.04415,27.168961 119.38311,26.010673 119.14845,25.776018 C 118.9138,25.541353 115.83067,25.042676 112.32061,24.675798 L 105.94581,23.996251 z M 89.669035,24.352204 C 88.0897,24.38503 84.966618,24.73388 82.744122,25.12883 C 79.145239,25.768354 78.890371,25.999852 80.414245,27.26455 C 81.948392,28.537781 82.129294,32.614279 82.129294,66.678306 C 82.129294,103.16429 82.035643,104.74625 80.058292,106.86869 L 78.019649,109.10149 L 82.905919,109.4898 C 94.023783,110.36749 95.339698,110.28239 95.97912,108.6161 C 96.324811,107.71524 96.626308,105.83901 96.626308,104.44173 C 96.626308,102.25091 96.347281,102.0288 94.620025,102.95321 C 93.518407,103.54276 91.577982,104.02106 90.316223,104.02106 L 88.018705,104.02106 L 88.568815,66.743025 C 89.049671,34.617051 89.376217,29.101042 90.833974,26.876237 C 92.498552,24.33577 92.494265,24.293492 89.669035,24.352204 z M 73.618768,27.167472 L 69.379686,27.847019 C 62.758131,28.90585 55.206267,31.674717 55.206267,33.024524 C 55.206265,33.699351 55.653553,34.701466 56.209408,35.257323 C 56.817912,35.865823 57.260911,48.607105 57.309627,67.293135 C 57.388163,97.416015 57.306178,98.366658 55.238626,100.04085 C 53.173958,101.71273 53.378976,101.86605 61.160397,104.37702 C 72.726758,108.10932 73.528442,108.00456 74.007081,102.98556 C 74.422017,98.634569 73.916409,98.17617 70.674062,99.911423 C 69.584135,100.49472 67.514527,100.69237 66.079026,100.33209 L 63.490274,99.652543 L 63.490274,83.731714 C 63.490273,68.680807 63.610674,67.778526 65.496557,67.778526 C 66.594926,67.778528 68.169444,68.477489 69.023732,69.33178 C 71.47676,71.784809 71.774282,71.283885 71.774282,64.510226 C 71.774281,58.401281 71.680139,58.207867 69.865077,59.850471 C 68.823564,60.793036 66.959661,61.56552 65.723073,61.56552 C 63.531936,61.565519 63.490274,61.237928 63.490274,48.233445 L 63.490274,34.90137 L 66.855653,34.35126 C 68.715951,34.057293 71.147232,34.406803 72.292032,35.127885 C 74.264255,36.370137 74.329197,36.202787 73.974722,31.794867 L 73.618768,27.167472 z M 139.40544,30.468131 C 136.8551,30.511098 134.64725,31.316187 133.67783,32.830367 C 126.94593,43.345206 125.72411,80.18529 131.50975,97.808057 C 134.12464,105.7729 140.34483,107.87322 146.03912,102.69433 C 148.36904,100.57528 149.84767,95.569905 149.69573,90.300674 C 149.65056,88.734479 149.58571,82.560305 149.53394,76.580286 L 149.43686,65.707524 L 144.7771,65.707524 C 140.72012,65.707526 140.05769,66.019552 139.50252,68.231557 C 138.70413,71.41263 139.6475,72.956033 142.35015,72.956033 C 144.36841,72.956033 144.43944,73.402696 143.9034,83.569918 C 143.18608,97.175128 143.27485,96.772555 140.57038,96.772555 C 137.84418,96.772555 137.22307,95.496984 135.32816,85.899795 C 131.89082,68.490787 134.87534,38.903715 140.24678,37.198887 C 142.69872,36.420677 143.95818,37.24737 146.39507,41.243813 L 148.40135,44.479754 L 148.36899,38.784498 C 148.36517,33.614282 148.11627,32.969922 145.58609,31.794867 C 143.56893,30.858068 141.38904,30.434712 139.40544,30.468131 z M 156.00582,36.713496 C 155.52447,36.713868 155.13211,50.692884 155.13211,67.778526 C 155.1321,84.864171 155.21069,98.843808 155.32627,98.843561 C 155.44185,98.843304 156.83978,98.28134 158.43277,97.58154 C 160.02577,96.881739 164.02448,94.747405 167.29925,92.857067 C 172.98373,89.57572 173.25338,89.242341 173.25338,85.284966 L 173.25338,81.142962 L 169.888,83.666996 C 168.03703,85.048324 165.47418,86.694946 164.19274,87.355969 C 161.86467,88.556891 161.86287,88.55045 161.86287,79.719148 C 161.86286,72.150786 162.09597,70.885031 163.57792,70.885031 C 164.52974,70.885031 166.16065,71.657525 167.20217,72.600079 C 169.01564,74.241245 169.11138,74.068367 169.11138,68.425714 C 169.11137,62.921167 168.97625,62.60275 167.10509,63.604163 C 162.43626,66.102838 161.86287,65.240171 161.86287,55.837905 L 161.86287,47.036147 L 165.22825,48.718836 C 167.0792,49.654369 169.64207,51.397894 170.9235,52.569605 L 173.25338,54.672966 L 173.25338,50.498603 C 173.25337,47.114077 172.73619,45.933058 170.56754,44.512113 C 166.27883,41.702032 156.96376,36.71275 156.00582,36.713496 z M 41.582956,39.852359 C 39.052014,39.81342 35.636039,40.91515 31.842775,43.05594 C 26.658017,45.982038 26.315881,46.392997 27.992006,47.618616 C 29.635625,48.820459 29.836492,50.853573 29.836492,66.031118 C 29.836491,80.942645 29.604793,83.373411 27.992006,85.155529 C 26.210262,87.124328 26.239797,87.241111 28.736272,88.876861 C 30.158249,89.808574 31.686828,90.579246 32.13401,90.591909 C 32.581191,90.604574 34.107934,91.533718 35.531748,92.662911 C 39.553705,95.852647 43.741574,94.987943 46.080914,90.462471 C 47.14417,88.405604 48.747345,82.347923 49.640449,77.000959 C 51.018359,68.751495 51.076794,65.771 49.996402,57.423516 C 48.770373,47.950804 46.853563,42.232033 44.430584,40.628984 C 43.681952,40.133688 42.733385,39.870058 41.582956,39.852359 z M 38.767688,45.191661 C 40.914504,45.058735 42.876175,48.333254 43.395083,53.702184 C 43.620668,56.036227 44.053093,59.905301 44.365865,62.277427 C 45.036393,67.362843 42.993815,84.294479 41.485878,86.158671 C 40.258473,87.676053 36.941419,87.873068 36.081858,86.482264 C 34.844687,84.480487 35.316268,48.06472 36.599608,46.518396 C 37.308668,45.66403 38.052083,45.235969 38.767688,45.191661 z M 114.77993,66.484149 C 114.80498,68.619872 115.14543,74.794047 115.5242,80.204539 L 116.20375,90.041799 L 112.48242,90.138877 L 108.76109,90.203596 L 109.44063,82.37262 C 110.78238,66.440645 111.86275,57.363633 112.51478,56.711609 C 113.41244,59.510113 114.25876,63.281817 114.77993,66.484149 z " />
</svg>
