<svg width="538" height="337" xmlns="http://www.w3.org/2000/svg" xmlns:xlink="http://www.w3.org/1999/xlink" overflow="hidden"><defs><clipPath id="clip0"><rect x="14" y="119" width="538" height="337"/></clipPath></defs><g clip-path="url(#clip0)" transform="translate(-14 -119)"><path d="M150.06 345.273 155.45 356.426C180.014 401.503 227.922 432.103 283 432.103 338.078 432.103 385.986 401.503 410.55 356.426L415.94 345.273ZM283 142.897C227.922 142.897 180.014 173.497 155.45 218.574L150.06 229.727 415.94 229.727 410.55 218.574C385.986 173.497 338.078 142.897 283 142.897ZM283 120C352.599 120 412.315 162.183 437.823 222.301L440.549 229.727 551 229.727 551 345.273 440.549 345.273 437.823 352.699C412.315 412.817 352.599 455 283 455 213.401 455 153.685 412.817 128.177 352.699L125.451 345.273 15 345.273 15 229.727 125.451 229.727 128.177 222.301C153.685 162.183 213.401 120 283 120Z" fill="#504E4F" fill-rule="evenodd"/><rect x="272" y="243" width="44" height="89" fill="#FFFFFF"/><path d="M329 243 329.094 243 382.719 243 403.659 273.061 403.659 273.061 423.318 243 472 243 472 332 427.719 332 427.719 279.161 418.087 293.773 392.89 332 390.997 332 352.8 277.166 352.8 332 329.094 332 329.094 243.135 329 243Z" fill="#FFFFFF" fill-rule="evenodd"/><path d="M137.825 75.5809 137.825 13.4191 148.695 13.4191C159.283 13.4191 167.868 27.3335 167.868 44.5 167.868 61.6664 159.283 75.5809 148.695 75.5809ZM0 89 115.878 89 115.878 88.9999 167.879 88.9999C192.246 88.9999 212 69.0766 212 44.5 212 19.9233 192.246 0 167.879 0L93.7039 0 93.7039 53.8321 124.652 53.8321 124.652 58.174 51.2356 58.174 39.5274 65.7209 124.652 65.7209 124.652 69.8136 32.7631 69.8136 21.0549 77.3605 124.652 77.3605 124.652 81.4531 104.17 81.4531 93.7039 81.4531 11.7082 81.4531Z" fill="#FFFFFF" fill-rule="evenodd" transform="matrix(1 0 0 -1 46 332)"/></g></svg>