<?xml version="1.0" encoding="UTF-8" standalone="no"?>
<svg
   xmlns:dc="http://purl.org/dc/elements/1.1/"
   xmlns:cc="http://creativecommons.org/ns#"
   xmlns:rdf="http://www.w3.org/1999/02/22-rdf-syntax-ns#"
   xmlns:svg="http://www.w3.org/2000/svg"
   xmlns="http://www.w3.org/2000/svg"
   xmlns:xlink="http://www.w3.org/1999/xlink"
   xmlns:sodipodi="http://sodipodi.sourceforge.net/DTD/sodipodi-0.dtd"
   xmlns:inkscape="http://www.inkscape.org/namespaces/inkscape"
   inkscape:export-ydpi="200.14717"
   inkscape:export-xdpi="200.14717"
   inkscape:export-filename="E:\Eigene Dateien\DKW AutoUnion.png"
   sodipodi:docname="DKW AutoUnion silver.svg"
   inkscape:version="1.0 (4035a4fb49, 2020-05-01)"
   version="1.1"
   id="svg4763"
   height="391.69864"
   width="245.82353">
  <defs
     id="defs4765">
    <linearGradient
       id="linearGradient3789">
      <stop
         id="stop3791"
         offset="0"
         style="stop-color:#808080;stop-opacity:1;" />
      <stop
         id="stop3793"
         offset="1"
         style="stop-color:#dddddd;stop-opacity:1;" />
    </linearGradient>
    <linearGradient
       id="linearGradient4667">
      <stop
         id="stop4669"
         offset="0"
         style="stop-color:#808080;stop-opacity:1;" />
      <stop
         id="stop4671"
         offset="1"
         style="stop-color:#dddddd;stop-opacity:1;" />
    </linearGradient>
    <linearGradient
       id="linearGradient4674">
      <stop
         id="stop4676"
         offset="0"
         style="stop-color:#808080;stop-opacity:1;" />
      <stop
         id="stop4678"
         offset="1"
         style="stop-color:#dddddd;stop-opacity:1;" />
    </linearGradient>
    <linearGradient
       id="linearGradient4681">
      <stop
         id="stop4683"
         offset="0"
         style="stop-color:#808080;stop-opacity:1;" />
      <stop
         id="stop4685"
         offset="1"
         style="stop-color:#dddddd;stop-opacity:1;" />
    </linearGradient>
    <linearGradient
       id="linearGradient3840">
      <stop
         id="stop3842"
         offset="0"
         style="stop-color:#808080;stop-opacity:1;" />
      <stop
         id="stop3844"
         offset="1"
         style="stop-color:#d8d8d8;stop-opacity:1;" />
    </linearGradient>
    <linearGradient
       id="linearGradient4694">
      <stop
         id="stop4696"
         offset="0"
         style="stop-color:#808080;stop-opacity:1;" />
      <stop
         id="stop4698"
         offset="1"
         style="stop-color:#dddddd;stop-opacity:1;" />
    </linearGradient>
    <linearGradient
       id="linearGradient4701">
      <stop
         id="stop4703"
         offset="0"
         style="stop-color:#808080;stop-opacity:1;" />
      <stop
         id="stop4705"
         offset="1"
         style="stop-color:#dddddd;stop-opacity:1;" />
    </linearGradient>
    <linearGradient
       id="linearGradient4280">
      <stop
         id="stop4282"
         offset="0"
         style="stop-color:#8b8b8b;stop-opacity:1;" />
      <stop
         style="stop-color:#bebebe;stop-opacity:1;"
         offset="0.17816381"
         id="stop4294" />
      <stop
         style="stop-color:#919191;stop-opacity:1;"
         offset="0.3893086"
         id="stop4292" />
      <stop
         style="stop-color:#cccccc;stop-opacity:1;"
         offset="0.48796955"
         id="stop4290" />
      <stop
         style="stop-color:#939393;stop-opacity:1;"
         offset="0.59189999"
         id="stop4288" />
      <stop
         id="stop4284"
         offset="1"
         style="stop-color:#c6c6c6;stop-opacity:1;" />
    </linearGradient>
    <linearGradient
       id="linearGradient4304">
      <stop
         style="stop-color:#a0a0a0;stop-opacity:1;"
         offset="0"
         id="stop4306" />
      <stop
         id="stop4308"
         offset="0.17816381"
         style="stop-color:#bebebe;stop-opacity:1;" />
      <stop
         id="stop4310"
         offset="0.3893086"
         style="stop-color:#acacac;stop-opacity:1;" />
      <stop
         id="stop4312"
         offset="0.55253631"
         style="stop-color:#cccccc;stop-opacity:1;" />
      <stop
         id="stop4314"
         offset="0.74742013"
         style="stop-color:#acacac;stop-opacity:1;" />
      <stop
         style="stop-color:#c6c6c6;stop-opacity:1;"
         offset="1"
         id="stop4316" />
    </linearGradient>
    <linearGradient
       y2="644.54651"
       x2="1791.718"
       y1="381.4978"
       x1="1590.175"
       gradientTransform="translate(484.8169,53.129589)"
       gradientUnits="userSpaceOnUse"
       id="linearGradient3127"
       xlink:href="#linearGradient4304"
       inkscape:collect="always" />
    <linearGradient
       y2="644.54651"
       x2="1791.718"
       y1="381.4978"
       x1="1590.175"
       gradientTransform="matrix(0.7706093,0,0,0.7706093,-587.3442,56.571779)"
       gradientUnits="userSpaceOnUse"
       id="linearGradient3135"
       xlink:href="#linearGradient4304"
       inkscape:collect="always" />
  </defs>
  <sodipodi:namedview
     inkscape:guide-bbox="true"
     showguides="true"
     inkscape:snap-global="false"
     inkscape:document-rotation="0"
     inkscape:window-maximized="1"
     inkscape:window-y="-8"
     inkscape:window-x="-8"
     inkscape:window-height="746"
     inkscape:window-width="1366"
     fit-margin-bottom="3"
     fit-margin-right="3"
     fit-margin-left="3"
     fit-margin-top="3"
     showgrid="false"
     inkscape:current-layer="layer1"
     inkscape:document-units="px"
     inkscape:cy="195.84932"
     inkscape:cx="122.91177"
     inkscape:zoom="1.965797"
     inkscape:pageshadow="2"
     inkscape:pageopacity="0.0"
     borderopacity="1.0"
     bordercolor="#666666"
     pagecolor="#ffffff"
     id="base" />
  <metadata
     id="metadata4768">
    <rdf:RDF>
      <cc:Work
         rdf:about="">
        <dc:format>image/svg+xml</dc:format>
        <dc:type
           rdf:resource="http://purl.org/dc/dcmitype/StillImage" />
        <dc:title></dc:title>
      </cc:Work>
    </rdf:RDF>
  </metadata>
  <g
     transform="translate(-189.0043,-376.04005)"
     id="layer1"
     inkscape:groupmode="layer"
     inkscape:label="Ebene 1">
    <path
       sodipodi:nodetypes="ccccccc"
       inkscape:connector-curvature="0"
       id="path4220"
       d="M 223.70942,531.53057 V 663.6537 l 87.02539,85.83345 87.00808,-85.83345 V 531.53057 h -87.01677 z"
       style="color:#000000;display:inline;overflow:visible;visibility:visible;fill:#ffffff;stroke:none;stroke-width:0.643228;marker:none;enable-background:accumulate" />
    <path
       sodipodi:nodetypes="scccsccccccccccccccccccccccccccssccccccccccccccscc"
       inkscape:connector-curvature="0"
       id="path4202"
       d="m 310.74265,455.48671 c -49.90088,3e-5 -80.58448,14.63345 -80.58448,14.63345 l -0.0399,0.02 -0.0399,0.0201 c 0,0 -5.17663,2.32216 -7.71873,3.57795 -2.82989,1.39794 -8.3821,4.4021 -8.3821,4.4021 l 2.75385,9.3268 2.35183,7.89966 v 0.02 l 7.5378,25.42762 h -13.64846 v 10.7339 135.19857 l 10.73381,10.69366 34.07103,33.91019 52.94573,52.72463 v 0.66334 l 52.94574,-52.72464 34.07103,-33.91018 10.73381,-10.69368 V 531.52827 521.47782 H 394.6443 l 7.75901,-26.09095 v -0.02 l 2.35177,-7.89965 2.77392,-9.34691 c 0,0 -5.34754,-2.94663 -8.26143,-4.38199 -2.47308,-1.21819 -7.89968,-3.57796 -7.89968,-3.57796 l -0.0399,-0.0201 -0.0199,-0.02 c 0,0 -30.66354,-14.63347 -80.56436,-14.63344 z m 0,42.69428 c 19.88605,0 34.58247,2.42501 44.80485,4.90462 l -8.44237,28.44276 h 41.36762 3.19601 6.07053 v 131.45979 l -87.01677,86.61472 v -0.66333 L 223.70575,662.32483 V 531.54847 h 9.26654 l 9.03717,-0.02 24.67289,-7.67761 -0.76474,-20.76514 c 10.22824,-2.4798 24.93681,-4.90461 44.82504,-4.90462 z"
       style="color:#000000;font-style:normal;font-variant:normal;font-weight:normal;font-stretch:normal;font-size:medium;line-height:normal;font-family:Sans;-inkscape-font-specification:Sans;text-indent:0;text-align:start;text-decoration:none;text-decoration-line:none;letter-spacing:normal;word-spacing:normal;text-transform:none;writing-mode:lr-tb;direction:ltr;baseline-shift:baseline;text-anchor:start;display:inline;overflow:visible;visibility:visible;fill:#999999;fill-opacity:1;fill-rule:nonzero;stroke:none;stroke-width:23.0919;marker:none;enable-background:accumulate" />
    <path
       inkscape:connector-curvature="0"
       id="path4196"
       d="m 310.73481,465.80636 c -47.95577,3e-5 -76.08183,13.60831 -76.08183,13.60831 v 0.02 l -7.39712,3.65836 -0.92471,0.44222 0.30155,0.98495 2.35177,7.91975 57.08652,192.44588 h 2.53277 l -38.53343,-129.91203 18.33201,1.40707 38.13141,128.50496 h 2.53265 l -38.07101,-128.30396 77.68989,5.99007 -36.28207,122.31389 h 2.53265 l 36.22186,-122.11288 17.52797,1.34676 -35.83991,120.76612 h 2.53271 l 57.10665,-192.44588 2.35178,-7.91975 0.30154,-0.98495 -0.9247,-0.46232 -7.4172,-3.65836 c 0,0 -28.10599,-13.60833 -76.06175,-13.6083 z"
       style="color:#000000;font-style:normal;font-variant:normal;font-weight:normal;font-stretch:normal;font-size:medium;line-height:normal;font-family:Sans;-inkscape-font-specification:Sans;text-indent:0;text-align:start;text-decoration:none;text-decoration-line:none;letter-spacing:normal;word-spacing:normal;text-transform:none;writing-mode:lr-tb;direction:ltr;baseline-shift:baseline;text-anchor:start;display:inline;overflow:visible;visibility:visible;fill:#ffffff;fill-opacity:1;fill-rule:nonzero;stroke:none;stroke-width:2.44427;marker:none;enable-background:accumulate" />
    <path
       sodipodi:nodetypes="zcccz"
       inkscape:connector-curvature="0"
       id="path4173"
       d="m 310.72612,476.84149 c -45.95049,2e-5 -71.18068,12.47237 -71.18068,12.47237 l 71.18068,239.9276 71.18068,-239.9276 c 0,0 -25.23024,-12.4724 -71.18068,-12.47237 z"
       style="color:#000000;display:inline;overflow:visible;visibility:visible;fill:#06922c;fill-opacity:1;stroke:#06922c;stroke-width:11.7068;stroke-linecap:butt;stroke-linejoin:miter;stroke-miterlimit:4;stroke-dasharray:none;stroke-dashoffset:0;stroke-opacity:1;marker:none;enable-background:accumulate" />
    <path
       d="m 255.87556,529.40756 v -37.84983 h 12.60576 c 4.77568,0.0338 8.8639,1.87439 12.26466,5.52192 3.40071,3.64759 5.10108,8.13186 5.10111,13.45278 -3e-5,5.32098 -1.70801,9.79707 -5.12394,13.42829 -3.41598,3.63122 -7.49659,5.44684 -12.24183,5.44684 z m 8.88769,-29.51757 v 21.1853 h 1.99395 c 2.66042,0.0327 4.96548,-0.79582 6.91517,-2.48557 1.94965,-1.68974 2.92448,-4.37549 2.92451,-8.05729 -3e-5,-3.37945 -0.90682,-5.98962 -2.72041,-7.83054 -1.81363,-1.84086 -4.15628,-2.7613 -7.02795,-2.76134 l -2.08527,-0.0506 z"
       style="font-style:normal;font-variant:normal;font-weight:normal;font-stretch:normal;font-size:64.1406px;line-height:100%;font-family:Futura-Bold;-inkscape-font-specification:Futura-Bold;text-align:start;letter-spacing:4.54px;word-spacing:0px;writing-mode:lr-tb;text-anchor:start;fill:#ffffff;fill-opacity:1;stroke:none;stroke-width:0.743814"
       id="path4265"
       inkscape:connector-curvature="0" />
    <path
       d="m 302.15762,507.16981 10.74602,-15.61208 h 11.01862 l -13.60342,17.92073 14.82801,19.9291 h -11.51676 l -11.47247,-16.41481 h -0.0899 v 16.41481 H 293.18 v -37.84983 h 8.88768 v 15.61208 z"
       style="font-style:normal;font-variant:normal;font-weight:normal;font-stretch:normal;font-size:64.1406px;line-height:100%;font-family:Futura-Bold;-inkscape-font-specification:Futura-Bold;text-align:start;letter-spacing:4.54px;word-spacing:0px;writing-mode:lr-tb;text-anchor:start;fill:#ffffff;fill-opacity:1;stroke:none;stroke-width:0.743814"
       id="path4267"
       inkscape:connector-curvature="0" />
    <path
       d="m 335.44021,491.55773 5.5818,24.44682 h 0.0845 l 6.7325,-24.44682 h 6.64538 l 6.30602,24.44682 h 0.0858 l 6.04989,-24.44682 h 8.69062 l -10.26778,37.84983 h -8.52028 l -5.62472,-21.93748 h -0.0845 l -6.30602,21.93748 h -8.47869 l -9.58646,-37.84983 z"
       style="font-style:normal;font-variant:normal;font-weight:normal;font-stretch:normal;font-size:64.1406px;line-height:100%;font-family:Futura-Bold;-inkscape-font-specification:Futura-Bold;text-align:start;letter-spacing:4.54px;word-spacing:0px;writing-mode:lr-tb;text-anchor:start;fill:#ffffff;fill-opacity:1;stroke:none;stroke-width:0.743814"
       id="path4269"
       inkscape:connector-curvature="0" />
    <circle
       r="33.348515"
       cy="428.10233"
       cx="229.79927"
       id="path923"
       style="fill:#ffffff;fill-opacity:1;stroke:#999999;stroke-width:8.89291;stroke-linecap:round;stroke-miterlimit:4;stroke-dasharray:none;stroke-opacity:1" />
    <circle
       style="fill:#ffffff;fill-opacity:1;stroke:#999999;stroke-width:8.89291;stroke-linecap:round;stroke-miterlimit:4;stroke-dasharray:none;stroke-opacity:1"
       id="circle929"
       cx="340.23221"
       cy="417.40137"
       r="33.348515" />
    <circle
       style="fill:#ffffff;fill-opacity:1;stroke:#999999;stroke-width:8.89291;stroke-linecap:round;stroke-miterlimit:4;stroke-dasharray:none;stroke-opacity:1"
       id="circle925"
       cx="286.43155"
       cy="416.83502"
       r="33.348515" />
    <circle
       r="33.348515"
       cy="426.9697"
       cx="394.03287"
       id="circle927"
       style="fill:#ffffff;fill-opacity:1;stroke:#999999;stroke-width:8.89291;stroke-linecap:round;stroke-miterlimit:4;stroke-dasharray:none;stroke-opacity:1" />
    <path
       sodipodi:nodetypes="cscczcc"
       id="path949"
       d="m 222.01138,412.93497 c 0,0 47.51256,-13.45349 92.90454,-12.41397 47.87127,1.09629 90.0805,12.5524 90.0805,12.5524 l -7.92852,30.29826 c 0,0 -45.06273,-10.84129 -82.96628,-10.76013 -37.90354,0.0811 -83.53259,11.32645 -83.53259,11.32645 z"
       style="fill:#999999;fill-rule:evenodd;stroke:none;stroke-width:0.834701px;stroke-linecap:butt;stroke-linejoin:miter;stroke-opacity:1" />
    <path
       d="m 252.1213,429.98032 -3.66037,0.9785 -2.40686,-3.17158 -6.66141,1.78074 -0.42367,3.92824 -3.56942,0.95418 2.30063,-17.41014 3.55806,-0.95114 z m -7.85315,-4.54541 -3.85117,-5.2028 -0.69587,6.41831 z"
       style="font-style:normal;font-variant:normal;font-weight:bold;font-stretch:normal;font-size:28px;line-height:125%;font-family:Arial;-inkscape-font-specification:'Arial Bold';font-variant-ligatures:normal;font-variant-caps:normal;font-variant-numeric:normal;font-feature-settings:normal;text-align:start;letter-spacing:0px;word-spacing:0px;writing-mode:lr-tb;text-anchor:start;fill:#666666;fill-opacity:1;stroke:none;stroke-width:0.845861px;stroke-linecap:butt;stroke-linejoin:miter;stroke-opacity:1"
       id="path1005" />
    <path
       d="m 251.10048,414.40623 3.38868,-0.80489 2.0308,8.54997 q 0.4834,2.03519 0.75256,2.6083 0.44771,0.91748 1.40121,1.31666 0.96239,0.3857 2.38197,0.0485 1.44248,-0.34262 2.04473,-1.06582 0.59968,-0.73399 0.55669,-1.57695 -0.043,-0.84297 -0.48804,-2.71664 l -2.07428,-8.73302 3.38869,-0.80488 1.96941,8.29152 q 0.67523,2.84281 0.67926,4.08181 0.004,1.239 -0.54828,2.22336 -0.54087,0.98164 -1.66218,1.75989 -1.12388,0.76747 -3.11587,1.24061 -2.40413,0.57104 -3.77476,0.35055 -1.36174,-0.23397 -2.27992,-0.89181 -0.92074,-0.6686 -1.36711,-1.52952 -0.65426,-1.27794 -1.28345,-3.92692 z"
       style="font-style:normal;font-variant:normal;font-weight:bold;font-stretch:normal;font-size:28px;line-height:125%;font-family:Arial;-inkscape-font-specification:'Arial Bold';font-variant-ligatures:normal;font-variant-caps:normal;font-variant-numeric:normal;font-feature-settings:normal;text-align:start;letter-spacing:0px;word-spacing:0px;writing-mode:lr-tb;text-anchor:start;fill:#666666;fill-opacity:1;stroke:none;stroke-width:0.845861px;stroke-linecap:butt;stroke-linejoin:miter;stroke-opacity:1"
       id="path1007" />
    <path
       d="m 275.74322,426.1722 -1.74564,-13.36708 -5.07544,0.66281 -0.35543,-2.7217 13.59285,-1.77512 0.35543,2.7217 -5.06377,0.6613 1.74564,13.36707 z"
       style="font-style:normal;font-variant:normal;font-weight:bold;font-stretch:normal;font-size:28px;line-height:125%;font-family:Arial;-inkscape-font-specification:'Arial Bold';font-variant-ligatures:normal;font-variant-caps:normal;font-variant-numeric:normal;font-feature-settings:normal;text-align:start;letter-spacing:0px;word-spacing:0px;writing-mode:lr-tb;text-anchor:start;fill:#666666;fill-opacity:1;stroke:none;stroke-width:0.845861px;stroke-linecap:butt;stroke-linejoin:miter;stroke-opacity:1"
       id="path1009" />
    <path
       d="m 286.0981,417.25478 q -0.35198,-2.45408 0.18957,-4.23127 0.40639,-1.31056 1.26823,-2.4293 0.87349,-1.12039 2.00562,-1.76355 1.50458,-0.86429 3.58949,-1.16332 3.77381,-0.54127 6.34927,1.33674 2.58712,1.87634 3.14966,5.79847 0.55782,3.88927 -1.37433,6.41379 -1.93371,2.51355 -5.69587,3.05314 -3.80876,0.54627 -6.36943,-1.31149 -2.56225,-1.86872 -3.11221,-5.70321 z m 3.53679,-0.61908 q 0.39126,2.72796 1.93343,3.94913 1.5406,1.21022 3.60222,0.91453 2.06162,-0.29569 3.17824,-1.87583 1.12669,-1.59277 0.726,-4.38647 -0.39598,-2.76085 -1.8837,-3.93392 -1.47608,-1.17474 -3.60758,-0.86902 -2.1315,0.30571 -3.23804,1.87323 -1.10811,1.55656 -0.71057,4.32835 z"
       style="font-style:normal;font-variant:normal;font-weight:bold;font-stretch:normal;font-size:28px;line-height:125%;font-family:Arial;-inkscape-font-specification:'Arial Bold';font-variant-ligatures:normal;font-variant-caps:normal;font-variant-numeric:normal;font-feature-settings:normal;text-align:start;letter-spacing:0px;word-spacing:0px;writing-mode:lr-tb;text-anchor:start;fill:#666666;fill-opacity:1;stroke:none;stroke-width:0.845861px;stroke-linecap:butt;stroke-linejoin:miter;stroke-opacity:1"
       id="path1011" />
    <path
       d="m 312.87751,407.95432 3.47942,0.15711 -0.3964,8.77888 q -0.0944,2.08969 0.007,2.71469 0.17841,1.00518 0.98554,1.65097 0.81939,0.63527 2.27697,0.70109 1.48111,0.0669 2.25888,-0.46304 0.77826,-0.54097 0.96852,-1.36331 0.19026,-0.82234 0.27713,-2.74618 l 0.40488,-8.96685 3.47941,0.15712 -0.38442,8.51352 q -0.1318,2.91893 -0.46833,4.11136 -0.33653,1.19242 -1.13803,1.98716 -0.78976,0.79527 -2.08174,1.23549 -1.29148,0.42916 -3.33681,0.33681 -2.4685,-0.11147 -3.72581,-0.70003 -1.24505,-0.5991 -1.94716,-1.48389 -0.70161,-0.89584 -0.89426,-1.84627 -0.278,-1.40851 -0.15518,-4.12842 z"
       style="font-style:normal;font-variant:normal;font-weight:bold;font-stretch:normal;font-size:28px;line-height:125%;font-family:Arial;-inkscape-font-specification:'Arial Bold';font-variant-ligatures:normal;font-variant-caps:normal;font-variant-numeric:normal;font-feature-settings:normal;text-align:start;letter-spacing:0px;word-spacing:0px;writing-mode:lr-tb;text-anchor:start;fill:#666666;fill-opacity:1;stroke:none;stroke-width:0.845861px;stroke-linecap:butt;stroke-linejoin:miter;stroke-opacity:1"
       id="path1013" />
    <path
       d="m 329.55981,424.52065 1.70055,-16.13603 3.37017,0.35517 5.88553,11.51565 1.13564,-10.77569 3.21803,0.33914 -1.70055,16.13603 -3.47548,-0.36628 -5.8069,-11.25138 -1.10896,10.52253 z"
       style="font-style:normal;font-variant:normal;font-weight:bold;font-stretch:normal;font-size:28px;line-height:125%;font-family:Arial;-inkscape-font-specification:'Arial Bold';font-variant-ligatures:normal;font-variant-caps:normal;font-variant-numeric:normal;font-feature-settings:normal;text-align:start;letter-spacing:0px;word-spacing:0px;writing-mode:lr-tb;text-anchor:start;fill:#666666;fill-opacity:1;stroke:none;stroke-width:0.845861px;stroke-linecap:butt;stroke-linejoin:miter;stroke-opacity:1"
       id="path1015" />
    <path
       d="m 347.89778,426.22011 1.9237,-16.11096 3.45839,0.41295 -1.92369,16.11095 z"
       style="font-style:normal;font-variant:normal;font-weight:bold;font-stretch:normal;font-size:28px;line-height:125%;font-family:Arial;-inkscape-font-specification:'Arial Bold';font-variant-ligatures:normal;font-variant-caps:normal;font-variant-numeric:normal;font-feature-settings:normal;text-align:start;letter-spacing:0px;word-spacing:0px;writing-mode:lr-tb;text-anchor:start;fill:#666666;fill-opacity:1;stroke:none;stroke-width:0.845861px;stroke-linecap:butt;stroke-linejoin:miter;stroke-opacity:1"
       id="path1017" />
    <path
       d="m 356.7202,418.60863 q 0.55173,-2.41702 1.69471,-3.88169 0.84946,-1.07757 2.05524,-1.8127 1.21725,-0.73252 2.50474,-0.92678 1.71448,-0.26708 3.76791,0.20167 3.71681,0.84843 5.44725,3.52528 1.74188,2.67948 0.8601,6.54238 -0.8744,3.83055 -3.58351,5.49399 -2.70664,1.65265 -6.412,0.80683 -3.75123,-0.85629 -5.47511,-3.50895 -1.72141,-2.66344 -0.85933,-6.44003 z m 3.52349,0.69078 q -0.61331,2.68677 0.38819,4.37985 1.00397,1.6823 3.03446,2.1458 2.03048,0.4635 3.6396,-0.61095 1.62304,-1.08263 2.25113,-3.83414 0.6207,-2.71915 -0.34724,-4.34781 -0.95646,-1.62604 -3.05578,-2.10525 -2.09931,-0.47921 -3.69449,0.58708 -1.59271,1.05549 -2.21587,3.78542 z"
       style="font-style:normal;font-variant:normal;font-weight:bold;font-stretch:normal;font-size:28px;line-height:125%;font-family:Arial;-inkscape-font-specification:'Arial Bold';font-variant-ligatures:normal;font-variant-caps:normal;font-variant-numeric:normal;font-feature-settings:normal;text-align:start;letter-spacing:0px;word-spacing:0px;writing-mode:lr-tb;text-anchor:start;fill:#666666;fill-opacity:1;stroke:none;stroke-width:0.845861px;stroke-linecap:butt;stroke-linejoin:miter;stroke-opacity:1"
       id="path1019" />
    <path
       d="m 374.61954,430.55526 3.99651,-15.7255 3.28442,0.83471 4.17366,12.24053 2.66887,-10.50155 3.13616,0.79703 -3.9965,15.7255 -3.38706,-0.8608 -4.13371,-11.96771 -2.60618,10.25482 z"
       style="font-style:normal;font-variant:normal;font-weight:bold;font-stretch:normal;font-size:28px;line-height:125%;font-family:Arial;-inkscape-font-specification:'Arial Bold';font-variant-ligatures:normal;font-variant-caps:normal;font-variant-numeric:normal;font-feature-settings:normal;text-align:start;letter-spacing:0px;word-spacing:0px;writing-mode:lr-tb;text-anchor:start;fill:#666666;fill-opacity:1;stroke:none;stroke-width:0.845861px;stroke-linecap:butt;stroke-linejoin:miter;stroke-opacity:1"
       id="path1021" />
  </g>
</svg>
