<?xml version="1.0" encoding="UTF-8" standalone="no"?>
<!-- Created with Inkscape (http://www.inkscape.org/) -->
<svg
   xmlns:dc="http://purl.org/dc/elements/1.1/"
   xmlns:cc="http://creativecommons.org/ns#"
   xmlns:rdf="http://www.w3.org/1999/02/22-rdf-syntax-ns#"
   xmlns:svg="http://www.w3.org/2000/svg"
   xmlns="http://www.w3.org/2000/svg"
   xmlns:sodipodi="http://sodipodi.sourceforge.net/DTD/sodipodi-0.dtd"
   xmlns:inkscape="http://www.inkscape.org/namespaces/inkscape"
   id="svg2403"
   sodipodi:version="0.32"
   inkscape:version="0.46"
   width="500"
   height="70.413948"
   xml:space="preserve"
   sodipodi:docname="Dodge_Logo_2010.svg"
   version="1.0"
   inkscape:output_extension="org.inkscape.output.svg.inkscape"><metadata
     id="metadata2408"><rdf:RDF><cc:Work
         rdf:about=""><dc:format>image/svg+xml</dc:format><dc:type
           rdf:resource="http://purl.org/dc/dcmitype/StillImage" /></cc:Work></rdf:RDF></metadata><defs
     id="defs2406"><inkscape:perspective
       sodipodi:type="inkscape:persp3d"
       inkscape:vp_x="0 : 526.18109 : 1"
       inkscape:vp_y="0 : 1000 : 0"
       inkscape:vp_z="744.09448 : 526.18109 : 1"
       inkscape:persp3d-origin="372.04724 : 350.78739 : 1"
       id="perspective2410" /><clipPath
       clipPathUnits="userSpaceOnUse"
       id="clipPath2418"><path
         d="M 6,792 L 606.001,792 L 606.001,0.03 L 6,0.03 L 6,792 z"
         id="path2420" /></clipPath><clipPath
       clipPathUnits="userSpaceOnUse"
       id="clipPath2430"><path
         d="M 7.3333,790.667 L 606.0013,790.667 L 606.0013,394.666 L 7.3333,394.666 L 7.3333,790.667 z"
         id="path2432" /></clipPath><clipPath
       clipPathUnits="userSpaceOnUse"
       id="clipPath2718"><path
         d="M 107.932,23.095 L 33.653,23.095 L 33.653,49.832 L 107.932,49.832 L 107.932,23.095"
         id="path2720" /></clipPath><clipPath
       clipPathUnits="userSpaceOnUse"
       id="clipPath3074"><path
         d="M 218.201,34.302 L 205.291,34.302 L 205.291,37.181 L 218.201,37.181 L 218.201,34.302 z"
         id="path3076" /></clipPath><clipPath
       clipPathUnits="userSpaceOnUse"
       id="clipPath3080"><path
         d="M 205.362,36.451 C 205.325,35.936 205.291,35.449 205.291,34.949 C 205.291,34.45 205.404,34.329 205.757,34.322 C 206.124,34.314 208.728,34.302 210.619,34.332 C 211.142,34.339 211.649,34.336 212.138,34.333 C 213.831,34.322 215.294,34.31 216.408,34.773 C 217.645,35.286 218.114,36.155 218.149,36.388 C 218.183,36.615 218.201,37.035 218.074,37.035 C 217.947,37.035 216.012,36.711 215.855,36.698 C 215.756,36.69 215.72,36.457 215.72,36.457 C 215.475,35.223 214.107,34.812 213.783,34.802 C 213.382,34.79 208.777,34.802 208.434,34.802 C 208.092,34.802 207.71,34.91 207.71,35.253 C 207.71,35.596 207.661,36.193 207.648,36.451 C 207.643,36.549 207.594,36.802 207.621,37.14 C 207.567,36.843 207.404,36.64 207.242,36.64 L 205.808,36.64 C 205.443,36.64 205.443,36.775 205.375,37.181 C 205.375,37.019 205.375,36.64 205.362,36.451"
         id="path3082" /></clipPath><clipPath
       clipPathUnits="userSpaceOnUse"
       id="clipPath3088"><path
         d="M -0.003839,-2.24605 L 1.00007,-2.24605 L 1.00007,2.25569 L -0.003839,2.25569 L -0.003839,-2.24605 z"
         id="path3090" /></clipPath><linearGradient
       x1="0"
       y1="0"
       x2="1"
       y2="0"
       gradientUnits="userSpaceOnUse"
       gradientTransform="matrix(0,2.8678,2.8678,0,211.732,34.313)"
       spreadMethod="pad"
       id="linearGradient3092"><stop
         style="stop-opacity:1;stop-color:#bdbec0"
         offset="0"
         id="stop3094" /><stop
         style="stop-opacity:1;stop-color:#939598"
         offset="1"
         id="stop3096" /></linearGradient><clipPath
       clipPathUnits="userSpaceOnUse"
       id="clipPath3104"><path
         d="M 218.18,36.594 L 205.242,36.594 L 205.242,38.874 L 218.18,38.874 L 218.18,36.594 z"
         id="path3106" /></clipPath><clipPath
       clipPathUnits="userSpaceOnUse"
       id="clipPath3110"><path
         d="M 205.719,38.853 C 205.502,38.842 205.242,38.874 205.253,38.548 C 205.264,38.224 205.357,36.957 205.374,36.62 L 207.614,36.624 C 207.657,36.787 207.693,37.67 207.693,37.801 C 207.693,37.931 207.65,38.386 208.236,38.375 C 208.821,38.364 211.868,38.364 212.573,38.364 C 213.277,38.364 215.751,38.155 215.751,36.594 L 218.18,36.595 C 218.18,36.958 218.124,37.204 217.959,37.406 C 217.697,37.728 216.93,38.548 214.536,38.787 C 214.024,38.838 209.747,38.856 207.252,38.856 C 206.571,38.856 206.022,38.855 205.719,38.853"
         id="path3112" /></clipPath><clipPath
       clipPathUnits="userSpaceOnUse"
       id="clipPath3118"><path
         d="M 9.4e-05,-2.86176 L 1.00793,-2.86176 L 1.00793,2.85728 L 9.4e-05,2.85728 L 9.4e-05,-2.86176 z"
         id="path3120" /></clipPath><linearGradient
       x1="0"
       y1="0"
       x2="1"
       y2="0"
       gradientUnits="userSpaceOnUse"
       gradientTransform="matrix(0,2.2623,2.2623,0,211.716,36.594)"
       spreadMethod="pad"
       id="linearGradient3122"><stop
         style="stop-opacity:1;stop-color:#ffffff"
         offset="0"
         id="stop3124" /><stop
         style="stop-opacity:1;stop-color:#bdbec0"
         offset="1"
         id="stop3126" /></linearGradient><clipPath
       clipPathUnits="userSpaceOnUse"
       id="clipPath3134"><path
         d="M 250.127,34.302 L 237.214,34.302 L 237.214,37.181 L 250.127,37.181 L 250.127,34.302 z"
         id="path3136" /></clipPath><clipPath
       clipPathUnits="userSpaceOnUse"
       id="clipPath3140"><path
         d="M 237.286,36.451 C 237.249,35.936 237.214,35.449 237.214,34.949 C 237.214,34.45 237.328,34.329 237.681,34.322 C 238.048,34.314 240.652,34.302 242.544,34.332 C 243.067,34.339 243.575,34.336 244.063,34.333 C 245.757,34.322 247.22,34.31 248.334,34.773 C 249.571,35.286 250.04,36.155 250.075,36.388 C 250.108,36.615 250.127,37.035 249.999,37.035 C 249.872,37.035 247.936,36.711 247.781,36.698 C 247.682,36.69 247.646,36.457 247.646,36.457 C 247.401,35.223 246.032,34.812 245.709,34.802 C 245.307,34.79 240.701,34.802 240.358,34.802 C 240.016,34.802 239.634,34.91 239.634,35.253 C 239.634,35.596 239.585,36.193 239.572,36.451 C 239.566,36.549 239.518,36.802 239.545,37.14 C 239.491,36.843 239.328,36.64 239.166,36.64 L 237.732,36.64 C 237.367,36.64 237.367,36.775 237.299,37.181 C 237.299,37.019 237.299,36.64 237.286,36.451"
         id="path3142" /></clipPath><clipPath
       clipPathUnits="userSpaceOnUse"
       id="clipPath3148"><path
         d="M -0.003839,-2.24664 L 1.00007,-2.24664 L 1.00007,2.25614 L -0.003839,2.25614 L -0.003839,-2.24664 z"
         id="path3150" /></clipPath><linearGradient
       x1="0"
       y1="0"
       x2="1"
       y2="0"
       gradientUnits="userSpaceOnUse"
       gradientTransform="matrix(0,2.8678,2.8678,0,243.657,34.313)"
       spreadMethod="pad"
       id="linearGradient3152"><stop
         style="stop-opacity:1;stop-color:#bdbec0"
         offset="0"
         id="stop3154" /><stop
         style="stop-opacity:1;stop-color:#939598"
         offset="1"
         id="stop3156" /></linearGradient><clipPath
       clipPathUnits="userSpaceOnUse"
       id="clipPath3172"><path
         d="M 250.104,36.594 L 237.166,36.594 L 237.166,38.874 L 250.104,38.874 L 250.104,36.594 z"
         id="path3174" /></clipPath><clipPath
       clipPathUnits="userSpaceOnUse"
       id="clipPath3178"><path
         d="M 237.643,38.853 C 237.426,38.842 237.166,38.874 237.177,38.548 C 237.188,38.224 237.281,36.957 237.298,36.62 L 239.538,36.624 C 239.581,36.787 239.617,37.67 239.617,37.801 C 239.617,37.931 239.574,38.386 240.16,38.375 C 240.744,38.364 243.794,38.364 244.498,38.364 C 245.203,38.364 247.675,38.155 247.675,36.594 L 250.104,36.595 C 250.104,36.958 250.05,37.204 249.885,37.406 C 249.623,37.728 248.855,38.548 246.461,38.787 C 245.95,38.838 241.671,38.856 239.176,38.856 C 238.494,38.856 237.945,38.855 237.643,38.853"
         id="path3180" /></clipPath><clipPath
       clipPathUnits="userSpaceOnUse"
       id="clipPath3186"><path
         d="M 9.4e-05,-2.86208 L 1.00793,-2.86208 L 1.00793,2.85696 L 9.4e-05,2.85696 L 9.4e-05,-2.86208 z"
         id="path3188" /></clipPath><linearGradient
       x1="0"
       y1="0"
       x2="1"
       y2="0"
       gradientUnits="userSpaceOnUse"
       gradientTransform="matrix(0,2.2623,2.2623,0,243.641,36.594)"
       spreadMethod="pad"
       id="linearGradient3190"><stop
         style="stop-opacity:1;stop-color:#ffffff"
         offset="0"
         id="stop3192" /><stop
         style="stop-opacity:1;stop-color:#bdbec0"
         offset="1"
         id="stop3194" /></linearGradient><clipPath
       clipPathUnits="userSpaceOnUse"
       id="clipPath3202"><path
         d="M 234.559,36.551 L 220.666,36.551 L 220.666,38.962 L 234.559,38.962 L 234.559,36.551 z"
         id="path3204" /></clipPath><clipPath
       clipPathUnits="userSpaceOnUse"
       id="clipPath3208"><path
         d="M 226.933,38.962 C 225.677,38.962 225.21,38.943 223.744,38.65 C 222.06,38.313 221.341,37.728 221.043,37.43 C 220.745,37.131 220.666,36.757 220.734,36.554 L 223.056,36.551 C 223.133,37.139 223.431,37.551 224.278,37.985 C 225.126,38.418 226.502,38.437 227.533,38.437 C 228.562,38.437 229.42,38.438 230.624,38.131 C 232.025,37.774 232.24,36.911 232.278,36.565 L 234.498,36.569 C 234.498,36.569 234.559,36.866 234.435,37.138 C 234.267,37.505 233.953,38.011 232.412,38.473 C 230.872,38.936 229.318,38.962 227.557,38.962 C 227.327,38.962 227.121,38.962 226.933,38.962"
         id="path3210" /></clipPath><clipPath
       clipPathUnits="userSpaceOnUse"
       id="clipPath3216"><path
         d="M -0.000222,-2.88179 L 1.00006,-2.88179 L 1.00006,2.8822 L -0.000222,2.8822 L -0.000222,-2.88179 z"
         id="path3218" /></clipPath><linearGradient
       x1="0"
       y1="0"
       x2="1"
       y2="0"
       gradientUnits="userSpaceOnUse"
       gradientTransform="matrix(0,2.4103,2.4103,0,227.612,36.552)"
       spreadMethod="pad"
       id="linearGradient3220"><stop
         style="stop-opacity:1;stop-color:#ffffff"
         offset="0"
         id="stop3222" /><stop
         style="stop-opacity:1;stop-color:#bdbec0"
         offset="1"
         id="stop3224" /></linearGradient><clipPath
       clipPathUnits="userSpaceOnUse"
       id="clipPath3232"><path
         d="M 234.498,34.166 L 220.72,34.166 L 220.72,36.646 L 234.498,36.646 L 234.498,34.166 z"
         id="path3234" /></clipPath><clipPath
       clipPathUnits="userSpaceOnUse"
       id="clipPath3238"><path
         d="M 220.72,36.646 C 220.72,34.53 225.516,34.177 227.056,34.177 C 228.596,34.177 229.784,34.166 231.289,34.424 C 233.85,34.864 234.416,36.035 234.498,36.599 L 232.288,36.599 C 232.24,35.952 231.782,35.153 230.384,34.812 C 228.985,34.472 224.965,34.695 224.188,35.071 C 223.412,35.447 223.119,36.328 223.084,36.646 L 220.72,36.646"
         id="path3240" /></clipPath><clipPath
       clipPathUnits="userSpaceOnUse"
       id="clipPath3246"><path
         d="M -0.004658,-2.79094 L 1.00002,-2.79094 L 1.00002,2.79068 L -0.004658,2.79068 L -0.004658,-2.79094 z"
         id="path3248" /></clipPath><linearGradient
       x1="0"
       y1="0"
       x2="1"
       y2="0"
       gradientUnits="userSpaceOnUse"
       gradientTransform="matrix(0,2.4685,2.4685,0,227.609,34.178)"
       spreadMethod="pad"
       id="linearGradient3250"><stop
         style="stop-opacity:1;stop-color:#bdbec0"
         offset="0"
         id="stop3252" /><stop
         style="stop-opacity:1;stop-color:#939598"
         offset="1"
         id="stop3254" /></linearGradient><clipPath
       clipPathUnits="userSpaceOnUse"
       id="clipPath3266"><path
         d="M 266.115,36.456 L 252.647,36.456 L 252.647,38.847 L 266.115,38.847 L 266.115,36.456 z"
         id="path3268" /></clipPath><clipPath
       clipPathUnits="userSpaceOnUse"
       id="clipPath3280"><path
         d="M -5.1e-05,-2.81674 L 1.00006,-2.81674 L 1.00006,2.81668 L -5.1e-05,2.81668 L -5.1e-05,-2.81674 z"
         id="path3282" /></clipPath><linearGradient
       x1="0"
       y1="0"
       x2="1"
       y2="0"
       gradientUnits="userSpaceOnUse"
       gradientTransform="matrix(0,2.3907,2.3907,0,259.381,36.456)"
       spreadMethod="pad"
       id="linearGradient3284"><stop
         style="stop-opacity:1;stop-color:#ffffff"
         offset="0"
         id="stop3286" /><stop
         style="stop-opacity:1;stop-color:#bdbec0"
         offset="1"
         id="stop3288" /></linearGradient><clipPath
       clipPathUnits="userSpaceOnUse"
       id="clipPath3296"><path
         d="M 265.83,34.309 L 252.652,34.309 L 252.652,36.577 L 265.83,36.577 L 265.83,34.309 z"
         id="path3298" /></clipPath><clipPath
       clipPathUnits="userSpaceOnUse"
       id="clipPath3302"><path
         d="M 259.1,36.442 C 259.097,36.333 259.097,36.32 259.094,36.299 C 259.082,36.217 259.098,36.135 259.315,36.135 L 263.098,36.135 C 263.227,36.135 263.444,36.07 263.444,35.923 C 263.444,35.923 263.453,35.119 263.444,34.981 C 263.436,34.842 263.461,34.704 263.08,34.704 C 262.698,34.704 257.202,34.309 256.34,35.172 C 255.94,35.57 255.376,36.074 255.324,36.542 L 252.652,36.542 C 252.652,34.426 256.314,34.399 257.042,34.399 C 257.771,34.399 264.998,34.347 265.284,34.347 C 265.57,34.347 265.83,34.435 265.83,34.759 C 265.83,34.759 265.83,36.256 265.83,36.352 C 265.83,36.439 265.83,36.423 265.726,36.56 L 259.534,36.577 L 259.1,36.442"
         id="path3304" /></clipPath><clipPath
       clipPathUnits="userSpaceOnUse"
       id="clipPath3310"><path
         d="M -0.017358,-2.95607 L 1.00011,-2.95607 L 1.00011,2.95583 L -0.017358,2.95583 L -0.017358,-2.95607 z"
         id="path3312" /></clipPath><linearGradient
       x1="0"
       y1="0"
       x2="1"
       y2="0"
       gradientUnits="userSpaceOnUse"
       gradientTransform="matrix(0,2.2291,2.2291,0,259.241,34.348)"
       spreadMethod="pad"
       id="linearGradient3314"><stop
         style="stop-opacity:1;stop-color:#bdbec0"
         offset="0"
         id="stop3316" /><stop
         style="stop-opacity:1;stop-color:#939598"
         offset="1"
         id="stop3318" /></linearGradient><clipPath
       clipPathUnits="userSpaceOnUse"
       id="clipPath3334"><path
         d="M 281.019,36.314 L 269.144,36.314 L 269.144,38.8651 L 281.019,38.8651 L 281.019,36.314 z"
         id="path3336" /></clipPath><clipPath
       clipPathUnits="userSpaceOnUse"
       id="clipPath3348"><path
         d="M 9.4e-05,-2.32107 L 1.00002,-2.32107 L 1.00002,2.33361 L 9.4e-05,2.33361 L 9.4e-05,-2.32107 z"
         id="path3350" /></clipPath><linearGradient
       x1="0"
       y1="0"
       x2="1"
       y2="0"
       gradientUnits="userSpaceOnUse"
       gradientTransform="matrix(0,2.5512,2.5512,0,275.066,36.314)"
       spreadMethod="pad"
       id="linearGradient3352"><stop
         style="stop-opacity:1;stop-color:#ffffff"
         offset="0"
         id="stop3354" /><stop
         style="stop-opacity:1;stop-color:#bdbec0"
         offset="1"
         id="stop3356" /></linearGradient><clipPath
       clipPathUnits="userSpaceOnUse"
       id="clipPath3364"><path
         d="M 281.124,34.437 L 269.117,34.437 L 269.117,36.519 L 281.124,36.519 L 281.124,34.437 z"
         id="path3366" /></clipPath><clipPath
       clipPathUnits="userSpaceOnUse"
       id="clipPath3370"><path
         d="M 269.269,36.519 C 269.269,36.519 269.156,35.37 269.137,34.913 C 269.117,34.456 269.308,34.437 269.745,34.437 L 280.667,34.437 C 280.894,34.437 280.886,34.452 280.97,34.59 C 281.047,34.719 281.124,34.921 281.089,34.956 C 281.089,34.956 272.334,34.837 272.01,34.837 C 271.686,34.837 271.39,34.894 271.39,35.151 L 271.39,36.019 C 271.39,36.211 271.42,36.302 271.782,36.302 L 280.116,36.302 C 280.364,36.302 280.398,36.321 280.489,36.519 L 269.269,36.519"
         id="path3372" /></clipPath><clipPath
       clipPathUnits="userSpaceOnUse"
       id="clipPath3378"><path
         d="M -0.000178,-2.88261 L 1.00018,-2.88261 L 1.00018,2.88651 L -0.000178,2.88651 L -0.000178,-2.88261 z"
         id="path3380" /></clipPath><linearGradient
       x1="0"
       y1="0"
       x2="1"
       y2="0"
       gradientUnits="userSpaceOnUse"
       gradientTransform="matrix(0,2.0813,2.0813,0,275.116,34.437)"
       spreadMethod="pad"
       id="linearGradient3382"><stop
         style="stop-opacity:1;stop-color:#bdbec0"
         offset="0"
         id="stop3384" /><stop
         style="stop-opacity:1;stop-color:#939598"
         offset="1"
         id="stop3386" /></linearGradient></defs><sodipodi:namedview
     inkscape:window-height="843"
     inkscape:window-width="1086"
     inkscape:pageshadow="2"
     inkscape:pageopacity="0.0"
     guidetolerance="10.0"
     gridtolerance="10.0"
     objecttolerance="10.0"
     borderopacity="1.0"
     bordercolor="#666666"
     pagecolor="#ffffff"
     id="base"
     showgrid="false"
     showguides="true"
     inkscape:guide-bbox="true"
     inkscape:zoom="1"
     inkscape:cx="59.858212"
     inkscape:cy="9.1438467"
     inkscape:window-x="66"
     inkscape:window-y="87"
     inkscape:current-layer="g2412" /><g
     id="g2412"
     inkscape:groupmode="layer"
     inkscape:label="2011MYChryslerFleetProductShowcase"
     transform="matrix(1.25,0,0,-1.25,-256.19376,107.3252)"><g
       id="g2726"
       transform="matrix(4.4355243,0,0,4.4355243,555.99569,29.529)"><path
         d="M 0,0 L -5.47,0 L 5.569,12.7 L 11.038,12.7"
         style="fill:#e25744;fill-opacity:1;fill-rule:nonzero;stroke:none"
         id="path2728" /></g><g
       id="g2730"
       transform="matrix(4.4355243,0,0,4.4355243,538.06287,47.062627)"><path
         d="M 0,0 L -3.435,-3.953 L -8.906,-3.953 L -5.471,-0.001"
         style="fill:#e25744;fill-opacity:1;fill-rule:nonzero;stroke:none"
         id="path2732" /></g><g
       id="g2734"
       transform="matrix(4.4355243,0,0,4.4355243,546.02019,56.217549)"><path
         d="M 0,0 C 0,0 -0.19,0.206 -0.534,0.231 C -0.34,0.48 -0.326,0.679 -0.326,0.902 C -0.326,1.027 -0.328,1.139 -0.328,1.247 C -0.328,1.576 -0.504,1.781 -0.557,1.845 C -0.535,1.854 -0.267,1.916 -0.099,2.122 C 0.083,2.349 0.113,2.528 0.113,2.763 C 0.113,2.942 0.111,3.068 0.111,3.216 C 0.111,3.475 0.008,3.709 -0.156,3.863 C -0.374,4.07 -0.595,4.113 -0.815,4.113 C -0.954,4.113 -1.896,4.111 -1.896,4.111 L 0.338,6.683 L 5.81,6.683"
         style="fill:#e25744;fill-opacity:1;fill-rule:nonzero;stroke:none"
         id="path2736" /></g><g
       id="g2738"
       transform="matrix(4.4355243,0,0,4.4355243,206.9643,49.528779)"><path
         d="M 0,0 C -0.25,0 -0.453,0.206 -0.453,0.46 L -0.453,4.608 C -0.453,4.862 -0.25,5.068 0,5.068 L 8.809,5.046 C 11.292,5.046 13.304,3.919 13.304,2.529 C 13.304,1.139 11.292,0.013 8.809,0.013 L 0,0 z M 7.55,1.174 C 8.822,1.174 9.853,1.782 9.853,2.531 C 9.853,3.281 8.822,3.889 7.55,3.889 L 3.034,3.901 C 2.906,3.901 2.802,3.789 2.802,3.652 L 2.802,1.415 C 2.802,1.278 2.906,1.167 3.034,1.167"
         style="fill:#4d4d4f;fill-opacity:1;fill-rule:nonzero;stroke:none"
         id="path2740" /></g><g
       id="g2742"
       transform="matrix(4.4355243,0,0,4.4355243,207.053,49.648537)"><path
         d="M 0,0 C -0.249,0 -0.451,0.204 -0.451,0.456 L -0.451,4.571 C -0.451,4.823 -0.249,5.027 0,5.027 L 8.766,5.005 C 11.237,5.005 13.239,3.887 13.239,2.509 C 13.239,1.13 11.237,0.013 8.766,0.013 L 0,0 z M 7.53,1.136 C 8.814,1.136 9.855,1.753 9.855,2.515 C 9.855,3.277 8.815,3.894 7.531,3.895 L 2.975,3.908 C 2.845,3.908 2.74,3.795 2.74,3.656 L 2.74,1.382 C 2.74,1.243 2.845,1.13 2.974,1.13"
         style="fill:#57585a;fill-opacity:1;fill-rule:nonzero;stroke:none"
         id="path2744" /></g><g
       id="g2746"
       transform="matrix(4.4355243,0,0,4.4355243,207.14615,49.772732)"><path
         d="M 0,0 C -0.248,0 -0.448,0.203 -0.448,0.452 L -0.448,4.533 C -0.448,4.783 -0.248,4.986 0,4.986 L 8.723,4.964 C 11.181,4.964 13.174,3.856 13.174,2.488 C 13.174,1.121 11.181,0.013 8.723,0.013 L 0,0 z M 7.511,1.098 C 8.806,1.098 9.856,1.725 9.857,2.499 C 9.857,3.272 8.807,3.9 7.512,3.901 L 2.915,3.915 C 2.785,3.915 2.679,3.8 2.679,3.659 L 2.678,1.349 C 2.678,1.208 2.783,1.093 2.914,1.093"
         style="fill:#606163;fill-opacity:1;fill-rule:nonzero;stroke:none"
         id="path2748" /></g><g
       id="g2750"
       transform="matrix(4.4355243,0,0,4.4355243,207.23486,49.892492)"><path
         d="M 0,0 C -0.246,0 -0.446,0.201 -0.446,0.449 L -0.446,4.496 C -0.446,4.744 -0.246,4.945 0,4.945 L 8.68,4.923 C 11.126,4.923 13.109,3.824 13.109,2.468 C 13.109,1.112 11.126,0.012 8.68,0.012 L 0,0 z M 7.491,1.061 C 8.798,1.06 9.858,1.696 9.858,2.482 C 9.859,3.268 8.8,3.906 7.493,3.907 L 2.856,3.922 C 2.724,3.922 2.617,3.806 2.617,3.662 L 2.616,1.316 C 2.616,1.173 2.722,1.056 2.854,1.056"
         style="fill:#696a6d;fill-opacity:1;fill-rule:nonzero;stroke:none"
         id="path2752" /></g><g
       id="g2754"
       transform="matrix(4.4355243,0,0,4.4355243,207.328,50.012251)"><path
         d="M 0,0 C -0.245,0 -0.444,0.199 -0.444,0.445 L -0.444,4.459 C -0.444,4.705 -0.245,4.904 0,4.904 L 8.637,4.883 C 11.071,4.883 13.044,3.792 13.044,2.448 C 13.044,1.102 11.071,0.012 8.637,0.012 L 0,0 z M 7.472,1.023 C 8.79,1.022 9.859,1.668 9.86,2.466 C 9.861,3.264 8.792,3.912 7.474,3.913 L 2.796,3.929 C 2.663,3.929 2.555,3.811 2.555,3.665 L 2.553,1.283 C 2.553,1.137 2.661,1.019 2.794,1.019"
         style="fill:#727375;fill-opacity:1;fill-rule:nonzero;stroke:none"
         id="path2756" /></g><g
       id="g2758"
       transform="matrix(4.4355243,0,0,4.4355243,207.41671,50.132011)"><path
         d="M 0,0 C -0.244,0 -0.442,0.198 -0.442,0.441 L -0.442,4.422 C -0.442,4.666 -0.244,4.863 0,4.863 L 8.594,4.842 C 11.016,4.842 12.979,3.761 12.979,2.427 C 12.979,1.093 11.016,0.012 8.594,0.012 L 0,0 z M 7.453,0.985 C 8.782,0.984 9.861,1.639 9.862,2.45 C 9.863,3.26 8.785,3.918 7.455,3.919 L 2.737,3.936 C 2.603,3.936 2.494,3.817 2.494,3.668 L 2.491,1.25 C 2.491,1.102 2.6,0.982 2.734,0.982"
         style="fill:#797b7e;fill-opacity:1;fill-rule:nonzero;stroke:none"
         id="path2760" /></g><g
       id="g2762"
       transform="matrix(4.4355243,0,0,4.4355243,207.50986,50.251769)"><path
         d="M 0,0 C -0.243,0 -0.439,0.196 -0.439,0.438 L -0.439,4.386 C -0.439,4.626 -0.243,4.823 0,4.823 L 8.551,4.802 C 10.96,4.802 12.914,3.73 12.914,2.407 C 12.914,1.084 10.96,0.013 8.551,0.013 L 0,0 z M 7.433,0.948 C 8.774,0.946 9.862,1.612 9.863,2.433 C 9.864,3.256 8.778,3.925 7.437,3.925 L 2.677,3.944 C 2.542,3.944 2.432,3.823 2.432,3.672 L 2.429,1.217 C 2.429,1.068 2.538,0.946 2.674,0.946"
         style="fill:#818386;fill-opacity:1;fill-rule:nonzero;stroke:none"
         id="path2764" /></g><g
       id="g2766"
       transform="matrix(4.4355243,0,0,4.4355243,207.59856,50.375964)"><path
         d="M 0,0 C -0.242,0 -0.437,0.194 -0.437,0.434 L -0.437,4.347 C -0.437,4.587 -0.242,4.781 0,4.781 L 8.508,4.76 C 10.905,4.76 12.849,3.697 12.849,2.386 C 12.849,1.075 10.905,0.012 8.508,0.012 L 0,0 z M 7.414,0.909 C 8.766,0.907 9.864,1.582 9.865,2.417 C 9.866,3.251 8.77,3.929 7.418,3.931 L 2.618,3.951 C 2.481,3.951 2.371,3.827 2.371,3.675 L 2.367,1.184 C 2.367,1.032 2.477,0.908 2.613,0.908"
         style="fill:#898b8d;fill-opacity:1;fill-rule:nonzero;stroke:none"
         id="path2768" /></g><g
       id="g2770"
       transform="matrix(4.4355243,0,0,4.4355243,207.69171,50.495722)"><path
         d="M 0,0 C -0.241,0 -0.436,0.193 -0.436,0.43 L -0.436,4.31 C -0.436,4.548 -0.241,4.74 0,4.74 L 8.464,4.72 C 10.849,4.72 12.782,3.666 12.782,2.366 C 12.782,1.066 10.849,0.012 8.464,0.012 L 0,0 z M 7.394,0.871 C 8.757,0.869 9.864,1.554 9.866,2.401 C 9.867,3.247 8.762,3.935 7.398,3.937 L 2.558,3.958 C 2.42,3.958 2.308,3.833 2.308,3.678 L 2.304,1.151 C 2.304,0.996 2.415,0.871 2.552,0.87"
         style="fill:#919396;fill-opacity:1;fill-rule:nonzero;stroke:none"
         id="path2772" /></g><g
       id="g2774"
       transform="matrix(4.4355243,0,0,4.4355243,207.78043,50.615482)"><path
         d="M 0,0 C -0.239,0 -0.433,0.191 -0.433,0.426 L -0.433,4.273 C -0.433,4.508 -0.239,4.699 0,4.699 L 8.421,4.679 C 10.795,4.679 12.718,3.634 12.718,2.345 C 12.718,1.056 10.795,0.012 8.421,0.012 L 0,0 z M 7.375,0.833 C 8.75,0.831 9.867,1.525 9.868,2.384 C 9.87,3.243 8.756,3.941 7.38,3.943 L 2.499,3.965 C 2.36,3.965 2.248,3.838 2.247,3.681 L 2.243,1.118 C 2.243,0.961 2.355,0.833 2.493,0.833"
         style="fill:#989b9d;fill-opacity:1;fill-rule:nonzero;stroke:none"
         id="path2776" /></g><g
       id="g2778"
       transform="matrix(4.4355243,0,0,4.4355243,207.86913,50.739677)"><path
         d="M 0,0 C -0.238,0 -0.431,0.188 -0.431,0.422 L -0.431,4.235 C -0.431,4.469 -0.238,4.657 0,4.657 L 8.378,4.638 C 10.739,4.638 12.653,3.601 12.653,2.325 C 12.653,1.047 10.739,0.011 8.378,0.011 L 0,0 z M 7.356,0.794 C 8.743,0.792 9.868,1.497 9.87,2.367 C 9.872,3.239 8.748,3.947 7.361,3.948 L 2.439,3.971 C 2.3,3.973 2.186,3.844 2.186,3.683 L 2.181,1.084 C 2.181,0.925 2.294,0.796 2.433,0.796"
         style="fill:#a1a3a5;fill-opacity:1;fill-rule:nonzero;stroke:none"
         id="path2780" /></g><g
       id="g2782"
       transform="matrix(4.4355243,0,0,4.4355243,207.96228,50.859436)"><path
         d="M 0,0 C -0.237,0 -0.428,0.188 -0.428,0.419 L -0.428,4.198 C -0.428,4.43 -0.237,4.618 0,4.618 L 8.335,4.597 C 10.684,4.597 12.588,3.571 12.588,2.304 C 12.588,1.038 10.684,0.012 8.335,0.012 L 0,0 z M 7.336,0.757 C 8.735,0.755 9.87,1.468 9.872,2.352 C 9.873,3.235 8.741,3.953 7.342,3.956 L 2.38,3.979 C 2.239,3.98 2.124,3.849 2.124,3.688 L 2.119,1.052 C 2.118,0.89 2.232,0.759 2.373,0.759"
         style="fill:#abadb0;fill-opacity:1;fill-rule:nonzero;stroke:none"
         id="path2784" /></g><g
       id="g2786"
       transform="matrix(4.4355243,0,0,4.4355243,208.051,50.979196)"><path
         d="M 0,0 C -0.235,0 -0.426,0.186 -0.426,0.415 L -0.426,4.161 C -0.426,4.391 -0.235,4.576 0,4.576 L 8.292,4.557 C 10.629,4.557 12.523,3.539 12.523,2.284 C 12.523,1.029 10.629,0.011 8.292,0.011 L 0,0 z M 7.317,0.719 C 8.727,0.716 9.871,1.44 9.873,2.335 C 9.875,3.23 8.734,3.959 7.324,3.962 L 2.32,3.987 C 2.178,3.987 2.063,3.854 2.062,3.691 L 2.057,1.019 C 2.056,0.855 2.171,0.722 2.313,0.722"
         style="fill:#b3b5b7;fill-opacity:1;fill-rule:nonzero;stroke:none"
         id="path2788" /></g><g
       id="g2790"
       transform="matrix(4.4355243,0,0,4.4355243,208.14415,51.098954)"><path
         d="M 0,0 C -0.234,0 -0.424,0.184 -0.424,0.412 L -0.424,4.124 C -0.424,4.351 -0.234,4.536 0,4.536 L 8.249,4.516 C 10.574,4.516 12.458,3.507 12.458,2.264 C 12.458,1.02 10.574,0.011 8.249,0.011 L 0,0 z M 7.297,0.682 C 8.719,0.678 9.873,1.411 9.875,2.319 C 9.877,3.226 8.726,3.964 7.305,3.968 L 2.261,3.994 C 2.118,3.994 2.001,3.86 2.001,3.694 L 1.995,0.986 C 1.994,0.82 2.11,0.685 2.253,0.685"
         style="fill:#bdbec0;fill-opacity:1;fill-rule:nonzero;stroke:none"
         id="path2792" /></g><g
       id="g2794"
       transform="matrix(4.4355243,0,0,4.4355243,348.78573,49.528779)"><path
         d="M 0,0 C -0.25,0 -0.453,0.206 -0.453,0.46 L -0.453,4.608 C -0.453,4.862 -0.25,5.068 0,5.068 L 8.809,5.046 C 11.292,5.046 13.304,3.919 13.304,2.529 C 13.304,1.139 11.292,0.013 8.809,0.013 L 0,0 z M 7.55,1.174 C 8.822,1.174 9.853,1.782 9.853,2.531 C 9.853,3.281 8.822,3.889 7.55,3.889 L 3.034,3.901 C 2.906,3.901 2.802,3.789 2.802,3.652 L 2.802,1.415 C 2.802,1.278 2.906,1.167 3.034,1.167"
         style="fill:#4d4d4f;fill-opacity:1;fill-rule:nonzero;stroke:none"
         id="path2796" /></g><g
       id="g2798"
       transform="matrix(4.4355243,0,0,4.4355243,348.87445,49.648537)"><path
         d="M 0,0 C -0.249,0 -0.45,0.204 -0.45,0.456 L -0.45,4.571 C -0.45,4.823 -0.249,5.027 0,5.027 L 8.766,5.005 C 11.237,5.005 13.239,3.887 13.239,2.509 C 13.239,1.13 11.237,0.013 8.766,0.013 L 0,0 z M 7.53,1.136 C 8.814,1.136 9.855,1.753 9.855,2.515 C 9.855,3.277 8.815,3.894 7.531,3.895 L 2.975,3.908 C 2.845,3.908 2.74,3.795 2.74,3.656 L 2.74,1.382 C 2.74,1.243 2.845,1.13 2.974,1.13"
         style="fill:#57585a;fill-opacity:1;fill-rule:nonzero;stroke:none"
         id="path2800" /></g><g
       id="g2802"
       transform="matrix(4.4355243,0,0,4.4355243,348.96317,49.772732)"><path
         d="M 0,0 C -0.247,0 -0.448,0.203 -0.448,0.452 L -0.448,4.533 C -0.448,4.783 -0.247,4.986 0,4.986 L 8.723,4.964 C 11.181,4.964 13.174,3.856 13.174,2.488 C 13.174,1.121 11.181,0.013 8.723,0.013 L 0,0 z M 7.511,1.098 C 8.806,1.098 9.856,1.725 9.857,2.499 C 9.857,3.272 8.807,3.9 7.512,3.901 L 2.915,3.915 C 2.785,3.915 2.679,3.8 2.679,3.659 L 2.678,1.349 C 2.678,1.208 2.783,1.093 2.914,1.093"
         style="fill:#606163;fill-opacity:1;fill-rule:nonzero;stroke:none"
         id="path2804" /></g><g
       id="g2806"
       transform="matrix(4.4355243,0,0,4.4355243,349.0563,49.892492)"><path
         d="M 0,0 C -0.246,0 -0.446,0.201 -0.446,0.449 L -0.446,4.496 C -0.446,4.744 -0.246,4.945 0,4.945 L 8.68,4.923 C 11.126,4.923 13.109,3.824 13.109,2.468 C 13.109,1.112 11.126,0.012 8.68,0.012 L 0,0 z M 7.491,1.061 C 8.798,1.06 9.858,1.696 9.858,2.482 C 9.859,3.268 8.8,3.906 7.493,3.907 L 2.856,3.922 C 2.724,3.922 2.617,3.806 2.617,3.662 L 2.616,1.316 C 2.616,1.173 2.722,1.056 2.854,1.056"
         style="fill:#696a6d;fill-opacity:1;fill-rule:nonzero;stroke:none"
         id="path2808" /></g><g
       id="g2810"
       transform="matrix(4.4355243,0,0,4.4355243,349.14502,50.012251)"><path
         d="M 0,0 C -0.245,0 -0.444,0.199 -0.444,0.445 L -0.444,4.459 C -0.444,4.705 -0.245,4.904 0,4.904 L 8.637,4.883 C 11.071,4.883 13.044,3.792 13.044,2.448 C 13.044,1.102 11.071,0.012 8.637,0.012 L 0,0 z M 7.472,1.023 C 8.79,1.022 9.859,1.668 9.86,2.466 C 9.861,3.264 8.793,3.912 7.474,3.913 L 2.796,3.929 C 2.663,3.929 2.556,3.811 2.556,3.665 L 2.554,1.283 C 2.553,1.137 2.661,1.019 2.794,1.019"
         style="fill:#727375;fill-opacity:1;fill-rule:nonzero;stroke:none"
         id="path2812" /></g><g
       id="g2814"
       transform="matrix(4.4355243,0,0,4.4355243,349.23817,50.132011)"><path
         d="M 0,0 C -0.244,0 -0.442,0.198 -0.442,0.441 L -0.442,4.422 C -0.442,4.666 -0.244,4.863 0,4.863 L 8.594,4.842 C 11.016,4.842 12.979,3.761 12.979,2.427 C 12.979,1.093 11.016,0.012 8.594,0.012 L 0,0 z M 7.453,0.985 C 8.782,0.984 9.861,1.639 9.862,2.45 C 9.863,3.26 8.785,3.918 7.456,3.919 L 2.737,3.936 C 2.603,3.936 2.494,3.817 2.494,3.668 L 2.491,1.25 C 2.491,1.102 2.6,0.982 2.734,0.982"
         style="fill:#797b7e;fill-opacity:1;fill-rule:nonzero;stroke:none"
         id="path2816" /></g><g
       id="g2818"
       transform="matrix(4.4355243,0,0,4.4355243,349.32687,50.251769)"><path
         d="M 0,0 C -0.243,0 -0.439,0.196 -0.439,0.438 L -0.439,4.386 C -0.439,4.626 -0.243,4.823 0,4.823 L 8.551,4.802 C 10.96,4.802 12.914,3.73 12.914,2.407 C 12.914,1.084 10.96,0.013 8.551,0.013 L 0,0 z M 7.433,0.948 C 8.775,0.946 9.863,1.612 9.863,2.433 C 9.864,3.256 8.778,3.925 7.437,3.925 L 2.677,3.944 C 2.542,3.944 2.432,3.823 2.432,3.672 L 2.429,1.217 C 2.429,1.068 2.539,0.946 2.674,0.946"
         style="fill:#818386;fill-opacity:1;fill-rule:nonzero;stroke:none"
         id="path2820" /></g><g
       id="g2822"
       transform="matrix(4.4355243,0,0,4.4355243,349.42002,50.375964)"><path
         d="M 0,0 C -0.241,0 -0.437,0.194 -0.437,0.434 L -0.437,4.347 C -0.437,4.587 -0.241,4.781 0,4.781 L 8.508,4.76 C 10.905,4.76 12.848,3.697 12.848,2.386 C 12.848,1.075 10.905,0.012 8.508,0.012 L 0,0 z M 7.414,0.909 C 8.766,0.907 9.864,1.582 9.865,2.417 C 9.866,3.251 8.771,3.929 7.418,3.931 L 2.618,3.951 C 2.481,3.951 2.371,3.827 2.371,3.675 L 2.367,1.184 C 2.367,1.032 2.477,0.908 2.614,0.908"
         style="fill:#898b8d;fill-opacity:1;fill-rule:nonzero;stroke:none"
         id="path2824" /></g><g
       id="g2826"
       transform="matrix(4.4355243,0,0,4.4355243,349.50873,50.495722)"><path
         d="M 0,0 C -0.24,0 -0.435,0.193 -0.435,0.43 L -0.435,4.31 C -0.435,4.548 -0.24,4.74 0,4.74 L 8.465,4.72 C 10.85,4.72 12.783,3.666 12.783,2.366 C 12.783,1.066 10.85,0.012 8.465,0.012 L 0,0 z M 7.394,0.871 C 8.759,0.869 9.865,1.554 9.867,2.401 C 9.868,3.247 8.763,3.935 7.399,3.937 L 2.558,3.958 C 2.421,3.958 2.309,3.833 2.309,3.678 L 2.305,1.151 C 2.305,0.996 2.416,0.871 2.554,0.87"
         style="fill:#919396;fill-opacity:1;fill-rule:nonzero;stroke:none"
         id="path2828" /></g><g
       id="g2830"
       transform="matrix(4.4355243,0,0,4.4355243,349.60188,50.615482)"><path
         d="M 0,0 C -0.239,0 -0.433,0.191 -0.433,0.426 L -0.433,4.273 C -0.433,4.508 -0.239,4.699 0,4.699 L 8.421,4.679 C 10.795,4.679 12.718,3.634 12.718,2.345 C 12.718,1.056 10.795,0.012 8.421,0.012 L 0,0 z M 7.375,0.833 C 8.751,0.831 9.867,1.525 9.868,2.384 C 9.87,3.243 8.756,3.941 7.38,3.943 L 2.499,3.965 C 2.36,3.965 2.248,3.838 2.247,3.681 L 2.243,1.118 C 2.243,0.961 2.355,0.833 2.493,0.833"
         style="fill:#989b9d;fill-opacity:1;fill-rule:nonzero;stroke:none"
         id="path2832" /></g><g
       id="g2834"
       transform="matrix(4.4355243,0,0,4.4355243,349.69058,50.739677)"><path
         d="M 0,0 C -0.238,0 -0.431,0.188 -0.431,0.422 L -0.431,4.235 C -0.431,4.469 -0.238,4.657 0,4.657 L 8.378,4.638 C 10.739,4.638 12.653,3.601 12.653,2.325 C 12.653,1.047 10.739,0.011 8.378,0.011 L 0,0 z M 7.355,0.794 C 8.743,0.792 9.868,1.497 9.87,2.367 C 9.872,3.239 8.748,3.947 7.361,3.948 L 2.439,3.971 C 2.3,3.973 2.186,3.844 2.186,3.683 L 2.181,1.084 C 2.181,0.925 2.294,0.796 2.433,0.796"
         style="fill:#a1a3a5;fill-opacity:1;fill-rule:nonzero;stroke:none"
         id="path2836" /></g><g
       id="g2838"
       transform="matrix(4.4355243,0,0,4.4355243,349.7793,50.859436)"><path
         d="M 0,0 C -0.236,0 -0.428,0.188 -0.428,0.419 L -0.428,4.198 C -0.428,4.43 -0.236,4.618 0,4.618 L 8.335,4.597 C 10.684,4.597 12.588,3.571 12.588,2.304 C 12.588,1.038 10.684,0.012 8.335,0.012 L 0,0 z M 7.336,0.757 C 8.735,0.755 9.87,1.468 9.872,2.352 C 9.873,3.235 8.741,3.953 7.343,3.956 L 2.38,3.979 C 2.239,3.98 2.124,3.849 2.124,3.688 L 2.119,1.052 C 2.118,0.89 2.232,0.759 2.373,0.759"
         style="fill:#abadb0;fill-opacity:1;fill-rule:nonzero;stroke:none"
         id="path2840" /></g><g
       id="g2842"
       transform="matrix(4.4355243,0,0,4.4355243,349.87245,50.979196)"><path
         d="M 0,0 C -0.235,0 -0.426,0.186 -0.426,0.415 L -0.426,4.161 C -0.426,4.391 -0.235,4.576 0,4.576 L 8.292,4.557 C 10.629,4.557 12.523,3.539 12.523,2.284 C 12.523,1.029 10.629,0.011 8.292,0.011 L 0,0 z M 7.317,0.719 C 8.727,0.716 9.871,1.44 9.873,2.335 C 9.875,3.23 8.734,3.959 7.324,3.962 L 2.32,3.987 C 2.178,3.987 2.063,3.854 2.062,3.691 L 2.057,1.019 C 2.056,0.855 2.171,0.722 2.313,0.722"
         style="fill:#b3b5b7;fill-opacity:1;fill-rule:nonzero;stroke:none"
         id="path2844" /></g><g
       id="g2846"
       transform="matrix(4.4355243,0,0,4.4355243,349.96115,51.098954)"><path
         d="M 0,0 C -0.234,0 -0.424,0.184 -0.424,0.412 L -0.424,4.124 C -0.424,4.351 -0.234,4.536 0,4.536 L 8.249,4.516 C 10.574,4.516 12.458,3.507 12.458,2.264 C 12.458,1.02 10.574,0.011 8.249,0.011 L 0,0 z M 7.297,0.682 C 8.719,0.678 9.873,1.411 9.875,2.319 C 9.877,3.226 8.726,3.964 7.305,3.968 L 2.261,3.994 C 2.118,3.994 2.001,3.86 2.001,3.694 L 1.995,0.986 C 1.994,0.82 2.11,0.685 2.253,0.685"
         style="fill:#bdbec0;fill-opacity:1;fill-rule:nonzero;stroke:none"
         id="path2848" /></g><g
       id="g2850"
       transform="matrix(4.4355243,0,0,4.4355243,298.38488,49.032001)"><path
         d="M 0,0 C -3.109,0.1 -5.632,1.177 -5.632,2.629 C -5.632,4.081 -3.109,5.166 0,5.258 C 0.572,5.275 1.186,5.291 1.767,5.291 C 2.347,5.291 2.961,5.275 3.533,5.258 C 6.643,5.166 9.165,4.081 9.165,2.629 C 9.165,1.177 6.642,0.1 3.533,0 C 3.011,-0.017 2.497,-0.034 1.767,-0.034 C 1.037,-0.034 0.523,-0.017 0,0 M 1.767,1.132 C 2.164,1.132 2.444,1.142 2.728,1.151 C 4.42,1.207 5.793,1.813 5.793,2.629 C 5.793,3.445 4.42,4.055 2.728,4.107 C 2.417,4.116 2.083,4.126 1.767,4.126 C 1.451,4.126 1.117,4.116 0.805,4.107 C -0.886,4.055 -2.259,3.445 -2.259,2.629 C -2.259,1.813 -0.886,1.207 0.805,1.151 C 1.09,1.142 1.37,1.132 1.767,1.132"
         style="fill:#4d4d4f;fill-opacity:1;fill-rule:nonzero;stroke:none"
         id="path2852" /></g><g
       id="g2854"
       transform="matrix(4.4355243,0,0,4.4355243,298.3627,49.147324)"><path
         d="M 0,0 C -3.092,0.099 -5.602,1.168 -5.602,2.609 C -5.602,4.05 -3.093,5.127 0,5.218 C 0.569,5.234 1.18,5.251 1.757,5.251 C 2.335,5.251 2.945,5.234 3.515,5.218 C 6.608,5.127 9.117,4.05 9.117,2.609 C 9.117,1.168 6.607,0.099 3.515,0 C 2.995,-0.017 2.483,-0.033 1.757,-0.033 C 1.031,-0.033 0.52,-0.017 0,0 M 1.765,1.092 C 2.166,1.092 2.448,1.102 2.735,1.112 C 4.442,1.169 5.826,1.784 5.826,2.612 C 5.826,3.441 4.442,4.061 2.735,4.113 C 2.421,4.123 2.084,4.132 1.765,4.132 C 1.446,4.132 1.109,4.123 0.795,4.113 C -0.912,4.061 -2.296,3.441 -2.296,2.612 C -2.296,1.784 -0.911,1.169 0.795,1.112 C 1.082,1.102 1.364,1.092 1.765,1.092"
         style="fill:#57585a;fill-opacity:1;fill-rule:nonzero;stroke:none"
         id="path2856" /></g><g
       id="g2858"
       transform="matrix(4.4355243,0,0,4.4355243,298.33608,49.262647)"><path
         d="M 0,0 C -3.076,0.099 -5.573,1.159 -5.573,2.589 C -5.573,4.019 -3.076,5.087 0,5.178 C 0.566,5.194 1.174,5.211 1.748,5.211 C 2.323,5.211 2.93,5.194 3.496,5.178 C 6.573,5.087 9.069,4.019 9.069,2.589 C 9.069,1.159 6.573,0.099 3.496,0 C 2.979,-0.017 2.47,-0.033 1.748,-0.033 C 1.026,-0.033 0.517,-0.017 0,0 M 1.763,1.053 C 2.168,1.053 2.452,1.062 2.742,1.072 C 4.464,1.13 5.861,1.754 5.861,2.596 C 5.861,3.437 4.464,4.066 2.742,4.119 C 2.425,4.129 2.085,4.139 1.763,4.139 C 1.442,4.139 1.102,4.129 0.785,4.119 C -0.937,4.066 -2.334,3.437 -2.334,2.596 C -2.334,1.754 -0.937,1.13 0.785,1.072 C 1.074,1.062 1.359,1.053 1.763,1.053"
         style="fill:#606163;fill-opacity:1;fill-rule:nonzero;stroke:none"
         id="path2860" /></g><g
       id="g2862"
       transform="matrix(4.4355243,0,0,4.4355243,298.31392,49.377971)"><path
         d="M 0,0 C -3.06,0.098 -5.543,1.15 -5.543,2.569 C -5.543,3.987 -3.06,5.048 0,5.138 C 0.563,5.154 1.167,5.171 1.739,5.171 C 2.31,5.171 2.914,5.154 3.478,5.138 C 6.538,5.048 9.021,3.987 9.021,2.569 C 9.021,1.15 6.538,0.098 3.478,0 C 2.963,-0.016 2.457,-0.033 1.739,-0.033 C 1.02,-0.033 0.514,-0.016 0,0 M 1.762,1.013 C 2.17,1.013 2.457,1.023 2.749,1.033 C 4.485,1.092 5.895,1.725 5.895,2.579 C 5.895,3.433 4.485,4.072 2.749,4.126 C 2.429,4.136 2.086,4.145 1.762,4.145 C 1.438,4.145 1.095,4.136 0.775,4.126 C -0.962,4.072 -2.371,3.433 -2.371,2.579 C -2.371,1.725 -0.962,1.092 0.775,1.033 C 1.067,1.023 1.354,1.013 1.762,1.013"
         style="fill:#696a6d;fill-opacity:1;fill-rule:nonzero;stroke:none"
         id="path2864" /></g><g
       id="g2866"
       transform="matrix(4.4355243,0,0,4.4355243,298.29617,49.493294)"><path
         d="M 0,0 C -3.045,0.097 -5.515,1.141 -5.515,2.549 C -5.515,3.956 -3.045,5.009 0,5.097 C 0.56,5.114 1.161,5.13 1.73,5.13 C 2.297,5.13 2.898,5.114 3.459,5.097 C 6.502,5.009 8.972,3.956 8.972,2.549 C 8.972,1.141 6.502,0.097 3.459,0 C 2.948,-0.016 2.443,-0.033 1.73,-0.033 C 1.015,-0.033 0.511,-0.016 0,0 M 1.759,0.973 C 2.17,0.973 2.461,0.983 2.756,0.993 C 4.506,1.053 5.928,1.696 5.928,2.562 C 5.928,3.429 4.506,4.077 2.756,4.132 C 2.433,4.142 2.086,4.152 1.759,4.152 C 1.433,4.152 1.086,4.142 0.765,4.132 C -0.988,4.077 -2.408,3.429 -2.408,2.562 C -2.408,1.696 -0.988,1.053 0.765,0.993 C 1.058,0.983 1.349,0.973 1.759,0.973"
         style="fill:#727375;fill-opacity:1;fill-rule:nonzero;stroke:none"
         id="path2868" /></g><g
       id="g2870"
       transform="matrix(4.4355243,0,0,4.4355243,298.26955,49.608619)"><path
         d="M 0,0 C -3.027,0.096 -5.484,1.132 -5.484,2.529 C -5.484,3.925 -3.027,4.969 0,5.058 C 0.557,5.074 1.155,5.09 1.72,5.09 C 2.286,5.09 2.883,5.074 3.441,5.058 C 6.468,4.969 8.925,3.925 8.925,2.529 C 8.925,1.132 6.468,0.096 3.441,0 C 2.932,-0.016 2.431,-0.032 1.72,-0.032 C 1.01,-0.032 0.509,-0.016 0,0 M 1.759,0.933 C 2.173,0.933 2.466,0.944 2.763,0.954 C 4.529,1.014 5.963,1.667 5.963,2.546 C 5.963,3.425 4.529,4.083 2.763,4.138 C 2.437,4.148 2.088,4.159 1.759,4.159 C 1.429,4.159 1.08,4.148 0.755,4.138 C -1.012,4.083 -2.446,3.425 -2.446,2.546 C -2.446,1.667 -1.012,1.014 0.755,0.954 C 1.052,0.944 1.344,0.933 1.759,0.933"
         style="fill:#797b7e;fill-opacity:1;fill-rule:nonzero;stroke:none"
         id="path2872" /></g><g
       id="g2874"
       transform="matrix(4.4355243,0,0,4.4355243,298.24738,49.723942)"><path
         d="M 0,0 C -3.011,0.096 -5.454,1.123 -5.454,2.509 C -5.454,3.894 -3.011,4.93 0,5.017 C 0.554,5.034 1.149,5.05 1.711,5.05 C 2.274,5.05 2.868,5.034 3.422,5.017 C 6.433,4.93 8.877,3.894 8.877,2.509 C 8.877,1.123 6.433,0.096 3.422,0 C 2.916,-0.016 2.418,-0.032 1.711,-0.032 C 1.004,-0.032 0.506,-0.016 0,0 M 1.757,0.894 C 2.175,0.894 2.47,0.904 2.77,0.914 C 4.551,0.976 5.997,1.637 5.997,2.529 C 5.997,3.421 4.551,4.088 2.77,4.144 C 2.442,4.155 2.09,4.165 1.757,4.165 C 1.424,4.165 1.073,4.155 0.745,4.144 C -1.037,4.088 -2.483,3.421 -2.483,2.529 C -2.483,1.637 -1.037,0.976 0.745,0.914 C 1.044,0.904 1.339,0.894 1.757,0.894"
         style="fill:#818386;fill-opacity:1;fill-rule:nonzero;stroke:none"
         id="path2876" /></g><g
       id="g2878"
       transform="matrix(4.4355243,0,0,4.4355243,298.2252,49.839266)"><path
         d="M 0,0 C -2.994,0.095 -5.425,1.114 -5.425,2.489 C -5.425,3.863 -2.995,4.891 0,4.977 C 0.551,4.993 1.143,5.009 1.702,5.009 C 2.261,5.009 2.852,4.993 3.404,4.977 C 6.398,4.891 8.829,3.863 8.829,2.489 C 8.829,1.114 6.398,0.095 3.404,0 C 2.9,-0.016 2.405,-0.032 1.702,-0.032 C 0.999,-0.032 0.503,-0.016 0,0 M 1.755,0.854 C 2.177,0.854 2.474,0.864 2.776,0.875 C 4.573,0.937 6.031,1.608 6.031,2.513 C 6.031,3.417 4.573,4.094 2.776,4.151 C 2.446,4.161 2.091,4.172 1.755,4.172 C 1.42,4.172 1.065,4.161 0.734,4.151 C -1.062,4.094 -2.52,3.417 -2.52,2.513 C -2.52,1.608 -1.062,0.937 0.734,0.875 C 1.036,0.864 1.333,0.854 1.755,0.854"
         style="fill:#898b8d;fill-opacity:1;fill-rule:nonzero;stroke:none"
         id="path2880" /></g><g
       id="g2882"
       transform="matrix(4.4355243,0,0,4.4355243,298.20302,49.954589)"><path
         d="M 0,0 C -2.978,0.094 -5.395,1.105 -5.395,2.469 C -5.395,3.832 -2.979,4.851 0,4.937 C 0.548,4.953 1.136,4.969 1.693,4.969 C 2.249,4.969 2.837,4.953 3.385,4.937 C 6.364,4.851 8.78,3.832 8.78,2.469 C 8.78,1.105 6.363,0.094 3.385,0 C 2.884,-0.016 2.392,-0.032 1.693,-0.032 C 0.993,-0.032 0.501,-0.016 0,0 M 1.754,0.814 C 2.179,0.814 2.479,0.825 2.783,0.835 C 4.595,0.899 6.065,1.579 6.065,2.496 C 6.065,3.413 4.595,4.099 2.783,4.157 C 2.45,4.168 2.092,4.178 1.754,4.178 C 1.415,4.178 1.058,4.168 0.724,4.157 C -1.088,4.099 -2.558,3.413 -2.558,2.496 C -2.558,1.579 -1.087,0.899 0.724,0.835 C 1.029,0.825 1.328,0.814 1.754,0.814"
         style="fill:#919396;fill-opacity:1;fill-rule:nonzero;stroke:none"
         id="path2884" /></g><g
       id="g2886"
       transform="matrix(4.4355243,0,0,4.4355243,298.18085,50.069912)"><path
         d="M 0,0 C -2.962,0.093 -5.366,1.096 -5.366,2.449 C -5.366,3.801 -2.962,4.812 0,4.897 C 0.545,4.913 1.13,4.929 1.683,4.929 C 2.237,4.929 2.821,4.913 3.367,4.897 C 6.329,4.812 8.732,3.801 8.732,2.449 C 8.732,1.096 6.329,0.093 3.367,0 C 2.869,-0.016 2.379,-0.031 1.683,-0.031 C 0.988,-0.031 0.498,-0.016 0,0 M 1.752,0.774 C 2.181,0.774 2.483,0.785 2.79,0.796 C 4.617,0.86 6.099,1.55 6.099,2.48 C 6.099,3.409 4.617,4.105 2.79,4.163 C 2.454,4.174 2.093,4.185 1.752,4.185 C 1.411,4.185 1.05,4.174 0.714,4.163 C -1.113,4.105 -2.595,3.409 -2.595,2.48 C -2.595,1.55 -1.113,0.86 0.714,0.796 C 1.021,0.785 1.323,0.774 1.752,0.774"
         style="fill:#989b9d;fill-opacity:1;fill-rule:nonzero;stroke:none"
         id="path2888" /></g><g
       id="g2890"
       transform="matrix(4.4355243,0,0,4.4355243,298.15867,50.185236)"><path
         d="M 0,0 C -2.946,0.093 -5.336,1.087 -5.336,2.429 C -5.336,3.77 -2.946,4.773 0,4.857 C 0.542,4.873 1.124,4.888 1.674,4.888 C 2.224,4.888 2.806,4.873 3.348,4.857 C 6.294,4.773 8.684,3.77 8.684,2.429 C 8.684,1.087 6.294,0.093 3.348,0 C 2.853,-0.015 2.366,-0.031 1.674,-0.031 C 0.982,-0.031 0.495,-0.015 0,0 M 1.75,0.735 C 2.183,0.735 2.488,0.746 2.797,0.757 C 4.639,0.821 6.133,1.521 6.133,2.463 C 6.133,3.405 4.639,4.11 2.797,4.17 C 2.458,4.181 2.094,4.192 1.75,4.192 C 1.407,4.192 1.043,4.181 0.704,4.17 C -1.138,4.11 -2.632,3.405 -2.632,2.463 C -2.632,1.521 -1.138,0.821 0.704,0.757 C 1.013,0.746 1.318,0.735 1.75,0.735"
         style="fill:#a1a3a5;fill-opacity:1;fill-rule:nonzero;stroke:none"
         id="path2892" /></g><g
       id="g2894"
       transform="matrix(4.4355243,0,0,4.4355243,298.13648,50.300561)"><path
         d="M 0,0 C -2.929,0.092 -5.307,1.078 -5.307,2.409 C -5.307,3.739 -2.929,4.733 0,4.817 C 0.539,4.833 1.118,4.848 1.665,4.848 C 2.212,4.848 2.79,4.833 3.33,4.817 C 6.259,4.733 8.636,3.739 8.636,2.409 C 8.636,1.078 6.259,0.092 3.33,0 C 2.837,-0.015 2.352,-0.031 1.665,-0.031 C 0.977,-0.031 0.493,-0.015 0,0 M 1.749,0.695 C 2.185,0.695 2.492,0.706 2.804,0.717 C 4.661,0.783 6.167,1.491 6.167,2.446 C 6.167,3.401 4.661,4.116 2.804,4.176 C 2.462,4.187 2.096,4.198 1.749,4.198 C 1.402,4.198 1.036,4.187 0.694,4.176 C -1.163,4.116 -2.67,3.401 -2.67,2.446 C -2.67,1.491 -1.163,0.783 0.694,0.717 C 1.006,0.706 1.313,0.695 1.749,0.695"
         style="fill:#abadb0;fill-opacity:1;fill-rule:nonzero;stroke:none"
         id="path2896" /></g><g
       id="g2898"
       transform="matrix(4.4355243,0,0,4.4355243,298.11432,50.415884)"><path
         d="M 0,0 C -2.913,0.091 -5.277,1.069 -5.277,2.389 C -5.277,3.708 -2.913,4.694 0,4.777 C 0.536,4.792 1.111,4.808 1.655,4.808 C 2.199,4.808 2.775,4.792 3.311,4.777 C 6.224,4.694 8.588,3.708 8.588,2.389 C 8.588,1.069 6.224,0.091 3.311,0 C 2.821,-0.015 2.339,-0.031 1.655,-0.031 C 0.971,-0.031 0.49,-0.015 0,0 M 1.747,0.655 C 2.187,0.655 2.496,0.666 2.811,0.678 C 4.682,0.744 6.201,1.462 6.201,2.43 C 6.201,3.398 4.682,4.121 2.811,4.182 C 2.466,4.193 2.097,4.205 1.747,4.205 C 1.398,4.205 1.028,4.193 0.683,4.182 C -1.188,4.121 -2.707,3.398 -2.707,2.43 C -2.707,1.462 -1.188,0.744 0.683,0.678 C 0.998,0.666 1.308,0.655 1.747,0.655"
         style="fill:#b3b5b7;fill-opacity:1;fill-rule:nonzero;stroke:none"
         id="path2900" /></g><g
       id="g2902"
       transform="matrix(4.4355243,0,0,4.4355243,298.09213,50.531207)"><path
         d="M 0,0 C -2.897,0.09 -5.248,1.06 -5.248,2.369 C -5.248,3.677 -2.897,4.655 0,4.737 C 0.533,4.752 1.105,4.768 1.646,4.768 C 2.187,4.768 2.759,4.752 3.292,4.737 C 6.189,4.655 8.54,3.677 8.54,2.369 C 8.54,1.06 6.189,0.09 3.292,0 C 2.805,-0.015 2.326,-0.03 1.646,-0.03 C 0.966,-0.03 0.487,-0.015 0,0 M 1.745,0.615 C 2.188,0.615 2.5,0.627 2.818,0.638 C 4.704,0.706 6.235,1.433 6.235,2.413 C 6.235,3.394 4.704,4.127 2.818,4.188 C 2.47,4.2 2.098,4.211 1.745,4.211 C 1.393,4.211 1.021,4.2 0.673,4.188 C -1.213,4.127 -2.744,3.394 -2.744,2.413 C -2.744,1.433 -1.213,0.706 0.673,0.638 C 0.991,0.627 1.302,0.615 1.745,0.615"
         style="fill:#bdbec0;fill-opacity:1;fill-rule:nonzero;stroke:none"
         id="path2904" /></g><g
       id="g2906"
       transform="matrix(4.4355243,0,0,4.4355243,478.32965,70.832601)"><path
         d="M 0,0 C 0,0.146 -0.108,0.264 -0.242,0.264 L -7.469,0.265 C -8,0.265 -8.563,0.278 -9.085,0.262 C -11.929,0.173 -14.236,-0.874 -14.236,-2.275 C -14.236,-3.676 -12.927,-4.794 -9.085,-4.812 C -8.734,-4.814 -7.744,-4.808 -7.469,-4.808 L -0.488,-4.809 C -0.236,-4.809 -0.031,-4.604 -0.031,-4.351 L -0.031,-2.278 C -0.031,-2.025 -0.236,-1.821 -0.488,-1.821 L -7.484,-1.82 C -7.617,-1.82 -7.727,-1.938 -7.727,-2.084 L -7.727,-2.685 C -7.727,-2.83 -7.617,-2.948 -7.484,-2.948 L -3.565,-2.952 C -3.43,-2.952 -3.322,-3.07 -3.322,-3.216 L -3.322,-3.519 C -3.322,-3.664 -3.43,-3.782 -3.565,-3.782 L -7.408,-3.781 C -7.753,-3.781 -7.996,-3.771 -8.242,-3.762 C -9.71,-3.703 -10.901,-3.118 -10.901,-2.275 C -10.901,-1.433 -9.71,-1.002 -8.242,-0.949 C -7.971,-0.939 -7.682,-0.929 -7.408,-0.929 L -0.242,-0.93 C -0.108,-0.93 0,-0.754 0,-0.608"
         style="fill:#4d4d4f;fill-opacity:1;fill-rule:nonzero;stroke:none"
         id="path2908" /></g><g
       id="g2910"
       transform="matrix(4.4355243,0,0,4.4355243,415.28312,60.755091)"><path
         d="M 0,0 C 0,-1.384 1.301,-2.481 5.121,-2.503 C 5.477,-2.505 6.44,-2.501 6.728,-2.501 L 13.672,-2.502 C 13.923,-2.502 14.126,-2.299 14.126,-2.049 L 14.126,-0.018 C 14.126,0.232 13.923,0.434 13.672,0.434 L 6.744,0.435 C 6.611,0.435 6.503,0.318 6.503,0.174 L 6.503,-0.39 C 6.503,-0.534 6.611,-0.651 6.744,-0.651 L 10.662,-0.654 C 10.795,-0.654 10.903,-0.771 10.903,-0.915 L 10.903,-1.262 C 10.903,-1.406 10.795,-1.522 10.662,-1.522 L 6.787,-1.523 C 6.456,-1.523 6.207,-1.512 5.974,-1.503 C 4.473,-1.448 3.284,-0.828 3.284,0.004 C 3.284,0.852 4.496,1.299 5.956,1.351 C 6.224,1.361 6.513,1.371 6.785,1.371 L 13.916,1.369 C 14.049,1.369 14.156,1.54 14.156,1.683 L 14.156,2.255 C 14.156,2.399 14.049,2.516 13.916,2.516 L 6.728,2.517 C 6.2,2.517 5.646,2.528 5.121,2.512 C 2.288,2.425 0,1.365 0,0"
         style="fill:#57585a;fill-opacity:1;fill-rule:nonzero;stroke:none"
         id="path2912" /></g><g
       id="g2914"
       transform="matrix(4.4355243,0,0,4.4355243,415.3807,60.772832)"><path
         d="M 0,0 C 0,-1.368 1.293,-2.444 5.092,-2.469 C 5.453,-2.471 6.389,-2.469 6.69,-2.469 L 13.595,-2.47 C 13.844,-2.47 14.046,-2.27 14.046,-2.023 L 14.046,-0.033 C 14.046,0.214 13.844,0.414 13.595,0.414 L 6.735,0.414 C 6.603,0.414 6.496,0.299 6.496,0.157 L 6.496,-0.371 C 6.496,-0.513 6.603,-0.628 6.735,-0.628 L 10.653,-0.632 C 10.784,-0.632 10.892,-0.747 10.892,-0.89 L 10.892,-1.28 C 10.892,-1.423 10.784,-1.538 10.653,-1.538 L 6.745,-1.54 C 6.428,-1.54 6.173,-1.529 5.954,-1.521 C 4.419,-1.468 3.233,-0.814 3.233,0.009 C 3.233,0.861 4.466,1.323 5.917,1.375 C 6.185,1.385 6.471,1.395 6.742,1.395 L 13.838,1.393 C 13.97,1.393 14.077,1.558 14.077,1.7 L 14.077,2.235 C 14.077,2.377 13.97,2.492 13.838,2.492 L 6.69,2.493 C 6.165,2.494 5.617,2.502 5.092,2.486 C 2.268,2.401 0,1.33 0,0"
         style="fill:#606163;fill-opacity:1;fill-rule:nonzero;stroke:none"
         id="path2916" /></g><g
       id="g2918"
       transform="matrix(4.4355243,0,0,4.4355243,415.48272,60.786139)"><path
         d="M 0,0 C 0,-1.352 1.285,-2.406 5.063,-2.435 C 5.428,-2.438 6.338,-2.438 6.652,-2.438 L 13.518,-2.438 C 13.766,-2.438 13.967,-2.241 13.967,-1.997 L 13.967,-0.048 C 13.967,0.196 13.766,0.393 13.518,0.393 L 6.726,0.394 C 6.595,0.394 6.488,0.28 6.488,0.139 L 6.488,-0.352 C 6.488,-0.492 6.595,-0.606 6.726,-0.606 L 10.643,-0.61 C 10.774,-0.61 10.881,-0.724 10.881,-0.864 L 10.881,-1.299 C 10.881,-1.439 10.774,-1.553 10.643,-1.553 L 6.704,-1.556 C 6.401,-1.556 6.139,-1.545 5.934,-1.538 C 4.365,-1.484 3.181,-0.8 3.181,0.013 C 3.181,0.87 4.435,1.348 5.879,1.4 C 6.145,1.409 6.43,1.419 6.699,1.419 L 13.76,1.417 C 13.891,1.417 13.998,1.576 13.998,1.716 L 13.998,2.214 C 13.998,2.355 13.891,2.469 13.76,2.469 L 6.652,2.47 C 6.129,2.471 5.589,2.477 5.063,2.461 C 2.248,2.377 0,1.294 0,0"
         style="fill:#696a6d;fill-opacity:1;fill-rule:nonzero;stroke:none"
         id="path2920" /></g><g
       id="g2922"
       transform="matrix(4.4355243,0,0,4.4355243,415.5803,60.799446)"><path
         d="M 0,0 C 0,-1.335 1.277,-2.368 5.034,-2.401 C 5.404,-2.404 6.287,-2.406 6.614,-2.406 L 13.442,-2.407 C 13.688,-2.407 13.888,-2.211 13.888,-1.971 L 13.888,-0.063 C 13.888,0.178 13.688,0.373 13.442,0.373 L 6.718,0.373 C 6.587,0.373 6.481,0.261 6.481,0.122 L 6.481,-0.333 C 6.481,-0.471 6.587,-0.584 6.718,-0.584 L 10.634,-0.588 C 10.764,-0.588 10.87,-0.7 10.87,-0.839 L 10.87,-1.318 C 10.87,-1.456 10.764,-1.569 10.634,-1.569 L 6.662,-1.574 C 6.373,-1.574 6.105,-1.561 5.914,-1.555 C 4.311,-1.503 3.13,-0.785 3.13,0.017 C 3.13,0.879 4.405,1.373 5.841,1.424 C 6.105,1.433 6.389,1.443 6.657,1.443 L 13.682,1.441 C 13.812,1.441 13.918,1.594 13.918,1.733 L 13.918,2.194 C 13.918,2.333 13.812,2.445 13.682,2.445 L 6.614,2.446 C 6.094,2.448 5.561,2.451 5.034,2.435 C 2.228,2.353 0,1.258 0,0"
         style="fill:#727375;fill-opacity:1;fill-rule:nonzero;stroke:none"
         id="path2924" /></g><g
       id="g2926"
       transform="matrix(4.4355243,0,0,4.4355243,415.67788,60.817187)"><path
         d="M 0,0 C 0,-1.319 1.269,-2.33 5.004,-2.367 C 5.38,-2.37 6.236,-2.375 6.576,-2.375 L 13.365,-2.375 C 13.61,-2.375 13.809,-2.182 13.809,-1.944 L 13.809,-0.078 C 13.809,0.16 13.61,0.352 13.365,0.352 L 6.709,0.353 C 6.579,0.353 6.474,0.242 6.474,0.105 L 6.474,-0.313 C 6.474,-0.45 6.579,-0.561 6.709,-0.561 L 10.624,-0.565 C 10.754,-0.565 10.859,-0.676 10.859,-0.813 L 10.859,-1.336 C 10.859,-1.473 10.754,-1.584 10.624,-1.584 L 6.621,-1.59 C 6.346,-1.59 6.072,-1.577 5.894,-1.572 C 4.258,-1.522 3.079,-0.771 3.079,0.022 C 3.079,0.888 4.375,1.398 5.803,1.448 C 6.065,1.457 6.347,1.467 6.614,1.467 L 13.603,1.465 C 13.734,1.465 13.839,1.612 13.839,1.749 L 13.839,2.173 C 13.839,2.311 13.734,2.422 13.603,2.422 L 6.576,2.423 C 6.059,2.426 5.533,2.425 5.004,2.41 C 2.209,2.329 0,1.222 0,0"
         style="fill:#797b7e;fill-opacity:1;fill-rule:nonzero;stroke:none"
         id="path2928" /></g><g
       id="g2930"
       transform="matrix(4.4355243,0,0,4.4355243,415.7799,60.830494)"><path
         d="M 0,0 C 0,-1.302 1.26,-2.293 4.974,-2.333 C 5.355,-2.337 6.185,-2.343 6.537,-2.343 L 13.287,-2.343 C 13.532,-2.343 13.728,-2.153 13.728,-1.918 L 13.728,-0.093 C 13.728,0.142 13.532,0.332 13.287,0.332 L 6.7,0.333 C 6.571,0.333 6.466,0.223 6.466,0.087 L 6.466,-0.294 C 6.466,-0.429 6.571,-0.539 6.7,-0.539 L 10.614,-0.543 C 10.743,-0.543 10.847,-0.652 10.847,-0.788 L 10.847,-1.355 C 10.847,-1.49 10.743,-1.6 10.614,-1.6 L 6.578,-1.607 C 6.317,-1.607 6.037,-1.594 5.873,-1.589 C 4.203,-1.541 3.028,-0.757 3.028,0.026 C 3.028,0.897 4.344,1.423 5.763,1.472 C 6.025,1.481 6.306,1.491 6.571,1.491 L 13.524,1.489 C 13.653,1.489 13.758,1.63 13.758,1.766 L 13.758,2.153 C 13.758,2.289 13.653,2.398 13.524,2.398 L 6.537,2.399 C 6.023,2.403 5.504,2.4 4.974,2.385 C 2.188,2.305 0,1.187 0,0"
         style="fill:#818386;fill-opacity:1;fill-rule:nonzero;stroke:none"
         id="path2932" /></g><g
       id="g2934"
       transform="matrix(4.4355243,0,0,4.4355243,415.87748,60.848236)"><path
         d="M 0,0 C 0,-1.286 1.253,-2.255 4.946,-2.299 C 5.331,-2.303 6.134,-2.311 6.499,-2.311 L 13.212,-2.312 C 13.454,-2.312 13.65,-2.124 13.65,-1.892 L 13.65,-0.108 C 13.65,0.124 13.454,0.312 13.212,0.312 L 6.692,0.312 C 6.564,0.312 6.46,0.204 6.46,0.07 L 6.46,-0.275 C 6.46,-0.409 6.564,-0.517 6.692,-0.517 L 10.605,-0.521 C 10.733,-0.521 10.837,-0.629 10.837,-0.762 L 10.837,-1.373 C 10.837,-1.507 10.733,-1.615 10.605,-1.615 L 6.538,-1.624 C 6.29,-1.624 6.004,-1.61 5.854,-1.606 C 4.15,-1.56 2.976,-0.743 2.976,0.03 C 2.976,0.906 4.315,1.448 5.726,1.497 C 5.986,1.506 6.264,1.515 6.528,1.515 L 13.447,1.513 C 13.576,1.513 13.68,1.648 13.68,1.782 L 13.68,2.133 C 13.68,2.266 13.576,2.375 13.447,2.375 L 6.499,2.376 C 5.988,2.38 5.476,2.374 4.946,2.359 C 2.169,2.281 0,1.151 0,0"
         style="fill:#898b8d;fill-opacity:1;fill-rule:nonzero;stroke:none"
         id="path2936" /></g><g
       id="g2938"
       transform="matrix(4.4355243,0,0,4.4355243,415.97507,60.861542)"><path
         d="M 0,0 C 0,-1.27 1.245,-2.217 4.917,-2.264 C 5.307,-2.27 6.083,-2.28 6.461,-2.28 L 13.135,-2.28 C 13.376,-2.28 13.571,-2.095 13.571,-1.866 L 13.571,-0.123 C 13.571,0.106 13.376,0.291 13.135,0.291 L 6.683,0.292 C 6.556,0.292 6.452,0.185 6.452,0.053 L 6.452,-0.256 C 6.452,-0.388 6.556,-0.495 6.683,-0.495 L 10.595,-0.498 C 10.723,-0.498 10.826,-0.605 10.826,-0.737 L 10.826,-1.392 C 10.826,-1.524 10.723,-1.631 10.595,-1.631 L 6.496,-1.641 C 6.263,-1.641 5.97,-1.627 5.834,-1.624 C 4.097,-1.58 2.925,-0.729 2.925,0.035 C 2.925,0.915 4.285,1.473 5.688,1.521 C 5.946,1.53 6.223,1.539 6.485,1.539 L 13.369,1.537 C 13.497,1.537 13.6,1.666 13.6,1.798 L 13.6,2.112 C 13.6,2.244 13.497,2.351 13.369,2.351 L 6.461,2.352 C 5.953,2.357 5.448,2.349 4.917,2.334 C 2.15,2.257 0,1.115 0,0"
         style="fill:#919396;fill-opacity:1;fill-rule:nonzero;stroke:none"
         id="path2940" /></g><g
       id="g2942"
       transform="matrix(4.4355243,0,0,4.4355243,416.07263,60.879286)"><path
         d="M 0,0 C 0,-1.253 1.238,-2.18 4.888,-2.23 C 5.283,-2.236 6.033,-2.248 6.423,-2.248 L 13.058,-2.249 C 13.297,-2.249 13.492,-2.065 13.492,-1.839 L 13.492,-0.138 C 13.492,0.087 13.297,0.271 13.058,0.271 L 6.675,0.271 C 6.548,0.271 6.445,0.166 6.445,0.035 L 6.445,-0.237 C 6.445,-0.367 6.548,-0.472 6.675,-0.472 L 10.586,-0.476 C 10.712,-0.476 10.815,-0.581 10.815,-0.712 L 10.815,-1.411 C 10.815,-1.541 10.712,-1.646 10.586,-1.646 L 6.455,-1.658 C 6.235,-1.658 5.936,-1.643 5.814,-1.641 C 4.043,-1.6 2.874,-0.714 2.874,0.039 C 2.874,0.925 4.255,1.497 5.649,1.545 C 5.906,1.554 6.182,1.563 6.442,1.563 L 13.291,1.561 C 13.418,1.561 13.521,1.685 13.521,1.815 L 13.521,2.092 C 13.521,2.222 13.418,2.328 13.291,2.328 L 6.423,2.329 C 5.918,2.334 5.42,2.323 4.888,2.309 C 2.13,2.234 0,1.079 0,0"
         style="fill:#989b9d;fill-opacity:1;fill-rule:nonzero;stroke:none"
         id="path2944" /></g><g
       id="g2946"
       transform="matrix(4.4355243,0,0,4.4355243,416.17465,60.892592)"><path
         d="M 0,0 C 0,-1.237 1.23,-2.142 4.858,-2.196 C 5.259,-2.203 5.981,-2.217 6.385,-2.217 L 12.981,-2.217 C 13.219,-2.217 13.412,-2.036 13.412,-1.813 L 13.412,-0.154 C 13.412,0.069 13.219,0.25 12.981,0.25 L 6.666,0.251 C 6.54,0.251 6.438,0.146 6.438,0.018 L 6.438,-0.217 C 6.438,-0.346 6.54,-0.45 6.666,-0.45 L 10.576,-0.454 C 10.702,-0.454 10.804,-0.558 10.804,-0.686 L 10.804,-1.429 C 10.804,-1.558 10.702,-1.662 10.576,-1.662 L 6.413,-1.675 C 6.208,-1.675 5.902,-1.66 5.794,-1.658 C 3.989,-1.621 2.823,-0.7 2.823,0.044 C 2.823,0.934 4.224,1.522 5.611,1.569 C 5.866,1.578 6.14,1.587 6.399,1.587 L 13.213,1.585 C 13.339,1.585 13.441,1.703 13.441,1.831 L 13.441,2.071 C 13.441,2.2 13.339,2.304 13.213,2.304 L 6.385,2.305 C 5.882,2.311 5.391,2.298 4.858,2.283 C 2.11,2.21 0,1.044 0,0"
         style="fill:#a1a3a5;fill-opacity:1;fill-rule:nonzero;stroke:none"
         id="path2948" /></g><g
       id="g2950"
       transform="matrix(4.4355243,0,0,4.4355243,416.27223,60.905899)"><path
         d="M 0,0 C 0,-1.22 1.222,-2.104 4.829,-2.162 C 5.234,-2.169 5.93,-2.185 6.347,-2.185 L 12.904,-2.185 C 13.141,-2.185 13.333,-2.006 13.333,-1.787 L 13.333,-0.169 C 13.333,0.052 13.141,0.231 12.904,0.231 L 6.657,0.231 C 6.532,0.231 6.43,0.127 6.43,0.002 L 6.43,-0.198 C 6.43,-0.324 6.532,-0.428 6.657,-0.428 L 10.566,-0.43 C 10.691,-0.43 10.793,-0.534 10.793,-0.661 L 10.793,-1.448 C 10.793,-1.574 10.691,-1.677 10.566,-1.677 L 6.371,-1.691 C 6.18,-1.691 5.869,-1.677 5.774,-1.675 C 3.936,-1.641 2.772,-0.685 2.772,0.049 C 2.772,0.943 4.194,1.547 5.573,1.593 C 5.827,1.603 6.099,1.611 6.356,1.611 L 13.135,1.609 C 13.26,1.609 13.362,1.721 13.362,1.848 L 13.362,2.052 C 13.362,2.179 13.26,2.281 13.135,2.281 L 6.347,2.283 C 5.847,2.289 5.363,2.273 4.829,2.258 C 2.09,2.187 0,1.008 0,0"
         style="fill:#abadb0;fill-opacity:1;fill-rule:nonzero;stroke:none"
         id="path2952" /></g><g
       id="g2954"
       transform="matrix(4.4355243,0,0,4.4355243,416.36982,60.923641)"><path
         d="M 0,0 C 0,-1.204 1.214,-2.067 4.8,-2.128 C 5.21,-2.135 5.879,-2.153 6.309,-2.153 L 12.828,-2.154 C 13.063,-2.154 13.254,-1.978 13.254,-1.761 L 13.254,-0.184 C 13.254,0.033 13.063,0.209 12.828,0.209 L 6.649,0.21 C 6.524,0.21 6.423,0.108 6.423,-0.017 L 6.423,-0.179 C 6.423,-0.304 6.524,-0.405 6.649,-0.405 L 10.556,-0.409 C 10.681,-0.409 10.782,-0.51 10.782,-0.635 L 10.782,-1.467 C 10.782,-1.592 10.681,-1.693 10.556,-1.693 L 6.33,-1.709 C 6.153,-1.709 5.835,-1.693 5.754,-1.692 C 3.882,-1.665 2.72,-0.672 2.72,0.052 C 2.72,0.952 4.164,1.572 5.534,1.618 C 5.787,1.626 6.057,1.635 6.313,1.635 L 13.057,1.633 C 13.181,1.633 13.283,1.739 13.283,1.864 L 13.283,2.031 C 13.283,2.156 13.181,2.257 13.057,2.257 L 6.309,2.258 C 5.812,2.265 5.335,2.246 4.8,2.233 C 2.071,2.162 0,0.972 0,0"
         style="fill:#b3b5b7;fill-opacity:1;fill-rule:nonzero;stroke:none"
         id="path2956" /></g><g
       id="g2958"
       transform="matrix(4.4355243,0,0,4.4355243,475.03407,69.856786)"><path
         d="M 0,0 C 0,0.123 -0.1,0.223 -0.225,0.223 L -6.933,0.224 C -7.427,0.232 -7.897,0.21 -8.432,0.197 C -11.152,0.128 -13.203,-1.074 -13.203,-2.01 C -13.203,-3.198 -11.997,-4.039 -8.432,-4.105 C -8.018,-4.112 -7.375,-4.132 -6.933,-4.132 L -0.452,-4.132 C -0.218,-4.132 -0.029,-3.959 -0.029,-3.745 L -0.029,-2.209 C -0.029,-1.995 -0.218,-1.822 -0.452,-1.822 L -6.563,-1.821 C -6.687,-1.821 -6.787,-1.921 -6.787,-2.045 L -6.787,-2.17 C -6.787,-2.294 -6.687,-2.394 -6.563,-2.394 L -2.656,-2.397 C -2.533,-2.397 -2.432,-2.497 -2.432,-2.62 L -2.432,-3.495 C -2.432,-3.619 -2.533,-3.719 -2.656,-3.719 L -6.914,-3.736 C -7.078,-3.736 -7.402,-3.72 -7.47,-3.72 C -9.375,-3.701 -10.534,-2.668 -10.534,-1.954 C -10.534,-1.049 -9.069,-0.413 -7.707,-0.368 C -7.456,-0.36 -7.187,-0.352 -6.933,-0.352 L -0.225,-0.353 C -0.1,-0.353 0,-0.253 0,-0.13"
         style="fill:#bdbec0;fill-opacity:1;fill-rule:nonzero;stroke:none"
         id="path2960" /></g><g
       id="g2962"
       transform="matrix(4.4355243,0,0,4.4355243,475.03407,69.856786)"><path
         d="M 0,0 C 0,0.123 -0.1,0.223 -0.225,0.223 L -6.933,0.224 C -7.427,0.232 -7.897,0.21 -8.432,0.197 C -11.152,0.128 -13.203,-1.074 -13.203,-2.01 C -13.203,-3.198 -11.997,-4.039 -8.432,-4.105 C -8.018,-4.112 -7.375,-4.132 -6.933,-4.132 L -0.452,-4.132 C -0.218,-4.132 -0.029,-3.959 -0.029,-3.745 L -0.029,-2.209 C -0.029,-1.995 -0.218,-1.822 -0.452,-1.822 L -6.563,-1.821 C -6.687,-1.821 -6.787,-1.921 -6.787,-2.045 L -6.787,-2.17 C -6.787,-2.294 -6.687,-2.394 -6.563,-2.394 L -2.656,-2.397 C -2.533,-2.397 -2.432,-2.497 -2.432,-2.62 L -2.432,-3.495 C -2.432,-3.619 -2.533,-3.719 -2.656,-3.719 L -6.914,-3.736 C -7.078,-3.736 -7.402,-3.72 -7.47,-3.72 C -9.375,-3.701 -10.534,-2.668 -10.534,-1.954 C -10.534,-1.049 -9.069,-0.413 -7.707,-0.368 C -7.456,-0.36 -7.187,-0.352 -6.933,-0.352 L -0.225,-0.353 C -0.1,-0.353 0,-0.253 0,-0.13"
         style="fill:#bdbec0;fill-opacity:1;fill-rule:nonzero;stroke:none"
         id="path2964" /></g><g
       id="g2966"
       transform="matrix(4.4355243,0,0,4.4355243,475.03407,69.856786)"><path
         d="M 0,0 C 0,0.123 -0.1,0.223 -0.225,0.223 L -6.933,0.224 C -7.427,0.232 -7.897,0.21 -8.432,0.197 C -11.152,0.128 -13.203,-1.074 -13.203,-2.01 C -13.203,-3.198 -11.997,-4.039 -8.432,-4.105 C -8.018,-4.112 -7.375,-4.132 -6.933,-4.132 L -0.452,-4.132 C -0.218,-4.132 -0.029,-3.959 -0.029,-3.745 L -0.029,-2.209 C -0.029,-1.995 -0.218,-1.821 -0.452,-1.821 L -6.563,-1.821 C -6.687,-1.821 -6.787,-1.921 -6.787,-2.045 L -6.787,-2.17 C -6.787,-2.294 -6.687,-2.394 -6.563,-2.394 L -2.656,-2.397 C -2.533,-2.397 -2.432,-2.497 -2.432,-2.62 L -2.432,-3.495 C -2.432,-3.619 -2.533,-3.719 -2.656,-3.719 L -6.914,-3.736 C -7.078,-3.736 -7.402,-3.72 -7.47,-3.72 C -9.375,-3.701 -10.534,-2.668 -10.534,-1.954 C -10.534,-1.049 -9.069,-0.413 -7.707,-0.368 C -7.456,-0.36 -7.187,-0.352 -6.933,-0.352 L -0.225,-0.353 C -0.1,-0.353 0,-0.253 0,-0.13"
         style="fill:#bdbec0;fill-opacity:1;fill-rule:nonzero;stroke:none"
         id="path2968" /></g><g
       id="g2970"
       transform="matrix(4.4355243,0,0,4.4355243,475.03407,69.856786)"><path
         d="M 0,0 C 0,0.123 -0.1,0.223 -0.225,0.223 L -6.933,0.224 C -7.427,0.232 -7.897,0.21 -8.432,0.197 C -11.152,0.128 -13.203,-1.074 -13.203,-2.01 C -13.203,-3.198 -11.997,-4.039 -8.432,-4.105 C -8.018,-4.112 -7.375,-4.132 -6.933,-4.132 L -0.452,-4.132 C -0.218,-4.132 -0.029,-3.959 -0.029,-3.745 L -0.029,-2.209 C -0.029,-1.995 -0.218,-1.822 -0.452,-1.822 L -6.563,-1.821 C -6.687,-1.821 -6.787,-1.921 -6.787,-2.045 L -6.787,-2.17 C -6.787,-2.294 -6.687,-2.394 -6.563,-2.394 L -2.656,-2.397 C -2.533,-2.397 -2.432,-2.497 -2.432,-2.62 L -2.432,-3.495 C -2.432,-3.619 -2.533,-3.719 -2.656,-3.719 L -6.914,-3.736 C -7.078,-3.736 -7.402,-3.72 -7.47,-3.72 C -9.375,-3.701 -10.534,-2.668 -10.534,-1.954 C -10.534,-1.049 -9.069,-0.413 -7.707,-0.368 C -7.456,-0.36 -7.187,-0.352 -6.933,-0.352 L -0.225,-0.353 C -0.1,-0.353 0,-0.253 0,-0.13"
         style="fill:#bdbec0;fill-opacity:1;fill-rule:nonzero;stroke:none"
         id="path2972" /></g><g
       id="g2974"
       transform="matrix(4.4355243,0,0,4.4355243,475.03407,69.856786)"><path
         d="M 0,0 C 0,0.123 -0.1,0.223 -0.225,0.223 L -6.933,0.224 C -7.427,0.232 -7.897,0.21 -8.432,0.197 C -11.152,0.128 -13.203,-1.074 -13.203,-2.01 C -13.203,-3.198 -11.997,-4.039 -8.432,-4.105 C -8.018,-4.112 -7.375,-4.132 -6.933,-4.132 L -0.452,-4.132 C -0.218,-4.132 -0.029,-3.959 -0.029,-3.745 L -0.029,-2.209 C -0.029,-1.995 -0.218,-1.822 -0.452,-1.822 L -6.563,-1.821 C -6.687,-1.821 -6.787,-1.921 -6.787,-2.045 L -6.787,-2.17 C -6.787,-2.294 -6.687,-2.394 -6.563,-2.394 L -2.656,-2.397 C -2.533,-2.397 -2.432,-2.497 -2.432,-2.62 L -2.432,-3.495 C -2.432,-3.619 -2.533,-3.719 -2.656,-3.719 L -6.914,-3.736 C -7.078,-3.736 -7.402,-3.72 -7.47,-3.72 C -9.375,-3.701 -10.534,-2.668 -10.534,-1.954 C -10.534,-1.049 -9.069,-0.414 -7.707,-0.368 C -7.456,-0.36 -7.187,-0.352 -6.933,-0.352 L -0.225,-0.353 C -0.1,-0.353 0,-0.253 0,-0.13"
         style="fill:#bdbec0;fill-opacity:1;fill-rule:nonzero;stroke:none"
         id="path2976" /></g><g
       id="g2978"
       transform="matrix(4.4355243,0,0,4.4355243,475.03407,69.856786)"><path
         d="M 0,0 C 0,0.123 -0.1,0.223 -0.225,0.223 L -6.933,0.224 C -7.427,0.232 -7.897,0.21 -8.432,0.197 C -11.152,0.128 -13.203,-1.074 -13.203,-2.01 C -13.203,-3.198 -11.997,-4.039 -8.432,-4.105 C -8.018,-4.112 -7.375,-4.132 -6.933,-4.132 L -0.452,-4.132 C -0.218,-4.132 -0.029,-3.959 -0.029,-3.745 L -0.029,-2.209 C -0.029,-1.995 -0.218,-1.822 -0.452,-1.822 L -6.563,-1.821 C -6.687,-1.821 -6.787,-1.921 -6.787,-2.045 L -6.787,-2.17 C -6.787,-2.294 -6.687,-2.394 -6.563,-2.394 L -2.656,-2.397 C -2.533,-2.397 -2.432,-2.497 -2.432,-2.62 L -2.432,-3.495 C -2.432,-3.619 -2.533,-3.719 -2.656,-3.719 L -6.914,-3.736 C -7.078,-3.736 -7.402,-3.72 -7.47,-3.72 C -9.375,-3.701 -10.534,-2.668 -10.534,-1.954 C -10.534,-1.049 -9.069,-0.413 -7.707,-0.368 C -7.456,-0.36 -7.187,-0.352 -6.933,-0.352 L -0.225,-0.353 C -0.1,-0.353 0,-0.253 0,-0.13"
         style="fill:#bdbec0;fill-opacity:1;fill-rule:nonzero;stroke:none"
         id="path2980" /></g><g
       id="g2982"
       transform="matrix(4.4355243,0,0,4.4355243,475.03407,69.856786)"><path
         d="M 0,0 C 0,0.123 -0.1,0.223 -0.225,0.223 L -6.933,0.224 C -7.427,0.232 -7.897,0.21 -8.432,0.197 C -11.152,0.128 -13.203,-1.074 -13.203,-2.01 C -13.203,-3.198 -11.997,-4.039 -8.432,-4.105 C -8.018,-4.112 -7.375,-4.132 -6.933,-4.132 L -0.452,-4.132 C -0.218,-4.132 -0.029,-3.959 -0.029,-3.745 L -0.029,-2.209 C -0.029,-1.995 -0.218,-1.821 -0.452,-1.821 L -6.563,-1.821 C -6.687,-1.821 -6.787,-1.921 -6.787,-2.045 L -6.787,-2.17 C -6.787,-2.294 -6.687,-2.394 -6.563,-2.394 L -2.656,-2.397 C -2.533,-2.397 -2.432,-2.497 -2.432,-2.62 L -2.432,-3.495 C -2.432,-3.619 -2.533,-3.719 -2.656,-3.719 L -6.914,-3.736 C -7.078,-3.736 -7.402,-3.72 -7.47,-3.72 C -9.375,-3.701 -10.534,-2.668 -10.534,-1.954 C -10.534,-1.049 -9.069,-0.413 -7.707,-0.368 C -7.456,-0.36 -7.187,-0.352 -6.933,-0.352 L -0.225,-0.353 C -0.1,-0.353 0,-0.253 0,-0.13"
         style="fill:#bdbec0;fill-opacity:1;fill-rule:nonzero;stroke:none"
         id="path2984" /></g><g
       id="g2986"
       transform="matrix(4.4355243,0,0,4.4355243,475.03407,69.856786)"><path
         d="M 0,0 C 0,0.123 -0.1,0.223 -0.225,0.223 L -6.933,0.224 C -7.427,0.232 -7.897,0.21 -8.432,0.197 C -11.152,0.128 -13.203,-1.074 -13.203,-2.01 C -13.203,-3.198 -11.997,-4.039 -8.432,-4.105 C -8.018,-4.112 -7.375,-4.132 -6.933,-4.132 L -0.452,-4.132 C -0.218,-4.132 -0.029,-3.959 -0.029,-3.745 L -0.029,-2.209 C -0.029,-1.995 -0.218,-1.821 -0.452,-1.821 L -6.563,-1.821 C -6.687,-1.821 -6.787,-1.921 -6.787,-2.045 L -6.787,-2.17 C -6.787,-2.294 -6.687,-2.394 -6.563,-2.394 L -2.656,-2.397 C -2.533,-2.397 -2.432,-2.497 -2.432,-2.62 L -2.432,-3.495 C -2.432,-3.619 -2.533,-3.719 -2.656,-3.719 L -6.914,-3.736 C -7.078,-3.736 -7.402,-3.72 -7.47,-3.72 C -9.375,-3.701 -10.534,-2.668 -10.534,-1.954 C -10.534,-1.049 -9.069,-0.413 -7.707,-0.368 C -7.456,-0.36 -7.187,-0.352 -6.933,-0.352 L -0.225,-0.353 C -0.1,-0.353 0,-0.253 0,-0.13"
         style="fill:#bdbec0;fill-opacity:1;fill-rule:nonzero;stroke:none"
         id="path2988" /></g><g
       id="g2990"
       transform="matrix(4.4355243,0,0,4.4355243,475.03407,69.856786)"><path
         d="M 0,0 C 0,0.123 -0.1,0.223 -0.225,0.223 L -6.933,0.224 C -7.427,0.232 -7.897,0.21 -8.432,0.197 C -11.152,0.128 -13.203,-1.074 -13.203,-2.01 C -13.203,-3.198 -11.997,-4.039 -8.432,-4.105 C -8.018,-4.112 -7.375,-4.132 -6.933,-4.132 L -0.452,-4.132 C -0.218,-4.132 -0.029,-3.959 -0.029,-3.745 L -0.029,-2.209 C -0.029,-1.995 -0.218,-1.822 -0.452,-1.822 L -6.563,-1.821 C -6.687,-1.821 -6.787,-1.921 -6.787,-2.045 L -6.787,-2.17 C -6.787,-2.294 -6.687,-2.394 -6.563,-2.394 L -2.656,-2.397 C -2.533,-2.397 -2.432,-2.497 -2.432,-2.62 L -2.432,-3.495 C -2.432,-3.619 -2.533,-3.719 -2.656,-3.719 L -6.914,-3.736 C -7.078,-3.736 -7.402,-3.72 -7.47,-3.72 C -9.375,-3.701 -10.534,-2.668 -10.534,-1.954 C -10.534,-1.049 -9.069,-0.413 -7.707,-0.368 C -7.456,-0.36 -7.187,-0.352 -6.933,-0.352 L -0.225,-0.353 C -0.1,-0.353 0,-0.253 0,-0.13"
         style="fill:#bdbec0;fill-opacity:1;fill-rule:nonzero;stroke:none"
         id="path2992" /></g><g
       id="g2994"
       transform="matrix(4.4355243,0,0,4.4355243,475.03407,69.856786)"><path
         d="M 0,0 C 0,0.123 -0.1,0.223 -0.225,0.223 L -6.933,0.224 C -7.427,0.232 -7.897,0.21 -8.432,0.197 C -11.152,0.128 -13.203,-1.074 -13.203,-2.01 C -13.203,-3.198 -11.997,-4.039 -8.432,-4.105 C -8.018,-4.112 -7.375,-4.132 -6.933,-4.132 L -0.452,-4.132 C -0.218,-4.132 -0.029,-3.959 -0.029,-3.745 L -0.029,-2.209 C -0.029,-1.995 -0.218,-1.822 -0.452,-1.822 L -6.563,-1.821 C -6.687,-1.821 -6.787,-1.921 -6.787,-2.045 L -6.787,-2.17 C -6.787,-2.294 -6.687,-2.394 -6.563,-2.394 L -2.656,-2.397 C -2.533,-2.397 -2.432,-2.497 -2.432,-2.62 L -2.432,-3.495 C -2.432,-3.619 -2.533,-3.719 -2.656,-3.719 L -6.914,-3.736 C -7.078,-3.736 -7.402,-3.72 -7.47,-3.72 C -9.375,-3.701 -10.534,-2.668 -10.534,-1.954 C -10.534,-1.049 -9.069,-0.414 -7.707,-0.368 C -7.456,-0.36 -7.187,-0.352 -6.933,-0.352 L -0.225,-0.353 C -0.1,-0.353 0,-0.253 0,-0.13"
         style="fill:#bdbec0;fill-opacity:1;fill-rule:nonzero;stroke:none"
         id="path2996" /></g><g
       id="g2998"
       transform="matrix(4.4355243,0,0,4.4355243,475.03407,69.856786)"><path
         d="M 0,0 C 0,0.123 -0.1,0.223 -0.225,0.223 L -6.933,0.224 C -7.427,0.232 -7.897,0.21 -8.432,0.197 C -11.152,0.128 -13.203,-1.074 -13.203,-2.01 C -13.203,-3.198 -11.997,-4.039 -8.432,-4.105 C -8.018,-4.112 -7.375,-4.132 -6.933,-4.132 L -0.452,-4.132 C -0.218,-4.132 -0.029,-3.959 -0.029,-3.745 L -0.029,-2.209 C -0.029,-1.995 -0.218,-1.822 -0.452,-1.822 L -6.563,-1.821 C -6.687,-1.821 -6.787,-1.921 -6.787,-2.045 L -6.787,-2.17 C -6.787,-2.294 -6.687,-2.394 -6.563,-2.394 L -2.656,-2.397 C -2.533,-2.397 -2.432,-2.497 -2.432,-2.62 L -2.432,-3.495 C -2.432,-3.619 -2.533,-3.719 -2.656,-3.719 L -6.914,-3.736 C -7.078,-3.736 -7.402,-3.72 -7.47,-3.72 C -9.375,-3.701 -10.534,-2.668 -10.534,-1.954 C -10.534,-1.049 -9.069,-0.413 -7.707,-0.368 C -7.456,-0.36 -7.187,-0.352 -6.933,-0.352 L -0.225,-0.353 C -0.1,-0.353 0,-0.253 0,-0.13"
         style="fill:#bdbec0;fill-opacity:1;fill-rule:nonzero;stroke:none"
         id="path3000" /></g><g
       id="g3002"
       transform="matrix(4.4355243,0,0,4.4355243,475.03407,69.856786)"><path
         d="M 0,0 C 0,0.123 -0.1,0.223 -0.225,0.223 L -6.933,0.224 C -7.427,0.232 -7.897,0.21 -8.432,0.197 C -11.152,0.128 -13.203,-1.074 -13.203,-2.01 C -13.203,-3.198 -11.997,-4.039 -8.432,-4.105 C -8.018,-4.112 -7.375,-4.132 -6.933,-4.132 L -0.452,-4.132 C -0.218,-4.132 -0.029,-3.959 -0.029,-3.745 L -0.029,-2.209 C -0.029,-1.995 -0.218,-1.821 -0.452,-1.821 L -6.563,-1.821 C -6.687,-1.821 -6.787,-1.921 -6.787,-2.045 L -6.787,-2.17 C -6.787,-2.294 -6.687,-2.394 -6.563,-2.394 L -2.656,-2.397 C -2.533,-2.397 -2.432,-2.497 -2.432,-2.62 L -2.432,-3.495 C -2.432,-3.619 -2.533,-3.719 -2.656,-3.719 L -6.914,-3.736 C -7.078,-3.736 -7.402,-3.72 -7.47,-3.72 C -9.375,-3.701 -10.534,-2.668 -10.534,-1.954 C -10.534,-1.049 -9.069,-0.413 -7.707,-0.368 C -7.456,-0.36 -7.187,-0.352 -6.933,-0.352 L -0.225,-0.353 C -0.1,-0.353 0,-0.253 0,-0.13"
         style="fill:#bdbec0;fill-opacity:1;fill-rule:nonzero;stroke:none"
         id="path3004" /></g><g
       id="g3006"
       transform="matrix(4.4355243,0,0,4.4355243,475.03407,69.856786)"><path
         d="M 0,0 C 0,0.123 -0.1,0.223 -0.225,0.223 L -6.933,0.224 C -7.427,0.232 -7.897,0.21 -8.432,0.197 C -11.152,0.128 -13.203,-1.074 -13.203,-2.01 C -13.203,-3.198 -11.997,-4.039 -8.432,-4.105 C -8.018,-4.112 -7.375,-4.132 -6.933,-4.132 L -0.452,-4.132 C -0.218,-4.132 -0.029,-3.959 -0.029,-3.745 L -0.029,-2.209 C -0.029,-1.995 -0.218,-1.822 -0.452,-1.822 L -6.563,-1.821 C -6.687,-1.821 -6.787,-1.921 -6.787,-2.045 L -6.787,-2.17 C -6.787,-2.294 -6.687,-2.394 -6.563,-2.394 L -2.656,-2.397 C -2.533,-2.397 -2.432,-2.497 -2.432,-2.62 L -2.432,-3.495 C -2.432,-3.619 -2.533,-3.719 -2.656,-3.719 L -6.914,-3.736 C -7.078,-3.736 -7.402,-3.72 -7.47,-3.72 C -9.375,-3.701 -10.534,-2.668 -10.534,-1.954 C -10.534,-1.049 -9.069,-0.413 -7.707,-0.368 C -7.456,-0.36 -7.187,-0.352 -6.933,-0.352 L -0.225,-0.353 C -0.1,-0.353 0,-0.253 0,-0.13"
         style="fill:#bdbec0;fill-opacity:1;fill-rule:nonzero;stroke:none"
         id="path3008" /></g><g
       id="g3010"
       transform="matrix(4.4355243,0,0,4.4355243,475.03407,69.856786)"><path
         d="M 0,0 C 0,0.123 -0.1,0.223 -0.225,0.223 L -6.933,0.224 C -7.427,0.232 -7.897,0.21 -8.432,0.197 C -11.152,0.128 -13.203,-1.074 -13.203,-2.01 C -13.203,-3.198 -11.997,-4.039 -8.432,-4.105 C -8.018,-4.112 -7.375,-4.132 -6.933,-4.132 L -0.452,-4.132 C -0.218,-4.132 -0.029,-3.959 -0.029,-3.745 L -0.029,-2.209 C -0.029,-1.995 -0.218,-1.822 -0.452,-1.822 L -6.563,-1.821 C -6.687,-1.821 -6.787,-1.921 -6.787,-2.045 L -6.787,-2.17 C -6.787,-2.294 -6.687,-2.394 -6.563,-2.394 L -2.656,-2.397 C -2.533,-2.397 -2.432,-2.497 -2.432,-2.62 L -2.432,-3.495 C -2.432,-3.619 -2.533,-3.719 -2.656,-3.719 L -6.914,-3.736 C -7.078,-3.736 -7.402,-3.72 -7.47,-3.72 C -9.375,-3.701 -10.534,-2.668 -10.534,-1.954 C -10.534,-1.049 -9.069,-0.413 -7.707,-0.368 C -7.456,-0.36 -7.187,-0.352 -6.933,-0.352 L -0.225,-0.353 C -0.1,-0.353 0,-0.253 0,-0.13"
         style="fill:#bdbec0;fill-opacity:1;fill-rule:nonzero;stroke:none"
         id="path3012" /></g><g
       id="g3014"
       transform="matrix(4.4355243,0,0,4.4355243,489.75114,49.533214)"><path
         d="M 0,0 C -0.247,0 -0.448,0.2 -0.448,0.448 L -0.448,4.616 C -0.448,4.864 -0.247,5.064 0,5.064 L 12.077,5.065 C 12.175,5.065 12.254,4.985 12.254,4.887 L 12.254,4.081 C 12.254,3.983 12.175,3.904 12.077,3.904 L 3.205,3.899 C 3.02,3.899 2.87,3.749 2.87,3.564 L 2.87,3.383 C 2.87,3.198 3.02,3.048 3.205,3.048 L 11.636,3.044 C 11.734,3.044 11.813,2.965 11.813,2.867 L 11.813,2.178 C 11.813,2.081 11.734,2.001 11.636,2.001 L 3.188,2 C 3.003,2 2.853,1.85 2.853,1.665 L 2.853,1.471 C 2.853,1.286 3.003,1.136 3.188,1.136 L 12.237,1.14 C 12.335,1.14 12.414,1.061 12.414,0.963 L 12.414,0.179 C 12.414,0.081 12.335,0.002 12.237,0.002"
         style="fill:#4d4d4f;fill-opacity:1;fill-rule:nonzero;stroke:none"
         id="path3016" /></g><g
       id="g3018"
       transform="matrix(4.4355243,0,0,4.4355243,489.8842,49.675151)"><path
         d="M 0,0 C -0.245,0 -0.445,0.2 -0.445,0.446 L -0.445,4.562 C -0.445,4.808 -0.245,5.008 0,5.008 L 12.003,5.008 C 12.101,5.008 12.18,4.929 12.18,4.832 L 12.18,4.077 C 12.18,3.979 12.101,3.9 12.003,3.9 L 3.126,3.896 C 2.942,3.896 2.793,3.746 2.793,3.562 L 2.793,3.332 C 2.793,3.147 2.942,2.998 3.126,2.998 L 11.565,2.995 C 11.662,2.995 11.742,2.916 11.742,2.818 L 11.742,2.175 C 11.742,2.077 11.662,1.998 11.565,1.998 L 3.109,1.998 C 2.925,1.998 2.776,1.848 2.776,1.664 L 2.774,1.418 C 2.774,1.234 2.925,1.085 3.109,1.085 L 12.163,1.089 C 12.26,1.089 12.339,1.01 12.339,0.912 L 12.339,0.178 C 12.339,0.081 12.26,0.002 12.163,0.002"
         style="fill:#57585a;fill-opacity:1;fill-rule:nonzero;stroke:none"
         id="path3020" /></g><g
       id="g3022"
       transform="matrix(4.4355243,0,0,4.4355243,490.01727,49.812652)"><path
         d="M 0,0 C -0.244,0 -0.442,0.199 -0.442,0.444 L -0.442,4.508 C -0.442,4.753 -0.244,4.953 0,4.953 L 11.93,4.953 C 12.027,4.953 12.105,4.873 12.105,4.777 L 12.105,4.073 C 12.105,3.975 12.027,3.896 11.93,3.896 L 3.047,3.894 C 2.864,3.894 2.716,3.745 2.716,3.56 L 2.716,3.281 C 2.716,3.097 2.864,2.948 3.047,2.948 L 11.494,2.946 C 11.591,2.946 11.669,2.866 11.669,2.769 L 11.669,2.172 C 11.669,2.074 11.591,1.996 11.494,1.996 L 3.03,1.995 C 2.848,1.995 2.699,1.847 2.699,1.662 L 2.696,1.365 C 2.696,1.182 2.848,1.035 3.03,1.035 L 12.088,1.039 C 12.185,1.039 12.263,0.959 12.263,0.862 L 12.263,0.178 C 12.263,0.081 12.185,0.003 12.088,0.003"
         style="fill:#606163;fill-opacity:1;fill-rule:nonzero;stroke:none"
         id="path3024" /></g><g
       id="g3026"
       transform="matrix(4.4355243,0,0,4.4355243,490.15034,49.954589)"><path
         d="M 0,0 C -0.243,0 -0.439,0.198 -0.439,0.442 L -0.439,4.454 C -0.439,4.698 -0.243,4.896 0,4.896 L 11.856,4.895 C 11.952,4.895 12.03,4.817 12.03,4.72 L 12.03,4.067 C 12.03,3.971 11.952,3.892 11.856,3.892 L 2.968,3.889 C 2.786,3.889 2.639,3.741 2.639,3.558 L 2.639,3.229 C 2.639,3.046 2.786,2.898 2.968,2.898 L 11.424,2.896 C 11.519,2.896 11.598,2.817 11.598,2.721 L 11.598,2.168 C 11.598,2.071 11.519,1.993 11.424,1.993 L 2.951,1.992 C 2.77,1.992 2.622,1.843 2.622,1.661 L 2.617,1.311 C 2.617,1.128 2.77,0.984 2.951,0.984 L 12.014,0.986 C 12.11,0.986 12.188,0.908 12.188,0.811 L 12.188,0.177 C 12.188,0.08 12.11,0.002 12.014,0.002"
         style="fill:#696a6d;fill-opacity:1;fill-rule:nonzero;stroke:none"
         id="path3028" /></g><g
       id="g3030"
       transform="matrix(4.4355243,0,0,4.4355243,490.2834,50.096526)"><path
         d="M 0,0 C -0.241,0 -0.436,0.197 -0.436,0.441 L -0.436,4.399 C -0.436,4.643 -0.241,4.84 0,4.84 L 11.783,4.839 C 11.879,4.839 11.956,4.761 11.956,4.664 L 11.956,4.063 C 11.956,3.966 11.879,3.888 11.783,3.888 L 2.89,3.886 C 2.709,3.886 2.563,3.738 2.563,3.556 L 2.563,3.178 C 2.563,2.995 2.709,2.848 2.89,2.848 L 11.353,2.846 C 11.448,2.846 11.526,2.768 11.526,2.672 L 11.526,2.164 C 11.526,2.068 11.448,1.99 11.353,1.99 L 2.873,1.989 C 2.692,1.989 2.546,1.841 2.546,1.659 L 2.539,1.258 C 2.539,1.075 2.692,0.933 2.873,0.933 L 11.94,0.935 C 12.035,0.935 12.112,0.857 12.112,0.76 L 12.112,0.176 C 12.112,0.08 12.035,0.001 11.94,0.001"
         style="fill:#727375;fill-opacity:1;fill-rule:nonzero;stroke:none"
         id="path3032" /></g><g
       id="g3034"
       transform="matrix(4.4355243,0,0,4.4355243,490.4209,50.238462)"><path
         d="M 0,0 C -0.24,0 -0.434,0.196 -0.434,0.439 L -0.434,4.345 C -0.434,4.588 -0.24,4.784 0,4.784 L 11.71,4.782 C 11.804,4.782 11.881,4.704 11.881,4.609 L 11.881,4.058 C 11.881,3.962 11.804,3.884 11.71,3.884 L 2.811,3.882 C 2.631,3.882 2.486,3.735 2.486,3.553 L 2.486,3.127 C 2.486,2.945 2.631,2.798 2.811,2.798 L 11.282,2.797 C 11.377,2.797 11.454,2.719 11.454,2.623 L 11.454,2.161 C 11.454,2.065 11.377,1.987 11.282,1.987 L 2.794,1.986 C 2.615,1.986 2.469,1.839 2.469,1.657 L 2.46,1.204 C 2.46,1.023 2.615,0.882 2.794,0.882 L 11.865,0.884 C 11.96,0.884 12.037,0.806 12.037,0.71 L 12.037,0.175 C 12.037,0.079 11.96,0.002 11.865,0.002"
         style="fill:#797b7e;fill-opacity:1;fill-rule:nonzero;stroke:none"
         id="path3036" /></g><g
       id="g3038"
       transform="matrix(4.4355243,0,0,4.4355243,490.55397,50.380399)"><path
         d="M 0,0 C -0.238,0 -0.431,0.196 -0.431,0.437 L -0.431,4.291 C -0.431,4.533 -0.238,4.728 0,4.728 L 11.636,4.726 C 11.73,4.726 11.807,4.648 11.807,4.553 L 11.807,4.054 C 11.807,3.958 11.73,3.88 11.636,3.88 L 2.732,3.879 C 2.554,3.879 2.409,3.732 2.409,3.551 L 2.409,3.075 C 2.409,2.894 2.554,2.748 2.732,2.748 L 11.211,2.747 C 11.306,2.747 11.382,2.67 11.382,2.574 L 11.382,2.157 C 11.382,2.062 11.306,1.984 11.211,1.984 L 2.715,1.983 C 2.537,1.983 2.392,1.837 2.392,1.656 L 2.381,1.151 C 2.381,0.97 2.537,0.832 2.715,0.832 L 11.791,0.832 C 11.885,0.832 11.961,0.755 11.961,0.659 L 11.961,0.175 C 11.961,0.079 11.885,0.002 11.791,0.002"
         style="fill:#818386;fill-opacity:1;fill-rule:nonzero;stroke:none"
         id="path3040" /></g><g
       id="g3042"
       transform="matrix(4.4355243,0,0,4.4355243,490.68704,50.517901)"><path
         d="M 0,0 C -0.237,0 -0.428,0.195 -0.428,0.435 L -0.428,4.237 C -0.428,4.477 -0.237,4.672 0,4.672 L 11.563,4.669 C 11.656,4.669 11.732,4.592 11.732,4.497 L 11.732,4.049 C 11.732,3.954 11.656,3.876 11.563,3.876 L 2.653,3.875 C 2.475,3.875 2.332,3.729 2.332,3.549 L 2.332,3.024 C 2.332,2.844 2.475,2.698 2.653,2.698 L 11.14,2.698 C 11.234,2.698 11.31,2.62 11.31,2.525 L 11.31,2.154 C 11.31,2.058 11.234,1.981 11.14,1.981 L 2.636,1.98 C 2.459,1.98 2.315,1.834 2.315,1.654 L 2.303,1.097 C 2.303,0.917 2.459,0.781 2.636,0.781 L 11.716,0.781 C 11.81,0.781 11.886,0.704 11.886,0.609 L 11.886,0.174 C 11.886,0.079 11.81,0.002 11.716,0.002"
         style="fill:#898b8d;fill-opacity:1;fill-rule:nonzero;stroke:none"
         id="path3044" /></g><g
       id="g3046"
       transform="matrix(4.4355243,0,0,4.4355243,490.8201,50.659837)"><path
         d="M 0,0 C -0.235,0 -0.426,0.194 -0.426,0.434 L -0.426,4.182 C -0.426,4.422 -0.235,4.616 0,4.616 L 11.489,4.613 C 11.582,4.613 11.658,4.536 11.658,4.441 L 11.658,4.044 C 11.658,3.949 11.582,3.873 11.489,3.873 L 2.574,3.872 C 2.398,3.872 2.255,3.726 2.255,3.547 L 2.255,2.973 C 2.255,2.793 2.398,2.648 2.574,2.648 L 11.069,2.648 C 11.162,2.648 11.238,2.571 11.238,2.476 L 11.238,2.15 C 11.238,2.055 11.162,1.978 11.069,1.978 L 2.557,1.978 C 2.381,1.978 2.239,1.832 2.239,1.653 L 2.224,1.044 C 2.224,0.865 2.381,0.73 2.557,0.73 L 11.641,0.73 C 11.735,0.73 11.81,0.653 11.81,0.558 L 11.81,0.173 C 11.81,0.078 11.735,0.002 11.641,0.002"
         style="fill:#919396;fill-opacity:1;fill-rule:nonzero;stroke:none"
         id="path3048" /></g><g
       id="g3050"
       transform="matrix(4.4355243,0,0,4.4355243,490.95317,50.801774)"><path
         d="M 0,0 C -0.233,0 -0.423,0.193 -0.423,0.432 L -0.423,4.128 C -0.423,4.367 -0.233,4.56 0,4.56 L 11.416,4.557 C 11.508,4.557 11.583,4.48 11.583,4.385 L 11.583,4.04 C 11.583,3.945 11.508,3.869 11.416,3.869 L 2.495,3.868 C 2.32,3.868 2.178,3.723 2.178,3.545 L 2.178,2.921 C 2.178,2.743 2.32,2.598 2.495,2.598 L 10.999,2.599 C 11.091,2.599 11.166,2.522 11.166,2.428 L 11.166,2.147 C 11.166,2.052 11.091,1.976 10.999,1.976 L 2.479,1.975 C 2.304,1.975 2.162,1.83 2.162,1.651 L 2.146,0.991 C 2.146,0.812 2.304,0.679 2.479,0.679 L 11.567,0.679 C 11.66,0.679 11.735,0.602 11.735,0.508 L 11.735,0.173 C 11.735,0.078 11.66,0.002 11.567,0.002"
         style="fill:#989b9d;fill-opacity:1;fill-rule:nonzero;stroke:none"
         id="path3052" /></g><g
       id="g3054"
       transform="matrix(4.4355243,0,0,4.4355243,491.09067,50.943711)"><path
         d="M 0,0 C -0.232,0 -0.42,0.193 -0.42,0.43 L -0.42,4.074 C -0.42,4.312 -0.232,4.504 0,4.504 L 11.342,4.5 C 11.434,4.5 11.509,4.424 11.509,4.33 L 11.509,4.035 C 11.509,3.941 11.434,3.865 11.342,3.865 L 2.416,3.865 C 2.242,3.865 2.101,3.72 2.101,3.543 L 2.101,2.87 C 2.101,2.692 2.242,2.548 2.416,2.548 L 10.928,2.549 C 11.02,2.549 11.094,2.473 11.094,2.379 L 11.094,2.143 C 11.094,2.049 11.02,1.973 10.928,1.973 L 2.4,1.972 C 2.226,1.972 2.085,1.828 2.085,1.65 L 2.067,0.937 C 2.067,0.759 2.226,0.629 2.4,0.629 L 11.493,0.627 C 11.585,0.627 11.659,0.551 11.659,0.457 L 11.659,0.172 C 11.659,0.078 11.585,0.002 11.493,0.002"
         style="fill:#a1a3a5;fill-opacity:1;fill-rule:nonzero;stroke:none"
         id="path3056" /></g><g
       id="g3058"
       transform="matrix(4.4355243,0,0,4.4355243,491.22374,51.085647)"><path
         d="M 0,0 C -0.231,0 -0.417,0.192 -0.417,0.428 L -0.417,4.019 C -0.417,4.255 -0.231,4.448 0,4.448 L 11.269,4.443 C 11.36,4.443 11.434,4.367 11.434,4.273 L 11.434,4.029 C 11.434,3.937 11.36,3.86 11.269,3.86 L 2.337,3.86 C 2.165,3.86 2.025,3.718 2.025,3.539 L 2.025,2.818 C 2.025,2.641 2.165,2.497 2.337,2.497 L 10.857,2.5 C 10.949,2.5 11.023,2.424 11.023,2.329 L 11.023,2.138 C 11.023,2.045 10.949,1.969 10.857,1.969 L 2.321,1.969 C 2.149,1.969 2.009,1.825 2.009,1.648 L 1.989,0.883 C 1.989,0.706 2.149,0.578 2.321,0.578 L 11.419,0.575 C 11.51,0.575 11.584,0.5 11.584,0.406 L 11.584,0.17 C 11.584,0.076 11.51,0.002 11.419,0.002"
         style="fill:#abadb0;fill-opacity:1;fill-rule:nonzero;stroke:none"
         id="path3060" /></g><g
       id="g3062"
       transform="matrix(4.4355243,0,0,4.4355243,491.3568,51.223149)"><path
         d="M 0,0 C -0.229,0 -0.415,0.191 -0.415,0.427 L -0.415,3.965 C -0.415,4.201 -0.229,4.392 0,4.392 L 11.195,4.387 C 11.286,4.387 11.359,4.311 11.359,4.218 L 11.359,4.026 C 11.359,3.932 11.286,3.857 11.195,3.857 L 2.258,3.858 C 2.087,3.858 1.948,3.715 1.948,3.538 L 1.948,2.768 C 1.948,2.591 2.087,2.448 2.258,2.448 L 10.786,2.45 C 10.877,2.45 10.951,2.374 10.951,2.281 L 10.951,2.136 C 10.951,2.043 10.877,1.967 10.786,1.967 L 2.242,1.966 C 2.071,1.966 1.932,1.823 1.932,1.647 L 1.91,0.83 C 1.91,0.654 2.071,0.527 2.242,0.527 L 11.344,0.525 C 11.435,0.525 11.508,0.449 11.508,0.356 L 11.508,0.171 C 11.508,0.077 11.435,0.002 11.344,0.002"
         style="fill:#b3b5b7;fill-opacity:1;fill-rule:nonzero;stroke:none"
         id="path3064" /></g><g
       id="g3066"
       transform="matrix(4.4355243,0,0,4.4355243,491.48985,51.365086)"><path
         d="M 0,0 C -0.227,0 -0.412,0.19 -0.412,0.425 L -0.412,3.911 C -0.412,4.146 -0.227,4.336 0,4.336 L 11.122,4.331 C 11.212,4.331 11.285,4.255 11.285,4.162 L 11.285,4.021 C 11.285,3.928 11.212,3.853 11.122,3.853 L 2.18,3.854 C 2.009,3.854 1.871,3.712 1.871,3.536 L 1.871,2.716 C 1.871,2.54 2.009,2.398 2.18,2.398 L 10.716,2.401 C 10.806,2.401 10.879,2.325 10.879,2.232 L 10.879,2.132 C 10.879,2.039 10.806,1.964 10.716,1.964 L 2.164,1.963 C 1.993,1.963 1.855,1.821 1.855,1.645 L 1.831,0.777 C 1.831,0.601 1.993,0.476 2.164,0.476 L 11.269,0.473 C 11.36,0.473 11.433,0.398 11.433,0.305 L 11.433,0.17 C 11.433,0.077 11.36,0.002 11.269,0.002"
         style="fill:#bdbec0;fill-opacity:1;fill-rule:nonzero;stroke:none"
         id="path3068" /></g><g
       id="g3070"><g
         id="g3072"
         clip-path="url(#clipPath3074)"><g
           id="g3078"
           clip-path="url(#clipPath3080)"><g
             id="g3084"><g
               id="g3086"
               clip-path="url(#clipPath3088)"><path
                 d="M 205.362,36.451 C 205.325,35.936 205.291,35.449 205.291,34.949 C 205.291,34.45 205.404,34.329 205.757,34.322 C 206.124,34.314 208.728,34.302 210.619,34.332 C 211.142,34.339 211.649,34.336 212.138,34.333 C 213.831,34.322 215.294,34.31 216.408,34.773 C 217.645,35.286 218.114,36.155 218.149,36.388 C 218.183,36.615 218.201,37.035 218.074,37.035 C 217.947,37.035 216.012,36.711 215.855,36.698 C 215.756,36.69 215.72,36.457 215.72,36.457 C 215.475,35.223 214.107,34.812 213.783,34.802 C 213.382,34.79 208.777,34.802 208.434,34.802 C 208.092,34.802 207.71,34.91 207.71,35.253 C 207.71,35.596 207.661,36.193 207.648,36.451 C 207.643,36.549 207.594,36.802 207.621,37.14 C 207.567,36.843 207.404,36.64 207.242,36.64 L 205.808,36.64 C 205.443,36.64 205.443,36.775 205.375,37.181 C 205.375,37.019 205.375,36.64 205.362,36.451"
                 style="fill:url(#linearGradient3092);stroke:none"
                 id="path3098" /></g></g></g></g></g><g
       id="g3100"><g
         id="g3102"
         clip-path="url(#clipPath3104)"><g
           id="g3108"
           clip-path="url(#clipPath3110)"><g
             id="g3114"><g
               id="g3116"
               clip-path="url(#clipPath3118)"><path
                 d="M 205.719,38.853 C 205.502,38.842 205.242,38.874 205.253,38.548 C 205.264,38.224 205.357,36.957 205.374,36.62 L 207.614,36.624 C 207.657,36.787 207.693,37.67 207.693,37.801 C 207.693,37.931 207.65,38.386 208.236,38.375 C 208.821,38.364 211.868,38.364 212.573,38.364 C 213.277,38.364 215.751,38.155 215.751,36.594 L 218.18,36.595 C 218.18,36.958 218.124,37.204 217.959,37.406 C 217.697,37.728 216.93,38.548 214.536,38.787 C 214.024,38.838 209.747,38.856 207.252,38.856 C 206.571,38.856 206.022,38.855 205.719,38.853"
                 style="fill:url(#linearGradient3122);stroke:none"
                 id="path3128" /></g></g></g></g></g><g
       id="g3130"><g
         id="g3132"
         clip-path="url(#clipPath3134)"><g
           id="g3138"
           clip-path="url(#clipPath3140)"><g
             id="g3144"><g
               id="g3146"
               clip-path="url(#clipPath3148)"><path
                 d="M 237.286,36.451 C 237.249,35.936 237.214,35.449 237.214,34.949 C 237.214,34.45 237.328,34.329 237.681,34.322 C 238.048,34.314 240.652,34.302 242.544,34.332 C 243.067,34.339 243.575,34.336 244.063,34.333 C 245.757,34.322 247.22,34.31 248.334,34.773 C 249.571,35.286 250.04,36.155 250.075,36.388 C 250.108,36.615 250.127,37.035 249.999,37.035 C 249.872,37.035 247.936,36.711 247.781,36.698 C 247.682,36.69 247.646,36.457 247.646,36.457 C 247.401,35.223 246.032,34.812 245.709,34.802 C 245.307,34.79 240.701,34.802 240.358,34.802 C 240.016,34.802 239.634,34.91 239.634,35.253 C 239.634,35.596 239.585,36.193 239.572,36.451 C 239.566,36.549 239.518,36.802 239.545,37.14 C 239.491,36.843 239.328,36.64 239.166,36.64 L 237.732,36.64 C 237.367,36.64 237.367,36.775 237.299,37.181 C 237.299,37.019 237.299,36.64 237.286,36.451"
                 style="fill:url(#linearGradient3152);stroke:none"
                 id="path3158" /></g></g></g></g></g><g
       id="g3160"
       transform="matrix(4.4355243,0,0,4.4355243,358.84995,53.476396)"><path
         d="M 0,0 C 0,-0.175 0.033,-0.285 0.299,-0.285 C 0.788,-0.285 4.31,-0.28 5.069,-0.28 C 5.828,-0.28 6.77,-0.3 7.667,0.581 C 8.004,0.913 7.732,0.928 7.46,0.733 C 7.189,0.538 6.745,0.056 5.085,0.056 C 3.426,0.056 1.637,0.061 0.618,0.061 C 0.428,0.061 0.368,0.178 0.317,0.228 C 0.267,0.278 0,0.324 0,0"
         style="fill:#ffffff;fill-opacity:1;fill-rule:nonzero;stroke:none"
         id="path3162" /></g><g
       id="g3164"
       transform="matrix(4.4355243,0,0,4.4355243,217.00631,53.476396)"><path
         d="M 0,0 C 0,-0.175 0.033,-0.285 0.299,-0.285 C 0.788,-0.285 4.308,-0.28 5.068,-0.28 C 5.827,-0.28 6.768,-0.3 7.665,0.581 C 8.002,0.913 7.73,0.928 7.459,0.733 C 7.188,0.538 6.743,0.056 5.084,0.056 C 3.425,0.056 1.637,0.061 0.618,0.061 C 0.428,0.061 0.367,0.178 0.317,0.228 C 0.267,0.278 0,0.324 0,0"
         style="fill:#ffffff;fill-opacity:1;fill-rule:nonzero;stroke:none"
         id="path3166" /></g><g
       id="g3168"><g
         id="g3170"
         clip-path="url(#clipPath3172)"><g
           id="g3176"
           clip-path="url(#clipPath3178)"><g
             id="g3182"><g
               id="g3184"
               clip-path="url(#clipPath3186)"><path
                 d="M 237.643,38.853 C 237.426,38.842 237.166,38.874 237.177,38.548 C 237.188,38.224 237.281,36.957 237.298,36.62 L 239.538,36.624 C 239.581,36.787 239.617,37.67 239.617,37.801 C 239.617,37.931 239.574,38.386 240.16,38.375 C 240.744,38.364 243.794,38.364 244.498,38.364 C 245.203,38.364 247.675,38.155 247.675,36.594 L 250.104,36.595 C 250.104,36.958 250.05,37.204 249.885,37.406 C 249.623,37.728 248.855,38.548 246.461,38.787 C 245.95,38.838 241.671,38.856 239.176,38.856 C 238.494,38.856 237.945,38.855 237.643,38.853"
                 style="fill:url(#linearGradient3190);stroke:none"
                 id="path3196" /></g></g></g></g></g><g
       id="g3198"><g
         id="g3200"
         clip-path="url(#clipPath3202)"><g
           id="g3206"
           clip-path="url(#clipPath3208)"><g
             id="g3212"><g
               id="g3214"
               clip-path="url(#clipPath3216)"><path
                 d="M 226.933,38.962 C 225.677,38.962 225.21,38.943 223.744,38.65 C 222.06,38.313 221.341,37.728 221.043,37.43 C 220.745,37.131 220.666,36.757 220.734,36.554 L 223.056,36.551 C 223.133,37.139 223.431,37.551 224.278,37.985 C 225.126,38.418 226.502,38.437 227.533,38.437 C 228.562,38.437 229.42,38.438 230.624,38.131 C 232.025,37.774 232.24,36.911 232.278,36.565 L 234.498,36.569 C 234.498,36.569 234.559,36.866 234.435,37.138 C 234.267,37.505 233.953,38.011 232.412,38.473 C 230.872,38.936 229.318,38.962 227.557,38.962 C 227.327,38.962 227.121,38.962 226.933,38.962"
                 style="fill:url(#linearGradient3220);stroke:none"
                 id="path3226" /></g></g></g></g></g><g
       id="g3228"><g
         id="g3230"
         clip-path="url(#clipPath3232)"><g
           id="g3236"
           clip-path="url(#clipPath3238)"><g
             id="g3242"><g
               id="g3244"
               clip-path="url(#clipPath3246)"><path
                 d="M 220.72,36.646 C 220.72,34.53 225.516,34.177 227.056,34.177 C 228.596,34.177 229.784,34.166 231.289,34.424 C 233.85,34.864 234.416,36.035 234.498,36.599 L 232.288,36.599 C 232.24,35.952 231.782,35.153 230.384,34.812 C 228.985,34.472 224.965,34.695 224.188,35.071 C 223.412,35.447 223.119,36.328 223.084,36.646 L 220.72,36.646"
                 style="fill:url(#linearGradient3250);stroke:none"
                 id="path3256" /></g></g></g></g></g><g
       id="g3258"
       transform="matrix(4.4355243,0,0,4.4355243,305.96963,51.400571)"><path
         d="M 0,0 C 3.3,0 4.208,0.889 4.458,1.605 L 4.317,1.752 L 4.175,1.612 C 4.115,1.475 3.744,0.333 0,0.333 C -3.744,0.333 -4.115,1.475 -4.175,1.612 L -4.317,1.752 L -4.457,1.605 C -4.208,0.889 -3.299,0 0,0"
         style="fill:#ffffff;fill-opacity:1;fill-rule:nonzero;stroke:none"
         id="path3260" /></g><g
       id="g3262"><g
         id="g3264"
         clip-path="url(#clipPath3266)"><g
           id="g3270"><g
             id="g3276"><g
               id="g3278"
               clip-path="url(#clipPath3280)"><path
                 d="M 257.427,38.818 C 254.707,38.748 252.647,37.694 252.647,36.456 L 255.322,36.465 C 255.322,36.465 255.325,36.465 255.325,36.555 C 255.325,37.545 256.756,38.193 258.119,38.238 C 258.37,38.246 258.672,38.249 258.926,38.249 L 265.818,38.247 C 265.942,38.247 266.013,38.386 266.088,38.622 L 266.115,38.704 C 266.115,38.828 266.016,38.845 265.892,38.845 L 258.926,38.845 L 258.725,38.847 C 258.303,38.847 257.889,38.829 257.427,38.818"
                 style="fill:url(#linearGradient3284);stroke:none"
                 id="path3290" /></g></g></g></g></g><g
       id="g3292"><g
         id="g3294"
         clip-path="url(#clipPath3296)"><g
           id="g3300"
           clip-path="url(#clipPath3302)"><g
             id="g3306"><g
               id="g3308"
               clip-path="url(#clipPath3310)"><path
                 d="M 259.1,36.442 C 259.097,36.333 259.097,36.32 259.094,36.299 C 259.082,36.217 259.098,36.135 259.315,36.135 L 263.098,36.135 C 263.227,36.135 263.444,36.07 263.444,35.923 C 263.444,35.923 263.453,35.119 263.444,34.981 C 263.436,34.842 263.461,34.704 263.08,34.704 C 262.698,34.704 257.202,34.309 256.34,35.172 C 255.94,35.57 255.376,36.074 255.324,36.542 L 252.652,36.542 C 252.652,34.426 256.314,34.399 257.042,34.399 C 257.771,34.399 264.998,34.347 265.284,34.347 C 265.57,34.347 265.83,34.435 265.83,34.759 C 265.83,34.759 265.83,36.256 265.83,36.352 C 265.83,36.439 265.83,36.423 265.726,36.56 L 259.534,36.577 L 259.1,36.442"
                 style="fill:url(#linearGradient3314);stroke:none"
                 id="path3320" /></g></g></g></g></g><g
       id="g3322"
       transform="matrix(4.4355243,0,0,4.4355243,465.4489,52.886471)"><path
         d="M 0,0 C 0,-0.175 -0.034,-0.216 -0.305,-0.216 C -0.804,-0.216 -4.398,-0.212 -5.173,-0.212 C -5.947,-0.212 -7.184,-0.079 -7.824,0.581 C -8.071,0.836 -7.817,0.848 -7.541,0.653 C -7.264,0.458 -6.451,0.056 -5.189,0.056 C -3.496,0.056 -1.671,0.061 -0.631,0.061 C -0.436,0.061 -0.375,0.178 -0.324,0.228 C -0.273,0.278 0,0.324 0,0"
         style="fill:#ffffff;fill-opacity:1;fill-rule:nonzero;stroke:none"
         id="path3324" /></g><g
       id="g3326"
       transform="matrix(4.4355243,0,0,4.4355243,474.88769,60.147424)"><path
         d="M 0,0 C 0,0.15 -0.118,0.307 -0.295,0.307 L -6.563,0.308 C -6.687,0.308 -6.715,0.138 -6.715,0.005"
         style="fill:#ffffff;fill-opacity:1;fill-rule:nonzero;stroke:none"
         id="path3328" /></g><g
       id="g3330"><g
         id="g3332"
         clip-path="url(#clipPath3334)"><g
           id="g3338"><g
             id="g3344"><g
               id="g3346"
               clip-path="url(#clipPath3348)"><path
                 d="M 269.144,38.384 L 269.269,36.519 L 271.721,36.314 L 280.272,36.315 C 280.363,36.315 280.413,36.381 280.467,36.483 L 280.511,36.575 L 280.572,36.753 C 280.603,36.863 280.499,36.921 280.409,36.921 L 271.736,36.918 C 271.566,36.918 271.427,37.061 271.427,37.236 L 271.427,37.943 C 271.427,38.118 271.566,38.261 271.736,38.261 L 280.678,38.26 C 280.768,38.26 280.812,38.338 280.866,38.43 L 280.978,38.691 C 281.019,38.803 280.905,38.859 280.815,38.859 L 269.557,38.865 C 269.329,38.865 269.144,38.619 269.144,38.384"
                 style="fill:url(#linearGradient3352);stroke:none"
                 id="path3358" /></g></g></g></g></g><g
       id="g3360"><g
         id="g3362"
         clip-path="url(#clipPath3364)"><g
           id="g3368"
           clip-path="url(#clipPath3370)"><g
             id="g3374"><g
               id="g3376"
               clip-path="url(#clipPath3378)"><path
                 d="M 269.269,36.519 C 269.269,36.519 269.156,35.37 269.137,34.913 C 269.117,34.456 269.308,34.437 269.745,34.437 L 280.667,34.437 C 280.894,34.437 280.886,34.452 280.97,34.59 C 281.047,34.719 281.124,34.921 281.089,34.956 C 281.089,34.956 272.334,34.837 272.01,34.837 C 271.686,34.837 271.39,34.894 271.39,35.151 L 271.39,36.019 C 271.39,36.211 271.42,36.302 271.782,36.302 L 280.116,36.302 C 280.364,36.302 280.398,36.321 280.489,36.519 L 269.269,36.519"
                 style="fill:url(#linearGradient3382);stroke:none"
                 id="path3388" /></g></g></g></g></g><g
       id="g3390"
       transform="matrix(4.4355243,0,0,4.4355243,542.09032,53.871157)"><path
         d="M 0,0 L -8.983,0.003 C -9.174,0.005 -9.235,0.126 -9.286,0.176 C -9.337,0.226 -9.609,0.272 -9.609,-0.052 C -9.609,-0.227 -9.576,-0.356 -9.304,-0.356 C -9.034,-0.356 -7.855,-0.355 -6.708,-0.353 C -4.076,-0.353 -0.406,-0.351 -0.337,-0.351 C -0.229,-0.351 -0.062,-0.363 -0.014,-0.315 C 0.034,-0.268 0.049,-0.232 0.122,-0.132 C 0.172,-0.038 0.09,0 0,0"
         style="fill:#ffffff;fill-opacity:1;fill-rule:nonzero;stroke:none"
         id="path3392" /></g></g></svg>