<?xml version="1.0" encoding="UTF-8" ?>
<svg width="480pt" height="480pt" viewBox="10 10 480 480" xmlns="http://www.w3.org/2000/svg">
<g transform="translate(250,250)" stroke="#736f72" stroke-width="3.58714" fill="none">
<circle r="227.532" fill="#ffffff"/><circle r="211.294"/>
<circle r="195.057"/><circle r="178.819"/><circle r="162.581"/>
<circle r="146.344"/><circle r="130.106" stroke="#787177" fill="#029768"/>
</g>
<path fill="#ffffff" d="M 213.23 132.30 C 210.97 137.00 210.65 142.31 209.18 147.26 C 205.40 163.29 203.71 179.71 201.79 196.05 C 200.17 204.60 201.08 213.34 199.84 221.94 C 199.51 233.26 199.76 244.60 199.70 255.93 C 199.39 263.98 201.03 271.93 200.74 279.99 C 202.24 296.49 204.22 312.96 206.28 329.40 C 208.16 340.45 210.23 351.46 212.37 362.47 C 212.92 365.05 212.70 368.16 215.16 369.83 C 215.27 369.08 215.50 367.60 215.61 366.85 C 215.68 367.26 215.82 368.09 215.89 368.50 C 215.72 369.00 215.36 370.00 215.19 370.51 C 236.13 370.76 257.07 370.47 278.01 370.65 C 279.78 370.63 282.18 370.73 282.85 368.65 C 285.54 362.16 286.66 355.15 288.75 348.46 C 292.20 337.64 294.38 326.45 298.35 315.79 C 293.29 312.14 286.75 314.25 280.98 313.70 C 277.21 313.99 271.76 312.34 269.71 316.62 C 265.63 325.42 263.21 334.92 258.77 343.56 C 252.56 343.46 246.34 343.67 240.14 343.50 C 238.65 343.63 237.92 342.12 237.59 340.92 C 234.16 328.88 232.47 316.43 231.46 303.98 C 230.53 291.25 229.55 278.30 231.74 265.64 C 246.49 265.23 261.26 265.63 276.02 265.44 C 277.54 265.33 279.20 265.42 280.49 264.47 C 281.36 262.08 281.11 259.48 281.17 256.99 C 281.00 251.09 281.47 245.16 280.74 239.28 C 275.25 237.93 269.58 238.73 264.00 238.54 C 253.55 238.40 243.08 238.81 232.63 238.32 C 231.85 223.57 232.77 208.80 233.56 194.07 C 235.23 180.87 236.21 167.35 240.87 154.79 C 247.27 154.54 253.69 154.46 260.09 154.85 C 263.47 162.95 266.16 171.31 269.54 179.42 C 270.89 182.35 271.29 186.11 274.13 188.07 C 280.35 189.01 286.74 188.21 293.03 188.50 C 294.55 188.07 298.09 189.33 297.49 186.48 C 297.34 186.11 297.03 185.35 296.87 184.97 C 297.62 185.86 298.43 186.70 299.29 187.49 C 299.01 185.35 298.59 183.23 297.87 181.20 C 292.23 165.15 287.65 148.75 282.07 132.67 C 281.79 132.60 281.23 132.44 280.95 132.37 L 280.66 133.00 C 280.45 132.76 280.05 132.28 279.85 132.04 L 279.98 131.40 L 279.66 130.69 C 259.81 130.15 239.90 130.69 220.02 130.43 C 217.75 130.58 214.58 129.95 213.23 132.30 Z"/>
<path fill="#996d7f" d=" M 212.05 130.04 C 212.53 128.52 214.80 129.53 216.01 129.19 C 238.25 129.16 260.49 129.23 282.72 129.15 C 288.57 148.00 294.88 166.71 300.74 185.56 C 301.22 187.08 302.21 188.37 303.08 189.69 C 292.73 189.92 282.37 189.53 272.02 189.90 C 267.33 178.53 263.69 166.71 258.38 155.62 C 253.19 156.00 247.99 155.61 242.80 155.82 C 241.13 156.21 241.13 158.32 240.59 159.63 C 234.64 185.06 233.20 211.31 233.50 237.36 C 249.92 237.34 266.35 237.54 282.78 237.24 C 282.54 247.06 282.74 256.88 282.68 266.69 C 265.97 266.25 249.25 266.48 232.54 266.54 C 232.03 278.35 232.05 290.18 232.54 301.99 C 233.60 315.71 235.83 329.36 239.67 342.60 C 245.81 342.60 251.97 342.93 258.09 342.38 C 261.80 332.39 265.74 322.48 269.71 312.59 C 280.00 312.86 290.30 312.68 300.59 312.69 C 294.63 332.30 289.34 352.11 283.75 371.84 C 260.16 371.64 236.57 371.73 212.98 371.80 C 200.51 315.54 195.32 257.48 200.06 199.98 C 202.07 176.39 205.61 152.85 212.05 130.04 M 213.23 132.30 C 210.97 137.00 210.65 142.31 209.18 147.26 C 205.40 163.29 203.71 179.71 201.79 196.05 C 200.17 204.60 201.08 213.34 199.84 221.94 C 199.51 233.26 199.76 244.60 199.70 255.93 C 199.39 263.98 201.03 271.93 200.74 279.99 C 202.24 296.49 204.22 312.96 206.28 329.40 C 208.16 340.45 210.23 351.46 212.37 362.47 C 212.92 365.05 212.70 368.16 215.16 369.83 C 215.27 369.08 215.50 367.60 215.61 366.85 C 215.68 367.26 215.82 368.09 215.89 368.50 C 215.72 369.00 215.36 370.00 215.19 370.51 C 236.13 370.76 257.07 370.47 278.01 370.65 C 279.78 370.63 282.18 370.73 282.85 368.65 C 285.54 362.16 286.66 355.15 288.75 348.46 C 292.20 337.64 294.38 326.45 298.35 315.79 C 293.29 312.14 286.75 314.25 280.98 313.70 C 277.21 313.99 271.76 312.34 269.71 316.62 C 265.63 325.42 263.21 334.92 258.77 343.56 C 252.56 343.46 246.34 343.67 240.14 343.50 C 238.65 343.63 237.92 342.12 237.59 340.92 C 234.16 328.88 232.47 316.43 231.46 303.98 C 230.53 291.25 229.55 278.30 231.74 265.64 C 246.49 265.23 261.26 265.63 276.02 265.44 C 277.54 265.33 279.20 265.42 280.49 264.47 C 281.36 262.08 281.11 259.48 281.17 256.99 C 281.00 251.09 281.47 245.16 280.74 239.28 C 275.25 237.93 269.58 238.73 264.00 238.54 C 253.55 238.40 243.08 238.81 232.63 238.32 C 231.85 223.57 232.77 208.80 233.56 194.07 C 235.23 180.87 236.21 167.35 240.87 154.79 C 247.27 154.54 253.69 154.46 260.09 154.85 C 263.47 162.95 266.16 171.31 269.54 179.42 C 270.89 182.35 271.29 186.11 274.13 188.07 C 280.35 189.01 286.74 188.21 293.03 188.50 C 294.55 188.07 298.09 189.33 297.49 186.48 C 297.34 186.11 297.03 185.35 296.87 184.97 C 297.62 185.86 298.43 186.70 299.29 187.49 C 299.01 185.35 298.59 183.23 297.87 181.20 C 292.23 165.15 287.65 148.75 282.07 132.67 C 281.79 132.60 281.23 132.44 280.95 132.37 L 280.66 133.00 C 280.45 132.76 280.05 132.28 279.85 132.04 L 279.98 131.40 L 279.66 130.69 C 259.81 130.15 239.90 130.69 220.02 130.43 C 217.75 130.58 214.58 129.95 213.23 132.30 Z" />
<path fill="#605d60" d=" M 213.23 132.30 C 214.58 129.95 217.75 130.58 220.02 130.43 C 239.90 130.69 259.81 130.15 279.66 130.69 L 279.98 131.40 L 279.85 132.04 C 278.59 132.38 277.31 132.54 276.01 132.53 C 255.79 132.40 235.57 132.59 215.35 132.43 C 212.61 140.77 210.97 149.43 209.26 158.04 C 204.45 185.07 201.95 212.53 202.21 239.99 C 201.63 282.62 206.80 325.19 215.61 366.85 C 215.50 367.60 215.27 369.08 215.16 369.83 C 212.70 368.16 212.92 365.05 212.37 362.47 C 210.23 351.46 208.16 340.45 206.28 329.40 C 204.22 312.96 202.24 296.49 200.74 279.99 C 201.03 271.93 199.39 263.98 199.70 255.93 C 199.76 244.60 199.51 233.26 199.84 221.94 C 201.08 213.34 200.17 204.60 201.79 196.05 C 203.71 179.71 205.40 163.29 209.18 147.26 C 210.65 142.31 210.97 137.00 213.23 132.30 Z" />
<path fill="#605d60" d=" M 280.95 132.37 C 281.23 132.44 281.79 132.60 282.07 132.67 C 287.65 148.75 292.23 165.15 297.87 181.20 C 298.59 183.23 299.01 185.35 299.29 187.49 C 298.43 186.70 297.62 185.86 296.87 184.97 C 291.51 169.26 286.75 153.35 281.48 137.61 C 280.96 136.12 280.66 134.57 280.66 133.00 L 280.95 132.37 Z" />
<path fill="#676667" d=" M 230.56 204.65 C 231.76 187.11 233.70 169.48 238.77 152.58 C 246.33 152.55 253.88 152.70 261.44 152.46 C 266.18 163.68 270.14 175.22 274.73 186.51 C 282.32 186.53 289.90 186.51 297.49 186.48 C 298.09 189.33 294.55 188.07 293.03 188.50 C 286.74 188.21 280.35 189.01 274.13 188.07 C 271.29 186.11 270.89 182.35 269.54 179.42 C 266.16 171.31 263.47 162.95 260.09 154.85 C 253.69 154.46 247.27 154.54 240.87 154.79 C 236.21 167.35 235.23 180.87 233.56 194.07 C 232.77 208.80 231.85 223.57 232.63 238.32 C 243.08 238.81 253.55 238.40 264.00 238.54 C 269.58 238.73 275.25 237.93 280.74 239.28 C 281.47 245.16 281.00 251.09 281.17 256.99 C 281.11 259.48 281.36 262.08 280.49 264.47 C 279.20 265.42 277.54 265.33 276.02 265.44 C 261.26 265.63 246.49 265.23 231.74 265.64 C 229.55 278.30 230.53 291.25 231.46 303.98 C 232.47 316.43 234.16 328.88 237.59 340.92 C 237.92 342.12 238.65 343.63 240.14 343.50 C 246.34 343.67 252.56 343.46 258.77 343.56 C 263.21 334.92 265.63 325.42 269.71 316.62 C 271.76 312.34 277.21 313.99 280.98 313.70 C 286.75 314.25 293.29 312.14 298.35 315.79 C 294.38 326.45 292.20 337.64 288.75 348.46 C 286.66 355.15 285.54 362.16 282.85 368.65 C 282.18 370.73 279.78 370.63 278.01 370.65 C 257.07 370.47 236.13 370.76 215.19 370.51 C 215.36 370.00 215.72 369.00 215.89 368.50 C 237.44 368.33 259.01 368.29 280.56 368.53 C 286.11 351.22 290.38 333.53 295.62 316.13 C 287.83 316.18 280.03 316.12 272.24 316.17 C 268.05 326.13 264.63 336.39 260.27 346.28 C 252.47 345.91 244.64 345.51 236.84 346.20 C 228.82 319.95 227.31 292.18 228.88 264.91 C 228.92 262.18 232.22 262.93 234.01 262.80 C 248.85 263.13 263.73 262.28 278.55 263.34 C 278.93 255.78 278.62 248.20 278.74 240.63 C 262.36 240.56 245.99 240.64 229.62 240.60 C 229.36 228.60 230.23 216.64 230.56 204.65 Z" />
</svg>