<?xml version="1.0" encoding="utf-8"?>
<!-- Generator: Adobe Illustrator 15.0.0, SVG Export Plug-In . SVG Version: 6.00 Build 0)  -->
<!DOCTYPE svg PUBLIC "-//W3C//DTD SVG 1.1//EN" "http://www.w3.org/Graphics/SVG/1.1/DTD/svg11.dtd">
<svg version="1.1" id="Layer_1" xmlns="http://www.w3.org/2000/svg" xmlns:xlink="http://www.w3.org/1999/xlink" x="0px" y="0px"
	 width="283.46px" height="283.46px" viewBox="0 0 283.46 283.46" enable-background="new 0 0 283.46 283.46" xml:space="preserve">
<g>
	<circle fill="#0E6EAD" cx="141.73" cy="141.73" r="128.609"/>
	<g>
		<polygon fill="#56B948" points="190.164,44.15 193.587,34.711 188.159,37.424 182.85,31.053 178.248,37.602 171.877,33.885 
			175.063,44.15 		"/>
		<path fill="#56B948" d="M134.203,82.379c0,6.844,4.104,1.18,4.104,0s0-4.013,0-7.552s1.239-6.135,5.015-6.135
			s4.482,4.011,6.371,4.011s5.428-0.236,16.047-0.236s-2.478,9.675-7.905,15.103c-5.427,5.428-19.805,19.52-23.463,23.177
			c-3.658,3.658-1.846,5.907,2.047,2.014c8.023-8.023,13.746-15.28,23.186-12.684c6.568,1.806,4.012,7.787,2.831,11.091
			c-1.181,3.304-1.533,6.018,1.652,2.832c3.186-3.186,34.926-45.308,34.926-52.388c0-7.08-4.248-10.088-4.248-10.088V48.87
			c0,0-15.811-0.237-21.71-0.237c-5.898,0-4.247,2.892-7.079,2.892s-12.271,0-15.812,0s-3.54,3.48-7.316,3.48
			s-4.542-4.248-4.542-6.135s0-5.193,0-7.552s-4.104-2.359-4.104,0s0,9.438,0,12.743s0.742,4.483-3.506,4.483
			c-4.248,0-7.906,1.179-7.906,5.663c0,4.601,3.423,4.721,7.906,4.721C135.179,68.928,134.203,75.536,134.203,82.379z
			 M168.69,61.885c0,1.695-19.705,14-19.705,0C148.985,48.729,168.69,60.29,168.69,61.885z"/>
		<path fill="#56B948" d="M221.668,163.085c-22.537,0-38.583,10.974-41.769,14.159c-2.838,2.837-7.434,2.949-9.204,1.533
			c-1.772-1.418-5.663-4.247-7.787-14.396c-0.997-4.762-4.956-4.719-3.658,1.771c0.771,3.861,3.067,11.8,5.663,15.574
			c2.756,4.009,1.77,8.732-6.135,8.496c-10.262-0.308-23.127-18.879-26.548-27.02c-1.905-4.534-7.198-6.372-2.36,5.546
			c7.557,18.618,18.171,29.969,25.959,34.689c4.481,2.716,5.853,7.378,4.602,11.091c-3.659,10.855-5.312,12.979-8.732,12.979
			c-2.714,0-5.073-5.369-6.843-8.732c-1.77-3.362-3.54-6.666-6.018-11.799c-2.478-5.132-5.664-4.955-7.256-4.955
			s-6.726,2.478-6.726,6.018s4.248,2.301,6.549,2.301c2.301,0,3.894,2.654,4.956,5.663s6.726,21.593,8.672,25.663
			c1.947,4.071,4.425,4.779,6.372,4.779c10.56,0,21.592-28.142,25.663-32.212c4.07-4.07,8.495-3.362,26.548-3.362
			s43.185-12.743,43.185-29.38S232.11,163.085,221.668,163.085z M202.671,193.762c-21.593,0-7.905-7.314-0.117-10.854
			c7.381-3.354,13.096-5.429,15.81-5.429s7.434,0.708,7.434,6.726C225.797,186.802,226.858,193.762,202.671,193.762z"/>
	</g>
	<path fill="#FED402" d="M141.73,2.147C64.641,2.147,2.147,64.641,2.147,141.73S64.641,281.313,141.73,281.313
		c77.089,0,139.582-62.493,139.582-139.583S218.819,2.147,141.73,2.147z M141.73,13.121c71.028,0,128.608,57.58,128.608,128.609
		c0,1.581-0.038,3.152-0.095,4.718c-7.106,0-32.49,0-36.896,0c-5.132,0-5.909-3.274-5.909-5.575c0-0.003-0.002-0.007-0.002-0.01
		c-0.023-2.37-0.099-5.469-0.283-9.459c-0.526-11.424-17.627-2.606-22.372-0.75c-1-8.205-11.696-4.449-18.316-1.683
		c-1.065-0.915-2.771-2.444-4.974-4.647c-3.806-3.805-6.902,0.354-9.911,2.655s1.238,2.124,1.238,4.071v7.433v3.946
		c0,0.01,0.003,0.018,0.003,0.028c0,0.008-0.003,0.017-0.003,0.025v0.731h-0.08c-0.403,2.669-2.868,4.73-5.876,4.73
		c-3.011,0-5.475-2.062-5.878-4.73h-0.02l-0.066-0.114c0.013-2.513-0.042-6.297-0.291-11.695c-0.424-9.189-11.571-5.28-18.388-2.433
		c-1.065-0.915-2.771-2.444-4.974-4.647c-2.57-2.57-4.817-1.504-6.933,0.167c-1.448,0-8.028,0.648-15.015,0.648
		c-4.602,0-11.681,0-14.336,0c0-0.004,0-0.008,0-0.012c-0.041,0-0.078,0.012-0.119,0.012c-2.15,0-3.894-1.744-3.894-3.894
		c0.354-3.894,1.18-52.848,1.18-64.707c0-11.858,7.434-14.159,10.62-16.637c3.186-2.478,0.708-4.956-2.124-4.779
		c-2.832,0.177-20.177,8.496-27.256,12.035c-7.08,3.54-5.487,7.257-5.133,15.929c0.354,8.672,1.446,58.158,1.446,58.158
		c0,2.15-1.744,3.894-3.894,3.894c-2.743,0-36.666,0-43.303,0c-4.101,0-10.139-0.186-14.274-0.213
		C22.446,61.838,76.396,13.121,141.73,13.121z M141.73,270.339c-71.03,0-128.61-57.58-128.61-128.609
		c0-2.444,0.075-4.871,0.209-7.281c2.119,0,4.708,0,6.927,0c4.69,0,47.462,0,51.533,0c2.15,0,3.894,1.744,3.894,3.894
		c0,1.973,0,82.794,0,88.901c0,6.105,1.209,7.256,3.51,8.406c2.301,1.151,6.726,3.452,12.832,6.283
		c6.106,2.832,4.926-2.212,4.926-10.796s0-88.015,0-92.793v-0.001c0-2.15,1.743-3.893,3.893-3.894c2.655,0,15.517,0,21.947,0
		c4.439,0,5.504,3.862,5.783,7.128v2.217h0.082c0.011,0.256,0.023,0.539,0.034,0.845c0.001,0.04,0.002,0.07,0.003,0.107
		c0.031,0.903,0.057,1.994,0.057,3.198c0,3.178,0.531,6.263,4.513,6.263c3.982,0,5.813-3.068,5.813-5.104s0-4.69,0-8.533
		c0-0.222,0.041-0.386,0.109-0.51c0.501-2.513,2.718-4.408,5.378-4.408c3.029,0,5.486,2.457,5.486,5.486
		c0,0.01-0.003,0.018-0.003,0.028v10.061c0,3.009,2.332,2.979,5.163,2.979c2.832,0,19.381,0,23.097,0c3.717,0,5.019-1.387,5.019-5.9
		v-7.14c0-0.01-0.003-0.018-0.003-0.028c0-3.03,2.457-5.486,5.486-5.486s5.486,2.457,5.486,5.486c0,0.01-0.002,0.018-0.002,0.028
		v9.157c0,0.007,0.002,0.012,0.002,0.019c0,4.867,7.197,4.867,7.197,0c0-0.011,0.003-0.025,0.003-0.037v-9.138
		c0-0.01-0.003-0.018-0.003-0.028c0-3.03,2.457-5.486,5.486-5.486c3.03,0,5.487,2.457,5.487,5.486c0,0.01-0.003,0.018-0.003,0.028
		v8.339c0,0.014,0.003,0.026,0.003,0.04c0,6.194,9.38,6.46,18.849,6.46c7.828,0,30.576,0,38.233,0
		C262.444,220.315,207.934,270.339,141.73,270.339z"/>
</g>
</svg>
