<?xml version="1.0" encoding="UTF-8" standalone="no"?>
<svg
   xmlns:dc="http://purl.org/dc/elements/1.1/"
   xmlns:cc="http://creativecommons.org/ns#"
   xmlns:rdf="http://www.w3.org/1999/02/22-rdf-syntax-ns#"
   xmlns:svg="http://www.w3.org/2000/svg"
   xmlns="http://www.w3.org/2000/svg"
   xmlns:xlink="http://www.w3.org/1999/xlink"
   xmlns:sodipodi="http://sodipodi.sourceforge.net/DTD/sodipodi-0.dtd"
   xmlns:inkscape="http://www.inkscape.org/namespaces/inkscape"
   version="1.0"
   width="100"
   height="30"
   viewBox="0 0 1000 300"
   preserveAspectRatio="xMidYMid meet"
   id="svg2"
   inkscape:version="0.91 r13725"
   sodipodi:docname="Foton Motor logo.svg">
  <title
     id="title4695">Foton Motor logo</title>
  <metadata
     id="metadata361">
    <rdf:RDF>
      <cc:Work
         rdf:about="">
        <dc:format>image/svg+xml</dc:format>
        <dc:type
           rdf:resource="http://purl.org/dc/dcmitype/StillImage" />
        <dc:title>Foton Motor logo</dc:title>
        <cc:license
           rdf:resource="http://scripts.sil.org/OFL" />
      </cc:Work>
      <cc:License
         rdf:about="http://scripts.sil.org/OFL">
        <cc:permits
           rdf:resource="http://scripts.sil.org/pub/OFL/Reproduction" />
        <cc:permits
           rdf:resource="http://scripts.sil.org/pub/OFL/Distribution" />
        <cc:permits
           rdf:resource="http://scripts.sil.org/pub/OFL/Embedding" />
        <cc:permits
           rdf:resource="http://scripts.sil.org/pub/OFL/DerivativeWorks" />
        <cc:requires
           rdf:resource="http://scripts.sil.org/pub/OFL/Notice" />
        <cc:requires
           rdf:resource="http://scripts.sil.org/pub/OFL/Attribution" />
        <cc:requires
           rdf:resource="http://scripts.sil.org/pub/OFL/ShareAlike" />
        <cc:requires
           rdf:resource="http://scripts.sil.org/pub/OFL/DerivativeRenaming" />
        <cc:requires
           rdf:resource="http://scripts.sil.org/pub/OFL/BundlingWhenSelling" />
      </cc:License>
    </rdf:RDF>
  </metadata>
  <defs
     id="defs359">
    <linearGradient
       inkscape:collect="always"
       id="linearGradient4163">
      <stop
         style="stop-color:#999999;stop-opacity:1"
         offset="0"
         id="stop4165" />
      <stop
         style="stop-color:#e6e6e6;stop-opacity:1"
         offset="1"
         id="stop4167" />
    </linearGradient>
    <linearGradient
       inkscape:collect="always"
       id="linearGradient4687">
      <stop
         style="stop-color:#999999;stop-opacity:1"
         offset="0"
         id="stop4689" />
      <stop
         style="stop-color:#cccccc;stop-opacity:1"
         offset="1"
         id="stop4691" />
    </linearGradient>
    <linearGradient
       inkscape:collect="always"
       xlink:href="#linearGradient4687"
       id="linearGradient4693"
       x1="5059.7715"
       y1="5906.623"
       x2="8297.3682"
       y2="5750.9419"
       gradientUnits="userSpaceOnUse"
       gradientTransform="matrix(0.06682098,0,0,0.06750504,-297.53045,-237.04418)" />
    <linearGradient
       inkscape:collect="always"
       xlink:href="#linearGradient4163"
       id="linearGradient4169"
       x1="-8.812603"
       y1="157.14285"
       x2="341.25925"
       y2="154.84885"
       gradientUnits="userSpaceOnUse" />
  </defs>
  <sodipodi:namedview
     pagecolor="#ffffff"
     bordercolor="#666666"
     borderopacity="1"
     objecttolerance="10000"
     gridtolerance="10000"
     guidetolerance="10000"
     inkscape:pageopacity="0"
     inkscape:pageshadow="2"
     inkscape:window-width="1366"
     inkscape:window-height="705"
     id="namedview357"
     showgrid="false"
     showguides="true"
     inkscape:showpageshadow="false"
     inkscape:snap-perpendicular="true"
     inkscape:snap-tangential="true"
     inkscape:zoom="10.352344"
     inkscape:cx="37.072095"
     inkscape:cy="22.541164"
     inkscape:window-x="-8"
     inkscape:window-y="-8"
     inkscape:window-maximized="1"
     inkscape:current-layer="svg2">
    <inkscape:grid
       type="xygrid"
       id="grid4519" />
  </sodipodi:namedview>
  <g
     id="layer101"
     transform="matrix(0.06682099,0,0,0.06750504,-12.662973,-167.36114)"
     style="fill:#666666;stroke:none">
    <path
       d="m 6300,5725 c 0,-72 -4,-125 -9,-125 -6,0 -22,11 -37,25 -15,14 -33,25 -40,25 -7,0 -14,5 -16,12 -2,6 -10,8 -16,4 -8,-4 -12,-34 -12,-79 l 0,-72 48,-36 c 31,-23 46,-41 44,-53 -2,-11 2,-16 10,-14 12,5 68,-79 68,-102 0,-6 -30,-10 -75,-10 l -75,0 0,-50 0,-50 156,0 156,0 -7,53 c -4,28 -16,78 -27,111 -22,69 -19,83 19,88 27,3 28,5 31,66 3,67 -1,72 -52,52 l -26,-10 0,145 0,145 -70,0 -70,0 0,-125 z"
       id="path13"
       inkscape:connector-curvature="0"
       style="fill:#666666" />
    <path
       d="m 6540,5660 0,-190 315,0 c 300,0 315,1 325,19 6,12 10,92 10,190 l 0,171 -325,0 -325,0 0,-190 z m 260,65 c 0,-24 -3,-25 -60,-25 -57,0 -60,1 -60,25 0,24 3,25 60,25 57,0 60,-1 60,-25 z m 250,0 c 0,-24 -3,-25 -55,-25 -52,0 -55,1 -55,25 0,24 3,25 55,25 52,0 55,-1 55,-25 z m -252,-137 c -3,-20 -10,-23 -60,-26 -56,-3 -58,-2 -58,23 0,24 2,25 61,25 57,0 60,-1 57,-22 z m 252,-3 c 0,-24 -3,-25 -55,-25 -52,0 -55,1 -55,25 0,24 3,25 55,25 52,0 55,-1 55,-25 z"
       id="path15"
       inkscape:connector-curvature="0"
       style="fill:#666666" />
    <path
       d="m 7582,5468 3,-383 410,-3 c 226,-2 429,0 453,3 71,10 72,17 72,420 l 0,345 -470,0 -470,0 2,-382 z m 406,155 3,-93 -121,0 -120,0 0,95 0,96 118,-3 117,-3 3,-92 z m 382,2 0,-95 -120,0 -120,0 0,95 0,95 120,0 120,0 0,-95 z m 0,-310 0,-95 -120,0 -120,0 0,95 0,95 120,0 120,0 0,-95 z m -382,-7 -3,-93 -117,-3 -118,-3 0,96 0,95 120,0 121,0 -3,-92 z"
       id="path17"
       inkscape:connector-curvature="0"
       style="fill:#666666" />
    <path
       d="m 8900,5772 0,-77 40,-25 c 23,-14 57,-45 76,-70 l 35,-45 -75,-3 -76,-3 0,-59 0,-60 150,0 150,0 0,56 c 0,83 -52,197 -120,263 -29,28 -57,51 -62,51 -5,0 -24,11 -42,25 -18,14 -43,25 -54,25 -21,0 -22,-5 -22,-78 z"
       id="path19"
       inkscape:connector-curvature="0"
       style="fill:#666666" />
    <path
       d="m 10810,5780 0,-70 -245,0 -245,0 0,-60 0,-60 245,0 245,0 0,-45 0,-45 -202,0 -203,-1 -19,-26 c -25,-34 -25,-82 -1,-113 10,-14 44,-45 76,-70 l 57,-45 -100,-3 -99,-3 3,-62 3,-62 173,-5 c 165,-5 175,-6 192,-27 16,-21 27,-23 109,-23 93,0 108,7 69,34 -21,15 -2,16 220,16 l 242,0 0,65 0,65 -300,0 -299,0 -38,32 c -21,18 -40,36 -43,40 -3,3 -23,20 -44,37 l -39,31 122,0 121,0 0,-65 0,-65 70,0 70,0 0,65 0,65 190,0 190,0 0,63 0,62 -190,-3 -190,-3 0,45 0,46 193,0 192,0 -3,60 -4,60 -189,0 -189,0 0,70 0,70 -70,0 -70,0 0,-70 z"
       id="path21"
       inkscape:connector-curvature="0"
       style="fill:#666666" />
    <path
       d="m 9790,5819 c -61,-35 -83,-81 -88,-181 l -4,-88 -219,0 -219,0 0,-60 0,-60 264,0 c 159,0 275,4 293,11 37,12 43,35 43,163 0,58 4,96 12,104 7,7 38,12 70,12 l 58,0 0,60 0,60 -87,0 c -70,0 -95,-5 -123,-21 z"
       id="path23"
       inkscape:connector-curvature="0"
       style="fill:#666666" />
    <path
       d="m 6580,5320 0,-120 268,0 c 206,1 271,4 285,14 14,11 17,30 17,120 l 0,106 -285,0 -285,0 0,-120 z m 420,0 c 0,-19 -7,-20 -140,-20 -133,0 -140,1 -140,20 0,19 7,20 140,20 133,0 140,-1 140,-20 z"
       id="path25"
       inkscape:connector-curvature="0"
       style="fill:#666666" />
    <path
       d="m 8900,5330 0,-60 150,0 150,0 0,60 0,60 -150,0 -150,0 0,-60 z"
       id="path27"
       inkscape:connector-curvature="0"
       style="fill:#666666" />
    <path
       d="m 9260,5330 0,-60 310,0 310,0 0,60 0,60 -310,0 -310,0 0,-60 z"
       id="path29"
       inkscape:connector-curvature="0"
       style="fill:#666666" />
    <path
       d="m 8900,5170 0,-60 150,0 150,0 0,60 0,60 -150,0 -150,0 0,-60 z"
       id="path31"
       inkscape:connector-curvature="0"
       style="fill:#666666" />
    <path
       d="m 9290,5215 c -7,-8 -18,-15 -25,-15 -14,0 -25,-44 -25,-101 l 0,-39 70,0 c 62,0 70,2 70,19 0,10 7,22 16,25 9,3 121,6 250,6 l 234,0 0,60 0,60 -289,0 c -244,0 -290,-2 -301,-15 z"
       id="path33"
       inkscape:connector-curvature="0"
       style="fill:#666666" />
    <path
       d="m 6190,5115 0,-45 155,0 155,0 0,45 0,45 -155,0 -155,0 0,-45 z"
       id="path35"
       inkscape:connector-curvature="0"
       style="fill:#666666" />
    <path
       d="m 6540,5115 0,-45 331,0 c 298,0 331,2 325,16 -3,9 -6,29 -6,45 l 0,29 -325,0 -325,0 0,-45 z"
       id="path37"
       inkscape:connector-curvature="0"
       style="fill:#666666" />
  </g>
  <path
     inkscape:connector-curvature="0"
     style="fill:#666666;fill-opacity:1;fill-rule:nonzero;stroke:none"
     d="m 496.17041,81.378291 -63.28267,0.0448 0,-0.0199 -6.21732,0 c -0.57586,0 -1.10981,0 -1.59158,0.0199 l -1.37459,0 -1.15073,0.0669 c -6.65737,0.3714 -11.56669,2.26848 -15.57029,6.28546 -4.57964,4.47989 -6.39416,10.41906 -6.37103,19.001629 l 0,51.32421 23.00619,0 0,-21.25376 54.63732,0 -0.0474,-20.52612 -54.58988,0 0,-9.47958 c 0,-1.02286 0.17487,-2.13808 0.57426,-2.79232 0.39932,-0.59143 0.71105,-1.00508 2.34895,-1.18082 l 0.70309,-0.0448 68.92572,0 0,-21.445729 z m 47.42755,0.19421 c -8.56004,-0.0415 -14.73296,1.81876 -19.28928,6.38146 -4.60263,4.47556 -6.39243,10.41689 -6.34613,19.019459 l 0,25.921 c -0.0463,8.60689 1.7435,14.54696 6.34613,19.02394 4.55632,4.54413 10.72924,6.41935 19.28928,6.39936 l 53.02313,0 c 8.44858,0 14.53062,-1.87807 19.04065,-6.39936 4.57957,-4.47698 6.39243,-10.41705 6.34612,-19.02394 l 0,-25.921 c 0.0463,-8.602569 -1.76655,-14.543899 -6.34612,-19.019459 -4.51003,-4.52124 -10.59207,-6.38146 -19.04065,-6.38146 l -0.22384,0 -52.79929,0 z m 95.825,0 0,21.445719 41.27587,0 0,55.27718 22.99707,0 0,-55.27718 41.19224,0 0,-21.445719 -105.46518,0 z m 148.06825,0 c -8.45299,0 -14.53065,1.88305 -19.04077,6.38146 -4.60698,4.47556 -6.39475,10.43977 -6.35278,19.019459 l 0,25.921 c -0.0422,8.60689 1.7458,14.54696 6.35278,19.02394 4.55199,4.54413 10.72767,6.41986 19.26458,6.37704 l 53.04124,0 c 8.44991,0 14.51334,-1.87864 19.04506,-6.37704 4.57523,-4.47698 6.39478,-10.41705 6.34849,-19.02394 l 0,-25.921 c 0.0461,-8.579689 -1.77326,-14.543849 -6.34849,-19.019459 -4.53172,-4.49841 -10.59515,-6.38146 -19.04506,-6.38146 l -53.26505,0 z m 99.6706,0 0,76.722899 23.01072,0 0,-55.42672 44.21493,0 0.77098,0.0426 c 0.71041,0 1.99495,0.59037 2.94117,1.61601 0.9753,1.04569 1.62003,2.35969 1.57367,3.58248 l 0,50.16577 23.0264,0.0199 0,-51.32198 c 0.0461,-8.579679 -1.76654,-14.565319 -6.34599,-19.019409 -3.95757,-3.93133 -9.38153,-5.87703 -16.4814,-6.26991 l -1.67984,-0.0647 c -0.46315,-0.0245 -0.99662,-0.0472 -1.52611,-0.0472 l -69.50453,0 z m -340.8463,21.273849 47.35745,0 c 3.49868,0.15427 5.17941,1.83563 5.35595,5.28554 l 0,23.45232 c -0.17654,3.4542 -1.85727,5.11324 -5.35595,5.26324 l -47.35745,0 c -3.4944,-0.15 -5.19601,-2.83646 -5.35364,-6.28774 l 0,-22.42782 c 0.15763,-3.47274 1.83757,-5.13127 5.35364,-5.28554 z m 244.13962,0 47.33489,0 c 3.4943,0.15427 5.20324,1.8128 5.33775,5.28554 l 0,23.43001 c -0.13451,3.45277 -1.84345,5.15555 -5.33775,5.28555 l -47.33489,0 c -3.54068,-0.15 -5.20026,-2.46709 -5.3537,-5.89266 l 0,-22.8229 c 0.15344,-3.47274 1.81302,-5.13127 5.3537,-5.28554 z"
     id="path14974" />
  <path
     style="opacity:1;fill:url(#linearGradient4169);fill-opacity:1;stroke:#6e6e6e;stroke-width:0.99999999;stroke-miterlimit:4;stroke-dasharray:none;stroke-opacity:1"
     d="m 163.28595,10.483492 c -77.498867,0 -140.324099,63.468349 -140.324099,141.760608 0,78.29227 62.825232,141.76062 140.324099,141.76062 77.49887,0 140.32409,-63.46835 140.32409,-141.76062 0,-78.292259 -62.82522,-141.760608 -140.32409,-141.760608 z m -1.2529,19.050409 c 67.71924,0 122.61651,55.45926 122.61651,123.871769 0,68.41247 -54.89727,123.8718 -122.61651,123.8718 -67.719228,0 -122.616518,-55.45933 -122.616518,-123.8718 0,-68.412509 54.89729,-123.871769 122.616518,-123.871769 z"
     id="path7-8-0"
     inkscape:connector-curvature="0"
     sodipodi:nodetypes="ssssssssss" />
  <path
     style="opacity:1;fill:url(#linearGradient4693);fill-opacity:1;stroke:#6e6e6e;stroke-width:0.99999999;stroke-linecap:round;stroke-miterlimit:4;stroke-dasharray:none;stroke-opacity:1"
     d="m 236.11242,80.068345 c -2.59754,0.0318 -5.17849,1.41471 -7.13622,4.14127 L 137.15471,212.08818 c -3.91551,5.45309 -3.80975,14.15546 0.23624,19.51053 l 18.01556,23.84433 c 4.046,5.35501 10.45622,5.27646 14.37173,-0.1767 l 91.82018,-127.87989 c 3.91551,-5.45309 3.81108,-14.15414 -0.23494,-19.50921 L 243.34662,84.032915 c -2.02302,-2.67748 -4.63659,-3.99654 -7.2342,-3.96457 z m -44.79357,0.0909 c -2.85139,-0.006 -5.90865,0.009 -9.03252,0.042 l -22.71916,0.20175 -2.53842,1.95792 -61.609748,87.553495 c 0.0312,6.63414 21.721498,33.90607 25.391978,35.91351 0.73504,0.20253 3.27475,0.26923 5.54667,0.20169 3.74197,-0.20248 4.54304,-0.53947 6.54767,-2.49715 L 213.35809,88.098855 c 0,-3.64525 -2.40554,-6.81753 -5.67977,-7.56006 -1.10256,-0.20259 -7.80537,-0.36714 -16.35947,-0.37973 z m -80.7307,0.24395 c -13.096982,0 -24.590912,0.20322 -25.526406,0.47329 -0.935495,0.27002 -2.672065,1.48506 -3.874833,2.7002 L 58.333337,118.20606 88.068694,154.9963 c 3.541504,0 4.477719,-0.26951 6.482407,-1.82212 2.873299,-2.36265 4.543054,-4.05083 4.543054,-4.59085 L 135.77914,97.212205 c 2.73966,-3.64523 3.00695,-4.18503 3.00695,-8.16782 0.0668,-3.91526 -0.0664,-4.38783 -2.13775,-6.41299 l -2.13906,-2.2282 z"
     id="path7-8-7"
     inkscape:connector-curvature="0"
     sodipodi:nodetypes="sssssssccscccccccccccsccccccccccs" />
</svg>
