<?xml version="1.0" encoding="UTF-8"?>
<svg id="svg846" width="256.46893" height="33.256001" version="1.1" viewBox="187.127 379.872 256.46895 33.255999" xmlns="http://www.w3.org/2000/svg" xmlns:cc="http://creativecommons.org/ns#" xmlns:dc="http://purl.org/dc/elements/1.1/" xmlns:rdf="http://www.w3.org/1999/02/22-rdf-syntax-ns#">
 <title id="title838">Girardin logo</title>
 <path id="path842" d="m254.06981 380.5-16.2 31.9h-8.4l16.2-31.9zm-41.6 6.7h24.6l3.4-6.601h-24.6c-14.6 0-22.1 4-26.8 14.601-4.3 9.8 2.6 17.3 10.5 17.3h24.6l9.9-19.4h-19.4l-3.2 6.301h10.8l-3.3 6.5h-16.1c-7 0-9.7-4.2-6-10.601 4-7.3 10.8-8.1 15.6-8.1zm166.2-6.7h-13.6l-16.4 32h13.6c13.301 0 19-4.1 24.7-15.9 3.7-7.9-0.5-16.1-8.3-16.1zm0.5 16c-2.7 5.1-8.6 9.2-13.4 9.2h-5.1l9.5-18.601h5.1c4.8 0.101 7.2 3.001 3.9 9.401zm-102-16h-17.4l-16.3 31.8h8.4l5.5-10.8h10.1c2.1 0 3.1 1.3 1.7 4.1l-3.6 6.7h8.4l3.6-6.7c2.1-4.6 0.2-5.8-1.6-6.8 2.5 0 6.4-1.7 8.8-7.899 1.9-4.401 0.6-10.401-7.6-10.401zm-16.4 14.6 4.1-8h9.3c3.5 0 3.9 1.7 2.8 3.9-1.5 3-4.3 4-6.4 4.1zm85.7-14.6h-17.4l-16.3 31.8h8.4l5.5-10.8h10.5c2.1 0 2.7 1.3 1.2 4.1l-3.601 6.7h8.4l3.6-6.7c2.101-4.6 0.2-5.8-1.6-6.8 2.5 0 6.4-1.7 8.8-7.899 2.001-4.401 0.701-10.401-7.499-10.401zm-16.4 14.6 4.1-8h9.3c3.5 0 3.9 1.7 2.8 3.9-1.5 3-4.5 4-6.6 4.1zm-20.9-14.6c-8.8 0-14.4 2.4-18.8 10.5l-11 21.4h8.4l5.4-10.801h11.8l-5.5 10.801h8.4l16.3-31.801h-15zm-12.7 14.6 1.5-3c1-2.199 3.7-5 7.1-5h7.2l-4.1 8zm138.3-14.6-10.5 21.4-1.9-21.4h-8.5l-16.2 31.9h7.8l10.8-22.2 1.6 22.2h8.4l16.3-31.9zm-25.9 0-16.3 31.9h-8.4l16.2-31.9z" fill="#004379" stroke="#004379" stroke-width="1.256"/>
 <metadata id="metadata932">
  <rdf:RDF>
   <cc:Work rdf:about="">
    <dc:title>Girardin logo</dc:title>
   </cc:Work>
  </rdf:RDF>
 </metadata>
</svg>
