<?xml version="1.0" encoding="UTF-8" standalone="no"?>
<!DOCTYPE svg PUBLIC "-//W3C//DTD SVG 1.1//EN" "http://www.w3.org/Graphics/SVG/1.1/DTD/svg11.dtd">
<svg width="100%" height="100%" viewBox="0 0 1620 460" version="1.1" xmlns="http://www.w3.org/2000/svg" xmlns:xlink="http://www.w3.org/1999/xlink" xml:space="preserve" xmlns:serif="http://www.serif.com/" style="fill-rule:evenodd;clip-rule:evenodd;stroke-linejoin:round;stroke-miterlimit:2;">
    <g transform="matrix(1,0,0,1,-86.5,-491.751)">
        <path d="M1526.15,580.56C1518.97,571.07 1516.05,559.83 1517.38,546.84C1519.11,529.84 1526.92,516.86 1540.81,507.89C1550.74,501.48 1561.67,497.11 1573.6,494.78C1579.05,493.71 1585.66,492.88 1593.44,492.27C1608.92,491.07 1624.33,491.95 1639.68,494.9C1650.98,497.08 1661.31,501.25 1670.67,507.42C1676.61,511.33 1681.52,515.79 1685.4,520.78C1694.1,531.97 1698.47,545.39 1698.5,561.04C1698.51,561.75 1697.93,562.33 1697.22,562.33L1658.2,562.33C1657.56,562.33 1657.02,561.82 1656.99,561.18C1656.42,550.55 1651.73,542.29 1642.94,536.39C1636.63,532.16 1628.74,529.42 1619.27,528.17C1607.5,526.61 1595.81,527.07 1584.2,529.55C1579.92,530.46 1575.81,531.87 1571.87,533.77C1564.2,537.46 1560.08,543.39 1559.5,551.58C1558.92,559.76 1562.42,565.68 1570,569.33C1575.17,571.82 1580.99,573.87 1587.46,575.46C1590.23,576.15 1596.26,577.38 1605.55,579.16C1613,580.59 1620.48,581.83 1627.99,582.89C1639.44,584.51 1650.68,587.01 1661.73,590.39C1667.04,592.01 1672.14,594.07 1677.03,596.58C1682.59,599.42 1687.13,602.47 1690.64,605.74C1700.01,614.43 1704.96,625.88 1705.5,640.08C1706.42,664.17 1696.57,681.65 1675.94,692.52C1668.36,696.51 1659.79,699.4 1650.22,701.18C1638.55,703.35 1626.81,704.41 1615,704.38C1607.55,704.35 1600.89,704.02 1595.03,703.39C1581.17,701.89 1567.86,698.16 1555.09,692.21C1546.88,688.38 1539.37,683.5 1532.54,677.55C1522.09,668.44 1515.05,657.19 1511.44,643.78C1510.37,639.79 1509.88,635.81 1509.99,631.84C1510,631.42 1510.35,631.08 1510.77,631.08L1552.24,631.08C1552.54,631.08 1552.79,631.29 1552.85,631.58C1554.33,639.09 1557.61,645.36 1562.69,650.39C1568.62,656.27 1576.16,660.7 1585.3,663.69C1603.93,669.79 1622.58,670.59 1641.25,666.08C1644.52,665.29 1647.72,664.02 1650.86,662.27C1654.15,660.43 1656.8,658.31 1658.83,655.9C1663.1,650.81 1664.83,644.87 1664,638.08C1663.27,632.14 1659.86,627.89 1653.75,625.33C1646.7,622.37 1640.34,620.38 1634.69,619.35C1626.92,617.93 1613.78,615.76 1595.25,612.83C1585.31,611.26 1574.73,608.59 1563.5,604.83C1555.21,602.06 1547.69,598.42 1540.92,593.91C1534.65,589.74 1529.73,585.29 1526.15,580.56Z" style="fill:rgb(25,30,60);fill-rule:nonzero;"/>
    </g>
    <g transform="matrix(1,0,0,1,-86.5,-491.751)">
        <path d="M87.07,495.83L127.93,495.83C128.24,495.83 128.5,496.09 128.5,496.4L128.5,699.26C128.5,699.57 128.24,699.83 127.93,699.83L87.07,699.83C86.76,699.83 86.5,699.57 86.5,699.26L86.5,496.4C86.5,496.09 86.76,495.83 87.07,495.83Z" style="fill:rgb(25,30,60);fill-rule:nonzero;"/>
    </g>
    <g transform="matrix(1,0,0,1,-86.5,-491.751)">
        <path d="M465.97,699.37C466.33,699.68 466.27,699.83 465.8,699.83L406.24,699.83C405.92,699.83 405.62,699.71 405.37,699.5L285.09,594.14C284.53,593.65 284.25,593.77 284.25,594.52L284.25,698.98C284.25,699.45 283.87,699.83 283.4,699.83L242.69,699.83C242.31,699.83 242,699.52 242,699.14L242,496.51C242,496.13 242.3,495.83 242.68,495.83L283.73,495.83C284.02,495.83 284.25,496.06 284.25,496.35L284.25,590.84C284.25,591.66 284.56,591.8 285.17,591.25L391.93,496.23C392.17,496.01 392.49,495.89 392.81,495.89L450.88,495.83C451.95,495.83 452.08,496.18 451.26,496.88L340.64,591.24C340.21,591.61 340.21,592.28 340.65,592.65L465.97,699.37Z" style="fill:rgb(25,30,60);fill-rule:nonzero;"/>
    </g>
    <g transform="matrix(1,0,0,1,-86.5,-491.751)">
        <path d="M705.85,656.26C705.66,655.85 705.25,655.58 704.8,655.58L599.79,655.58C599.43,655.58 599.1,655.79 598.95,656.12L579.49,699.16C579.3,699.57 578.9,699.83 578.45,699.83L534.16,699.83C533.86,699.83 533.66,699.52 533.79,699.25L629.06,496.44C629.24,496.07 629.61,495.83 630.03,495.83L674.28,495.83C674.64,495.83 674.97,496.04 675.12,496.36L771.46,699.32C771.57,699.56 771.4,699.83 771.13,699.83L726.61,699.83C726.06,699.83 725.57,699.51 725.34,699.02L705.85,656.26ZM651.94,539.46L615.68,619.38C615.48,619.83 615.81,620.33 616.29,620.33L688.6,620.27C689,620.27 689.26,619.85 689.09,619.49L652.58,539.46C652.37,539 652.15,539 651.94,539.46Z" style="fill:rgb(25,30,60);fill-rule:nonzero;"/>
    </g>
    <g transform="matrix(1,0,0,1,-86.5,-491.751)">
        <path d="M1030.43,610.67C1028.58,611.04 1028.6,611.26 1030.49,611.33C1038.11,611.61 1045.41,613.08 1052.39,615.74C1057.26,617.6 1061.08,619.75 1063.85,622.19C1067.31,625.24 1069.84,628.98 1071.44,633.39C1072.4,636.06 1073.1,639.02 1073.55,642.28C1073.85,644.45 1074,647.49 1074,651.4L1074,699.42C1074,699.78 1073.7,700.08 1073.34,700.08L1032.66,700.08C1032.3,700.08 1032,699.78 1032,699.42L1032,654.58C1032,650.6 1031.57,646.88 1030.7,643.43C1029.67,639.37 1027.99,636.11 1025.64,633.66C1022.54,630.43 1018.49,628.32 1013.5,627.33C1004.96,625.64 997.13,624.76 990,624.71C961.67,624.5 933.19,624.46 904.58,624.58C904.26,624.58 904,624.84 904,625.16L904,699.3C904,699.73 903.65,700.08 903.22,700.08L862.45,700.02C862.06,700.02 861.75,699.7 861.75,699.31L861.75,550.68C861.75,550.21 862.13,549.83 862.6,549.83L903.33,549.83C903.7,549.83 904,550.13 904,550.5L904,590.71C904,591.19 904.39,591.58 904.87,591.58C937.54,591.58 970,591.58 1002.25,591.57C1006.7,591.56 1011.01,590.92 1015.16,589.63C1019.61,588.26 1023.38,586.23 1026.46,583.54C1032.93,577.91 1036.2,570.17 1036.25,560.33C1036.32,547.34 1030.55,538.86 1018.94,534.89C1012.53,532.7 1005.31,531.7 997.26,531.89C991.95,532.02 989.27,532.08 989.23,532.08L862.42,532.08C862.05,532.08 861.75,531.78 861.75,531.41L861.75,496.49C861.75,496.13 862.05,495.83 862.41,495.83C908.55,495.83 954.58,495.83 1000.5,495.82C1011.93,495.82 1023.18,497.26 1034.24,500.13C1042.63,502.31 1050.37,505.9 1057.44,510.89C1062.75,514.65 1067.13,519.44 1070.56,525.25C1073.59,530.39 1075.8,536.35 1077.18,543.13C1079.07,552.45 1079.1,561.77 1077.25,571.08C1075.23,581.27 1070.48,589.59 1062.99,596.05C1059.11,599.4 1053.99,602.46 1047.63,605.22C1041.96,607.68 1036.22,609.5 1030.43,610.67Z" style="fill:rgb(25,30,60);fill-rule:nonzero;"/>
    </g>
    <g transform="matrix(1,0,0,1,-86.5,-491.751)">
        <path d="M1208.02,676.55C1197.83,666.91 1191.01,655.48 1187.56,642.27C1185.17,633.1 1183.97,623.28 1183.97,612.83C1183.96,573.94 1183.99,535.17 1184.06,496.53C1184.06,496.14 1184.38,495.83 1184.77,495.83L1225.38,495.83C1225.86,495.83 1226.25,496.22 1226.25,496.7C1226.25,535.21 1226.25,573.5 1226.24,611.58C1226.24,621.53 1227.91,630.44 1231.25,638.33C1234.13,645.14 1238.98,650.96 1245.81,655.77C1250.17,658.84 1255.19,661.2 1260.88,662.85C1264.71,663.96 1270.1,665.03 1277.07,666.06C1296.86,668.99 1316.33,667.99 1335.5,663.08C1346.67,660.21 1355.46,654.34 1361.85,645.46C1365.14,640.9 1367.55,635.49 1369.1,629.22C1370.54,623.4 1371.26,617.44 1371.26,611.33C1371.25,573.16 1371.25,534.88 1371.25,496.49C1371.25,496.13 1371.55,495.83 1371.91,495.83L1412.59,495.83C1412.95,495.83 1413.25,496.13 1413.25,496.49L1413.25,619.33C1413.25,623.68 1412.76,628.54 1411.78,633.92C1410.83,639.09 1409.58,643.8 1408.02,648.05C1401.12,666.83 1388.47,680.78 1370.06,689.89C1363.89,692.95 1357.43,695.5 1350.68,697.54C1344.99,699.27 1338.48,700.66 1331.13,701.73C1307.12,705.24 1283.35,704.92 1259.81,700.77C1252.46,699.48 1244.66,697.29 1236.41,694.22C1225.74,690.26 1216.27,684.37 1208.02,676.55Z" style="fill:rgb(25,30,60);fill-rule:nonzero;"/>
    </g>
    <g transform="matrix(1,0,0,1,-86.5,-491.751)">
        <path d="M500.18,779.74C499.67,779.3 499.75,779.08 500.43,779.08L808.78,779.08C809.14,779.08 809.47,779.29 809.62,779.61L883.52,935.49C883.79,936.05 884.05,936.05 884.32,935.49L958.17,779.55C958.31,779.26 958.6,779.08 958.92,779.08L1267.37,779.08C1268.15,779.08 1268.24,779.33 1267.65,779.84L1227.88,813.69C1227.4,814.1 1226.78,814.33 1226.14,814.33L988.81,814.33C988.29,814.33 987.82,814.63 987.6,815.09L923.58,949.93C923.34,950.44 922.83,950.77 922.26,950.77C897.64,950.84 872.88,950.86 847.99,950.83C847.94,950.83 847.45,950.86 846.53,950.93C845.1,951.04 844.16,950.45 843.71,949.17C843.36,948.16 843.16,947.62 843.13,947.55C822.06,903.37 801.1,859.18 780.23,814.98C780.04,814.58 779.64,814.33 779.2,814.33L541.59,814.33C541,814.33 540.44,814.12 539.99,813.74L500.18,779.74Z" style="fill:rgb(25,30,60);fill-rule:nonzero;"/>
    </g>
    <g transform="matrix(1,0,0,1,-86.5,-491.751)">
        <path d="M561.98,832.84C561.45,832.37 561.53,832.14 562.24,832.14L772.63,832.08C773.28,832.08 773.88,832.46 774.16,833.06L789.97,866.2C790.2,866.7 789.85,867.27 789.3,867.27C738.41,867.34 687.4,867.36 636.25,867.33C617.36,867.32 600.31,862.19 585.12,851.95C582.27,850.03 578.35,846.93 573.34,842.65C569.71,839.55 565.93,836.28 561.98,832.84Z" style="fill:rgb(25,30,60);fill-rule:nonzero;"/>
    </g>
    <g transform="matrix(1,0,0,1,-86.5,-491.751)">
        <path d="M993.76,832.86C993.99,832.38 994.47,832.08 995,832.08L1205.77,832.08C1206.38,832.08 1206.46,832.28 1206,832.68C1201.31,836.76 1196.55,840.88 1191.71,845.04C1177.32,857.42 1160.91,864.65 1142.48,866.72C1138.83,867.13 1132.16,867.33 1122.49,867.33L978.2,867.33C977.83,867.33 977.59,866.95 977.75,866.63L993.76,832.86Z" style="fill:rgb(25,30,60);fill-rule:nonzero;"/>
    </g>
</svg>
