<svg width="2030" height="2441" xmlns="http://www.w3.org/2000/svg" xmlns:xlink="http://www.w3.org/1999/xlink" xml:space="preserve" overflow="hidden"><defs><clipPath id="clip0"><rect x="1187" y="14" width="2030" height="2441"/></clipPath></defs><g clip-path="url(#clip0)" transform="translate(-1187 -14)"><path d="M1197.5 205.007C1197.5 105.316 1278.32 24.4999 1378.01 24.4999L3025.99 24.4999C3125.68 24.4999 3206.5 105.316 3206.5 205.007L3206.5 2263.99C3206.5 2363.68 3125.68 2444.5 3025.99 2444.5L1378.01 2444.5C1278.32 2444.5 1197.5 2363.68 1197.5 2263.99Z" stroke="#009ADC" stroke-width="20.625" stroke-miterlimit="8" fill="#FFFFFF" fill-rule="evenodd"/><path d="M2201.83 674.852C2188.19 674.852 2174.88 676.235 2162.02 678.869L2128.66 689.228 2126.71 689.806 2126.59 689.873 2124.93 690.388 2103.31 702.127 2092.35 707.9 2091.69 708.441 2091.37 708.615 2080.75 717.379 2061.35 733.232 1692.64 1102.15C1615.48 1179.35 1615.48 1304.52 1692.64 1381.72 1769.8 1458.92 1894.9 1458.92 1972.06 1381.72L2004.26 1349.51 2004.26 1619.38C2004.26 1728.56 2092.72 1817.06 2201.83 1817.06 2256.39 1817.06 2305.79 1794.94 2341.54 1759.16L2345.85 1753.94 2710.36 1389.23C2787.52 1312.03 2787.52 1186.86 2710.36 1109.66 2633.2 1032.46 2508.1 1032.46 2430.94 1109.66L2399.41 1141.2 2399.41 872.54C2399.41 763.36 2310.95 674.852 2201.83 674.852ZM2201.5 231.936C2092.38 231.936 2003.92 320.444 2003.92 429.623 2003.92 538.803 2092.38 627.311 2201.5 627.311 2310.62 627.311 2399.08 538.803 2399.08 429.623 2399.08 320.444 2310.62 231.936 2201.5 231.936ZM2201.5 134C2696.62 134 3098 535.601 3098 1031 3098 1526.4 2696.62 1928 2201.5 1928 1706.38 1928 1305 1526.4 1305 1031 1305 535.601 1706.38 134 2201.5 134Z" fill="#021E46" fill-rule="evenodd"/><path d="M537.72 110.832 507.575 110.812C496.635 110.812 487.699 101.885 487.699 90.9849L487.699 58.6441C487.699 47.7311 496.635 38.8088 507.575 38.8088L537.72 38.8088C548.679 38.8088 557.596 47.7311 557.596 58.6441L557.596 90.9781C557.596 101.885 548.679 110.832 537.72 110.832ZM678.792 144.624 737.21 144.624C764.556 144.624 786.931 122.31 786.931 95.0321L786.931 93.4777 742.317 93.4777C740.086 101.995 732.29 108.321 723.099 108.321L692.922 108.307C681.995 108.307 673.046 99.4047 673.046 88.4802L673.046 56.1459C673.046 45.2329 681.995 36.3174 692.922 36.3174L723.099 36.3174C734.025 36.3174 742.983 45.2329 742.983 56.1459L742.983 57.9735 786.931 57.9735 786.931 49.6059C786.931 22.3209 764.556 0 737.228 0L678.792 0C651.473 0 629.104 22.3209 629.104 49.6059L629.104 95.0321C629.104 122.31 651.473 144.624 678.792 144.624ZM1329.22 147.116 1383 147.116 1383 2.49318 1329.22 2.49318ZM1160.88 147.116 1310.05 147.116 1310.05 103.309 1259.55 103.309 1259.55 3.39096 1212.33 3.39096 1212.33 103.309 1160.88 103.309ZM989.206 147.116 1036.12 147.116 1087.62 76.3304 1087.4 147.116 1142.66 147.116 1142.66 2.49318 1141.33 2.49318 1087.86 2.49318 1036.12 78.3408 1036.12 2.49318 989.206 2.49318ZM814.883 147.116 960.784 147.116 960.784 106.667 861.662 106.667 861.662 93.477 915.315 93.477 915.315 58.8122 861.662 58.8122 861.662 44.4892 960.784 44.4892 960.784 3.39096 814.883 2.49318ZM493.452 147.116 551.856 147.116C579.222 147.116 601.57 124.802 601.57 97.5365L601.57 52.084C601.57 24.8256 579.222 2.49318 551.856 2.49318L493.452 2.49318C466.113 2.49318 443.732 24.8256 443.732 52.084L443.732 97.5365C443.732 124.802 466.113 147.116 493.452 147.116ZM84.8835 147.116 131.793 147.116 183.327 76.3304 183.092 147.116 238.333 147.116 238.333 2.49318 237.034 2.49318 183.543 2.49318 131.793 78.3408 131.793 2.49318 84.8835 2.49318ZM0 147.116 53.7851 147.116 53.7851 2.49318 0 2.49318ZM266.415 148 313.312 148 364.846 77.2213 364.623 148 419.85 148 419.85 3.3906 418.566 3.3906 365.061 3.3906 313.312 79.2318 313.312 3.3906 266.415 3.3906Z" fill="#021E46" fill-rule="evenodd" transform="matrix(1 0 0 -1 1510 2230)"/><path d="M1396 2079.53C1396 2048.86 1420.86 2024 1451.53 2024L2951.47 2024C2982.14 2024 3007 2048.86 3007 2079.53L3007 2236.47C3007 2267.14 2982.14 2292 2951.47 2292L1451.53 2292C1420.86 2292 1396 2267.14 1396 2236.47Z" stroke="#021E46" stroke-width="50.4167" stroke-miterlimit="8" fill="none" fill-rule="evenodd"/></g></svg>