<?xml version="1.0" encoding="UTF-8" standalone="no"?>
<!DOCTYPE svg PUBLIC "-//W3C//DTD SVG 1.1//EN" "http://www.w3.org/Graphics/SVG/1.1/DTD/svg11.dtd">
<svg xmlns="http://www.w3.org/2000/svg" version="1.1" viewBox="0.00 0.00 1701.00 475.00">
<path fill="#000000" d="
  M 227.81 0.00
  L 239.81 0.00
  Q 311.51 1.33 370.63 40.84
  A 0.86 0.85 30.7 0 0 371.86 40.53
  Q 374.72 35.16 378.72 30.70
  C 383.56 25.30 388.74 26.15 395.23 28.84
  Q 420.34 39.24 437.07 61.67
  C 441.77 67.98 441.10 73.20 436.63 79.49
  Q 432.27 85.62 427.91 91.77
  C 426.74 93.43 426.81 93.95 427.96 95.53
  C 493.61 186.22 490.09 307.75 417.21 393.21
  C 375.32 442.32 314.37 470.69 250.44 475.00
  L 222.69 475.00
  Q 145.33 469.52 84.77 420.61
  Q 84.17 420.12 83.55 420.59
  C 77.13 425.49 69.07 428.91 61.36 424.14
  C 43.49 413.08 33.47 391.24 33.17 370.82
  C 33.13 368.19 34.19 365.69 34.74 363.06
  Q 34.85 362.54 34.58 362.09
  Q 3.84 311.62 0.00 252.44
  L 0.00 224.94
  C 0.37 219.27 0.59 213.41 1.26 208.04
  C 15.09 98.06 103.01 11.11 214.45 1.35
  Q 221.14 0.76 227.81 0.00
  Z
  M 272.52 191.97
  C 279.86 198.84 276.35 205.57 272.83 213.37
  Q 229.70 309.01 148.42 376.57
  Q 147.65 377.20 148.50 377.73
  C 178.31 396.36 214.13 406.11 249.57 403.10
  C 365.96 393.20 436.69 272.04 386.44 165.71
  A 0.79 0.79 0.0 0 0 385.02 165.70
  Q 377.44 181.34 370.70 197.87
  C 364.24 213.74 357.96 230.56 351.46 245.54
  Q 321.83 313.82 274.35 371.34
  Q 269.51 377.21 262.09 376.18
  Q 231.66 371.95 212.99 347.51
  C 207.33 340.10 205.99 335.64 212.35 328.08
  Q 255.85 276.38 282.64 214.47
  C 288.75 200.35 295.87 180.90 300.81 169.06
  Q 314.54 136.15 332.46 103.01
  A 0.79 0.79 0.0 0 0 332.21 101.99
  C 270.19 58.89 188.31 62.59 130.58 110.71
  C 68.16 162.74 53.34 251.50 94.32 321.74
  A 0.57 0.57 0.0 0 0 95.17 321.89
  Q 167.30 263.72 205.21 179.33
  C 208.00 173.14 210.99 170.50 217.76 170.52
  Q 249.76 170.66 272.52 191.97
  Z"
/>
<circle fill="#000000" cx="264.77" cy="130.09" r="38.43"/>
<path fill="#000000" d="
  M 634.50 98.97
  C 662.97 93.11 695.23 92.76 723.86 99.73
  C 728.70 100.91 732.19 103.66 731.73 108.82
  Q 718.72 253.10 701.59 396.95
  C 700.51 405.99 693.00 407.07 685.53 408.65
  Q 643.13 417.60 601.01 407.26
  C 596.75 406.22 593.50 403.51 593.81 398.79
  Q 594.35 390.61 594.75 387.25
  Q 611.10 249.76 623.86 111.88
  C 624.58 104.09 626.79 100.56 634.50 98.97
  Z"
/>
<path fill="#000000" d="
  M 992.01 408.99
  C 968.81 413.35 947.00 412.65 923.08 408.14
  C 912.73 406.19 913.80 400.06 914.76 391.01
  Q 927.06 274.70 939.44 158.39
  C 940.45 148.92 941.16 145.86 951.37 143.91
  Q 984.75 137.52 1018.31 142.59
  C 1024.93 143.59 1029.55 145.89 1028.75 153.25
  Q 1015.98 272.00 1003.24 390.75
  Q 1002.83 394.58 1001.80 400.77
  C 1000.89 406.30 997.40 407.97 992.01 408.99
  Z"
/>
<path fill="#000000" d="
  M 1151.58 335.35
  C 1155.23 337.01 1163.57 335.85 1168.72 336.00
  C 1186.60 336.50 1205.11 335.62 1219.25 336.22
  C 1225.46 336.49 1228.74 340.52 1231.57 346.17
  Q 1245.09 373.20 1258.59 400.22
  C 1260.13 403.30 1260.90 405.91 1259.51 408.92
  A 2.60 2.58 11.5 0 1 1257.24 410.41
  Q 1247.05 410.74 1236.94 410.77
  Q 1134.63 411.04 1032.31 410.98
  C 1023.26 410.97 1013.31 408.29 1010.16 399.43
  Q 1008.58 394.98 1009.56 383.48
  C 1010.61 371.05 1011.41 357.19 1017.11 346.59
  C 1020.40 340.46 1026.37 334.80 1031.48 329.48
  Q 1081.19 277.69 1130.55 225.55
  Q 1136.02 219.77 1141.40 213.89
  Q 1141.73 213.53 1141.74 213.04
  C 1141.84 208.87 1135.69 209.01 1132.73 209.01
  Q 1088.81 209.00 1044.89 208.98
  C 1040.62 208.98 1035.94 210.63 1033.75 205.63
  Q 1032.73 203.32 1033.43 198.81
  Q 1038.37 167.16 1042.11 148.18
  C 1043.14 142.94 1047.14 142.00 1052.16 142.00
  Q 1154.33 142.01 1256.50 141.99
  Q 1268.21 141.98 1271.81 143.48
  C 1280.57 147.14 1280.60 155.56 1279.89 164.59
  C 1278.27 185.40 1277.79 201.03 1264.69 215.94
  C 1245.17 238.13 1222.90 258.22 1202.27 279.42
  Q 1177.28 305.11 1151.97 330.47
  Q 1150.47 331.98 1151.01 334.62
  Q 1151.11 335.13 1151.58 335.35
  Z"
/>
<path fill="#000000" d="
  M 850.82 212.59
  C 833.59 213.53 824.22 227.09 822.50 243.00
  C 816.93 294.26 811.45 345.53 805.29 396.73
  C 804.14 406.33 802.15 408.64 792.51 410.29
  Q 757.91 416.19 723.67 408.60
  Q 715.92 406.89 716.84 398.74
  Q 730.68 275.96 734.24 239.75
  C 739.82 182.90 785.83 143.80 842.58 143.93
  Q 893.40 144.03 919.77 143.97
  C 930.05 143.95 930.54 147.03 929.71 156.14
  Q 927.53 180.32 924.87 204.48
  C 924.31 209.56 921.91 211.96 916.89 211.97
  C 894.93 212.03 872.75 211.39 850.82 212.59
  Z"
/>
<path fill="#000000" d="
  M 1397.25 248.02
  C 1403.70 247.83 1405.48 239.50 1405.88 234.03
  C 1406.79 221.93 1400.08 211.98 1387.19 211.99
  Q 1341.88 212.03 1296.56 211.97
  C 1287.66 211.96 1283.24 211.27 1284.23 201.11
  Q 1286.55 177.41 1288.87 153.70
  C 1289.81 144.04 1295.53 143.99 1303.40 143.99
  Q 1352.70 143.98 1402.00 144.06
  C 1438.56 144.13 1470.65 165.77 1484.68 199.39
  C 1491.57 215.91 1492.13 232.00 1490.26 249.75
  Q 1484.26 306.56 1477.73 363.30
  Q 1476.27 376.01 1474.11 381.95
  C 1467.69 399.68 1452.80 410.43 1433.74 412.35
  C 1419.40 413.79 1404.41 413.89 1385.99 414.41
  C 1365.07 415.01 1343.15 414.04 1323.32 413.13
  C 1295.56 411.86 1271.48 402.23 1255.31 379.20
  C 1217.63 325.54 1253.84 252.31 1320.10 250.83
  C 1345.80 250.26 1371.53 248.78 1397.25 248.02
  Z
  M 1366.96 338.57
  C 1372.30 338.21 1377.75 338.33 1383.16 337.97
  C 1393.09 337.31 1396.11 328.36 1396.49 319.85
  C 1396.72 314.65 1394.62 311.00 1389.06 311.14
  Q 1372.73 311.58 1341.75 312.98
  C 1329.26 313.55 1323.70 329.36 1334.93 336.27
  C 1342.17 340.72 1358.94 339.10 1366.96 338.57
  Z"
/>
<path fill="#000000" d="
  M 1701.00 149.06
  L 1701.00 156.81
  Q 1698.65 179.77 1696.33 202.73
  C 1695.65 209.44 1693.74 212.08 1686.92 212.03
  Q 1649.61 211.77 1625.77 212.28
  C 1603.77 212.75 1595.22 226.71 1593.16 246.93
  Q 1585.46 322.45 1576.32 397.81
  C 1575.15 407.41 1572.17 408.87 1563.05 410.38
  Q 1532.73 415.38 1502.52 410.09
  C 1491.40 408.14 1487.00 407.15 1488.42 394.94
  Q 1496.92 321.66 1504.50 248.31
  Q 1504.50 248.24 1505.14 241.05
  C 1509.96 186.52 1554.57 144.46 1609.44 144.17
  Q 1651.97 143.94 1694.50 144.07
  Q 1699.71 144.09 1701.00 149.06
  Z"
/>
</svg>
