<?xml version="1.0" encoding="UTF-8"?>
<svg width="96px" height="21px" viewBox="0 0 96 21" version="1.1" xmlns="http://www.w3.org/2000/svg" xmlns:xlink="http://www.w3.org/1999/xlink">
    <!-- Generator: Sketch 56.2 (81672) - https://sketch.com -->
    <title>isdera-logo</title>
    <desc>Created with Sketch.</desc>
    <g id="Page-1" stroke="none" stroke-width="1" fill="none" fill-rule="evenodd">
        <g id="isdera-logo" fill="#1D1D1B" fill-rule="nonzero">
            <rect id="Rectangle" x="0.312703583" y="0" width="7.05459283" height="4.27153094"></rect>
            <path d="M0.303322476,18.590228 L0.303322476,20.5884039 L6.71374593,20.5884039 C7.07347011,20.5866827 7.36416938,20.2945817 7.36416938,19.9348534 L7.36416938,7.50488599 L0.303322476,7.50488599 L0.303322476,18.590228 Z" id="Path"></path>
            <path d="M23.6153746,12.9021498 L23.6153746,12.8833876 L17.5739414,11.2166775 L17.5739414,11.2166775 C17.0607679,11.0891412 16.699957,10.6291074 16.6983713,10.1003257 L16.6983713,10.1003257 L16.6983713,9.82514658 L16.6983713,9.82514658 L16.6983713,7.52052117 L11.7295114,7.52052117 C10.4350825,7.52178013 9.36647548,8.53277292 9.29355035,9.82514658 L9.29355035,9.82514658 L9.29355035,12.8083388 L9.29355035,12.8083388 C9.29355035,12.8083388 9.29355035,12.8083388 9.29355035,12.827101 C9.29316932,13.9581762 10.0694909,14.9415169 11.169772,15.2036482 L11.169772,15.2255375 L17.2737459,16.9078827 C17.7554444,17.0562035 18.0839926,17.5014561 18.0836482,18.0054723 L18.0836482,18.0054723 L18.0836482,18.2837785 L18.0836482,18.2837785 L18.0836482,20.5884039 L23.0618893,20.5884039 C24.3545934,20.5871477 25.4218019,19.5775519 25.4947253,18.2869055 L25.4947253,18.2869055 L25.4947253,15.3005863 L25.4947253,15.3005863 C25.4947253,15.3005863 25.4947253,15.3005863 25.4947253,15.2818241 C25.496211,14.1486575 24.7180359,13.1633142 23.6153746,12.9021498 L23.6153746,12.9021498 Z" id="Path"></path>
            <path d="M33.5374593,4.27153094 L34.1878827,4.27153094 L34.1878827,0.653550489 C34.1878827,0.294331535 33.8966782,0.00312703583 33.5374593,0.00312703583 L9.28729642,0.00312703583 L9.28729642,4.27153094 L33.5374593,4.27153094 L33.5374593,4.27153094 Z" id="Path"></path>
            <path d="M95.2745277,4.27153094 L95.9280782,4.27153094 L95.9280782,0.653550489 C95.926357,0.293826303 95.634256,0.00312703583 95.2745277,0.00312703583 L45.3326384,0.00312703583 L45.3326384,4.27153094 L95.2745277,4.27153094 Z" id="Path"></path>
            <path d="M63.4350489,18.590228 L63.4350489,20.5884039 L69.8360912,20.5884039 C70.1958154,20.5866827 70.4865147,20.2945817 70.4865147,19.9348534 L70.4865147,7.50488599 L63.4350489,7.50488599 L63.4350489,18.590228 Z" id="Path"></path>
            <path d="M78.2884691,13.965342 L78.2884691,13.965342 C76.457834,13.965342 74.9738111,15.4493649 74.9738111,17.28 C74.9738111,19.1106351 76.457834,20.594658 78.2884691,20.594658 L86.4187622,20.594658 C86.7784864,20.5929368 87.0691857,20.3008358 87.0691857,19.9411075 L87.0691857,13.965342 L78.2884691,13.965342 Z" id="Path"></path>
            <path d="M95.9249511,12.6300977 L95.9249511,9.78136808 L95.9249511,9.78136808 C95.9249511,8.52410174 94.9057354,7.50488599 93.6484691,7.50488599 C93.5690088,7.5053228 93.4896469,7.51054397 93.4108143,7.52052117 L85.8527687,7.52052117 L86.2655375,7.63309446 C86.3801954,7.66019544 86.4927687,7.6914658 86.6032573,7.72690554 C87.1550786,7.89462069 87.6610807,8.18666841 88.0823453,8.58058632 C88.5159388,8.97538657 88.7970607,9.50996084 88.8766124,10.0909446 L88.8766124,12.6300977 L88.8766124,12.6300977 L88.8766124,14.5907492 L88.8766124,14.5907492 L88.8766124,19.9473616 C88.8766083,20.3070899 89.1673116,20.5991909 89.5270358,20.6009121 L95.9280782,20.6009121 L95.9280782,12.6300977 L95.9249511,12.6300977 Z" id="Path"></path>
            <path d="M36.3111401,18.590228 L36.3111401,20.5884039 L42.7121824,20.5884039 C43.0719066,20.5866827 43.3626059,20.2945817 43.3626059,19.9348534 L43.3626059,0 L36.3111401,0 L36.3111401,18.590228 Z" id="Path"></path>
            <path d="M15.9103583,17.7490554 L9.28729642,15.9259935 L9.28729642,19.9723779 L9.28729642,19.9723779 C9.30074525,20.3217912 9.58804786,20.5980437 9.93771987,20.5977852 L16.4388274,20.5977852 L16.4388274,18.3431922 L16.4388274,18.3431922 C16.4205063,18.0470808 16.2023141,17.8017759 15.9103583,17.7490554 L15.9103583,17.7490554 Z" id="Path"></path>
            <path d="M34.6819544,10.5037134 L34.6819544,10.5037134 L34.6819544,7.52052117 L29.9914007,7.52052117 C29.9115212,7.51053859 29.8311185,7.50531764 29.7506189,7.50488599 C28.4945739,7.50661133 27.4772638,8.52532191 27.4772638,9.78136808 L27.4772638,9.78136808 L27.4772638,18.2743974 C27.4772638,18.2743974 27.4772638,18.2994137 27.4772638,18.3150489 C27.4772638,19.5705882 28.4950796,20.5884039 29.7506189,20.5884039 L34.6913355,20.5884039 L34.6913355,18.3150489 L34.6913355,18.3150489 L34.6819544,10.5037134 Z" id="Path"></path>
            <path d="M52.5248208,10.5037134 L52.5248208,10.5037134 L52.5248208,7.52052117 L47.8342671,7.52052117 C47.7554246,7.51064717 47.6760689,7.5054264 47.5966124,7.50488599 C46.339346,7.50488599 45.3201303,8.52410174 45.3201303,9.78136808 L45.3201303,9.78136808 L45.3201303,18.2743974 C45.3201303,18.2743974 45.3201303,18.2994137 45.3201303,18.3150489 C45.3218528,19.569874 46.3386602,20.5866814 47.5934853,20.5884039 L51.8837785,20.5884039 C52.2435027,20.5866827 52.534202,20.2945817 52.534202,19.9348534 L52.534202,19.9348534 L52.534202,18.3150489 L52.534202,18.3150489 L52.5248208,10.5037134 Z" id="Path"></path>
            <path d="M59.2760912,7.5048837 C59.1955916,7.50531764 59.1151889,7.51053859 59.0353094,7.52052117 L54.3447557,7.52052117 L54.3447557,14.5907492 L61.5557003,14.5907492 L61.5557003,13.965342 C61.5557003,13.965342 61.5557003,13.965342 61.5557003,13.9465798 C61.5557003,13.9278176 61.5557003,13.9465798 61.5557003,13.9309446 L61.5557003,9.80325733 C61.5615482,9.19517062 61.3238593,8.61002132 60.895623,8.17826052 C60.4673868,7.74649973 59.8842054,7.50402255 59.2760912,7.5048837 L59.2760912,7.5048837 Z" id="Path"></path>
            <path d="M61.5494463,16.3825407 L57.8970684,16.3825407 C57.6728024,16.3849325 57.4657559,16.5032448 57.3498371,16.6952443 L57.3498371,16.6952443 C56.9223443,17.273479 56.2458757,17.6146141 55.5267752,17.6145928 L54.9889251,17.6145928 C54.6297061,17.6145928 54.3385016,17.9057973 54.3385016,18.2650163 L54.3385016,20.597785 L59.2792182,20.597785 C60.5347576,20.597785 61.5525733,19.5799693 61.5525733,18.32443 L61.5525733,16.3919218 L61.5494463,16.3825407 Z" id="Path"></path>
            <path d="M24.8505537,7.52052052 L18.3494463,7.52052052 L18.3494463,9.75322476 L18.3494463,9.75322476 C18.3658036,10.05201 18.5839046,10.301084 18.8779153,10.3567427 L25.5009772,12.1798046 L25.5009772,8.13654723 L25.5009772,8.13654723 C25.4826687,7.79082763 25.1967575,7.52003672 24.8505537,7.52052052 L24.8505537,7.52052052 Z" id="Path"></path>
            <path d="M78.7106189,10.3379805 C78.7106189,8.77446254 77.0470358,7.52364821 74.9925733,7.52364821 C72.9381107,7.52364821 71.2745277,8.77446254 71.2745277,10.3379805 C71.2745277,11.9014984 72.9412378,13.1679479 74.9925733,13.1679479 C77.0439088,13.1679479 78.7106189,11.9014984 78.7106189,10.3379805 Z" id="Path"></path>
            <path d="M83.348013,13.1679479 C85.3993485,13.1679479 87.0629316,11.9014984 87.0629316,10.3379805 C87.0629316,8.77446254 85.3993485,7.52364821 83.348013,7.52364821 C81.2966775,7.52364821 79.6299674,8.77446254 79.6299674,10.3379805 C79.6299674,11.9014984 81.2935505,13.1679479 83.348013,13.1679479 Z" id="Path"></path>
        </g>
    </g>
</svg>