<?xml version="1.0" encoding="UTF-8" standalone="no"?>
<!-- Created with Inkscape (http://www.inkscape.org/) -->
<svg xmlns:dc="http://purl.org/dc/elements/1.1/" xmlns:cc="http://web.resource.org/cc/" xmlns:rdf="http://www.w3.org/1999/02/22-rdf-syntax-ns#" xmlns:svg="http://www.w3.org/2000/svg" xmlns="http://www.w3.org/2000/svg" xmlns:sodipodi="http://sodipodi.sourceforge.net/DTD/sodipodi-0.dtd" xmlns:inkscape="http://www.inkscape.org/namespaces/inkscape" id="svg2" sodipodi:version="0.32" inkscape:version="0.44+devel" width="635" height="1010" version="1.0" sodipodi:docbase="C:\Documents and Settings\Flanker\Desktop" sodipodi:docname="Isotta-Fraschini.svg" inkscape:output_extension="org.inkscape.output.svg.inkscape" sodipodi:modified="true">
  <metadata id="metadata7">
    <rdf:RDF>
      <cc:Work rdf:about="">
        <dc:format>image/svg+xml</dc:format>
        <dc:type rdf:resource="http://purl.org/dc/dcmitype/StillImage"/>
      </cc:Work>
    </rdf:RDF>
  </metadata>
  <defs id="defs5"/>
  <sodipodi:namedview inkscape:window-height="1003" inkscape:window-width="1280" inkscape:pageshadow="2" inkscape:pageopacity="0.0" guidetolerance="10.0" gridtolerance="10.0" objecttolerance="10.0" borderopacity="1.0" bordercolor="#666666" pagecolor="#ffffff" id="base" showguides="true" inkscape:guide-bbox="true" inkscape:zoom="1.590099" inkscape:cx="257.87589" inkscape:cy="690.6416" inkscape:window-x="-4" inkscape:window-y="-4" inkscape:current-layer="svg2" inkscape:showpageshadow="false" showborder="true" width="635px" height="1010px"/>
  <rect style="fill: rgb(240, 227, 208); fill-opacity: 1; fill-rule: evenodd; stroke: black; stroke-width: 2.08616; stroke-linecap: butt; stroke-linejoin: miter; stroke-miterlimit: 4; stroke-dasharray: none; stroke-opacity: 1;" id="rect1873" width="622.91315" height="997.91443" x="6.0433817" y="6.0427856" ry="42.088909"/>
  <path style="fill: rgb(95, 2, 7); fill-opacity: 1; stroke-width: 1.5; stroke-miterlimit: 4; stroke-dasharray: none;" d="M 79.195443,310.62235 C 78.263849,310.62235 77.499909,311.32064 77.499909,312.25165 L 77.499909,809.44932 C 77.499909,810.38033 78.263849,811.14383 79.195443,811.14379 L 555.77091,811.14379 C 556.7025,811.14379 557.46644,810.38031 557.46644,809.44932 L 557.46644,312.25165 C 557.46644,311.32064 556.70244,310.62235 555.77091,310.62235 L 79.195443,310.62235 z M 143.29967,377.35855 L 268.50833,377.35855 L 268.50833,397.7574 C 255.02887,400.97006 245.03168,412.99344 245.0317,427.47586 L 245.0317,690.51031 C 245.0317,704.99091 255.03139,717.01425 268.50833,720.22877 L 268.50833,744.4076 L 143.29967,744.4076 L 143.29967,720.22877 C 156.77659,717.01429 166.77627,704.99087 166.77629,690.51031 L 166.77629,427.47586 C 166.77629,412.99344 156.77911,400.97006 143.29967,397.7574 L 143.29967,377.35855 z M 295.7673,377.35855 L 500.01392,377.35855 L 500.01392,449.50402 L 479.21103,449.50402 C 473.31416,417.92777 453.81531,397.7574 420.97596,397.7574 C 420.97596,397.7574 397.49938,397.7574 397.49933,397.7574 C 397.49933,440.94475 397.49938,484.13211 397.49933,527.31946 L 419.21521,527.31946 C 437.99065,527.31946 448.03933,511.70373 448.03929,493.95136 L 473.14623,493.95136 L 473.14623,592.03532 L 448.03929,592.03532 C 448.03929,572.93048 437.54092,555.53894 419.21521,555.53896 L 397.49933,555.53896 L 397.49933,690.51031 C 397.49933,704.99091 407.49908,717.01425 420.97596,720.22877 L 420.97596,744.4076 L 295.7673,744.4076 L 295.7673,720.22877 C 309.24419,717.01429 319.2439,704.99087 319.24392,690.51031 L 319.24392,427.47586 C 319.2439,412.99344 309.24672,400.97006 295.7673,397.7574 L 295.7673,377.35855 z " id="rect2760" sodipodi:nodetypes="cccccccccccccccccccccccccccsccccccccccccccccc"/>
  <path id="path3676" style="fill: rgb(95, 2, 7); fill-opacity: 1; stroke-width: 1.5; stroke-miterlimit: 4;" d="M 502.9485,873.38311 C 482.43434,873.38313 465.77718,889.23809 465.77718,908.77154 C 465.77718,928.30504 482.43436,944.15995 502.9485,944.15997 C 523.46267,944.15999 540.11982,928.30504 540.11982,908.77154 C 540.11982,889.23809 523.46267,873.38309 502.9485,873.38311 z M 496.23158,878.14067 C 503.55445,878.19809 511.19464,883.4253 520.22991,895.02024 C 534.68633,913.57211 534.84126,923.97056 522.38193,933.66727 C 509.9201,943.36596 500.86718,941.4988 485.92795,922.32733 C 471.18471,903.40737 471.23306,892.65936 483.18901,883.35444 C 487.57812,879.93857 491.83786,878.10624 496.23158,878.14067 z "/>
  <path style="fill: rgb(95, 2, 7); fill-opacity: 1; stroke-width: 1.5; stroke-miterlimit: 4; stroke-dasharray: none;" d="M 94.846526,882.11617 L 94.846526,885.96132 C 96.16731,885.96132 99.665264,887.20589 101.3026,889.67613 L 101.3026,933.53693 C 101.3026,935.9167 99.669855,937.89655 97.455039,938.42483 L 97.455039,942.40033 L 111.73665,942.40033 L 111.73665,938.42483 C 109.52184,937.89655 107.88909,935.91672 107.88909,933.53693 L 107.88909,898.21367 L 131.43093,930.93004 L 140.29988,919.52493 L 136.51753,914.37634 L 155.55968,894.43369 L 155.55968,933.53693 C 155.55968,935.9167 153.92694,937.89655 151.71213,938.42483 L 151.71213,942.40033 L 172.25417,942.40033 L 172.25417,938.42483 C 170.03936,937.89655 168.40663,935.91672 168.40661,933.53693 L 168.40661,890.32785 C 168.40661,887.94779 170.03894,885.96789 172.25417,885.43994 L 172.25417,882.11617 L 151.71213,882.11617 L 151.71213,885.43994 C 153.414,885.84555 154.75799,887.12218 155.29883,888.76372 L 134.03944,910.92222 L 113.04091,882.11617 L 94.846526,882.11617 z " id="path3672"/>
  <path style="fill: rgb(95, 2, 7); fill-opacity: 1; stroke-width: 1.5; stroke-miterlimit: 4; stroke-dasharray: none;" d="M 188.94866,882.11617 L 188.94866,885.43994 C 191.16389,885.96791 192.79622,887.94779 192.79622,890.32785 L 192.79622,933.53693 C 192.79622,935.9167 191.16348,937.89655 188.94866,938.42483 L 188.94866,942.40033 L 209.49071,942.40033 L 209.49071,938.42483 C 207.27589,937.89655 205.64315,935.91672 205.64315,933.53693 L 205.64315,890.32785 C 205.64315,887.94779 207.27547,885.96789 209.49071,885.43994 L 209.49071,882.11617 L 188.94866,882.11617 z " id="path3670"/>
  <path style="fill: rgb(95, 2, 7); fill-opacity: 1; stroke-width: 1.5; stroke-miterlimit: 4; stroke-dasharray: none;" d="M 225.27221,882.11617 L 225.27221,885.43994 C 227.48745,885.96791 229.11977,887.94779 229.11977,890.32785 L 229.11977,933.53693 C 229.11977,935.9167 227.48703,937.89655 225.27221,938.42483 L 225.27221,942.40033 L 279.20323,942.40033 C 281.10534,937.24508 283.25067,932.10977 285.78973,926.95455 L 283.18122,926.04214 C 278.29464,933.10956 272.02131,938.42483 262.83481,938.42483 L 246.33596,938.42483 C 243.71737,938.42483 242.03191,935.91672 242.03191,933.53693 L 242.03191,890.32785 C 242.03191,887.94779 243.66424,885.96789 245.87947,885.43994 L 245.87947,882.11617 L 225.27221,882.11617 z " id="path3668"/>
  <path style="fill: rgb(95, 2, 7); fill-opacity: 1; stroke-width: 1.5; stroke-miterlimit: 4; stroke-dasharray: none;" d="M 388.76081,882.11617 L 388.76081,885.96132 C 390.0816,885.96132 392.94155,886.3877 395.21688,888.69855 L 395.21688,933.53693 C 395.21688,935.9167 393.58414,937.89655 391.36933,938.42483 L 391.36933,942.40033 L 405.65094,942.40033 L 405.65094,938.42483 C 403.43612,937.89655 401.80338,935.91672 401.80338,933.53693 L 401.80338,895.3461 L 450.22391,944.12738 L 453.77802,944.12738 L 453.77802,890.97957 C 453.778,888.5998 455.41076,886.61994 457.62558,886.09166 L 457.62558,882.11617 L 443.34396,882.11617 L 443.34396,886.09166 C 445.55878,886.61997 447.19152,888.5998 447.19152,890.97957 L 447.19152,922.32733 L 406.9552,882.11617 L 388.76081,882.11617 z " id="path3666"/>
  <path id="path3678" style="fill: rgb(95, 2, 7); fill-opacity: 1; stroke-width: 1.5; stroke-miterlimit: 4;" d="M 334.22005,871.5583 C 334.22005,871.5583 326.13367,883.94097 326.13365,883.94099 L 329.85078,889.93682 L 302.65703,933.53693 C 301.22153,935.59791 298.48099,937.89655 296.26617,938.42483 L 296.26617,942.40033 L 311.72161,942.40033 L 311.72161,938.42483 C 309.5068,937.89655 306.59808,935.83701 307.87406,933.53693 L 316.54736,919.65528 L 348.24081,919.65528 L 356.8489,933.53693 C 358.36416,935.67759 355.21616,937.89655 353.00134,938.42483 L 353.00134,942.40033 L 377.39095,942.40033 L 377.39095,938.42483 C 375.17613,937.89655 373.42085,935.59793 372.30435,933.53693 L 334.22005,871.5583 z M 332.4593,894.173 L 345.69751,915.54944 L 319.09067,915.54944 L 332.4593,894.173 z "/>
  <path transform="matrix(1.03826, 0, -0.146295, 0.963145, 0, 0)" style="font-size: 101.846px; font-style: normal; font-weight: normal; fill: rgb(89, 8, 26); fill-opacity: 1; stroke: none; stroke-width: 1px; stroke-linecap: butt; stroke-linejoin: miter; stroke-opacity: 1; font-family: Bitstream Vera Sans;" d="M 237.44086,131.8345 C 237.44084,132.92858 237.86354,134.00605 238.70896,135.06692 C 239.55434,136.12784 241.70929,137.57829 245.1738,139.41825 C 248.63827,141.25827 251.17448,143.16457 252.78243,145.13715 C 254.39032,147.10978 255.19428,149.35589 255.19431,151.87551 C 255.19428,155.95334 253.4869,159.28522 250.07217,161.87115 C 246.65738,164.45709 242.62929,165.75006 237.98788,165.75006 C 234.27473,165.75006 231.19979,164.90466 228.76305,163.21385 C 226.32629,161.52305 225.10792,159.55045 225.10792,157.29603 C 225.10792,155.96992 225.53062,154.85101 226.37603,153.93929 C 227.22142,153.02759 228.27403,152.57174 229.53385,152.57172 C 230.76051,152.57174 231.70537,152.97786 232.36844,153.7901 C 233.03149,154.60236 233.36302,155.52235 233.36303,156.55009 C 233.36302,157.31262 233.1641,158.14144 232.76628,159.03657 C 232.36843,159.93171 232.16951,160.49531 232.16952,160.72737 C 232.16951,162.58395 234.20842,163.51223 238.28626,163.51223 C 241.40263,163.51223 243.89739,162.82431 245.77056,161.44845 C 247.64368,160.07261 248.58025,158.50613 248.58028,156.74901 C 248.58025,153.93101 245.96116,151.26219 240.72301,148.74255 C 234.12554,145.52672 230.82681,141.4489 230.82682,136.50907 C 230.82681,133.49218 232.20266,130.68246 234.95438,128.07991 C 237.70606,125.47744 241.31974,124.17618 245.79542,124.17614 C 249.17701,124.17618 251.87069,124.80609 253.87648,126.06587 C 255.8822,127.32572 256.88508,129.0331 256.88512,131.18801 C 256.88508,132.41471 256.46238,133.43416 255.61701,134.24638 C 254.77158,135.05866 253.80185,135.46478 252.70783,135.46475 C 251.61375,135.46478 250.71862,135.09181 250.02244,134.34584 C 249.32619,133.59993 248.97809,132.67993 248.97812,131.58585 C 248.97809,131.12174 249.09412,130.5167 249.32622,129.77072 C 249.55827,129.02481 249.6743,128.41977 249.67433,127.95559 C 249.6743,126.92788 248.31503,126.41401 245.5965,126.41397 C 243.07685,126.41401 241.08767,126.92788 239.62896,127.95559 C 238.17021,128.98337 237.44084,130.27634 237.44086,131.8345 L 237.44086,131.8345 z " id="text9043"/>
  <path sodipodi:nodetypes="ccscssszcszscscc" id="path9047" d="M 152.87765,71.984903 C 161.2634,62.710624 179.89063,53.662723 197.53749,68.637509 C 206.72996,60.127012 214.34797,54.78592 223.37059,54.206214 C 233.71848,53.541357 244.62204,58.829184 251.44829,70.390906 C 251.44829,70.390906 230.71336,77.245091 213.32793,96.054251 C 197.65834,113.00705 189.47149,126.07955 177.62564,144.09912 C 170.10995,155.53179 157.58466,172.77899 147.45468,179.42028 C 134.95441,187.61555 123.53834,192.41596 110.16343,192.41596 C 96.788512,192.41596 84.749929,182.53373 79.507922,168.8999 C 75.879313,183.96316 83.644399,204.60543 113.1623,204.60543 C 125.48936,204.60543 150.12842,195.9183 166.2756,171.60969 C 182.42278,147.30109 190.86698,127.344 214.44444,101.31444 C 236.53511,76.926292 265.96275,71.984905 265.96275,71.984905 C 262.71718,65.651909 257.54214,58.947287 248.9912,54.74528 C 236.57931,48.645955 218.82025,47.643027 204.23647,59.23293 C 186.03689,47.680954 165.12961,53.212702 152.87765,71.984903 z " style="fill: rgb(89, 8, 26); fill-opacity: 1; fill-rule: evenodd; stroke: none; stroke-width: 1px; stroke-linecap: butt; stroke-linejoin: miter; stroke-opacity: 1;"/>
  <path sodipodi:nodetypes="czcczcc" id="path9049" d="M 177.75955,150.17043 C 180.15206,149.77194 190.79864,147.34109 202.24273,141.00496 C 213.6868,134.66882 223.31295,125.00335 223.31295,125.00335 L 223.15345,126.91614 C 223.15345,126.91614 217.16086,135.0881 203.19972,143.39595 C 189.20365,151.72458 176.24432,154.47423 174.25058,155.03212 L 177.75955,150.17043 z " style="fill: rgb(89, 8, 26); fill-opacity: 1; fill-rule: evenodd; stroke: none; stroke-width: 1px; stroke-linecap: butt; stroke-linejoin: miter; stroke-opacity: 1;"/>
  <path sodipodi:nodetypes="csccscc" id="path9051" d="M 240.92133,147.46064 C 240.92133,147.46064 244.86895,146.10574 250.33181,140.92526 C 255.79466,135.74477 262.29424,127.69508 262.29424,127.69508 L 263.25126,129.04998 C 263.25126,129.04998 255.99402,138.61396 249.69379,144.51175 C 243.39356,150.40953 237.89085,153.43813 237.89085,153.43813 L 240.92133,147.46064 z " style="fill: rgb(89, 8, 26); fill-opacity: 1; fill-rule: evenodd; stroke: none; stroke-width: 1px; stroke-linecap: butt; stroke-linejoin: miter; stroke-opacity: 1;"/>
  <path transform="matrix(1.03644, 0, -0.146038, 0.964841, 0, 0)" style="font-size: 102.025px; font-style: normal; font-weight: normal; fill: rgb(89, 8, 26); fill-opacity: 1; stroke: none; stroke-width: 1px; stroke-linecap: butt; stroke-linejoin: miter; stroke-opacity: 1; font-family: Bitstream Vera Sans;" d="M 339.14709,232.74429 C 339.14707,233.8403 339.57052,234.91967 340.41743,235.98241 C 341.2643,237.0452 343.42304,238.4982 346.89365,240.34141 C 350.36422,242.18466 352.90489,244.09432 354.51568,246.07038 C 356.1264,248.04648 356.93177,250.29655 356.93181,252.8206 C 356.93177,256.90561 355.22139,260.24336 351.80064,262.83384 C 348.37984,265.42433 344.34466,266.71958 339.69508,266.71958 C 335.97539,266.71958 332.89503,265.87269 330.454,264.17891 C 328.01296,262.48513 326.79244,260.50905 326.79244,258.25067 C 326.79244,256.92222 327.21588,255.80133 328.06278,254.88801 C 328.90966,253.97471 329.96413,253.51805 331.22617,253.51804 C 332.45498,253.51805 333.4015,253.92489 334.06574,254.73856 C 334.72996,255.55225 335.06207,256.47387 335.06208,257.50341 C 335.06207,258.26728 334.86281,259.09756 334.46428,259.99427 C 334.06573,260.89098 333.86646,261.45557 333.86647,261.68805 C 333.86646,263.54789 335.90896,264.47781 339.99398,264.47781 C 343.11584,264.47781 345.61499,263.78867 347.49146,262.4104 C 349.36788,261.03213 350.3061,259.46289 350.30613,257.70268 C 350.3061,254.87972 347.6824,252.2062 342.43502,249.68212 C 335.82594,246.46063 332.5214,242.37563 332.52141,237.42711 C 332.5214,234.4049 333.89967,231.59023 336.65623,228.9831 C 339.41277,226.37604 343.03281,225.0725 347.51637,225.07246 C 350.90391,225.0725 353.60233,225.70351 355.61165,226.96551 C 357.62091,228.22758 358.62555,229.93797 358.62559,232.09667 C 358.62555,233.32553 358.20211,234.34678 357.35525,235.16043 C 356.50833,235.97414 355.53689,236.38097 354.44095,236.38095 C 353.34494,236.38097 352.44824,236.00735 351.75082,235.26006 C 351.05336,234.51283 350.70464,233.59122 350.70466,232.49521 C 350.70464,232.03028 350.82088,231.42417 351.05338,230.67688 C 351.28584,229.92966 351.40208,229.32355 351.4021,228.85856 C 351.40208,227.82904 350.04041,227.31427 347.3171,227.31423 C 344.79301,227.31427 342.80033,227.82904 341.33904,228.85856 C 339.87772,229.88815 339.14707,231.18339 339.14709,232.74429 L 339.14709,232.74429 z " id="text9053"/>
  <path style="fill: rgb(89, 8, 26); fill-opacity: 1; fill-rule: evenodd; stroke: none; stroke-width: 1px; stroke-linecap: butt; stroke-linejoin: miter; stroke-opacity: 1;" d="M 370.75,217.15625 C 358.15847,217.15625 346.25,231.4354 346.25,242.96875 C 346.24997,253.20406 351.63212,257.3125 360.375,257.3125 C 374.67193,257.3125 400.42822,231.66929 403.875,226.75 L 405.125,221.46875 C 399.03,230.19917 380.1299,249.8125 363.25,249.8125 C 357.85662,249.8125 354.84377,245.88566 354.84375,240.09375 C 354.84374,233.81493 361.02471,220.34375 370.75,220.34375 C 376.08107,220.34375 378.48819,223.81784 376.84375,226.46875 C 376.53349,226.40437 376.22842,226.375 375.875,226.375 C 373.43498,226.375 370.97348,227.99826 370.375,230 C 369.77651,232.00174 371.24747,233.625 373.6875,233.625 C 375.60011,233.625 377.5115,232.59864 378.5625,231.21875 C 384.57275,223.3277 379.30026,217.15625 370.75,217.15625 z " id="path9057" sodipodi:nodetypes="cssccssscsssss"/>
  <path sodipodi:nodetypes="ccssccssc" id="path9059" d="M 345.71245,88.403067 L 354.80391,88.403067 C 354.80391,88.403067 318.27854,144.83055 318.27854,144.83055 C 315.74999,149.05022 316.95786,153.43813 322.74453,153.43813 C 331.36746,153.43813 353.52793,138.13576 353.52793,138.13576 L 351.93292,142.75835 C 351.93292,142.75835 331.39736,159.49532 318.43804,159.49532 C 307.54753,159.49532 306.35596,149.85164 309.18708,144.51175 C 309.18708,144.51175 345.71245,88.403067 345.71245,88.403067 z " style="fill: rgb(89, 8, 26); fill-opacity: 1; fill-rule: evenodd; stroke: none; stroke-width: 1px; stroke-linecap: butt; stroke-linejoin: miter; stroke-opacity: 1;"/>
  <rect transform="matrix(1, 0, -0.616547, 0.787318, 0, 0)" y="124.63377" x="407.24329" height="4.6565566" width="29.028893" id="rect9061" style="fill: rgb(89, 8, 26); fill-opacity: 1; stroke: none; stroke-width: 2.036; stroke-miterlimit: 4.5; stroke-dasharray: none; stroke-opacity: 1;"/>
  <path style="fill: rgb(89, 8, 26); fill-opacity: 1; fill-rule: evenodd; stroke: none; stroke-width: 1px; stroke-linecap: butt; stroke-linejoin: miter; stroke-opacity: 1;" d="M 384.47081,88.403067 L 393.56227,88.403067 C 393.56227,88.403067 357.0369,144.83055 357.0369,144.83055 C 354.50836,149.05022 355.71622,153.43813 361.50289,153.43813 C 367.41649,153.43813 381.91885,137.81696 381.91885,137.81696 L 381.91883,141.96135 C 381.91883,141.96135 368.08223,159.49532 357.1964,159.49532 C 346.30589,159.49532 345.11433,149.85164 347.94544,144.51175 C 347.94544,144.51175 384.47081,88.403067 384.47081,88.403067 z " id="path9063" sodipodi:nodetypes="ccssccssc"/>
  <rect style="fill: rgb(89, 8, 26); fill-opacity: 1; stroke: none; stroke-width: 2.036; stroke-miterlimit: 4.5; stroke-dasharray: none; stroke-opacity: 1;" id="rect9065" width="29.028893" height="4.6565557" x="446.00162" y="124.63374" transform="matrix(1, 0, -0.616547, 0.787318, 0, 0)"/>
  <path sodipodi:nodetypes="ccccc" id="path9067" d="M 291.80165,133.03497 C 302.20125,130.34854 318.81143,122.79109 328.32702,116.93561 L 327.05101,120.7612 C 314.87312,127.5844 302.91623,132.64077 291.16365,136.06357 L 291.80165,133.03497 z " style="fill: rgb(89, 8, 26); fill-opacity: 1; fill-rule: evenodd; stroke: none; stroke-width: 1px; stroke-linecap: butt; stroke-linejoin: miter; stroke-opacity: 1;"/>
  <path id="path9069" d="M 279.00182,119.57697 C 268.78663,119.57697 258.64299,128.53911 256.37296,139.59783 C 254.10293,150.65654 260.56981,159.61868 270.785,159.61868 C 281.00015,159.61869 291.14382,150.65654 293.41385,139.59783 C 295.68387,128.53912 289.21701,119.57697 279.00182,119.57697 z M 279.71916,122.57684 C 286.88374,122.57683 291.41928,128.94854 289.82715,136.7936 C 288.23502,144.63867 281.14503,151.01037 273.98043,151.01037 C 266.81582,151.01038 262.2803,144.63867 263.87244,136.7936 C 265.46457,128.94854 272.55455,122.57684 279.71916,122.57684 z " style="fill: rgb(89, 8, 26); fill-opacity: 1; stroke: none; stroke-width: 2.036; stroke-miterlimit: 4.5; stroke-dasharray: none; stroke-opacity: 1;"/>
  <path id="path9071" d="M 255.0687,216.51389 C 244.85353,216.51389 233.91825,225.46301 230.6791,236.52172 C 227.43995,247.58043 233.18041,256.52954 243.3956,256.52954 C 253.61077,256.52954 264.48085,247.58043 267.71999,236.52172 C 270.95914,225.46301 265.28389,216.51389 255.0687,216.51389 z M 255.78604,222.24904 C 262.51006,222.24904 265.97765,228.52639 263.54637,236.3262 C 261.11511,244.12599 253.70635,250.46854 246.98231,250.46854 C 240.25825,250.46854 236.72549,244.12599 239.15677,236.3262 C 241.58805,228.52639 249.06198,222.24904 255.78604,222.24904 z " style="fill: rgb(89, 8, 26); fill-opacity: 1; stroke: none; stroke-width: 2.036; stroke-miterlimit: 4.5; stroke-dasharray: none; stroke-opacity: 1;"/>
  <path sodipodi:nodetypes="csssscssssc" id="path9073" d="M 272.82122,146.42454 C 282.20831,158.24458 274.94503,169.29199 267.60766,174.24587 C 260.72206,178.89474 251.17609,179.42027 239.96434,179.42027 C 207.10108,179.42027 176.41412,160.61111 145.54067,160.61111 C 122.70149,160.61111 114.44963,176.23108 114.44963,186.025 C 114.44963,201.74049 125.44377,211.7784 135.01371,214.80699 C 122.71779,219.55884 104.23033,209.15093 104.23033,185.7609 C 104.23033,179.35312 108.18486,154.87273 145.22168,154.87273 C 176.44392,154.87273 207.66825,174.79769 237.57184,174.79769 C 247.60748,174.79769 253.78986,173.09779 259.68187,169.38612 C 268.43765,163.87042 273.20833,153.98263 272.82122,146.42454 z " style="fill: rgb(91, 11, 28); fill-opacity: 1; fill-rule: evenodd; stroke: none; stroke-width: 1px; stroke-linecap: butt; stroke-linejoin: miter; stroke-opacity: 1;"/>
  <path sodipodi:nodetypes="cssscczzsc" id="path9075" d="M 43.608763,259.66431 C 47.753524,271.52731 55.706799,283.78479 77.218127,283.78479 C 88.5305,283.78479 103.09189,277.37741 116.46664,260.566 C 132.69268,240.17069 146.70075,221.7624 167.59278,199.92663 C 182.67568,184.16237 197.89603,174.45358 206.01644,172.42476 L 213.23455,175.12986 C 204.66303,176.25698 188.37147,186.01052 175.565,198.34865 C 162.64635,210.79485 132.54341,250.62787 118.0456,268.00504 C 103.54782,285.3822 89.681502,295.28148 72.93236,295.28148 C 47.086413,295.28148 42.396326,272.14723 43.608763,259.66431 z " style="fill: rgb(89, 8, 26); fill-opacity: 1; fill-rule: evenodd; stroke: none; stroke-width: 1px; stroke-linecap: butt; stroke-linejoin: miter; stroke-opacity: 1;"/>
  <path sodipodi:nodetypes="ccsccccsc" id="path9077" d="M 141.27893,236.67092 L 131.80514,248.61847 C 131.80514,248.61847 153.29576,228.10478 163.83556,228.10478 C 173.26982,228.10478 174.88829,237.12178 174.88829,237.12178 C 180.28038,235.77511 187.06717,232.21371 199.02389,224.90293 L 199.47501,221.79287 C 195.01268,225.27164 187.83933,229.15748 183.45982,230.80987 C 183.45982,230.80987 180.65571,219.76403 170.37698,219.76403 C 160.08339,219.76403 141.27893,236.67092 141.27893,236.67092 z " style="fill: rgb(89, 8, 26); fill-opacity: 1; fill-rule: evenodd; stroke: none; stroke-width: 1px; stroke-linecap: butt; stroke-linejoin: miter; stroke-opacity: 1;"/>
  <path sodipodi:nodetypes="ccccc" id="path9079" d="M 201.50511,216.20745 L 210.97889,216.20745 L 186.39217,255.83206 L 176.69282,255.83206 L 201.50511,216.20745 z " style="fill: rgb(89, 8, 26); fill-opacity: 1; fill-rule: evenodd; stroke: none; stroke-width: 1px; stroke-linecap: butt; stroke-linejoin: miter; stroke-opacity: 1;"/>
  <path sodipodi:nodetypes="ccscsccccsssscscsssssscccccssscssccsscsc" id="path9081" d="M 425.73071,119.27718 C 419.92948,128.3787 414.80853,137.02452 409.16665,145.93255 C 406.33554,151.27245 407.93389,160.92213 418.42688,160.92213 C 419.65062,160.92213 420.82078,160.86957 421.94837,160.72661 C 421.94639,160.85903 421.94837,160.9848 421.94837,161.11764 C 421.94837,169.93013 425.96012,177.05039 432.18679,182.95028 C 412.9871,206.67183 399.44994,231.5252 383.08151,255.81265 L 392.79823,255.81265 C 407.85966,232.51498 420.28286,209.61195 434.94682,185.39156 C 439.79486,189.01047 445.67497,191.03162 452.98968,191.03162 C 473.91013,191.03163 488.98717,178.32061 488.98717,164.50659 C 488.98715,156.15972 481.94279,152.05873 474.18386,152.05873 C 460.89603,152.05873 448.50431,163.01711 439.22977,173.69585 C 437.13272,176.11042 435.94966,178.05376 434.20838,180.3434 C 428.80169,175.11008 425.27422,169.01543 425.27422,161.11764 C 425.27422,160.76698 425.32339,160.42336 425.33944,160.07489 C 430.45277,159.05651 435.01471,156.38481 438.64286,153.36217 C 442.73776,149.95066 447.38138,144.86605 447.38138,138.30742 C 447.38138,136.74917 446.77879,135.33366 445.68584,134.3971 C 444.5929,133.46053 443.15531,133.09365 441.64265,133.09365 C 439.65229,133.09366 437.68944,133.97202 435.57785,135.43985 C 433.46627,136.90768 431.25557,138.98009 429.25221,141.50085 C 426.37383,145.1226 423.91757,149.72615 422.73092,154.86112 C 416.94426,154.86112 415.7679,150.47808 418.29645,146.25841 L 435.18658,119.27718 L 425.73071,119.27718 z M 441.64265,136.41743 C 442.59599,136.41743 443.21316,136.66403 443.53382,136.93881 C 443.85448,137.21358 444.05552,137.49743 444.05552,138.30742 C 444.05552,143.31623 440.40494,147.43036 436.62126,150.42942 C 433.59697,152.82657 429.3997,154.22586 426.1872,154.53526 C 427.3362,150.38826 429.45336,146.61548 431.86072,143.58636 C 433.67785,141.29993 435.679,139.48656 437.46903,138.24225 C 439.25905,136.99793 440.86967,136.41743 441.64265,136.41743 z M 473.72737,155.25216 C 479.97152,155.24024 485.20483,158.52203 485.20483,164.50659 C 485.20483,175.92706 472.57052,187.64268 452.98968,187.64267 C 446.39726,187.64267 441.19133,186.00482 436.90321,182.84985 C 438.6534,180.5383 439.64945,178.35686 441.77307,175.9117 C 450.80423,165.51319 462.34231,155.27389 473.72737,155.25216 z " style="fill: rgb(89, 8, 26); fill-opacity: 1; fill-rule: evenodd; stroke: none; stroke-width: 1px; stroke-linecap: butt; stroke-linejoin: miter; stroke-opacity: 1;"/>
  <path sodipodi:nodetypes="ccccc" id="path9083" d="M 501.05706,216.20745 L 510.53085,216.20745 L 485.94412,255.83206 L 476.24477,255.83206 L 501.05706,216.20745 z " style="fill: rgb(89, 8, 26); fill-opacity: 1; fill-rule: evenodd; stroke: none; stroke-width: 1px; stroke-linecap: butt; stroke-linejoin: miter; stroke-opacity: 1;"/>
  <path sodipodi:nodetypes="csccccscc" id="path9085" d="M 197.67049,233.7404 C 198.57276,233.06414 208.32076,226.75223 215.71579,226.75223 C 221.32695,226.75223 220.00155,235.99465 220.00155,235.99465 C 225.80982,235.93821 230.48467,233.80151 235.11449,232.56739 L 235.56562,229.90818 C 233.70141,230.42758 231.31238,231.25058 229.0242,231.48616 C 229.0242,231.48616 230.21912,219.53861 222.9339,219.53861 C 215.19162,219.53861 199.92616,229.68276 199.92616,229.68276 L 197.67049,233.7404 z " style="fill: rgb(89, 8, 26); fill-opacity: 1; fill-rule: evenodd; stroke: none; stroke-width: 1px; stroke-linecap: butt; stroke-linejoin: miter; stroke-opacity: 1;"/>
  <path sodipodi:nodetypes="ccsccsccc" id="path9087" d="M 277.8932,216.20745 C 272.09197,225.30897 266.97102,233.95479 261.32914,242.86282 C 258.49802,248.20272 259.69884,257.8524 270.58936,257.8524 C 281.47519,257.8524 298.61465,235.37972 313.20884,226.13454 L 314.04622,222.16278 C 298.25576,234.43657 280.80701,251.7914 274.89341,251.7914 C 269.10674,251.7914 267.93039,247.40835 270.45893,243.18868 L 287.34906,216.20745 L 277.8932,216.20745 z " style="fill: rgb(89, 8, 26); fill-opacity: 1; fill-rule: evenodd; stroke: none; stroke-width: 1px; stroke-linecap: butt; stroke-linejoin: miter; stroke-opacity: 1;"/>
  <path style="fill: rgb(89, 8, 26); fill-opacity: 1; stroke: none; stroke-width: 2.036; stroke-miterlimit: 4.5; stroke-dasharray: none; stroke-opacity: 1;" d="M 402.18888,119.53787 C 391.97371,119.53787 381.03842,128.48698 377.79927,139.54569 C 374.56013,150.6044 380.30059,159.55351 390.51578,159.55351 C 400.73095,159.55351 411.60102,150.6044 414.84017,139.54569 C 418.07932,128.48698 412.40407,119.53787 402.18888,119.53787 z M 402.90622,125.27301 C 409.63024,125.27301 413.09783,131.55036 410.66655,139.35017 C 408.23529,147.14997 400.82652,153.49251 394.10249,153.49251 C 387.37843,153.49251 383.84566,147.14997 386.27694,139.35017 C 388.70822,131.55036 396.18216,125.27301 402.90622,125.27301 z " id="path9107"/>
  <path sodipodi:nodetypes="ccccc" id="path9091" d="M 330.879,243.18013 C 338.90802,236.91041 347.11232,230.6407 355.44191,224.37098 L 354.00642,229.23502 C 345.2098,235.00499 338.0724,241.1066 330.7195,247.16514 L 330.879,243.18013 z " style="fill: rgb(89, 8, 26); fill-opacity: 1; fill-rule: evenodd; stroke: none; stroke-width: 1px; stroke-linecap: butt; stroke-linejoin: miter; stroke-opacity: 1;"/>
  <path sodipodi:nodetypes="cssssccsssscc" id="path9093" d="M 409.688,225.45958 C 409.688,225.45958 420.88587,217.53721 426.9924,217.53721 C 432.17884,217.53721 434.31999,220.2279 434.31999,225.44151 C 434.31999,231.67756 421.03554,241.49343 421.03554,246.12756 C 421.03554,249.80775 422.52005,252.44518 426.75536,252.44518 C 438.76274,252.44518 465.62365,222.42578 465.62365,222.42578 L 464.7897,228.79089 C 464.7897,228.79089 438.75738,257.64424 425.33307,257.64424 C 414.37139,257.64424 412.95027,251.26052 412.95027,247.28103 C 412.95027,239.44483 426.75536,229.64332 426.75536,225.95472 C 426.75536,223.77508 425.3193,222.80715 422.80492,222.80715 C 417.64336,222.80715 406.60639,230.65864 406.60639,230.65864 L 409.688,225.45958 z " style="fill: rgb(89, 8, 26); fill-opacity: 1; fill-rule: evenodd; stroke: none; stroke-width: 1px; stroke-linecap: butt; stroke-linejoin: miter; stroke-opacity: 1;"/>
  <path sodipodi:nodetypes="ccsccsccc" id="path9095" d="M 468.88728,216.20745 C 463.08605,225.30897 457.9651,233.95479 452.32322,242.86282 C 449.4921,248.20272 450.69292,257.8524 461.58344,257.8524 C 473.42626,257.8524 491.88158,237.29252 491.88158,237.29252 L 492.0411,233.75911 C 488.61186,237.90351 473.23659,251.7914 465.88749,251.7914 C 460.10083,251.7914 458.92447,247.40835 461.45302,243.18868 L 478.34314,216.20745 L 468.88728,216.20745 z " style="fill: rgb(89, 8, 26); fill-opacity: 1; fill-rule: evenodd; stroke: none; stroke-width: 1px; stroke-linecap: butt; stroke-linejoin: miter; stroke-opacity: 1;"/>
  <path style="fill: rgb(89, 8, 26); fill-opacity: 1; fill-rule: evenodd; stroke: none; stroke-width: 1px; stroke-linecap: butt; stroke-linejoin: miter; stroke-opacity: 1;" d="M 563.23192,216.20745 C 557.43069,225.30897 552.30974,233.95479 546.66786,242.86282 C 543.83675,248.20272 545.03756,257.8524 555.92808,257.8524 C 566.81391,257.8524 580.64375,240.32111 580.64375,240.32111 L 580.64375,236.1501 C 580.64375,236.1501 566.14574,251.7914 560.23213,251.7914 C 554.44547,251.7914 553.26911,247.40835 555.79766,243.18868 L 572.68778,216.20745 L 563.23192,216.20745 z " id="path9097" sodipodi:nodetypes="ccsccsccc"/>
  <path sodipodi:nodetypes="cssssccsssscc" style="fill: rgb(89, 8, 26); fill-opacity: 1; fill-rule: evenodd; stroke: none; stroke-width: 1px; stroke-linecap: butt; stroke-linejoin: miter; stroke-opacity: 1;" d="M 503.06927,226.51251 C 503.06927,226.51251 518.97273,215.64203 526.31503,215.64203 C 531.54447,215.64203 533.74543,218.8948 533.74543,224.68078 C 533.74543,232.10406 521.30818,242.67205 521.30818,248.47576 C 521.30818,251.26731 523.1722,252.40279 525.99823,252.40279 C 540.2217,252.40279 550.27531,238.16684 559.44653,226.87204 L 557.7872,233.58655 C 557.7872,233.58655 542.8251,257.47851 523.18032,257.47851 C 517.53124,257.47851 513.48567,253.30995 513.48567,248.722 C 513.48567,240.11045 526.07798,230.21541 526.07798,224.77004 C 526.07798,222.7854 524.65922,221.62762 522.36279,221.62762 C 513.84577,221.62762 499.98765,232.54393 499.98765,232.54393 L 503.06927,226.51251 z " id="path9099"/>
  <path id="path9101" d="M 486.39525,198.23595 C 485.89721,200.6002 483.57298,202.51902 481.20723,202.51902 C 478.84149,202.51902 477.3257,200.6002 477.82374,198.23595 C 478.32179,195.87169 480.64602,193.95287 483.01176,193.95287 C 485.37751,193.95287 486.89331,195.87169 486.39525,198.23595 z " style="fill: rgb(89, 8, 26); fill-opacity: 1; stroke: none; stroke-width: 1; stroke-miterlimit: 4; stroke-opacity: 1;"/>
  <path style="fill: rgb(89, 8, 26); fill-opacity: 1; stroke: none; stroke-width: 1; stroke-miterlimit: 4; stroke-opacity: 1;" d="M 582.82545,193.95287 C 582.32741,196.31712 580.00318,198.23594 577.63743,198.23594 C 575.2717,198.23594 573.7559,196.31712 574.25394,193.95287 C 574.752,191.58861 577.07622,189.66979 579.44196,189.66979 C 581.80771,189.66979 583.32351,191.58861 582.82545,193.95287 z " id="path9103"/>
</svg>