<?xml version="1.0" encoding="UTF-8" standalone="no"?>
<!-- Created with Inkscape (http://www.inkscape.org/) -->

<svg
   xmlns:dc="http://purl.org/dc/elements/1.1/"
   xmlns:cc="http://creativecommons.org/ns#"
   xmlns:rdf="http://www.w3.org/1999/02/22-rdf-syntax-ns#"
   xmlns:svg="http://www.w3.org/2000/svg"
   xmlns="http://www.w3.org/2000/svg"
   xmlns:sodipodi="http://sodipodi.sourceforge.net/DTD/sodipodi-0.dtd"
   xmlns:inkscape="http://www.inkscape.org/namespaces/inkscape"
   width="270"
   height="270"
   id="svg2"
   version="1.1"
   inkscape:version="0.48.5 r10040"
   sodipodi:docname="Logo ITALA.svg">
  <defs
     id="defs4" />
  <sodipodi:namedview
     id="base"
     pagecolor="#ffffff"
     bordercolor="#666666"
     borderopacity="1.0"
     inkscape:pageopacity="0.0"
     inkscape:pageshadow="2"
     inkscape:zoom="2.0000001"
     inkscape:cx="147.97207"
     inkscape:cy="135.3642"
     inkscape:document-units="px"
     inkscape:current-layer="layer1"
     showgrid="false"
     inkscape:window-width="1920"
     inkscape:window-height="1001"
     inkscape:window-x="-9"
     inkscape:window-y="-9"
     inkscape:window-maximized="1" />
  <metadata
     id="metadata7">
    <rdf:RDF>
      <cc:Work
         rdf:about="">
        <dc:format>image/svg+xml</dc:format>
        <dc:type
           rdf:resource="http://purl.org/dc/dcmitype/StillImage" />
        <dc:title />
      </cc:Work>
    </rdf:RDF>
  </metadata>
  <g
     inkscape:label="Livello 1"
     inkscape:groupmode="layer"
     id="layer1"
     transform="translate(0,-782.36218)">
    <path
       sodipodi:type="arc"
       style="fill:#ffffff;fill-opacity:1;stroke:#aa8800;stroke-width:2.56980491;stroke-linecap:round;stroke-linejoin:round;stroke-miterlimit:4;stroke-opacity:1;stroke-dasharray:none;stroke-dashoffset:0"
       id="path2996-1"
       sodipodi:cx="292.5"
       sodipodi:cy="560.04077"
       sodipodi:rx="85.714287"
       sodipodi:ry="85.178574"
       d="m 378.21429,560.04077 c 0,47.04283 -38.3756,85.17858 -85.71429,85.17858 -47.33869,0 -85.71429,-38.13575 -85.71429,-85.17858 0,-47.04283 38.3756,-85.17857 85.71429,-85.17857 47.33869,0 85.71429,38.13574 85.71429,85.17857 z"
       transform="matrix(1.5516666,0,0,1.5614255,-318.86248,42.900244)" />
    <path
       sodipodi:type="arc"
       style="fill:#002da6;fill-opacity:1;stroke:#aa8800;stroke-width:2.10113144;stroke-linecap:round;stroke-linejoin:round;stroke-miterlimit:4;stroke-opacity:1;stroke-dasharray:none;stroke-dashoffset:0"
       id="path2996"
       sodipodi:cx="292.5"
       sodipodi:cy="560.04077"
       sodipodi:rx="85.714287"
       sodipodi:ry="85.178574"
       d="m 378.21429,560.04077 c 0,47.04283 -38.3756,85.17858 -85.71429,85.17858 -47.33869,0 -85.71429,-38.13575 -85.71429,-85.17858 0,-47.04283 38.3756,-85.17857 85.71429,-85.17857 47.33869,0 85.71429,38.13574 85.71429,85.17857 z"
       transform="matrix(1.4233333,0,0,1.4322851,-281.82499,115.72413)" />
    <path
       style="fill:#ffffff;fill-opacity:1;stroke:#aa8800;stroke-width:2.5;stroke-linecap:round;stroke-linejoin:round;stroke-miterlimit:4;stroke-opacity:1;stroke-dasharray:none"
       d="m 39.5,882.86218 -4,0 0,-6.5 21,0 0,6.5 -4,0 0,74 4,0 0,6.5 -21,0 0,-6.5 4,0 z"
       id="path3784"
       inkscape:connector-curvature="0"
       sodipodi:nodetypes="ccccccccccccc" />
    <path
       style="fill:#ffffff;fill-opacity:1;stroke:#aa8800;stroke-width:2.5;stroke-linecap:round;stroke-linejoin:round;stroke-miterlimit:4;stroke-opacity:1;stroke-dasharray:none"
       d="m 70.5,868.86218 0,105 -7,7 30,0 -7,-7 0,-105 17,0 8,5 -8,-15 -50,0 -8,15 8,-5 z"
       id="path3786"
       inkscape:connector-curvature="0"
       sodipodi:nodetypes="ccccccccccccc" />
    <path
       style="fill:#ffffff;fill-opacity:1;stroke:#aa8800;stroke-width:2.5;stroke-linecap:round;stroke-linejoin:round;stroke-miterlimit:4;stroke-opacity:1;stroke-dasharray:none"
       d="m 134.5,832.86218 42,168.00002 6,6 -27,0 6,-6 -5.89286,-24.00002 -45.10714,0 -6,24.00002 6,6 -23,0 6,-6 z"
       id="path3790"
       inkscape:connector-curvature="0"
       sodipodi:nodetypes="cccccccccccc" />
    <path
       style="fill:#ffffff;fill-opacity:1;stroke:#aa8800;stroke-width:2.5;stroke-linecap:round;stroke-linejoin:round;stroke-miterlimit:4;stroke-opacity:1;stroke-dasharray:none"
       d="m 178.5,864.86218 -4,-6 24.5,0 -4,6 0,105.5 26,0 8.57897,-4.35539 -7.57897,14.35539 -47.5,0 4,-5.5625 z"
       id="path3792"
       inkscape:connector-curvature="0"
       sodipodi:nodetypes="ccccccccccc" />
    <path
       style="fill:#ffffff;fill-opacity:1;stroke:#aa8800;stroke-width:2.5;stroke-linecap:butt;stroke-linejoin:round;stroke-miterlimit:4;stroke-opacity:1;stroke-dasharray:none"
       d="m 210.5,954.86218 -0.50001,3 4.00001,5 -14.5,0 4,-5 16.6875,-76.90624 18.3125,76.90624 4,5 -21.5,0 4,-4.99999 -0.87501,-3.00001 z"
       id="path2994"
       inkscape:connector-curvature="0"
       sodipodi:nodetypes="cccccccccccc" />
    <path
       style="fill:#002da6;fill-opacity:1;stroke:#aa8800;stroke-width:2.5;stroke-linecap:round;stroke-linejoin:round;stroke-miterlimit:4;stroke-opacity:1;stroke-dasharray:none"
       d="m 112.5,965.86218 40,0 -20,-79 z"
       id="path3788"
       inkscape:connector-curvature="0"
       sodipodi:nodetypes="cccc" />
    <path
       style="fill:#002da6;fill-opacity:1;stroke:#aa8800;stroke-width:2.5;stroke-linecap:butt;stroke-linejoin:round;stroke-miterlimit:4;stroke-opacity:1;stroke-dasharray:none"
       d="m 212.5,949.32308 10.4375,0 -4.31249,-25.49999 z"
       id="path2990"
       inkscape:connector-curvature="0"
       sodipodi:nodetypes="cccc" />
  </g>
</svg>
