<?xml version="1.0" encoding="UTF-8" standalone="no"?>
<!-- Created with Inkscape (http://www.inkscape.org/) -->
<svg
   xmlns:svg="http://www.w3.org/2000/svg"
   xmlns="http://www.w3.org/2000/svg"
   version="1.0"
   width="174.95"
   height="27.99375"
   id="svg2">
  <defs
     id="defs4" />
  <g
     transform="translate(-493.125,-84.71455)"
     id="layer1">
    <path
       d="M 493.125,112.7083 L 668.075,112.7083 L 668.075,84.71455 L 493.125,84.71455 L 493.125,112.7083 z"
       id="path3152"
       style="fill:#fff200;fill-opacity:1;fill-rule:nonzero;stroke:none" />
    <path
       d="M 527.4575,92.6058 L 527.43,92.65955 L 527.39,92.73705 L 527.35125,92.81455 L 527.16375,93.18705 L 526.9775,93.55705 L 526.79125,93.92955 L 526.60625,94.30205 L 526.4225,94.6758 L 526.24,95.0508 L 526.0575,95.4233 L 525.87625,95.7983 L 525.695,96.1733 L 525.51625,96.5483 L 525.33625,96.9233 L 525.15875,97.3008 L 524.98125,97.6758 L 524.805,98.05205 L 524.63,98.42955 L 524.45625,98.80705 L 524.2825,99.18455 L 524.11,99.56455 L 523.9375,99.94205 L 523.76625,100.3208 L 523.59625,100.7008 L 523.4275,101.0808 L 523.26,101.4633 L 523.09125,101.84205 L 522.925,102.22455 L 522.76,102.60705 L 526.41125,102.60705 L 526.58,102.22705 L 526.75,101.84705 L 526.92,101.46705 L 527.09125,101.08955 L 527.2625,100.7108 L 527.43625,100.3333 L 527.61,99.9558 L 527.785,99.5808 L 540.94375,99.5808 L 541.11875,99.9558 L 541.2925,100.3333 L 541.465,100.7108 L 541.6375,101.08955 L 541.80875,101.46705 L 541.97875,101.84705 L 542.14875,102.22705 L 542.3175,102.60705 L 545.96875,102.60705 L 545.8025,102.22455 L 545.63625,101.84205 L 545.46875,101.4633 L 545.30125,101.0808 L 545.13125,100.7008 L 544.9625,100.3208 L 544.79125,99.94205 L 544.61875,99.56455 L 544.44625,99.18455 L 544.2725,98.80705 L 544.09875,98.42955 L 543.9225,98.05205 L 543.74625,97.6758 L 543.57,97.3008 L 543.39125,96.9233 L 543.2125,96.5483 L 543.0325,96.1733 L 542.8525,95.7983 L 542.67125,95.4233 L 542.48875,95.0508 L 542.30625,94.6758 L 542.1225,94.30205 L 541.9375,93.92955 L 541.75125,93.55705 L 541.565,93.18705 L 541.3775,92.81455 L 541.33875,92.73705 L 541.29875,92.65955 L 541.27125,92.6058 L 527.4575,92.6058 z M 529.20375,96.60455 L 529.3675,96.26955 L 529.53375,95.9333 L 529.7,95.5983 L 529.86625,95.2608 L 530.03375,94.9258 L 530.20125,94.5908 L 530.37,94.2583 L 530.38875,94.2208 L 530.4075,94.1833 L 530.4275,94.1483 L 530.4475,94.1108 L 530.4675,94.0758 L 530.48875,94.03955 L 530.51125,94.00455 L 530.535,93.97205 L 530.56,93.93955 L 530.58625,93.90705 L 530.61375,93.8758 L 530.6425,93.8458 L 530.6725,93.81955 L 530.7025,93.79455 L 530.735,93.7708 L 530.76875,93.74955 L 530.80375,93.7283 L 530.83875,93.71205 L 530.875,93.6958 L 530.9125,93.68205 L 530.95,93.66705 L 530.9925,93.6558 L 531.035,93.6458 L 531.07875,93.63705 L 531.1225,93.6283 L 531.21,93.6183 L 531.25375,93.6133 L 531.2975,93.6083 L 531.34125,93.60705 L 531.65875,93.5833 L 531.97625,93.55955 L 532.295,93.5408 L 532.6125,93.52705 L 532.93125,93.5133 L 533.24875,93.5008 L 533.5675,93.49455 L 533.88625,93.48955 L 534.205,93.48705 L 534.52375,93.48705 L 534.8425,93.48955 L 535.16125,93.49455 L 535.47875,93.5008 L 535.7975,93.5133 L 536.11625,93.52705 L 536.43375,93.5408 L 536.75125,93.55955 L 537.07,93.5833 L 537.3875,93.60705 L 537.43125,93.6083 L 537.475,93.6133 L 537.51875,93.6183 L 537.5625,93.6233 L 537.60625,93.6283 L 537.65,93.63705 L 537.6925,93.6458 L 537.73625,93.6558 L 537.77875,93.66705 L 537.81625,93.68205 L 537.85375,93.6958 L 537.89,93.71205 L 537.925,93.7283 L 537.96,93.74955 L 537.99375,93.7708 L 538.02625,93.79455 L 538.05625,93.81955 L 538.08625,93.8458 L 538.115,93.8758 L 538.1425,93.90705 L 538.16875,93.93955 L 538.19375,93.97205 L 538.2175,94.00455 L 538.23875,94.03955 L 538.26125,94.0758 L 538.28125,94.1108 L 538.30125,94.1483 L 538.32,94.1833 L 538.34,94.2208 L 538.35875,94.2583 L 538.5275,94.5908 L 538.695,94.9258 L 538.8625,95.2608 L 539.02875,95.5983 L 539.195,95.9333 L 539.36125,96.26955 L 539.525,96.60455 L 529.20375,96.60455"
       id="path3154"
       style="fill:#0d2548;fill-opacity:1;fill-rule:evenodd;stroke:none" />
    <path
       d="M 541.27125,92.6058 L 541.25875,92.58205 L 541.21875,92.50455 L 541.1775,92.42705 L 541.135,92.35205 L 541.0925,92.2758 L 541.04875,92.2008 L 541.00375,92.1258 L 540.9575,92.05205 L 540.91,91.97955 L 540.86,91.90705 L 540.81,91.83705 L 540.75625,91.76955 L 540.7025,91.7008 L 540.65625,91.64705 L 540.60875,91.5933 L 540.56,91.54205 L 540.51,91.48955 L 540.45875,91.4408 L 540.405,91.39455 L 540.35125,91.34955 L 540.295,91.30455 L 540.23875,91.2633 L 540.18,91.2208 L 540.12125,91.1808 L 540.06,91.1458 L 539.99875,91.1083 L 539.93625,91.0758 L 539.87125,91.04455 L 539.805,91.01455 L 539.73875,90.9858 L 539.67125,90.9608 L 539.6025,90.93705 L 539.53375,90.9158 L 539.465,90.89455 L 539.395,90.8758 L 539.325,90.85955 L 539.25375,90.8433 L 539.17125,90.82705 L 539.09,90.8133 L 539.00625,90.8008 L 538.92375,90.79205 L 538.84,90.77955 L 538.75625,90.7733 L 538.67375,90.7658 L 538.59,90.7583 L 538.50625,90.75205 L 538.4225,90.74705 L 538.33875,90.74455 L 538.255,90.73955 L 537.89375,90.7233 L 537.53375,90.70705 L 537.1725,90.6933 L 536.81,90.68205 L 536.45,90.67205 L 536.0875,90.6633 L 535.72625,90.6558 L 533.0025,90.6558 L 532.64,90.6633 L 532.27875,90.67205 L 531.9175,90.68205 L 531.55625,90.6933 L 531.195,90.70705 L 530.83375,90.7233 L 530.47375,90.73955 L 530.39,90.74455 L 530.30625,90.74705 L 530.2225,90.75205 L 530.13875,90.7583 L 529.97125,90.7733 L 529.88875,90.77955 L 529.805,90.79205 L 529.7225,90.8008 L 529.63875,90.8133 L 529.55625,90.82705 L 529.475,90.8433 L 529.40375,90.85955 L 529.33375,90.8758 L 529.26375,90.89455 L 529.195,90.9158 L 529.12625,90.93705 L 529.0575,90.9608 L 528.99,90.9858 L 528.92375,91.01455 L 528.8575,91.04455 L 528.7925,91.0758 L 528.73,91.1083 L 528.6675,91.1458 L 528.6075,91.1808 L 528.5475,91.2208 L 528.49,91.2633 L 528.4325,91.30455 L 528.3775,91.34955 L 528.3225,91.39455 L 528.27,91.4408 L 528.21875,91.48955 L 528.16875,91.54205 L 528.12,91.5933 L 528.0725,91.64705 L 528.02625,91.7008 L 527.97125,91.76955 L 527.91875,91.83705 L 527.8675,91.90705 L 527.81875,91.97955 L 527.77125,92.05205 L 527.72375,92.1258 L 527.68,92.2008 L 527.63625,92.2758 L 527.5925,92.35205 L 527.55125,92.42705 L 527.51,92.50455 L 527.47,92.58205 L 527.4575,92.6058 L 541.27125,92.6058"
       id="path3156"
       style="fill:#0d2548;fill-opacity:1;fill-rule:evenodd;stroke:none" />
    <path
       d="M 547.04375,96.3558 L 547.04375,102.60705 L 550.33,102.60705 L 550.33,99.59205 L 562.575,99.59205 L 562.6225,99.59455 L 562.66875,99.59705 L 562.715,99.59955 L 562.7625,99.60205 L 562.80875,99.60705 L 562.855,99.6133 L 562.90125,99.6208 L 562.94625,99.62955 L 562.9925,99.64205 L 563.03125,99.6533 L 563.07,99.66455 L 563.1075,99.68205 L 563.145,99.6983 L 563.18125,99.71455 L 563.2175,99.7358 L 563.25125,99.75705 L 563.285,99.77955 L 563.31625,99.8058 L 563.3475,99.8333 L 563.37625,99.86205 L 563.40375,99.89455 L 563.42875,99.9258 L 563.4525,99.9608 L 563.475,99.9958 L 563.495,100.0308 L 563.5125,100.0683 L 563.52875,100.1083 L 563.54375,100.1458 L 563.55875,100.1908 L 563.5725,100.23455 L 563.5825,100.27955 L 563.5925,100.3258 L 563.6,100.3733 L 563.6075,100.41705 L 563.6125,100.46705 L 563.6175,100.5108 L 563.62,100.5583 L 563.62375,100.60455 L 563.62625,100.65205 L 563.6275,100.6983 L 563.63,100.7458 L 563.6525,102.60705 L 566.95875,102.60705 L 566.96875,102.3933 L 566.975,102.17955 L 566.98125,101.96955 L 566.985,101.7558 L 566.98625,101.54455 L 566.98625,101.33205 L 566.98625,101.21705 L 566.985,101.09955 L 566.9825,100.98205 L 566.98,100.86705 L 566.975,100.7508 L 566.97125,100.6358 L 566.965,100.5183 L 566.95875,100.4033 L 566.95,100.2858 L 566.94,100.1708 L 566.92875,100.05455 L 566.91625,99.93955 L 566.90625,99.86955 L 566.8975,99.7983 L 566.88625,99.7283 L 566.875,99.6558 L 566.86375,99.5858 L 566.85,99.51455 L 566.83625,99.44455 L 566.82125,99.37455 L 566.805,99.30455 L 566.7875,99.2358 L 566.76875,99.1658 L 566.7475,99.0983 L 566.7125,98.98955 L 566.69375,98.9383 L 566.67375,98.88705 L 566.65375,98.8333 L 566.63125,98.78205 L 566.6075,98.73205 L 566.58125,98.6808 L 566.55375,98.63205 L 566.5325,98.5983 L 566.5125,98.5658 L 566.49,98.5358 L 566.4675,98.50205 L 566.44375,98.47205 L 566.42,98.44205 L 566.395,98.4133 L 566.36875,98.3858 L 566.34125,98.35705 L 566.31375,98.33205 L 566.28375,98.3058 L 566.25375,98.28205 L 566.22125,98.2583 L 566.18,98.2358 L 566.13625,98.21205 L 566.0925,98.1908 L 566.0475,98.17205 L 566.0025,98.1558 L 565.955,98.14205 L 565.9075,98.12955 L 565.86,98.1208 L 565.8125,98.1133 L 565.7625,98.1083 L 565.715,98.10455 L 565.665,98.10205 L 565.5675,98.10205 L 565.5175,98.09955 L 565.46875,98.09955 L 565.50875,98.09955 L 565.54875,98.09705 L 565.5875,98.09705 L 565.6275,98.09455 L 565.66625,98.0883 L 565.70625,98.0808 L 565.74375,98.0708 L 565.7825,98.06205 L 565.81875,98.0483 L 565.855,98.03205 L 565.8925,98.0133 L 565.9275,97.99205 L 565.9625,97.9708 L 565.99625,97.94705 L 566.02875,97.9208 L 566.06,97.8933 L 566.09125,97.86455 L 566.12,97.83705 L 566.14875,97.80705 L 566.17625,97.7758 L 566.20375,97.7458 L 566.23,97.71455 L 566.255,97.68205 L 566.28,97.64955 L 566.3225,97.5883 L 566.36375,97.52705 L 566.4025,97.46455 L 566.44,97.4008 L 566.475,97.3383 L 566.50875,97.27205 L 566.5425,97.20705 L 566.57375,97.1408 L 566.60375,97.0733 L 566.6325,97.00705 L 566.66,96.93705 L 566.68625,96.86955 L 566.71,96.8008 L 566.73625,96.7233 L 566.76,96.6458 L 566.78125,96.5708 L 566.80125,96.49205 L 566.81875,96.41455 L 566.83,96.3558 L 563.465,96.3558 L 563.44375,96.37205 L 563.39875,96.40455 L 563.35,96.4358 L 563.30125,96.4608 L 563.25,96.48705 L 563.2075,96.5033 L 563.165,96.51955 L 563.1225,96.5333 L 563.07875,96.5458 L 563.03375,96.55705 L 562.99,96.56705 L 562.945,96.5733 L 562.9,96.5808 L 562.855,96.5883 L 562.78,96.59455 L 562.70375,96.59955 L 562.62875,96.60455 L 550.33,96.60455 L 550.33,96.3558 L 547.04375,96.3558"
       id="path3158"
       style="fill:#0d2548;fill-opacity:1;fill-rule:evenodd;stroke:none" />
    <path
       d="M 550.33,96.3558 L 550.33,93.51455 L 550.73625,93.5108 L 551.1425,93.5058 L 551.5475,93.5008 L 551.95375,93.4958 L 552.36,93.49205 L 552.76625,93.48955 L 553.1725,93.48455 L 553.57875,93.48205 L 553.985,93.47955 L 554.39,93.4783 L 554.79625,93.4758 L 555.2025,93.4733 L 557.6225,93.4733 L 558.02375,93.4758 L 558.425,93.4783 L 558.825,93.47955 L 559.22625,93.48455 L 560.0275,93.49455 L 560.4275,93.4983 L 560.82875,93.5033 L 561.22875,93.5083 L 561.63,93.51705 L 562.03,93.52455 L 562.43125,93.53205 L 562.50375,93.53205 L 562.5775,93.5333 L 562.65,93.5383 L 562.72375,93.5408 L 562.79625,93.5483 L 562.87,93.55705 L 562.915,93.56455 L 562.96,93.5708 L 563.005,93.5808 L 563.04875,93.58955 L 563.0925,93.60205 L 563.13625,93.6158 L 563.18,93.62955 L 563.2225,93.6458 L 563.26375,93.66455 L 563.315,93.6883 L 563.365,93.71705 L 563.4125,93.74705 L 563.4575,93.78205 L 563.50125,93.81955 L 563.5425,93.85705 L 563.58,93.89955 L 563.61375,93.94455 L 563.645,93.9883 L 563.67375,94.0358 L 563.7,94.08455 L 563.7225,94.1358 L 563.74,94.1758 L 563.755,94.2208 L 563.7675,94.2633 L 563.78,94.30455 L 563.79,94.34955 L 563.8,94.39205 L 563.8075,94.4358 L 563.81375,94.4808 L 563.81875,94.5258 L 563.82625,94.5983 L 563.83125,94.6708 L 563.83375,94.7433 L 563.835,94.8183 L 563.83625,94.8908 L 563.83625,95.03455 L 563.83625,95.10205 L 563.83625,95.13705 L 563.83625,95.17205 L 563.83625,95.24705 L 563.835,95.32205 L 563.83375,95.39955 L 563.83,95.47205 L 563.825,95.54955 L 563.8175,95.62455 L 563.8125,95.66955 L 563.805,95.7133 L 563.7975,95.7583 L 563.7875,95.80455 L 563.77625,95.84705 L 563.76375,95.89205 L 563.75,95.9333 L 563.73375,95.9783 L 563.7175,96.0183 L 563.6925,96.06955 L 563.66625,96.11955 L 563.63625,96.1683 L 563.6025,96.2133 L 563.5675,96.25705 L 563.52875,96.29955 L 563.4875,96.33705 L 563.465,96.3558 L 566.83,96.3558 L 566.83375,96.33455 L 566.8475,96.25455 L 566.8575,96.1758 L 566.865,96.0983 L 566.87125,96.0158 L 566.88,95.88455 L 566.8875,95.7558 L 566.89375,95.62455 L 566.89875,95.4933 L 566.90375,95.36455 L 566.90625,95.2308 L 566.9075,95.10205 L 566.9075,94.9708 L 566.90625,94.83955 L 566.90375,94.7083 L 566.89875,94.57705 L 566.8925,94.4458 L 566.885,94.31705 L 566.875,94.1858 L 566.86375,94.05455 L 566.85125,93.9233 L 566.83625,93.79455 L 566.81875,93.66455 L 566.8,93.5333 L 566.7775,93.40455 L 566.75375,93.2758 L 566.7275,93.14955 L 566.69875,93.0208 L 566.6675,92.89455 L 566.63375,92.76705 L 566.6125,92.69205 L 566.59,92.61955 L 566.56625,92.54705 L 566.54125,92.47455 L 566.51625,92.40205 L 566.48875,92.33205 L 566.46,92.2583 L 566.43,92.1883 L 566.39875,92.1183 L 566.36625,92.0483 L 566.33125,91.97955 L 566.295,91.91455 L 566.2575,91.8458 L 566.2175,91.7808 L 566.185,91.72955 L 566.15,91.67705 L 566.11375,91.6283 L 566.0775,91.57955 L 566.03875,91.53205 L 566,91.4833 L 565.9575,91.4383 L 565.91625,91.39455 L 565.8725,91.35205 L 565.82625,91.30955 L 565.78,91.26955 L 565.7325,91.22955 L 565.68375,91.19205 L 565.635,91.15955 L 565.585,91.12705 L 565.53375,91.0958 L 565.4825,91.0658 L 565.43,91.0383 L 565.37625,91.01205 L 565.32125,90.9858 L 565.26625,90.9633 L 565.21125,90.94205 L 565.155,90.9233 L 565.0975,90.90455 L 565.04,90.8883 L 564.9825,90.8708 L 564.90125,90.85205 L 564.81875,90.8333 L 564.73625,90.81955 L 564.65375,90.8058 L 564.57,90.7958 L 564.48625,90.78705 L 564.4025,90.77955 L 564.31875,90.7733 L 564.235,90.7683 L 564.15125,90.7633 L 564.06625,90.7583 L 563.9825,90.75705 L 563.89875,90.75455 L 563.815,90.75205 L 563.395,90.74205 L 562.97625,90.7358 L 562.5575,90.7233 L 562.1375,90.71705 L 561.71875,90.70955 L 561.29875,90.7008 L 560.88,90.6958 L 560.46125,90.6883 L 560.04125,90.6833 L 559.6225,90.67955 L 559.2025,90.67455 L 558.78375,90.66955 L 558.365,90.6658 L 557.945,90.6633 L 557.52625,90.6608 L 557.10625,90.6583 L 556.6875,90.6583 L 556.2675,90.6558 L 555.42875,90.6558 L 555.01,90.6583 L 554.59,90.6583 L 554.17125,90.6608 L 553.7525,90.6633 L 553.3325,90.6658 L 552.91375,90.66955 L 552.49375,90.67455 L 552.075,90.67955 L 551.23625,90.6883 L 550.81625,90.6958 L 550.3975,90.70205 L 549.97875,90.70955 L 549.55875,90.71705 L 549.14,90.7258 L 548.72,90.7358 L 548.30125,90.74455 L 547.8825,90.75455 L 547.46375,90.7658 L 547.04375,90.7758 L 547.04375,96.3558 L 550.33,96.3558"
       id="path3160"
       style="fill:#0d2548;fill-opacity:1;fill-rule:evenodd;stroke:none" />
    <path
       d="M 598.98875,92.6033 L 598.96,92.65955 L 598.92,92.73705 L 598.88125,92.81455 L 598.69375,93.18455 L 598.5075,93.55705 L 598.3225,93.92955 L 598.1375,94.30205 L 597.9525,94.6758 L 597.77,95.0508 L 597.5875,95.4233 L 597.40625,95.7983 L 597.22625,96.1733 L 597.04625,96.5483 L 596.8675,96.9233 L 596.69,97.3008 L 596.5125,97.6758 L 596.33625,98.05205 L 596.16125,98.42955 L 595.98625,98.80705 L 595.8125,99.18455 L 595.64,99.56205 L 595.46875,99.94205 L 595.2975,100.3208 L 595.1275,100.7008 L 594.9575,101.0808 L 594.79,101.4633 L 594.6225,101.84205 L 594.45625,102.22455 L 594.29,102.60455 L 597.9425,102.60455 L 598.11125,102.22705 L 598.28,101.84705 L 598.45,101.46705 L 598.62125,101.0883 L 598.79375,100.7108 L 598.9675,100.3333 L 599.14125,99.9558 L 599.31625,99.5808 L 612.47375,99.5808 L 612.64875,99.9558 L 612.8225,100.3333 L 612.995,100.7108 L 613.1675,101.0883 L 613.33875,101.46705 L 613.51,101.84705 L 613.67875,102.22705 L 613.8475,102.60455 L 617.49875,102.60455 L 617.33375,102.22455 L 617.1675,101.84205 L 617,101.4633 L 616.83125,101.0808 L 616.6625,100.7008 L 616.4925,100.3208 L 616.32125,99.94205 L 616.15,99.56205 L 615.97625,99.18455 L 615.80375,98.80705 L 615.62875,98.42955 L 615.45375,98.05205 L 615.2775,97.6758 L 615.1,97.3008 L 614.9225,96.9233 L 614.74375,96.5483 L 614.56375,96.1733 L 614.3825,95.7983 L 614.20125,95.4233 L 614.02,95.0508 L 613.83625,94.6758 L 613.6525,94.30205 L 613.4675,93.92955 L 613.2825,93.55705 L 613.09625,93.18455 L 612.90875,92.81455 L 612.86875,92.73705 L 612.82875,92.65955 L 612.80125,92.6033 L 598.98875,92.6033 z M 600.73375,96.60455 L 600.89875,96.26955 L 601.06375,95.93205 L 601.23,95.5958 L 601.39625,95.2608 L 601.56375,94.9258 L 601.7325,94.5908 L 601.90125,94.2583 L 601.92,94.2208 L 601.93875,94.1833 L 601.9575,94.1483 L 601.9775,94.1108 L 601.99875,94.0758 L 602.02,94.03955 L 602.0425,94.00455 L 602.065,93.97205 L 602.09,93.93705 L 602.11625,93.90705 L 602.14375,93.8758 L 602.17375,93.8458 L 602.2025,93.81955 L 602.23375,93.79455 L 602.26625,93.7708 L 602.29875,93.74705 L 602.33375,93.7283 L 602.37,93.70955 L 602.40625,93.6958 L 602.44375,93.67955 L 602.48125,93.66705 L 602.5225,93.6558 L 602.56625,93.6458 L 602.60875,93.63705 L 602.6525,93.6283 L 602.69625,93.6233 L 602.74,93.6183 L 602.78375,93.6133 L 602.8275,93.6083 L 602.87125,93.60705 L 603.19,93.5833 L 603.5075,93.55955 L 603.825,93.5408 L 604.14375,93.52705 L 604.46125,93.5133 L 604.78,93.5008 L 605.09875,93.49455 L 605.4175,93.48955 L 605.73625,93.48705 L 606.05375,93.48705 L 606.3725,93.48955 L 606.69125,93.49455 L 607.01,93.5008 L 607.3275,93.5133 L 607.64625,93.52705 L 607.965,93.5408 L 608.2825,93.55955 L 608.6,93.5833 L 608.91875,93.60705 L 608.96125,93.6083 L 609.05,93.6183 L 609.09375,93.6233 L 609.1375,93.6283 L 609.18,93.63705 L 609.22375,93.6458 L 609.26625,93.6558 L 609.30875,93.66705 L 609.34625,93.67955 L 609.38375,93.6958 L 609.42,93.70955 L 609.45625,93.7283 L 609.49,93.74705 L 609.52375,93.7708 L 609.55625,93.79455 L 609.5875,93.81955 L 609.61625,93.8458 L 609.64625,93.8758 L 609.6725,93.90705 L 609.7,93.93705 L 609.72375,93.97205 L 609.7475,94.00455 L 609.77,94.03955 L 609.79125,94.0758 L 609.8125,94.1108 L 609.8325,94.1483 L 609.85125,94.1833 L 609.87,94.2208 L 609.88875,94.2583 L 610.0575,94.5908 L 610.225,94.9258 L 610.3925,95.2608 L 610.56,95.5958 L 610.72625,95.93205 L 610.89125,96.26955 L 611.05625,96.60455 L 600.73375,96.60455"
       id="path3162"
       style="fill:#0d2548;fill-opacity:1;fill-rule:evenodd;stroke:none" />
    <path
       d="M 612.80125,92.6033 L 612.79,92.58205 L 612.74875,92.50455 L 612.7075,92.42705 L 612.66625,92.3508 L 612.62375,92.2758 L 612.58,92.2008 L 612.535,92.1258 L 612.48875,92.05205 L 612.44125,91.97955 L 612.39125,91.90705 L 612.34,91.83705 L 612.2875,91.76955 L 612.2325,91.7008 L 612.18625,91.64705 L 612.14,91.5933 L 612.09,91.54205 L 612.04,91.48955 L 611.98875,91.4408 L 611.93625,91.39455 L 611.88125,91.34955 L 611.82625,91.30455 L 611.76875,91.2608 L 611.71125,91.2208 L 611.65125,91.1808 L 611.59125,91.1458 L 611.52875,91.1083 L 611.46625,91.0758 L 611.40125,91.04455 L 611.33625,91.01455 L 611.26875,90.9858 L 611.20125,90.9608 L 611.13375,90.93705 L 611.065,90.9158 L 610.995,90.89455 L 610.925,90.8758 L 610.855,90.85955 L 610.785,90.8433 L 610.7025,90.82705 L 610.62,90.8133 L 610.5375,90.8008 L 610.45375,90.78955 L 610.37125,90.77955 L 610.2875,90.7708 L 610.20375,90.7658 L 610.12125,90.7583 L 610.0375,90.75205 L 609.95375,90.74705 L 609.87,90.74455 L 609.78625,90.73955 L 609.425,90.7208 L 609.06375,90.70705 L 608.7025,90.6933 L 608.34125,90.68205 L 607.98,90.67205 L 607.61875,90.6633 L 607.2575,90.6558 L 604.5325,90.6558 L 604.17125,90.6633 L 603.81,90.67205 L 603.44875,90.68205 L 603.0875,90.6933 L 602.72625,90.70705 L 602.365,90.7208 L 602.00375,90.73955 L 601.92,90.74455 L 601.83625,90.74705 L 601.7525,90.75205 L 601.66875,90.7583 L 601.585,90.7658 L 601.5025,90.7708 L 601.41875,90.77955 L 601.33625,90.78955 L 601.2525,90.8008 L 601.17,90.8133 L 601.0875,90.82705 L 601.005,90.8433 L 600.93375,90.85955 L 600.86375,90.8758 L 600.79375,90.89455 L 600.725,90.9158 L 600.65625,90.93705 L 600.5875,90.9608 L 600.52125,90.9858 L 600.45375,91.01455 L 600.3875,91.04455 L 600.32375,91.0758 L 600.26,91.1083 L 600.19875,91.1458 L 600.1375,91.1808 L 600.07875,91.2208 L 600.02,91.2608 L 599.96375,91.30455 L 599.9075,91.34955 L 599.85375,91.39455 L 599.80125,91.4408 L 599.75,91.48955 L 599.69875,91.54205 L 599.65,91.5933 L 599.6025,91.64705 L 599.5575,91.7008 L 599.5025,91.76955 L 599.45,91.83705 L 599.39875,91.90705 L 599.34875,91.97955 L 599.30125,92.05205 L 599.255,92.1258 L 599.21,92.2008 L 599.16625,92.2758 L 599.12375,92.3508 L 599.08125,92.42705 L 599.04,92.50455 L 599,92.58205 L 598.98875,92.6033 L 612.80125,92.6033"
       id="path3164"
       style="fill:#0d2548;fill-opacity:1;fill-rule:evenodd;stroke:none" />
    <path
       d="M 618.575,90.6558 L 618.575,102.60705 L 621.68125,102.60705 L 621.68125,94.3383 L 635.62625,102.60705 L 638.67125,102.60705 L 638.67125,90.6558 L 635.565,90.6558 L 635.565,98.92455 L 622.9725,91.45705 L 622.86625,91.3958 L 622.75875,91.3383 L 622.65,91.27955 L 622.54,91.2258 L 622.42875,91.1733 L 622.31625,91.12455 L 622.20375,91.07705 L 622.08875,91.0333 L 621.97375,90.9883 L 621.8575,90.9483 L 621.74125,90.9108 L 621.62375,90.8758 L 621.505,90.8433 L 621.38625,90.8158 L 621.26625,90.78705 L 621.14625,90.7633 L 621.025,90.73955 L 620.90375,90.7208 L 620.7825,90.70455 L 620.66,90.6883 L 620.53875,90.67705 L 620.41625,90.66705 L 620.29375,90.6608 L 620.17125,90.6583 L 620.0475,90.6558 L 618.575,90.6558"
       id="path3166"
       style="fill:#0d2548;fill-opacity:1;fill-rule:nonzero;stroke:none" />
    <path
       d="M 640.9425,102.60705 L 640.9425,90.6558 L 642.415,90.6558 L 642.5375,90.6583 L 642.66,90.6608 L 642.78375,90.66705 L 642.90625,90.67705 L 643.0275,90.6883 L 643.15,90.70455 L 643.27125,90.7208 L 643.3925,90.73955 L 643.5125,90.7633 L 643.63375,90.78705 L 643.7525,90.8158 L 643.8725,90.8433 L 643.99125,90.8758 L 644.10875,90.9108 L 644.225,90.9483 L 644.34125,90.9883 L 644.45625,91.0333 L 644.57125,91.07705 L 644.68375,91.12455 L 644.79625,91.1733 L 644.9075,91.2258 L 645.0175,91.27955 L 645.12625,91.3383 L 645.23375,91.3958 L 645.34,91.45705 L 657.93125,98.92455 L 657.93125,90.6558 L 661.03875,90.6558 L 661.03875,102.60705 L 657.9925,102.60705 L 644.04875,94.3383 L 644.04875,102.60705 L 640.9425,102.60705"
       id="path3168"
       style="fill:#0d2548;fill-opacity:1;fill-rule:nonzero;stroke:none" />
    <path
       d="M 581.14625,98.80205 L 573.4975,91.8083 L 573.42875,91.7483 L 573.36,91.68705 L 573.29,91.6283 L 573.21875,91.56955 L 573.1475,91.5133 L 573.07375,91.45955 L 572.99875,91.4083 L 572.9225,91.35705 L 572.845,91.30705 L 572.76625,91.2608 L 572.68625,91.2158 L 572.605,91.1733 L 572.5225,91.13205 L 572.44,91.09455 L 572.355,91.0583 L 572.27,91.0233 L 572.185,90.9908 L 572.0975,90.9608 L 572.01125,90.93455 L 571.9225,90.9083 L 571.83375,90.8858 L 571.745,90.86455 L 571.655,90.8458 L 571.565,90.82955 L 571.475,90.8158 L 571.38375,90.8033 L 571.2925,90.79455 L 571.20125,90.78705 L 571.11,90.78205 L 571.01875,90.77705 L 570.92625,90.7758 L 569.0775,90.7758 L 569.0775,102.60705 L 572.36375,102.60705 L 572.36375,95.01455 L 580.6675,102.60705 L 581.625,102.60705 L 589.92875,95.01455 L 589.92875,102.60705 L 593.215,102.60705 L 593.215,90.7758 L 591.36625,90.7758 L 591.275,90.77705 L 591.18375,90.78205 L 591.0925,90.78705 L 591,90.79455 L 590.90875,90.8033 L 590.81875,90.8158 L 590.7275,90.82955 L 590.6375,90.8458 L 590.5475,90.86455 L 590.45875,90.8858 L 590.37,90.9083 L 590.2825,90.93455 L 590.195,90.9608 L 590.10875,90.9908 L 590.0225,91.0233 L 589.9375,91.0583 L 589.85375,91.09455 L 589.77,91.13205 L 589.68875,91.1733 L 589.60625,91.2158 L 589.5275,91.2608 L 589.44875,91.30705 L 589.37,91.35705 L 589.295,91.4083 L 589.22,91.45955 L 589.14625,91.5133 L 589.07375,91.56955 L 589.0025,91.6283 L 588.9325,91.68705 L 588.86375,91.7483 L 588.795,91.8083 L 581.14625,98.80205"
       id="path3170"
       style="fill:#0d2548;fill-opacity:1;fill-rule:nonzero;stroke:none" />
    <path
       d="M 500.16,106.7883 L 661.03875,106.7883 L 661.03875,104.63667 L 500.16,104.63667 L 500.16,106.7883 z"
       id="path3172"
       style="fill:#0d2548;fill-opacity:1;fill-rule:nonzero;stroke:none" />
    <path
       d="M 513.005,95.4533 L 521.59125,90.7758 L 518.4375,90.7758 L 518.24375,90.77705 L 518.04875,90.77955 L 517.855,90.78455 L 517.66125,90.79455 L 517.46625,90.8058 L 517.3,90.81705 L 517.13375,90.83205 L 516.9675,90.8508 L 516.8025,90.8708 L 516.6375,90.89455 L 516.4725,90.9233 L 516.34375,90.9483 L 516.215,90.97205 L 516.0875,91.0008 L 515.95875,91.0283 L 515.8325,91.05705 L 515.705,91.08705 L 515.5775,91.12205 L 515.45125,91.15455 L 515.32625,91.19205 L 515.20125,91.23205 L 515.03125,91.2883 L 514.86,91.34455 L 514.69125,91.4033 L 514.5225,91.46455 L 514.355,91.52705 L 514.1875,91.5933 L 514.0225,91.6608 L 513.85625,91.73205 L 513.6925,91.80455 L 513.52875,91.87705 L 513.36625,91.95205 L 513.20375,92.02955 L 513.04125,92.10455 L 512.88,92.1833 L 512.71875,92.2608 L 512.5575,92.3383 L 512.39625,92.4183 L 503.59375,96.74955 L 503.59375,90.6558 L 500.16,90.6558 L 500.16,102.60705 L 503.59375,102.60705 L 503.59375,100.4783 L 509.9125,97.0958 L 517.2975,102.60705 L 522.2825,102.60705 L 513.005,95.4533"
       id="path3174"
       style="fill:#0d2548;fill-opacity:1;fill-rule:nonzero;stroke:none" />
  </g>
</svg>
