<?xml version="1.0" encoding="UTF-8"?>
<!DOCTYPE svg PUBLIC "-//W3C//DTD SVG 1.1//EN" "http://www.w3.org/Graphics/SVG/1.1/DTD/svg11.dtd">
<!-- Creator: CorelDRAW -->
<svg xmlns="http://www.w3.org/2000/svg" xml:space="preserve" width="2.62031in" height="1.01014in" style="shape-rendering:geometricPrecision; text-rendering:geometricPrecision; image-rendering:optimizeQuality; fill-rule:evenodd; clip-rule:evenodd"
viewBox="0 0 1.27419 0.491206"
 xmlns:xlink="http://www.w3.org/1999/xlink">
 <defs>
  <style type="text/css">
   <![CDATA[
    .str0 {stroke:#00337F;stroke-width:0.0034652}
    .fil2 {fill:none}
    .fil1 {fill:white}
    .fil3 {fill:#00337F}
    .fil0 {fill:#003399;fill-rule:nonzero}
   ]]>
  </style>
 </defs>
 <g id="trace">
  <metadata id="CorelCorpID_0Corel-Layer"/>
  <path class="fil0" d="M0.584164 0.286407l0.0178697 0 0 -0.0609052 0.000243138 0 0.0212756 0.0609052 0.0147089 0 0.0212756 -0.061514 0.000243138 0 0 0.061514 0.0178697 0 0 -0.0868004 -0.0268658 0 -0.0192079 0.0596914 -0.000243138 0 -0.020303 -0.0596914 -0.0268658 0 0 0.0868004zm0.108926 0l0.0172628 0 0 -0.0628503 -0.0172628 0 0 0.0628503zm0.0172628 -0.0868004l-0.0172628 0 0 0.0142245 0.0172628 0 0 -0.0142245zm0.0136157 0.0868004l0.0172628 0 0 -0.0329443c0,-0.0127657 0.00401274,-0.0179922 0.0133726,-0.0179922 0.00802356,0 0.0110637,0.0051059 0.0110637,0.0154383l0 0.0354982 0.0172628 0 0 -0.038659c0,-0.0155609 -0.00461963,-0.0258933 -0.0229775,-0.0258933 -0.00729415,0 -0.0148314,0.00340394 -0.0192079,0.0104549l-0.00036375 0 0 -0.00875298 -0.0164128 0 0 0.0628503zm0.0720915 0l0.0172628 0 0 -0.0329443c0,-0.0127657 0.00401274,-0.0179922 0.0133726,-0.0179922 0.00802356,0 0.0110637,0.0051059 0.0110637,0.0154383l0 0.0354982 0.0172628 0 0 -0.038659c0,-0.0155609 -0.00461963,-0.0258933 -0.0229775,-0.0258933 -0.00729415,0 -0.0148314,0.00340394 -0.0192079,0.0104549l-0.00036375 0 0 -0.00875298 -0.0164128 0 0 0.0628503zm0.13166 -0.0272315c0.00121569,-0.0193285 -0.00911673,-0.0373208 -0.0305129,-0.0373208 -0.0190873,0 -0.0320943,0.0143452 -0.0320943,0.0331874 0,0.0194511 0.0122775,0.0330879 0.0320943,0.0330879 0.0142226,0 0.024557,-0.00634265 0.0294197,-0.0211741l-0.0151971 0c-0.00109317,0.00389021 -0.00668535,0.00814609 -0.0136157,0.00814609 -0.00960301,0 -0.014952,-0.00498529 -0.0154383,-0.0159265l0.0453443 0zm-0.0453443 -0.0109412c0.000243138,-0.00486277 0.00340394,-0.0133726 0.0143452,-0.0133726 0.00838731,0 0.0121569,0.00461963 0.0137364,0.0133726l-0.0280815 0zm0.0947014 0.0138589c0,0.0037696 -0.000486277,0.0144677 -0.0139795,0.0144677 -0.00559218,0 -0.0105775,-0.00158136 -0.0105775,-0.00802356 0,-0.0063216 0.00486277,-0.00814609 0.0102118,-0.00923925 0.00534904,-0.000972553 0.0114275,-0.00109508 0.0143452,-0.00364707l0 0.00644221zm-0.0226119 -0.0192079c0.000608803,-0.00680787 0.00486277,-0.00948239 0.0114275,-0.00948239 0.00607846,0 0.0111844,0.00109508 0.0111844,0.00850984 0,0.00705101 -0.00984614,0.00668726 -0.0204236,0.0082667 -0.0106981,0.00145883 -0.0213962,0.00486277 -0.0213962,0.0190873 0,0.0128863 0.00948239,0.0188633 0.0213962,0.0188633 0.00765981,0 0.0156834,-0.00208678 0.021153,-0.00780148 0.000122526,0.00206763 0.000608803,0.00413335 0.00121569,0.00607846l0.017506 0c-0.00157944,-0.00255199 -0.00218824,-0.0082667 -0.00218824,-0.0139795l0 -0.0327031c0,-0.0150746 -0.0150746,-0.0178697 -0.0275952,-0.0178697 -0.014102,0 -0.0285697,0.00486277 -0.0295423,0.0210305l0.0172628 0zm0.0532473 0.0656684l0.0172628 0 0 -0.0299271 0.000243138 0c0.00413335,0.00620098 0.0113069,0.00950345 0.0188442,0.00950345 0.018356,0 0.0275952,-0.0157025 0.0275952,-0.0324791 0,-0.0178716 -0.00887359,-0.0337962 -0.0285678,-0.0337962 -0.00778043,0 -0.0145883,0.00303827 -0.0187216,0.00972553l-0.000243138 0 0 -0.00802356 -0.0164128 0 0 0.0849969zm0.0317305 -0.0334516c-0.0111844,0 -0.0150746,-0.00972553 -0.0150746,-0.0199373 0,-0.0102118 0.00364707,-0.020303 0.014952,-0.020303 0.0110637,0 0.0150746,0.0103343 0.0150746,0.020303 0,0.0102118 -0.00364707,0.0199373 -0.014952,0.0199373zm0.0406041 -0.0200599c0,0.0199373 0.0127657,0.0330879 0.0324599,0.0330879 0.0198148,0 0.0325805,-0.0131505 0.0325805,-0.0330879 0,-0.020058 -0.0127657,-0.0331874 -0.0325805,-0.0331874 -0.0196942,0 -0.0324599,0.0131295 -0.0324599,0.0331874zm0.0172628 0c0,-0.0100893 0.00352646,-0.0201805 0.0151971,-0.0201805 0.0117912,0 0.0153177,0.0100912 0.0153177,0.0201805 0,0.00996867 -0.00352646,0.0200599 -0.0153177,0.0200599 -0.0116706,0 -0.0151971,-0.0100912 -0.0151971,-0.0200599zm0.0594483 0.0313648l0.0172628 0 0 -0.0868004 -0.0172628 0 0 0.0868004zm0.0313648 0l0.0172628 0 0 -0.0628503 -0.0172628 0 0 0.0628503zm0.0172628 -0.0868004l-0.0172628 0 0 0.0142245 0.0172628 0 0 -0.0142245zm0.0105775 0.0663768c0.000729415,0.0166559 0.014952,0.0221466 0.0295403,0.0221466 0.0143452,0 0.0286903,-0.0053701 0.0286903,-0.0219035 0,-0.0116706 -0.00984614,-0.0153177 -0.0199373,-0.0176266 -0.00984614,-0.00231077 -0.0195717,-0.0031608 -0.0195717,-0.00936178 0,-0.0051059 0.00571279,-0.00583532 0.00960301,-0.00583532 0.00620098,0 0.0113069,0.00182449 0.0117932,0.00850984l0.0164109 0c-0.0013363,-0.0154383 -0.0139795,-0.020058 -0.0277178,-0.020058 -0.0134932,0 -0.0273521,0.00413335 -0.0273521,0.0201805 0,0.0110618 0.00996867,0.0145883 0.0199373,0.0167765 0.0124001,0.00267452 0.0195717,0.0044971 0.0195717,0.00972553 0,0.00607846 -0.0063216,0.00802356 -0.011305,0.00802356 -0.00680787,0 -0.0131295,-0.00304019 -0.013252,-0.0105775l-0.0164109 0zm-0.47613 0.0930856c-0.00251179,0.00899612 -0.00842752,0.0144256 -0.0179099,0.0144256 -0.0115902,0 -0.017102,-0.00770002 -0.017102,-0.0188844 0,-0.0139393 0.00794316,-0.0287707 0.0240707,-0.0287707 0.00842943,0 0.0143452,0.0044569 0.0143452,0.0135353l0.00770002 0c0,-0.0133726 -0.00956472,-0.0200177 -0.0220452,-0.0200177 -0.0197746,0 -0.0317688,0.0165315 -0.0317688,0.0352531 0,0.0159667 0.00899612,0.0253821 0.0248001,0.0253821 0.0142628,0 0.0226923,-0.00795656 0.0256099,-0.0209233l-0.00770002 0zm0.0123043 0.0195315l0.0069036 0 0.00875298 -0.0419002 -0.00689019 0 -0.00876638 0.0419002zm0.0190605 -0.0578669l-0.0069706 0 -0.00178238 0.00842943 0.00696869 0 0.00178429 -0.00842943zm0.019855 0.00356667l-0.00688828 0 -0.00259411 0.0124001 -0.00705101 0 -0.0012961 0.00607846 0.00705101 0 -0.00551177 0.0260158c-0.000243138,0.0012961 -0.000403954,0.00226865 -0.000403954,0.00348434 0,0.00534904 0.00429417,0.00682127 0.00940007,0.00682127 0.00162156,0 0.00324312,-0.00016273 0.00486277,-0.000499678l0.00121569 -0.0063216c-0.0012961,0.000405869 -0.0025922,0.000729415 -0.00397062,0.000729415 -0.00210784,0 -0.00413335,-0.000649007 -0.00413335,-0.00283725 0,-0.000972553 0.00016273,-0.00178238 0.000243138,-0.00275493l0.00518631 -0.0246374 0.00834902 0 0.0012961 -0.00607846 -0.00834711 0 0.0025922 -0.0124001zm0.0459531 0.0124001l-0.00753729 0 -0.0175864 0.0333099 -0.00016273 0 -0.00486277 -0.0333099 -0.00737456 0 0.00737456 0.0419002 -0.00421376 0.006984c-0.00162156,0.00267452 -0.00340394,0.00453731 -0.00648433,0.00453731 -0.00122909,0 -0.00293106,-0.000486277 -0.00398402,-0.00113337l-0.00121569 0.00567259c0.0012961,0.000566685 0.0031608,0.000972553 0.00478236,0.000972553 0.00706441,0 0.0101429,-0.0044569 0.0135468,-0.00988826l0.0277178 -0.049045zm0.028853 0.0252864c0,-0.00867257 0.00551177,-0.0201805 0.0160471,-0.0201805 0.00753729,0 0.0110216,0.00526672 0.0110216,0.0118315 0,0.0082667 -0.00550986,0.0198569 -0.0155609,0.0198569 -0.00753729,0 -0.0115079,-0.00461963 -0.0115079,-0.0115079zm-0.00688828 8.04079e-005c0,0.0101314 0.00664514,0.0175194 0.0176668,0.0175194 0.0146706,0 0.0231785,-0.0128193 0.0231785,-0.0265155 0,-0.0111844 -0.00623927,-0.0173432 -0.0174236,-0.0173432 -0.0146687,0 -0.0234217,0.0126432 -0.0234217,0.0263393zm0.0470061 0.0165334l0.00688828 0 0.00770002 -0.0358217 0.00810397 0 0.00113528 -0.00607846 -0.00802356 0c0.00161965,-0.0051059 0.00121569,-0.0105373 0.00810397,-0.0105373 0.00105296,0 0.00218824,0.00016273 0.00324121,0.000405869l0.00113528 -0.00583532c-0.0018647,-0.000486277 -0.0038098,-0.000647092 -0.00575491,-0.000647092 -0.0110216,0 -0.0113452,0.00810397 -0.0135334,0.0166138l-0.00713333 0 -0.00121569 0.00607846 0.00713333 0 -0.00778043 0.0358217zm0.0452237 0l0.0383354 0 0.00137842 -0.00648433 -0.030555 0 0.0106981 -0.0513826 -0.00770002 0 -0.0121569 0.0578669zm0.0505728 -0.0109412c0,-0.00534904 0.00437649,-0.00688828 0.00931966,-0.00761769 0.0050255,-0.000649007 0.0104549,-0.00105488 0.0134549,-0.00283725l0.000160816 0c-0.000972553,0.00389021 -0.00137651,0.00761769 -0.00364707,0.0107785 -0.00243138,0.0037294 -0.006402,0.00551177 -0.011751,0.00551177 -0.00389021,0 -0.00753729,-0.00194511 -0.00753729,-0.00583532zm0.0051059 -0.0183158c0.000809823,-0.00543136 0.00599805,-0.00753729 0.0112648,-0.00753729 0.00364707,0 0.00842943,0.000972553 0.00842943,0.00550986 0,0.00559218 -0.00324121,0.00599805 -0.0105354,0.00664706 -0.00923925,0.000809823 -0.0211664,0.00161965 -0.0211664,0.0137766 0,0.00859216 0.00584872,0.0118468 0.0128174,0.0118468 0.00705101,0 0.011104,-0.00220165 0.0140216,-0.00609186l0.00016273 0.00016273c-0.000405869,0.00364707 0.00161965,0.00592913 0.00542945,0.00592913 0.00121569,0 0.0031608,-0.000405869 0.00421376,-0.000985954l0.00105488 -0.0051059c-0.000649007,0.000243138 -0.00154115,0.000566685 -0.00218824,0.000566685 -0.00113528,0 -0.00202743,-0.000647092 -0.00202743,-0.0025922 0,-0.00194511 0.000811737,-0.00429608 0.00113528,-0.00599805l0.00267452 -0.0114275c0.000486277,-0.00226865 0.0012961,-0.00526863 0.0012961,-0.00761769 0,-0.00850984 -0.00721183,-0.0106981 -0.0153177,-0.0106981 -0.00891379,0 -0.0167765,0.00429417 -0.018153,0.0136157l0.00688828 0zm0.0304593 0.029257l0.0069036 0 0.0031608 -0.0149118 0.0082667 -0.00737647 0.00818438 0.0222883 0.00770002 0 -0.0103745 -0.0264217 0.0182354 -0.0154785 -0.00899612 0 -0.0210707 0.0182354 -0.00016273 -0.00016273 0.00721374 -0.0340394 -0.00680787 0 -0.0122526 0.0578669zm0.0483175 -0.0249628c0.00202551,-0.00648241 0.006402,-0.0118315 0.014506,-0.0118315 0.00761961,0 0.0102941,0.00591573 0.00980785,0.0118315l-0.0243138 0zm0.0305531 0.00607846c0.000243138,-0.00113337 0.000649007,-0.00324121 0.000649007,-0.00542945 0,-0.0118334 -0.00542945,-0.0185589 -0.0177491,-0.0185589 -0.0115079,0 -0.0215589,0.0109412 -0.0215589,0.0269884 0,0.00729415 0.00389021,0.0168704 0.0177491,0.0168704 0.00915885,0 0.0167765,-0.00487617 0.0189648,-0.0141154l-0.00688828 0c-0.00194511,0.00518631 -0.00607846,0.00802356 -0.0120765,0.00802356 -0.00559218,0 -0.0108589,-0.00364707 -0.0108589,-0.0101314 0,-0.00121569 8.04079e-005,-0.00243138 0.000243138,-0.00364707l0.0315257 0zm0.0397139 -0.0106981c0,-0.00980594 -0.00802356,-0.0132903 -0.015804,-0.0132903 -0.00778043,0 -0.0155609,0.00429417 -0.0155609,0.0120746 0,0.0063216 0.00550986,0.00915885 0.011102,0.0113471 0.00551177,0.00226865 0.0110235,0.00389021 0.0110235,0.00794316 0,0.00478044 -0.0051059,0.006402 -0.00956472,0.006402 -0.005753,0 -0.0110216,-0.0018647 -0.0106981,-0.00810397l-0.00690168 0c-8.04079e-005,0.0106981 0.00738796,0.0141958 0.0169527,0.0141958 0.00810397,0 0.0171001,-0.00366048 0.0171001,-0.0129801 0,-0.00656473 -0.00559218,-0.00948239 -0.011104,-0.011753 -0.00550986,-0.00226865 -0.0110216,-0.00380789 -0.0110216,-0.0076981 0,-0.00421567 0.00470004,-0.00534904 0.00891571,-0.00534904 0.00478044,0 0.00899612,0.00243138 0.00867066,0.00721183l0.00689019 0z"/>
  <g id="_76893088">
   <path id="_76978952" class="fil1" d="M0.00032929 0.350228l0.439041 0c-0.0458459,0.0151205 -0.0737264,0.0425281 -0.0827091,0.0685229 -0.0259947,-0.0311887 -0.365787,-0.0675771 -0.356332,-0.0685229z"/>
   <path id="_77944112" class="fil2 str0" d="M0.00032929 0.350228l0.439041 0c-0.0458459,0.0151205 -0.0737264,0.0425281 -0.0827091,0.0685229 -0.0259947,-0.0311887 -0.365787,-0.0675771 -0.356332,-0.0685229"/>
   <path id="_77132320" class="fil1" d="M0.288611 0.00050925l0 0.344046c-0.0160682,-0.0359155 -0.0449002,-0.0576563 -0.0718349,-0.0647475 0.0326073,-0.0203164 0.0704163,-0.286384 0.0718349,-0.279299z"/>
   <path id="_76883288" class="fil2 str0" d="M0.288611 0.00050925l0 0.344046c-0.0160682,-0.0359155 -0.0449002,-0.0576563 -0.0718349,-0.0647475 0.0326073,-0.0203164 0.0704163,-0.286384 0.0718349,-0.279299"/>
   <path id="_78990704" class="fil3" d="M0.357136 0.0709275l0.000472875 0.344046c-0.0160682,-0.0359175 -0.0444196,-0.0576582 -0.0704163,-0.0647494 0.0316635,-0.0203221 0.0689977,-0.28639 0.0699434,-0.279297z"/>
   <path id="_76876632" class="fil2 str0" d="M0.357136 0.0709275l0.000472875 0.344046c-0.0160682,-0.0359175 -0.0444196,-0.0576582 -0.0704163,-0.0647494 0.0316635,-0.0203221 0.0689977,-0.28639 0.0699434,-0.279297z"/>
   <path id="_79341440" class="fil3" d="M0.0910658 0.419226l0.439506 0c-0.0463054,0.0151205 -0.0741916,0.0430087 -0.0827015,0.0685248 -0.0264619,-0.0311906 -0.365781,-0.067579 -0.356804,-0.0685248z"/>
   <path id="_76925688" class="fil2 str0" d="M0.0910658 0.419226l0.439506 0c-0.0463054,0.0151205 -0.0741916,0.0430087 -0.0827015,0.0685248 -0.0264619,-0.0311906 -0.365781,-0.067579 -0.356804,-0.0685248z"/>
  </g>
 </g>
</svg>
