<svg xmlns="http://www.w3.org/2000/svg" xmlns:xlink="http://www.w3.org/1999/xlink" width="234px" height="24px">
<path fill-rule="evenodd" fill="rgb(0, 0, 0)" d="M224.488,22.729 L223.700,20.912 L213.176,20.912 L212.328,22.728 L203.133,22.728 L213.116,0.604 L224.62,0.604 L233.742,22.729 L224.488,22.729 ZM218.558,8.796 L215.776,15.177 L221.282,15.177 L218.558,8.796 ZM191.520,22.728 L184.986,13.598 L180.571,17.109 L180.571,22.728 L171.618,22.729 L171.618,0.604 L180.752,0.604 L180.752,7.217 L189.100,0.604 L201.199,0.604 L191.520,8.389 L201.441,22.728 L191.520,22.728 ZM153.895,23.314 C149.777,23.314 145.970,23.21 143.577,21.686 C140.150,19.770 137.928,16.912 137.928,11.255 C137.928,7.162 139.567,4.444 142.476,2.440 C145.727,0.192 148.826,0.136 153.714,0.136 C157.840,0.136 161.234,0.151 163.998,1.541 C166.764,2.926 169.865,6.341 169.865,11.666 C169.865,17.292 166.719,20.912 162.909,22.319 C160.489,23.211 157.267,23.314 153.895,23.314 ZM153.836,5.111 C150.810,5.111 147.666,7.861 147.666,11.899 C147.666,15.939 150.748,18.398 153.714,18.398 C156.680,18.398 160.66,16.173 160.66,11.899 C160.66,7.625 157.102,5.111 153.836,5.111 ZM122.79,23.373 C115.61,23.373 108.495,22.319 108.495,16.289 C108.495,12.777 108.495,0.623 108.495,0.623 L117.600,0.623 C117.600,0.623 117.600,11.255 117.600,13.363 C117.600,15.472 119.779,17.636 122.199,17.636 C124.617,17.636 127.98,15.293 127.98,13.71 L127.98,0.623 L136.172,0.623 C136.172,0.623 136.172,12.837 136.172,15.530 C136.172,21.264 131.575,23.373 122.79,23.373 ZM100.926,9.520 C102.53,9.756 106.571,10.690 106.571,15.530 C106.571,20.368 103.265,23.334 91.487,23.334 C79.793,23.334 76.730,20.680 76.730,16.387 L88.746,16.387 C89.472,17.403 90.600,18.105 92.537,18.105 C94.473,18.105 95.280,17.12 95.199,16.308 C95.118,15.606 94.712,14.983 93.183,14.671 C84.309,13.890 76.648,13.499 76.648,7.412 C76.648,4.291 79.230,0.2 91.811,0.2 C103.829,0.2 106.87,4.526 106.87,7.256 L94.634,7.256 C94.231,6.163 92.942,5.149 90.600,5.149 C88.263,5.149 87.537,5.851 87.537,6.321 C87.537,6.787 87.780,7.335 88.828,7.489 C89.876,7.646 99.795,9.287 100.926,9.520 ZM67.374,22.708 L57.613,22.708 L57.613,6.945 L49.763,6.945 L49.763,0.623 L75.276,0.623 L75.276,7.22 L67.374,7.22 L67.374,22.708 ZM38.875,0.624 L47.613,0.623 L47.613,22.708 L38.875,22.708 L38.875,0.624 ZM26.965,9.831 L21.213,22.708 L14.357,22.708 L8.658,9.831 L8.658,22.708 L0.0,22.708 L0.1,0.624 L14.274,0.624 L17.932,8.818 L21.614,0.624 L35.757,0.624 L35.757,22.708 L26.965,22.708 L26.965,9.831 Z"/>
</svg>