<?xml version="1.0" encoding="UTF-8" standalone="no"?>
<!-- Created with Inkscape (http://www.inkscape.org/) -->
<svg
   xmlns:svg="http://www.w3.org/2000/svg"
   xmlns="http://www.w3.org/2000/svg"
   version="1.0"
   width="583.4931"
   height="132.06458"
   id="svg2544">
  <defs
     id="defs2546">
    <clipPath
       id="clipPath109">
      <path
         d="M 737.848,495.503 L 1176.9,495.503 L 1176.9,620.199 L 737.848,620.199 L 737.848,495.503 z"
         id="path111" />
    </clipPath>
    <clipPath
       id="clipPath101">
      <path
         d="M 15,15 L 1270.5,15 L 1270.5,825 L 15,825 L 15,15 z"
         id="path103" />
    </clipPath>
  </defs>
  <g
     transform="translate(-62.539143,-466.32989)"
     id="layer1">
    <g
       transform="matrix(1.25,0,0,-1.25,-838.71815,1251.2909)"
       id="g97"
       style="fill:#000000">
      <g
         clip-path="url(#clipPath101)"
         id="g99"
         style="fill:#000000">
        <g
           id="g105"
           style="fill:#000000">
          <g
             clip-path="url(#clipPath109)"
             id="g107"
             style="fill:#000000">
            <g
               transform="matrix(4.4733429,0,0,-4.6671295,764.52805,574.86798)"
               id="g113"
               style="fill:#000000">
              <path
                 d="M 0,0 L 0,-4.621 L 2.171,-4.621 C 3.447,-4.621 4.482,-3.586 4.482,-2.311 C 4.482,-1.034 3.447,0 2.171,0 L 0,0 z M -5.964,-9.063 L -5.964,8.878 L 0.001,8.878 L 0.001,4.532 L 3.84,4.529 C 7.593,4.529 10.636,1.486 10.636,-2.267 C 10.636,-6.021 7.593,-9.063 3.84,-9.063 L -5.964,-9.063 z"
                 id="path115"
                 style="fill:#000000;fill-opacity:1;fill-rule:nonzero;stroke:none" />
            </g>
            <g
               transform="matrix(4.4733429,0,0,-4.6671295,836.51308,617.16618)"
               id="g117"
               style="fill:#000000">
              <path
                 d="M 0,0 L -9.898,17.941 L -3.191,17.941 L -0.767,13.548 L 4.855,13.548 L 4.855,17.941 L 10.728,17.941 L 10.728,0 L 0,0 z M 4.855,9.063 L 1.707,9.063 L 4.855,3.356 L 4.855,9.063 z"
                 id="path119"
                 style="fill:#000000;fill-opacity:1;fill-rule:nonzero;stroke:none" />
            </g>
            <g
               transform="matrix(4.4733429,0,0,-4.6671295,1040.0233,617.16618)"
               id="g121"
               style="fill:#000000">
              <path
                 d="M 0,0 L -5.922,10.736 C -6.542,11.897 -7.766,12.687 -9.173,12.687 C -11.206,12.687 -12.855,11.038 -12.855,9.004 C -12.855,6.971 -11.206,5.322 -9.173,5.322 C -7.597,5.322 -6.252,6.313 -5.727,7.705 L -2.568,1.964 C -4.294,0.344 -6.618,-0.65 -9.173,-0.65 C -12.266,-0.65 -15.019,0.805 -16.786,3.067 C -17.103,3.474 -17.389,3.906 -17.639,4.36 L -20.195,9.004 L -21.148,10.736 C -21.768,11.897 -22.991,12.687 -24.398,12.687 C -26.432,12.687 -28.081,11.038 -28.081,9.004 C -28.081,6.971 -26.432,5.322 -24.398,5.322 C -22.822,5.322 -21.478,6.313 -20.953,7.705 L -17.793,1.965 C -19.52,0.344 -21.843,-0.65 -24.398,-0.65 C -29.73,-0.65 -34.052,3.672 -34.052,9.004 C -34.052,14.336 -29.73,18.658 -24.398,18.658 C -21.306,18.658 -18.553,17.204 -16.786,14.941 C -15.019,17.204 -12.266,18.658 -9.173,18.658 C -5.484,18.658 -2.279,16.589 -0.654,13.548 L 4.855,13.548 L 4.855,17.941 L 10.728,17.941 L 10.728,0 L 0,0 z M 4.913,9.063 L 1.765,9.063 L 4.913,3.356 L 4.913,9.063 z"
                 id="path123"
                 style="fill:#000000;fill-opacity:1;fill-rule:nonzero;stroke:none" />
            </g>
            <g
               transform="matrix(4.4733429,0,0,-4.6671295,1123.2007,574.86798)"
               id="g125"
               style="fill:#000000">
              <path
                 d="M 0,0 L 0,-4.621 L 2.172,-4.621 C 3.448,-4.621 4.483,-3.586 4.483,-2.311 C 4.483,-1.034 3.448,0 2.172,0 L 0,0 z M 11.079,8.878 L 7.588,2.559 C 9.204,1.394 10.256,-0.504 10.256,-2.648 C 10.256,-6.191 7.384,-9.063 3.841,-9.063 L -5.964,-9.063 L -5.964,8.878 L 0.001,8.878 L 0.001,4.532 L 1.968,4.53 L 4.37,8.878 L 11.079,8.878 z"
                 id="path127"
                 style="fill:#000000;fill-opacity:1;fill-rule:nonzero;stroke:none" />
            </g>
            <g
               transform="matrix(4.4733429,0,0,-4.6671295,641.51111,420.0033)"
               id="g129"
               style="fill:#000000">
              <path
                 d="M 123.468,-24.304 L 122.571,-24.304 L 122.571,-30.944 L 123.468,-30.944 L 123.468,-24.304 z"
                 id="path131"
                 style="fill:#000000;fill-opacity:1;fill-rule:nonzero;stroke:none" />
            </g>
            <g
               transform="matrix(4.4733429,0,0,-4.6671295,1218.89,533.43321)"
               id="g133"
               style="fill:#000000">
              <path
                 d="M 0,0 L -0.814,0 L -0.814,-2.978 C -0.814,-3.819 -1.054,-4.245 -1.85,-4.245 C -2.312,-4.245 -3.126,-3.949 -3.126,-2.635 L -3.126,0 L -3.94,0 L -3.94,-4.836 L -3.172,-4.836 L -3.172,-4.152 L -3.154,-4.152 C -2.978,-4.411 -2.525,-4.975 -1.692,-4.975 C -0.943,-4.975 0,-4.67 0,-3.292 L 0,0 z"
                 id="path135"
                 style="fill:#000000;fill-opacity:1;fill-rule:nonzero;stroke:none" />
            </g>
            <g
               transform="matrix(4.4733429,0,0,-4.6671295,1238.3087,548.41003)"
               id="g137"
               style="fill:#000000">
              <path
                 d="M 0,0 C -0.102,-0.648 -0.463,-1.036 -1.147,-1.036 C -2.155,-1.036 -2.478,-0.074 -2.478,0.786 C -2.478,1.619 -2.275,2.645 -1.156,2.645 C -0.611,2.645 -0.139,2.238 0,1.498 L 0.786,1.498 C 0.703,2.266 0.231,3.348 -1.184,3.348 C -2.543,3.348 -3.348,2.321 -3.348,0.925 C -3.348,-0.573 -2.627,-1.766 -1.027,-1.766 C 0.24,-1.766 0.721,-0.841 0.786,0 L 0,0 z"
                 id="path139"
                 style="fill:#000000;fill-opacity:1;fill-rule:nonzero;stroke:none" />
            </g>
          </g>
        </g>
      </g>
    </g>
  </g>
</svg>
