<?xml version="1.0" encoding="UTF-8" standalone="no"?>
<!-- Created with Inkscape (http://www.inkscape.org/) -->
<svg
   xmlns:svg="http://www.w3.org/2000/svg"
   xmlns="http://www.w3.org/2000/svg"
   version="1.0"
   width="288"
   height="157"
   id="svg2">
  <defs
     id="defs5" />
  <path
     d="M 188.69218,39.850494 C 187.67228,41.130919 176.12281,55.903747 173.76235,58.841667 C 170.19159,63.285947 169.47059,64.909927 169.47059,68.508337 C 169.47059,71.032657 170.13799,72.809028 170.72059,73.337717 C 172.78141,75.207833 176.48235,74.653144 176.9633,74.338489 C 177.51127,73.650989 177.78014,68.844852 178.25064,66.144859 C 179.71837,57.722086 185.4377,46.396445 189.37539,40.323942 C 194.39421,32.584165 208.79921,22.584473 213.05191,34.581757 C 215.36582,41.109521 208.32634,51.088947 196.29406,61.499997 C 193.11582,64.249997 189.35166,66.327801 189.69423,66.411504 C 190.89462,71.743213 195.20917,70.230977 199.24203,66.587527 C 202.99382,63.198007 206.23021,58.453867 219.73652,36.545117 C 223.11186,31.069937 228.40873,24.094077 231.50733,21.043207 C 239.73537,12.941932 246.50702,11.204966 247.38828,11.093622 C 245.97767,12.600385 243.37011,17.586049 242.97269,19.885038 C 242.48439,22.70977 243.33254,43.040247 244.31682,42.920397 C 244.67639,42.876617 248.03169,36.613157 251.77304,29.001605 C 255.51438,21.39005 260.43116,13.186317 262.55197,10.644882 C 268.79269,3.1664203 273.12873,2.2393058 274.99324,1.6431834 C 273.03998,5.3887763 272.07333,13.760012 274.08451,19.683797 C 275.24392,23.098753 275.57641,26.762257 275.26516,32.692457 C 274.83293,40.927507 274.83751,40.946017 277.16422,40.362047 C 281.27392,39.330577 282.74253,41.643767 281.98019,47.947587 C 280.445,60.642207 265.72009,77.946827 248.47059,87.327857 C 236.33896,93.925567 210.53279,103.12472 184.97059,109.96378 C 159.54001,116.76763 146.07961,120.22852 132.47059,123.46238 C 123.94559,125.48815 112.47059,128.21723 106.97059,129.52701 C 101.47059,130.83679 92.695586,132.84837 87.470586,133.9972 C 75.453755,136.63936 63.00511,141.11188 53.767692,146.1059 C 46.040858,150.28326 43.470588,150.88085 43.470588,148.5 C 43.470588,145.79238 54.789762,135.59786 61.9736,131.83542 C 71.792074,126.69312 90.214546,119.55896 116.47059,110.73129 C 145.63078,100.92721 193.20644,85.835087 214.97059,79.484757 C 237.08011,73.033657 256.98631,64.747167 268.10858,57.364627 C 273.02799,54.099307 277.47059,48.769017 277.47059,46.131967 C 277.47059,44.103477 275.9785,44.914057 269.42415,50.503237 C 262.94562,56.027767 257.55935,58.909458 252.47812,57.075244 C 249.49631,55.998877 247.90911,53.45757 246.83358,51.139015 L 246.62172,51.026157 L 242.98177,55.984767 C 237.81301,63.026037 231.61292,68.748474 226.75613,70.450015 C 222.47886,71.948524 218.70696,71.444805 216.46078,69.604159 C 212.80057,66.604782 212.47059,58.608437 212.47059,58.608437 L 209.37677,63.554217 C 200.33864,78.002547 187.21806,87.018271 181.48752,81.287721 C 179.51009,79.310291 179.18271,78.782924 178.93219,78.648937 C 177.28856,81.813637 172.16123,88.163275 166.64089,90.670695 C 161.5629,92.977185 160.05879,92.234447 156.946,89.566327 C 156.2047,88.93093 154.51233,87.132647 154.51233,87.132647 L 152.42611,90.062467 C 151.27869,91.673867 148.91511,94.477906 146.44147,95.927556 C 142.65108,98.148876 140.9585,98.087707 138.88764,97.144157 C 134.8555,95.306997 133.16684,88.240557 135.67113,83.684257 C 136.33143,82.482917 138.82392,76.774997 141.21,70.999997 C 143.59608,65.224997 145.82753,59.824997 146.16879,58.999997 C 146.51004,58.174997 146.53309,57.724997 146.22001,57.999997 C 145.90693,58.274997 142.41041,65.024997 138.44997,72.999997 C 126.69325,96.674097 120.77746,104.24688 109.59022,109.94325 C 105.19463,112.18142 97.219081,111.1323 96.046184,108.50769 C 96.305699,108.23434 94.867336,109.35065 89.877816,113.91079 C 86.922566,116.61173 82.491183,119.59992 80.023376,120.53299 C 76.463978,121.87878 75.210338,121.70673 71.568115,120.27822 C 70.2826,119.77403 68.193206,117.26361 68.193206,117.26361 L 62.282349,123.6994 C 57.381682,128.66982 47.102227,134.96497 45.880913,133.74366 C 45.593018,133.45576 47.913751,130.80816 51.038097,127.86011 C 54.162444,124.91205 58.349836,119.81222 60.910599,117 C 64.666313,112.87549 65.762245,111.42864 65.454253,111.23031 C 64.714051,107.28057 66.944832,96.290096 68.366938,92.131153 C 70.695495,85.321298 78.056954,79.55557 82.449603,77.300156 C 83.957535,76.525905 90.447406,73.857501 93.304138,75.416625 C 97.936479,77.944826 97.091195,84.006444 95.317613,89.795776 C 94.804542,91.470544 91.438739,98.864068 86.823596,102.98543 C 83.620413,105.8459 80.749091,108.15697 81.102451,108.51033 C 82.450821,109.8587 86.319906,109.89178 90.320546,106.99373 C 92.603076,105.34028 93.660993,104.43471 94.553926,103.24373 C 93.043903,98.997797 95.526831,93.422873 96.213766,89.996947 C 100.09284,77.059095 114.54838,61.788198 122.23556,61.999997 C 125.60155,62.094033 130.07039,64.629414 130.31779,68.885548 C 130.88796,78.694327 117.77993,92.213489 109.32894,95.286402 C 108.76776,95.774607 110.61887,97.635394 113.80692,97.635394 C 118.94819,97.635394 129.36212,81.379097 136.56207,63.053607 C 140.00039,54.302327 147.14984,45.15381 150.50432,45.15381 C 149.98676,45.294841 149.50799,46.772648 148.06028,49.868158 C 146.11599,54.02546 146.94125,53.880687 151.47059,53.273177 C 153.71715,52.971847 155.10682,51.457295 155.59185,52.841946 C 155.76533,53.337191 154.16801,57.087247 152.57597,60.072417 C 147.49538,69.598827 145.01218,77.698497 146.30337,80.532337 C 147.07134,82.217837 148.23687,82.999997 149.98054,82.999997 C 152.89923,82.999997 152.82592,83.172447 154.44386,72.499997 C 156.60574,58.239457 166.29717,35.271767 174.83394,24.177582 C 182.95276,13.626577 190.51006,9.9445505 194.86502,13.883341 C 198.69853,17.350518 194.15294,32.994826 188.69218,39.850494 z M 105.41204,126.69266 C 105.44926,126.69579 105.84811,124.51206 105.86593,124.47243 C 105.89075,124.39141 107.7199,123.80586 107.77138,123.88558 C 107.81117,123.85156 108.3133,125.64647 108.30592,125.63512 C 108.38486,125.71009 110.35109,125.02127 110.40561,124.96283 C 110.46585,124.98018 107.9324,118.61525 107.84202,118.62232 C 107.6406,118.70263 105.29313,119.31979 105.31982,119.32582 C 105.28843,119.3815 103.1262,127.52181 103.07487,127.52107 C 103.03663,127.67697 102.93218,127.61103 105.41204,126.69266 z M 106.22464,120.88534 C 106.22464,120.98213 106.8329,120.7483 107.04905,120.7483 C 107.09256,120.7483 107.53735,122.42579 107.59199,122.53875 C 107.62112,122.59896 105.97058,123.06113 105.88873,122.99517 C 105.77919,122.90689 106.22464,121.71034 106.22464,120.88534 z M 116.82351,120.8729 C 116.81939,120.83915 114.41965,121.47093 114.29674,121.4943 C 114.3188,121.51118 114.11515,116.64522 114.12925,116.60262 C 114.11592,116.60963 112.02173,117.32267 112.03983,117.31829 C 112.0508,117.34165 111.99337,124.34362 112.0203,124.5977 C 112.03318,124.71923 116.70856,123.13087 116.75623,123.16896 C 116.81567,123.21647 116.84827,121.07561 116.82351,120.8729 z M 123.62031,118.82163 C 123.57022,118.79806 120.42701,119.71051 120.21308,119.6635 C 120.13109,119.81377 120.24193,114.58253 120.14175,114.52329 C 120.09166,114.47516 118.64295,115.06551 118.09295,115.06551 C 118.03594,115.06551 118.22971,122.79436 118.23127,122.74583 C 118.35936,122.84888 123.37613,121.27681 123.79102,121.13103 C 123.96887,121.06853 123.62031,118.91351 123.62031,118.82163 z M 130.20563,113.54229 C 130.24905,113.44828 131.77729,112.96814 131.86822,112.96567 C 131.80976,112.8198 131.48647,110.53375 131.44158,110.54432 C 131.22396,110.59555 125.87196,112.35418 125.75141,112.44319 C 125.63086,112.5322 125.85865,114.33238 125.93801,114.63716 C 125.96591,114.74428 127.97377,113.90013 128.03908,114.15427 C 128.11783,114.46075 128.64448,119.63092 128.72642,119.92236 C 128.71433,119.93176 130.87359,119.46481 131.03872,119.36702 C 130.88753,119.014 130.23951,113.64055 130.20563,113.54229 z M 135.19349,118.49001 C 135.18061,118.48315 134.81165,115.83332 134.83,115.80825 C 134.80947,115.80519 136.68965,115.30815 136.67207,115.31233 C 136.6903,115.31676 137.3021,118.11866 137.27871,118.08147 C 137.29113,118.11492 139.28166,117.57979 139.33698,117.59363 C 139.33385,117.57191 137.70862,108.84038 137.60384,108.7261 C 137.59826,108.74408 135.7341,109.23522 135.77683,109.28531 C 135.7768,109.30801 136.27148,113.02143 136.25723,113.03766 C 136.24847,113.04211 134.45987,113.47889 134.51285,113.48215 C 134.51264,113.48248 134.00607,109.67797 134.00485,109.75791 C 134.00485,109.75791 132.32032,110.16973 132.32032,110.14224 C 132.32032,110.16238 133.47537,118.98149 133.39781,118.98149 C 133.40834,118.9698 135.18458,118.48249 135.19349,118.49001 z M 142.09788,117.09211 C 142.17539,117.1919 142.05318,115.05381 142.05819,114.90271 C 142.12463,114.85882 143.85871,114.43165 143.87943,114.45759 C 143.98292,114.53558 144.59098,116.56415 144.59,116.55934 C 144.83333,116.55453 146.66242,116.15336 146.65112,116.14138 C 146.62852,116.1174 143.50954,107.19196 143.48655,107.21882 C 143.45539,107.25522 140.4575,108.03852 140.47378,108.19446 C 140.48222,108.27529 140.14943,117.45557 140.28813,117.47482 C 140.50474,117.50489 142.07553,117.12708 142.09788,117.09211 z M 141.81791,110.12662 C 141.86137,110.12552 142.55201,109.88977 142.60006,109.88977 C 142.58706,109.88977 143.38925,112.32484 143.38925,112.36664 C 143.3689,112.41945 141.87957,112.71492 141.78806,112.71492 C 141.7576,112.71492 141.8762,110.18877 141.81791,110.12662 z M 149.38919,107.90408 C 149.43928,107.91331 151.26604,107.32127 151.36834,107.26022 C 151.38629,107.24951 151.18438,105.00678 151.17661,104.97394 C 151.2267,104.92685 145.44142,106.76485 145.42054,106.76441 C 145.42596,106.82951 145.54179,109.05153 145.55955,109.05898 C 145.61668,109.08294 147.43478,108.5072 147.5285,108.60071 C 147.58499,108.65707 148.37518,115.90439 148.39608,115.88404 C 148.42688,115.88404 150.45081,115.36287 150.42856,115.34044 C 150.42666,115.3587 149.38919,107.93543 149.38919,107.90408 z M 159.431,113.32817 C 159.46182,113.12854 158.32131,105.34674 158.3473,105.28423 C 158.45291,105.24488 160.04055,104.77523 160.01803,104.70087 C 159.99004,104.60847 159.80692,102.13925 159.69355,102.27004 C 159.64218,102.3293 153.54341,104.07592 153.59569,104.31112 C 153.57992,104.37871 153.74665,106.43237 153.75401,106.46776 C 153.79009,106.64148 156.00333,105.81252 156.10132,105.94484 C 156.19931,105.98469 157.12455,114.00743 157.12213,114.00743 C 157.30224,114.00743 159.52347,113.43533 159.431,113.32817 z M 163.76522,106.90134 C 163.70732,106.92473 165.24588,106.54352 165.2245,106.61842 C 165.29099,106.74693 166.04358,111.53329 166.00112,111.54321 C 166.11225,111.54119 168.05663,111.02505 168.01662,110.9712 C 168.02204,110.88237 166.37747,100.96273 166.38145,100.31876 C 166.38544,100.29273 164.55729,100.8938 164.54082,100.85572 C 164.52394,101.00593 165.04902,104.88781 165.10589,104.8947 C 165.06884,104.89971 163.61176,105.21012 163.52503,105.2109 C 163.42302,105.42856 162.90107,101.33739 162.832,101.25634 C 162.87551,101.28774 160.87517,101.8505 160.85341,101.84657 C 160.83165,101.89638 162.31163,112.4222 162.28861,112.47134 C 162.28394,112.44558 164.34177,112.03028 164.46197,111.9181 C 164.56063,111.96124 163.791,106.97795 163.76522,106.90134 z M 174.30498,109.20343 C 174.32638,109.17656 174.05943,107.67807 173.97883,107.58481 C 174.03257,107.51842 170.65638,108.45468 170.58385,108.51256 C 170.50856,108.51256 170.06465,105.8011 170.12246,105.68041 C 170.18026,105.58658 172.56294,105.06049 172.70798,105.05656 C 172.81615,105.04811 172.52417,103.55311 172.4794,103.23462 C 172.43463,103.23852 170.1074,103.93095 169.97731,103.88485 C 169.95122,103.77086 169.66303,101.55848 169.70703,101.45294 C 169.91835,101.40331 172.65887,100.60174 172.73662,100.5424 C 172.75777,100.20879 172.5711,99.083756 172.54487,98.579571 C 172.65897,98.456439 167.67362,99.956706 167.549,100.00714 C 167.6002,100.09299 168.93452,110.38351 169.06665,110.59673 C 169.29992,110.66806 174.22983,109.23029 174.30498,109.20343 z M 180.48833,107.62914 C 180.51369,107.59408 180.90765,103.35067 180.90638,103.36178 C 181.82736,104.62671 182.73174,107.09413 182.82636,106.96223 C 182.85258,106.9931 184.22621,106.65797 184.30001,106.64963 C 184.28427,106.62834 184.72244,94.763647 184.66141,94.621197 C 184.59191,94.458971 182.87777,95.18941 182.79287,95.270012 C 182.74762,95.312975 182.5105,100.9252 182.47086,100.96575 C 182.45449,101.06165 180.92302,96.226554 180.8342,96.047004 C 180.80815,95.970111 179.16437,96.643068 179.17622,96.62299 C 179.24572,96.669857 178.59406,108.2104 178.67962,108.2104 C 178.74142,108.21965 180.51359,107.67117 180.48833,107.62914 z M 188.43355,105.20035 C 188.4379,105.28436 188.89363,101.85738 188.93478,101.80667 C 188.95141,101.71328 190.28607,101.38923 190.3305,101.36849 C 190.35826,101.46262 190.86244,104.7099 190.88921,104.67451 C 190.99659,104.63911 193.07775,104.03634 193.0021,103.95199 C 193.00705,103.03475 190.59823,93.02326 190.50953,92.922752 C 190.47092,92.926026 187.78781,93.765128 187.75555,93.910908 C 187.69634,94.048998 185.86669,106.02725 185.88366,106.02725 C 185.93108,106.02725 188.3171,105.41151 188.43355,105.20035 z M 188.94225,99.741123 C 188.99968,99.625627 189.22105,97.247103 189.31431,97.175856 C 189.3474,97.209263 189.79817,97.103547 189.79632,97.092004 C 189.82319,97.143436 190.37673,99.376468 190.33721,99.376468 C 190.24395,99.430203 188.96911,99.828787 188.94225,99.741123 z M 88.553473,93.227541 C 90.03316,90.902333 94.946101,79.924198 88.457264,80.79495 C 83.829268,81.415991 79.559067,89.546102 78.743272,95.256656 C 78.3795,97.80306 79.591843,101.74234 79.591843,101.74234 C 83.20582,99.504614 86.110297,97.066794 88.553473,93.227541 z M 196.05687,103.03147 C 196.11854,100.61852 196.16275,97.84708 196.18309,97.949016 C 196.9119,98.908825 197.98025,101.55893 198.2931,101.65497 C 198.42452,101.57936 198.49572,98.652764 199.01277,96.350622 C 199.01528,96.308103 200.07609,99.783589 200.40737,101.22942 C 200.4518,101.34701 202.22289,100.53408 202.31076,100.54557 C 202.28282,100.51391 200.26333,90.105597 200.26333,90.073659 C 200.26333,89.92549 198.48988,90.496342 198.50442,90.65626 C 198.46421,90.655396 197.76632,94.693721 197.6555,94.755788 C 197.57155,94.76412 196.03567,91.366877 196.01675,91.346465 C 196.07194,91.362122 194.02025,91.98099 194.02028,92.106586 C 194.03399,92.20029 194.21419,103.18675 194.19145,103.64087 C 194.28471,103.58714 196.0683,103.07317 196.05687,103.03147 z M 209.2482,98.408656 C 209.50678,98.414988 208.82702,96.217068 208.79972,96.248946 C 208.79908,96.140066 205.62445,97.350068 205.53949,97.347419 C 205.53731,97.305796 205.14853,94.63854 205.19265,94.561678 C 205.2099,94.565418 207.66835,93.742985 207.64136,93.658609 C 207.71241,93.590757 207.44136,92.244204 207.35222,92.109837 C 207.2398,92.034577 204.90568,93.097332 204.79956,92.841949 C 204.79144,92.714471 204.35285,90.815892 204.38567,90.45782 C 204.42853,90.481873 207.78685,89.295537 207.81117,89.322404 C 207.91075,89.376139 207.49432,87.774634 207.47687,87.718058 C 207.52696,87.587866 202.07705,89.368652 202.02427,89.460995 C 202.02928,89.586678 203.4512,100.21674 203.55684,100.20983 C 203.84281,100.19112 208.90471,98.518122 209.2482,98.408656 z M 216.66615,84.091774 C 216.89197,83.781514 214.74467,84.743865 214.71098,84.719521 C 214.68237,84.695036 215.38489,97.152176 215.48096,97.10196 C 215.62051,97.029019 217.17529,96.329916 217.32472,96.344796 C 217.55098,96.367326 216.66502,84.106369 216.66615,84.091774 z M 221.09581,94.938374 C 221.13027,94.731017 221.03449,88.846243 221.16922,89.159621 C 221.73899,90.484923 223.27583,93.965257 223.3843,93.937064 C 223.33166,93.908871 224.30259,89.750235 224.49579,88.157217 C 224.52289,87.933828 225.38699,93.203798 225.52834,93.214079 C 225.45513,93.25868 227.0706,92.768859 227.21847,92.620414 C 227.21474,92.367623 225.92099,80.799294 225.70931,80.836149 C 225.34341,80.910633 223.8343,81.538497 223.79093,81.521294 C 223.76323,81.504092 223.37685,85.002999 222.89138,86.160106 C 222.82213,86.072003 221.41203,82.57258 221.44891,82.557115 C 221.378,82.551952 219.29986,83.359347 219.13519,83.373485 C 218.99646,83.542505 219.33132,95.586588 219.41688,95.537054 C 219.69836,95.483348 221.02679,95.001563 221.09581,94.938374 z M 230.47059,86.25357 C 235.09384,85.889012 235.84175,77.448877 227.48138,80.272231 C 227.36011,80.312659 229.08057,91.774196 229.07918,91.849939 C 229.21708,91.84111 230.81418,91.242216 230.97969,91.184459 C 231.07387,91.31087 230.51685,86.749187 230.47059,86.25357 z M 229.89716,84.408079 C 229.89716,83.550619 229.4313,81.057743 229.55165,81.057743 C 231.42367,81.021334 231.73733,81.542146 231.83283,82.52225 C 231.99719,84.20894 229.89716,84.513659 229.89716,84.408079 z M 115.17105,87.083828 C 120.82841,82.425109 122.81115,77.802389 122.92742,73.725679 C 123.20604,63.956179 110.83158,74.212567 109.07482,85.266517 C 108.74848,87.319937 108.39534,90.576342 108.88287,90.576342 C 109.3704,90.576342 113.00038,88.871329 115.17105,87.083828 z M 239.28712,87.71501 C 239.23424,87.679649 239.09207,85.938216 238.98599,85.222209 C 239.0934,85.22404 236.92813,85.94333 236.86148,85.90731 C 236.84831,85.958326 235.93991,77.503553 235.90889,77.416099 C 235.81579,77.394543 234.15536,77.95708 234.14242,77.95708 C 234.18648,78.159264 235.22692,89.268242 235.28985,89.227017 C 235.30054,89.269117 239.0571,87.71501 239.28712,87.71501 z M 241.67791,75.556455 C 241.70619,75.480611 239.66235,76.107804 239.67356,76.242093 C 239.67615,76.154595 240.80491,87.267913 240.91567,87.045577 C 241.15869,87.094389 242.87034,86.31644 242.9249,86.211306 C 242.92908,86.200602 241.78532,75.579084 241.67791,75.556455 z M 248.8961,80.878823 C 248.8961,80.891099 246.78654,81.824749 246.71989,81.788729 C 246.70695,81.860121 246.46655,79.448016 246.41284,79.671141 C 246.41284,79.572032 248.3198,78.956609 248.27904,78.956609 C 248.29189,78.956609 248.08524,77.228649 248.03153,77.123079 C 248.08524,77.017499 246.50151,77.586826 246.32745,77.604512 C 246.24071,77.555553 246.04573,76.243158 246.05022,76.004631 C 246.05471,76.088337 248.40488,75.172769 248.47508,75.097328 C 248.40027,74.838839 248.40317,73.481433 248.28238,73.227669 C 248.0318,73.308562 244.31582,74.674976 244.32924,74.735721 C 244.45949,77.67401 244.97106,82.009728 245.25832,85.241007 C 245.73562,84.907014 249.26682,83.229077 249.37767,83.125587 C 249.42941,83.14457 249.01159,80.929005 248.8961,80.878823 z M 250.13652,82.251297 C 256.54196,83.317166 256.11884,78.93312 253.80657,77.048608 C 251.44803,75.126388 252.33202,72.211842 255.36605,74.839628 C 255.34159,74.734574 256.07507,73.103504 255.94279,73.067586 C 254.26312,70.405606 248.01001,72.030404 251.71289,76.694983 C 254.38484,80.060877 253.22688,81.490539 250.51899,79.982944 C 250.52624,79.974674 250.37213,81.2845 250.13652,82.251297 z M 44.398655,68.249997 C 48.523003,64.417767 52.635191,53.953917 53.240933,45.749997 C 53.521207,41.954077 53.337337,38.999997 52.820795,38.999997 C 50.86656,38.999997 41.440683,49.785257 38.530213,55.351547 C 35.168441,61.780947 34.616382,67.002937 37.042017,69.428567 C 39.280716,71.667267 41.020946,71.388477 44.398655,68.249997 z M 84.529075,66.496405 C 87.085905,64.644255 89.252096,61.101997 90.974726,57.581067 C 93.345756,52.734847 94.181383,51.176308 93.726645,44.977507 C 93.443905,41.123312 93.228545,38.303665 89.665506,34.882847 C 87.948023,33.235622 86.034456,31.999997 85.539976,31.999997 C 84.806773,31.740768 76.700956,43.270677 72.793423,53.931697 L 68.553346,65.499997 C 73.227952,70.245896 79.112986,69.647111 84.529075,66.496405 z M 51.462747,75.264953 C 54.781643,67.499737 54.808397,67.826321 56.959642,62.932335 C 63.285837,48.793816 79.465639,30.996301 79.162105,30.692771 C 75.811705,29.502614 61.56964,33.723083 58.899966,35.442863 C 59.016093,35.934808 60.032646,37.661193 60.022843,41.978213 C 60.016315,44.853033 59.487688,50.385308 58.675744,53.410308 C 57.8638,56.435308 55.947437,64.126873 48.960852,72.267657 C 42.538392,81.113597 34.185232,85.058387 28.415197,81.970357 C 22.193623,78.640667 21.927178,65.948527 27.873364,56.160047 C 31.216062,50.657377 40.18785,40.001675 46.924584,36.021513 C 48.338447,35.186181 49.064088,34.752712 49.193653,34.693904 C 48.281824,34.847384 43.087728,36.431237 35.538368,42.947777 C 22.200039,54.461287 20.966381,54.488805 16.044851,54.792669 C 11.052873,55.100882 5.6696831,52.359762 6.4002167,46.126013 C 7.2953699,38.487542 15.151237,36.17995 15.371774,37.05336 C 15.855478,38.96901 13.694551,42.320156 18.020248,43.011855 C 21.117674,43.507148 24.517762,42.298137 32.762793,36.534447 C 40.883616,30.857587 47.013621,30.015132 53.586055,32.007984 C 57.020023,30.13438 61.345588,28.198042 65.470588,27.046867 C 69.595588,25.895692 76.049809,24.922976 79.813306,24.885277 C 93.191696,24.751263 104.30869,33.779464 105.85879,45.027444 C 106.85713,61.271563 95.256038,73.659815 79.461585,75.663633 C 74.257721,76.323839 66.382496,71.011574 66.382496,71.011574 C 61.210255,89.209454 54.871686,113.05015 51.385705,119.78959 C 41.100971,139.67306 23.233426,147.94741 10.065612,138.92468 C 0.88976888,132.63729 1.4934459,118.13367 11.20568,111.53404 C 17.715666,107.11039 27.673552,108.76052 30.385376,114.71232 C 34.916446,124.65694 25.704987,135.27529 16.621714,130.57815 C 12.653164,128.52593 11.114003,125.5848 11.799132,121.36285 C 12.452942,117.33389 11.331702,117.03683 8.9855979,120.61744 C 4.5541369,127.3807 9.0344849,135.74976 17.598945,136.70673 C 21.342857,137.12506 22.685413,136.71451 26.948773,133.8476 C 33.163855,129.66824 45.532515,89.139909 51.462747,75.264953 z M 197.65647,54.46014 C 203.14704,50.909372 212.73544,37.190215 204.26768,36.576399 C 202.42225,36.440932 200.5863,37.772479 198.25572,41.078899 C 195.74757,44.637239 190.47059,56.019537 190.47059,57.669877 C 190.47059,58.457237 194.38237,56.50861 197.65647,54.46014 z M 230.24855,54.736357 C 234.03512,50.705737 235.58298,45.285637 235.91992,34.877037 C 236.09578,29.444667 236.22319,24.474512 235.83605,24.474512 C 235.44067,24.474512 225.81885,36.886197 222.47486,42.499997 C 221.16438,44.699997 219.39758,47.624997 218.54864,48.999997 C 217.10607,51.336477 216.5535,51.83401 218.161,50.56122 C 220.72391,48.53193 223.37089,48.52882 223.02607,48.970612 C 222.5612,50.227732 220.82739,53.793217 222.1975,55.749997 C 223.45231,57.542113 227.95227,57.180627 230.24855,54.736357 z M 188.97059,18.998049 C 185.19651,16.542002 180.88667,26.629236 178.54546,31.227387 C 173.71755,41.201847 170.22597,50.999997 171.49947,50.999997 C 179.68437,42.841775 194.12531,22.352577 188.97059,18.998049 z M 264.30495,40.209357 C 266.97748,35.351177 267.7183,22.428783 267.1665,17.167967 C 267.1665,17.167967 266.77915,13.881552 266.19188,13.685794 C 265.96667,13.610724 260.61038,24.592897 260.61038,24.592897 C 257.7057,30.591807 254.93587,36.241527 254.4552,37.147837 C 253.81297,38.358747 257.16906,35.960883 258.51357,36.312483 C 258.20498,37.379509 255.14019,40.552298 254.74942,42.596458 C 254.27516,45.077388 256.44271,45.131237 259.0759,44.829127 C 261.26749,44.577687 262.50175,43.487237 264.30495,40.209357 z"
     id="path2384"
     style="fill:#000000" />
</svg>
