<svg xmlns="http://www.w3.org/2000/svg" xmlns:xlink="http://www.w3.org/1999/xlink" width="552" zoomAndPan="magnify" viewBox="0 0 414 282.749989" height="377" preserveAspectRatio="xMidYMid meet" version="1.0"><defs><clipPath id="ace9024a43"><path d="M 0.183594 0 L 413.816406 0 L 413.816406 282.5 L 0.183594 282.5 Z M 0.183594 0 " clip-rule="nonzero"/></clipPath></defs><g clip-path="url(#ace9024a43)"><path stroke-linecap="butt" transform="matrix(0.100491, 0, 0, -0.100516, -363.979531, 622.439924)" fill="none" stroke-linejoin="miter" d="M 3137.546788 6723.908717 L 8239.904329 6723.908717 L 8239.904329 2916.99775 L 3137.546788 2916.99775 Z M 3137.546788 6723.908717 " stroke="#00adef" stroke-width="2.5" stroke-opacity="1" stroke-miterlimit="4"/></g><path fill="#aab6bb" d="M 207.757812 4.628906 C 124.566406 4.808594 64.796875 45.609375 65.328125 102.582031 L 65.328125 102.871094 C 65.621094 156.289062 126.15625 199.980469 207.757812 199.695312 C 288.410156 199.402344 350.082031 156.726562 350.179688 102.769531 C 350.082031 48.808594 293.863281 4.425781 207.757812 4.628906 " fill-opacity="1" fill-rule="nonzero"/><path fill="#08954d" d="M 185.160156 87.535156 C 188.097656 87.007812 190.765625 86.78125 190.765625 86.78125 C 203.210938 85.945312 240.667969 85.101562 250.628906 61.675781 C 257.074219 43.269531 243.054688 32.324219 236.007812 28.078125 C 209.585938 12.179688 170.757812 22.109375 170.757812 22.109375 C 127.242188 31.449219 96.085938 60.1875 95.875 101.769531 L 95.859375 101.878906 C 95.859375 130.339844 108.449219 149.765625 128.621094 163.453125 C 128.621094 163.453125 142.699219 141.4375 153.964844 124 C 157.605469 118.449219 162.222656 111.597656 166.035156 106.054688 L 173.632812 95.242188 C 176.867188 90.835938 180.15625 88.390625 185.160156 87.535156 " fill-opacity="1" fill-rule="nonzero"/><path fill="#d22027" d="M 264.570312 28.191406 L 264.148438 28.839844 C 264.148438 28.839844 271.285156 33.5625 275.472656 39.28125 C 285.605469 52.320312 286.597656 65.105469 285.386719 73.535156 C 282.617188 91.742188 266.808594 104.320312 260.824219 107.953125 C 246.851562 117.449219 219.496094 120.113281 219.496094 120.113281 C 217.613281 120.300781 215.992188 120.632812 214.777344 121.542969 C 213.332031 122.621094 212.355469 124.253906 212.355469 124.253906 C 212.355469 124.253906 203.046875 138.941406 196.941406 149.273438 C 188.117188 164.34375 177.257812 183.160156 177.257812 183.160156 C 187.203125 184.820312 197.089844 185.457031 207.984375 185.472656 C 269.898438 185.453125 319.632812 153.414062 320.097656 101.878906 L 320.097656 101.769531 C 320.144531 68.882812 298.367188 42 264.570312 28.191406 " fill-opacity="1" fill-rule="nonzero"/><path fill="#181210" d="M 393.265625 268.039062 C 393.265625 268.039062 389.09375 268.324219 384.449219 268.324219 C 379.808594 268.324219 369.195312 268.796875 369.195312 259.605469 C 369.195312 252.871094 374.976562 251.355469 381.703125 251.355469 L 393.265625 251.449219 Z M 384.164062 229.9375 C 374.125 229.9375 358.777344 229.9375 358.777344 229.9375 L 358.777344 235.339844 L 381.703125 235.339844 C 392.128906 235.339844 393.453125 240.363281 393.074219 245.761719 L 376.019531 245.761719 C 363.796875 245.761719 354.796875 248.605469 354.796875 259.417969 C 354.796875 272.96875 367.964844 274.011719 385.683594 274.011719 C 402.832031 274.011719 407.097656 272.96875 407.097656 272.96875 L 407.097656 247.660156 C 407.097656 230.980469 394.304688 229.9375 384.164062 229.9375 Z M 337.457031 257.617188 C 337.457031 262.445312 335.75 268.515625 324.476562 268.515625 C 313.199219 268.515625 312.347656 262.257812 312.347656 257.425781 C 312.347656 252.585938 312.347656 229.9375 312.347656 229.9375 L 297.285156 229.9375 C 297.285156 246.140625 297.285156 245.671875 297.285156 253.917969 C 297.285156 267.375 301.453125 273.820312 323.8125 273.820312 C 344.089844 273.820312 349.679688 268.515625 349.679688 254.390625 C 349.679688 240.363281 349.679688 230.03125 349.679688 230.03125 L 337.457031 230.03125 Z M 262.128906 267.09375 C 257.207031 267.09375 252.5625 266.902344 252.5625 266.902344 L 252.5625 235.527344 C 252.5625 235.527344 257.207031 235.339844 262.128906 235.339844 C 271.605469 235.339844 277.480469 239.222656 277.480469 251.167969 C 277.480469 263.207031 271.605469 267.09375 262.128906 267.09375 Z M 265.542969 230.03125 C 254.171875 230.03125 238.632812 230.03125 238.632812 230.03125 L 238.632812 272.402344 C 238.632812 272.402344 254.171875 272.402344 265.542969 272.402344 C 276.914062 272.402344 292.070312 270.695312 292.070312 251.167969 C 292.070312 231.738281 276.914062 230.03125 265.542969 230.03125 Z M 81.351562 253.441406 L 109.015625 253.441406 L 109.015625 247.660156 L 81.351562 247.660156 L 81.351562 235.71875 L 112.808594 235.71875 L 112.808594 229.9375 L 66.1875 229.9375 L 66.1875 272.402344 L 113.5625 272.492188 L 113.5625 266.617188 L 81.351562 266.617188 Z M 203.953125 268.515625 C 189.835938 268.515625 190.027344 256.761719 190.027344 251.257812 C 190.027344 245.671875 189.835938 234.011719 203.953125 233.917969 C 218.074219 234.011719 217.886719 245.671875 217.886719 251.257812 C 217.886719 256.761719 218.074219 268.515625 203.953125 268.515625 Z M 203.953125 228.230469 C 189.933594 228.230469 175.53125 231.925781 175.53125 251.257812 C 175.53125 270.601562 189.933594 274.292969 203.953125 274.292969 C 217.976562 274.292969 232.382812 270.601562 232.382812 251.257812 C 232.382812 231.925781 217.976562 228.230469 203.953125 228.230469 Z M 145.117188 248.703125 L 135.070312 248.703125 L 135.070312 235.625 L 145.304688 235.625 C 149.191406 235.625 155.824219 235.8125 155.824219 241.78125 C 155.824219 248.417969 149.570312 248.703125 145.117188 248.703125 Z M 170.414062 241.691406 C 170.414062 229.9375 155.25 230.03125 147.867188 230.03125 C 142.175781 230.03125 120.480469 230.03125 120.480469 230.03125 L 120.480469 272.492188 L 135.070312 272.492188 L 135.070312 254.390625 L 145.304688 254.390625 L 159.996094 272.402344 L 176.003906 272.402344 L 159.328125 253.347656 C 165.203125 251.925781 170.414062 248.890625 170.414062 241.691406 Z M 36.15625 249.746094 L 23.175781 249.746094 L 23.175781 235.625 L 36.34375 235.625 C 40.605469 235.625 46.289062 236.285156 46.289062 242.445312 C 46.289062 249.082031 40.515625 249.746094 36.15625 249.746094 Z M 38.996094 229.9375 C 33.308594 229.9375 8.296875 229.9375 8.296875 229.9375 L 8.296875 272.402344 L 23.175781 272.402344 L 23.175781 255.433594 L 39.089844 255.433594 C 47.335938 255.433594 60.980469 254.390625 60.980469 242.257812 C 60.980469 230.125 45.539062 229.9375 38.996094 229.9375 " fill-opacity="1" fill-rule="nonzero"/></svg>