<?xml version="1.0" encoding="UTF-8"?>
<svg width="148px" height="60px" viewBox="0 0 148 60" version="1.1" xmlns="http://www.w3.org/2000/svg" xmlns:xlink="http://www.w3.org/1999/xlink">
    <!-- Generator: Sketch 46.1 (44463) - http://www.bohemiancoding.com/sketch -->
    <title>Piaggio Group LOGO</title>
    <desc>Created with Sketch.</desc>
    <defs>
        <linearGradient x1="0.0179323949%" y1="50%" x2="100%" y2="50%" id="linearGradient-1">
            <stop stop-color="#00B4DC" offset="0%"></stop>
            <stop stop-color="#008FC8" offset="100%"></stop>
        </linearGradient>
        <linearGradient x1="0%" y1="50.0154895%" x2="100%" y2="50.0154895%" id="linearGradient-2">
            <stop stop-color="#0069B4" offset="0%"></stop>
            <stop stop-color="#004F9E" offset="50%"></stop>
            <stop stop-color="#004F9E" offset="100%"></stop>
        </linearGradient>
    </defs>
    <g id="Symbols" stroke="none" stroke-width="1" fill="none" fill-rule="evenodd">
        <g id="Piaggio-Group-LOGO" fill-rule="nonzero">
            <g id="Piaggio-Group_gradient_RGB">
                <g>
                    <path d="M68.9147561,22.6573427 L68.9147561,28.0405594 L66.1803659,28.0405594 L66.1803659,14.8657343 L71.5047561,14.8657343 C73.3096341,14.8657343 74.3970732,15.2853147 75.1867073,16.0531469 C76.6681973,17.6103802 76.6681973,19.950459 75.1867073,21.5076923 C74.4196341,22.2587413 73.3231707,22.6741259 71.5047561,22.6741259 L68.9147561,22.6573427 Z M71.387439,20.4 C72.3169512,20.4 72.7817073,20.1944056 73.1065854,19.8713287 C73.4066916,19.5693229 73.5685323,19.1705174 73.5578049,18.7594406 C73.5685176,18.3433467 73.4069939,17.9393145 73.1065854,17.6307692 C72.7817073,17.3118881 72.3169512,17.1020979 71.387439,17.1020979 L68.9147561,17.1020979 L68.9147561,20.3958042 L71.387439,20.4 Z" id="Shape" fill="#004F9E"></path>
                    <polygon id="Shape" fill="#004F9E" points="78.7287805 14.8657343 81.4586585 14.8657343 81.4586585 28.0405594 78.7287805 28.0405594"></polygon>
                    <path d="M83.4756098,28.0405594 L89.5490244,14.8657343 L91.4712195,14.8657343 L97.5446341,28.0405594 L94.6884146,28.0405594 L93.3347561,25.1034965 L87.6493902,25.1034965 L86.2957317,28.0405594 L83.4756098,28.0405594 Z M88.7097561,22.8629371 L92.3195122,22.8629371 L90.5146341,18.965035 L88.7097561,22.8629371 Z" id="Shape" fill="#004F9E"></path>
                    <path d="M100.387317,21.4531469 C100.362693,22.6544664 100.863805,23.8135749 101.775784,24.664771 C102.687763,25.5159672 103.932401,25.9862555 105.22439,25.9678322 C106.371805,25.9790521 107.487957,25.6202394 108.382927,24.9524476 L108.382927,22.1118881 L104.737073,22.1118881 L104.737073,19.8503497 L111.112805,19.8503497 L111.112805,25.7244755 C109.652547,27.3721249 107.456413,28.3010753 105.16122,28.241958 C100.748293,28.241958 97.6529268,25.2503497 97.6529268,21.4657343 C97.6529268,17.6811189 100.712195,14.6853147 105.134146,14.6853147 C107.05927,14.6594557 108.918723,15.3357207 110.314146,16.5692308 L108.55439,18.3020979 C107.64734,17.4411269 106.407723,16.9531574 105.111585,16.9468531 C103.837624,16.9476189 102.617886,17.4263362 101.728598,18.2745926 C100.839311,19.122849 100.355711,20.2688788 100.387317,21.4531469 Z" id="Shape" fill="#004F9E"></path>
                    <path d="M115.868659,21.4531469 C115.842794,22.6551868 116.343358,23.8153935 117.255475,24.6675099 C118.167593,25.5196263 119.412944,25.9904849 120.705732,25.972028 C121.853147,25.9832479 122.969298,25.6244352 123.864268,24.9566434 L123.864268,22.1118881 L120.222927,22.1118881 L120.222927,19.8503497 L126.598659,19.8503497 L126.598659,25.7244755 C125.137976,27.3716101 122.942129,28.3004395 120.647073,28.241958 C116.234146,28.241958 113.13878,25.2503497 113.13878,21.4657343 C113.13878,17.6811189 116.193537,14.6853147 120.606463,14.6853147 C122.531587,14.6594557 124.39104,15.3357207 125.786463,16.5692308 L124.026707,18.3020979 C123.119369,17.4415203 121.879937,16.9536237 120.583902,16.9468531 C119.311508,16.9498758 118.094112,17.429585 117.206786,18.2775897 C116.319461,19.1255944 115.837087,20.2703317 115.868659,21.4531469 L115.868659,21.4531469 Z" id="Shape" fill="#004F9E"></path>
                    <polygon id="Shape" fill="#004F9E" points="128.620122 14.8657343 131.354512 14.8657343 131.354512 28.0405594 128.620122 28.0405594"></polygon>
                    <path d="M140.563902,14.6853147 C144.93622,14.6853147 147.950366,17.7146853 147.950366,21.4615385 C147.950366,25.2083916 144.93622,28.2377622 140.563902,28.2377622 C136.191585,28.2377622 133.177439,25.2083916 133.177439,21.4615385 C133.177439,17.7146853 136.191585,14.6853147 140.563902,14.6853147 Z M140.563902,25.9762238 C143.235122,25.9762238 145.220488,23.9454545 145.220488,21.4573427 C145.220488,18.9692308 143.235122,16.9426573 140.563902,16.9426573 C137.892683,16.9426573 135.907317,18.9692308 135.907317,21.4531469 C135.907317,23.9370629 137.892683,25.9678322 140.563902,25.9678322 L140.563902,25.9762238 Z" id="Shape" fill="#004F9E"></path>
                    <path d="M68.7117073,38.1818182 C68.6846372,39.3849521 69.1845156,40.5466632 70.0966288,41.4003582 C71.008742,42.2540532 72.2547736,42.7264317 73.5487805,42.7090909 C74.6961956,42.7203108 75.8123472,42.3614981 76.7073171,41.6937063 L76.7073171,38.8531469 L73.0659756,38.8531469 L73.0659756,36.5916084 L79.4417073,36.5916084 L79.4417073,42.4657343 C77.9814495,44.1133836 75.7853159,45.042334 73.490122,44.9832168 C69.0771951,44.9832168 65.9818293,41.9916084 65.9818293,38.206993 C65.9818293,34.4223776 69.0365854,31.4181818 73.4495122,31.4181818 C75.3739171,31.3916422 77.2331099,32.0663067 78.6295122,33.2979021 L76.8697561,35.0307692 C75.9638047,34.1708285 74.726034,33.6829462 73.4314634,33.6755245 C72.1582852,33.6774194 70.9397183,34.156633 70.0514121,35.0047634 C69.1631059,35.8528938 68.6801192,36.998277 68.7117073,38.1818182 Z" id="Shape" fill="#004F9E"></path>
                    <path d="M85.8129268,38.9454545 L85.8129268,44.7818182 L83.0785366,44.7818182 L83.0785366,31.606993 L88.2404878,31.606993 C89.3706442,31.5398661 90.4834479,31.8913275 91.3358537,32.5846154 C92.1375605,33.2812614 92.5926449,34.2558935 92.5926449,35.2762238 C92.5926449,36.296554 92.1375605,37.2711861 91.3358537,37.9678322 C90.9329559,38.3221356 90.4483576,38.5861924 89.9190244,38.7398601 L95.2073171,44.7818182 L91.8276829,44.7818182 L86.8056098,38.9454545 L85.8129268,38.9454545 Z M88.0690244,36.6881119 C88.8586585,36.6881119 89.2015854,36.5370629 89.4452439,36.2895105 C89.9867073,35.7125874 89.9867073,34.8524476 89.4452439,34.2755245 C89.2015854,34.027972 88.8586585,33.8559441 88.0690244,33.8559441 L85.8129268,33.8559441 L85.8129268,36.6797203 L88.0690244,36.6881119 Z" id="Shape" fill="#004F9E"></path>
                    <path d="M103.017927,31.4181818 C107.390244,31.4181818 110.40439,34.4475524 110.40439,38.1944056 C110.40439,41.9412587 107.385732,44.9706294 103.017927,44.9706294 C98.650122,44.9706294 95.6314634,41.958042 95.6314634,38.1818182 C95.6314634,34.4055944 98.6456098,31.4181818 103.017927,31.4181818 Z M103.017927,42.7132867 C105.689146,42.7132867 107.674512,40.6783217 107.674512,38.1944056 C107.674512,35.7104895 105.689146,33.6755245 103.017927,33.6755245 C100.346707,33.6755245 98.3658537,35.7062937 98.3658537,38.1818182 C98.3658537,40.6573427 100.346707,42.7090909 103.017927,42.7090909 L103.017927,42.7132867 Z" id="Shape" fill="#004F9E"></path>
                    <path d="M115.264024,43.6153846 C114.090854,42.6377622 113.459146,41.2447552 113.459146,39.2265734 L113.459146,31.606993 L116.193537,31.606993 L116.193537,39.4153846 C116.193537,40.6195804 116.536463,41.3538462 117.123049,41.8615385 C118.498899,42.9931648 120.566222,42.9931648 121.942073,41.8615385 C122.528659,41.3538462 122.871585,40.6027972 122.871585,39.4153846 L122.871585,31.606993 L125.601463,31.606993 L125.601463,39.2265734 C125.601463,41.2405594 124.95622,42.6335664 123.796585,43.6153846 C121.295607,45.4210795 117.796588,45.4210795 115.29561,43.6153846 L115.264024,43.6153846 Z" id="Shape" fill="#004F9E"></path>
                    <path d="M131.45378,39.4153846 L131.45378,44.7818182 L128.71939,44.7818182 L128.71939,31.606993 L134.04378,31.606993 C135.848659,31.606993 136.936098,32.0265734 137.730244,32.7944056 C139.211734,34.3516389 139.211734,36.6917177 137.730244,38.248951 C136.958659,39 135.866707,39.4153846 134.04378,39.4153846 L131.45378,39.4153846 Z M133.921951,37.158042 C134.851463,37.158042 135.320732,36.9482517 135.64561,36.6293706 C135.944896,36.3268946 136.106607,35.9284089 136.096829,35.5174825 C136.10708,35.1014608 135.945617,34.6975826 135.64561,34.3888112 C135.320732,34.0699301 134.855976,33.8601399 133.921951,33.8601399 L131.45378,33.8601399 L131.45378,37.1538462 L133.921951,37.158042 Z" id="Shape" fill="#004F9E"></path>
                    <path d="M2.25609756,55.3342657 L2.30573171,55.3804196 C3.12460224,56.09309 4.21221641,56.4774338 5.33341463,56.4503497 L24.1357317,56.4503497 L26.9784146,58.351049 L29.7579268,56.4503497 L48.6369512,56.4503497 C51.3442683,56.4503497 52.5806098,55.3090909 52.5806098,52.8545455 L52.5806098,1.14545455 L2.25609756,55.3342657 Z" id="Shape" fill="url(#linearGradient-1)"></path>
                    <path d="M52.5806098,1.25874126 L52.5806098,52.8671329 C52.5806098,55.3174825 51.3262195,56.4629371 48.6369512,56.4629371 L29.7579268,56.4629371 L26.9784146,58.3636364 L24.1357317,56.4629371 L5.34243902,56.4629371 C4.22152549,56.4866493 3.13558424,56.0993096 2.31926829,55.3846154 L2.25609756,55.3342657 C1.60016815,54.6360349 1.23235784,53.7438094 1.21829268,52.8167832 L1.21829268,1.14545455 L52.5806098,1.14545455 L52.5806098,1.25874126 Z M-2.99837846e-13,0 L-2.99837846e-13,52.7706294 C-0.000569501597,53.3909308 0.118638849,54.0062881 0.35195122,54.5874126 C0.570594691,55.1545909 0.911456595,55.6742927 1.35365854,56.1146853 L1.50256098,56.2531469 C2.54432035,57.1428987 3.9146615,57.625252 5.32890244,57.6 L23.7341463,57.6 L26.987439,59.7692308 L30.1459756,57.6 L48.6234146,57.6 C51.1096341,57.6 52.7656098,56.6643357 53.4469512,54.9230769 C53.6922754,54.2606352 53.8113795,53.5634613 53.7989024,52.8629371 L53.7989024,0 L-2.99837846e-13,0 Z" id="Shape" fill="#E3E3E3"></path>
                    <path d="M1.23182927,1.14545455 L1.23182927,52.8041958 C1.24589442,53.7312219 1.61370474,54.6234475 2.26963415,55.3216783 L52.5806098,1.14545455 L1.23182927,1.14545455 Z" id="Shape" fill="url(#linearGradient-2)"></path>
                    <path d="M45.2573171,52.8167832 C47.1320785,52.7692411 48.6279056,51.3467299 48.6369512,49.6027972 C48.6369512,47.8648382 47.1218173,46.4559441 45.2528049,46.4559441 C43.3837925,46.4559441 41.8686585,47.8648382 41.8686585,49.6027972 C41.8753443,51.3476298 43.3725108,52.7714147 45.2482927,52.8167832 M45.2482927,47.3622378 C46.53839,47.4055137 47.5475144,48.4114416 47.5043902,49.6111888 C47.5251944,50.17984 47.2967154,50.73196 46.8713392,51.1409579 C46.445963,51.5499558 45.8601776,51.7807485 45.2482927,51.7804196 C43.9868559,51.7484813 42.9843624,50.784587 42.9921951,49.6111888 C42.9779719,48.4216858 43.9711917,47.4316122 45.2482927,47.3622378" id="Shape" fill="#FFFFFF"></path>
                    <polygon id="Shape" fill="#FFFFFF" points="40.9887805 52.6699301 39.9419512 52.6699301 39.9419512 49.6027972 39.9419512 46.4601399 40.9887805 46.4601399 40.9887805 49.6027972"></polygon>
                    <path d="M38.6559756,52.6699301 C33.3406098,53.6433566 33.7467073,49.6027972 33.7467073,49.6027972 C33.7467073,48.7636364 34.549878,45.6377622 38.6559756,46.4601399 L38.6559756,47.5090909 C36.4810976,46.9048951 34.9559756,48.1846154 34.9559756,49.606993 C34.9559756,49.8335664 35.0371951,52.2251748 37.6091463,51.7048951 L37.6091463,49.3888112 L38.6559756,49.3888112 L38.6559756,52.6825175 L38.6559756,52.6699301 Z" id="Shape" fill="#FFFFFF"></path>
                    <path d="M32.8623171,52.6699301 C27.5514634,53.6433566 27.9756098,49.6027972 27.9756098,49.6027972 C27.8943902,48.7636364 28.7787805,45.6377622 32.884878,46.4601399 L32.884878,47.5090909 C30.6287805,46.9048951 29.1803659,48.1846154 29.1803659,49.606993 C29.1803659,49.8335664 29.2615854,52.2251748 31.8380488,51.7048951 L31.9192683,49.606993 L31.9192683,49.3846154 L32.884878,49.3846154 L32.884878,52.6783217 L32.8623171,52.6699301 Z" id="Shape" fill="#FFFFFF"></path>
                    <path d="M28.1154878,52.6699301 L26.9107317,49.6027972 L25.7195122,46.4601399 L24.8170732,46.4601399 L23.6123171,49.6027972 L22.4030488,52.6699301 L23.3686585,52.6699301 L23.8514634,51.5496503 L26.5046341,51.5496503 L26.987439,52.6699301 L28.1154878,52.6699301 Z M25.8593902,49.5986014 L26.2654878,50.6475524 L24.2530488,50.6475524 L24.6591463,49.5986014 L25.299878,48.0293706 L25.8593902,49.5986014 Z" id="Shape" fill="#FFFFFF"></path>
                    <polygon id="Shape" fill="#FFFFFF" points="21.7578049 52.6699301 20.6297561 52.6699301 20.6297561 49.6027972 20.6297561 46.4601399 21.7578049 46.4601399 21.7578049 49.6027972"></polygon>
                    <path d="M16.9297561,51.5496503 C18.2485797,51.6114585 19.4293424,50.7950203 19.7453659,49.6027972 C19.8112845,49.4090199 19.8388043,49.2057204 19.8265854,49.0027972 C19.8240137,48.3226144 19.5210868,47.673275 18.9887255,47.206802 C18.4563642,46.740329 17.7413117,46.4976801 17.0109756,46.5356643 L15.562561,46.4601399 L15.562561,52.6741259 L16.6093902,52.6741259 L16.6093902,51.5538462 L16.9297561,51.5496503 Z M16.604878,47.4125874 C17.7329268,47.3370629 18.7752439,47.8657343 18.7752439,48.9818182 C18.7715534,49.190288 18.7175844,49.3953286 18.6173171,49.5818182 C18.4004044,50.1314823 17.8841959,50.5314927 17.2636585,50.6307692 L16.604878,50.6307692 L16.604878,47.4125874 Z" id="Shape" fill="#FFFFFF"></path>
                    <path d="M33.1826829,13.6111888 C33.1826829,4.93426573 22.7189024,4.25874126 22.7189024,4.25874126 L4.29560976,4.25874126 L4.29560976,4.51468531 C4.85512195,4.51468531 5.42365854,5.13986014 5.42365854,7.1034965 L5.42365854,37.8587413 C5.42365854,38.979021 5.21609756,40.3300699 4.29560976,40.3300699 L4.29560976,40.6237762 L11.7768293,40.6237762 L11.7768293,40.4013986 C10.6442683,40.4013986 10.6487805,38.9748252 10.6487805,37.8545455 L10.6487805,22.8167832 C10.6487805,22.8167832 17.8908537,22.9678322 20.7064634,22.9678322 C22.3005889,22.9605566 23.8902371,22.8102091 25.4532927,22.5188811 C28.9953659,21.6797203 33.1014634,19.5230769 33.1781707,13.7622378 L33.1826829,13.6111888 Z M17.0876829,5.82797203 C17.0876829,5.82797203 25.5390244,5.97902098 25.7195122,13.606993 L25.7195122,13.758042 C25.7195122,21.5412587 16.9478049,21.3104895 16.9478049,21.3104895 L10.6487805,21.3104895 L10.6487805,5.82797203 L17.0876829,5.82797203 Z" id="Shape" fill="#FFFFFF"></path>
                </g>
            </g>
        </g>
    </g>
</svg>