<?xml version="1.0" encoding="UTF-8" standalone="no"?>
<svg
   viewBox="0 0 500 51.962754"
   version="1.1"
   id="svg12"
   sodipodi:docname="télécharger.svg"
   width="500"
   height="51.962753"
   inkscape:version="1.1.1 (3bf5ae0d25, 2021-09-20)"
   xmlns:inkscape="http://www.inkscape.org/namespaces/inkscape"
   xmlns:sodipodi="http://sodipodi.sourceforge.net/DTD/sodipodi-0.dtd"
   xmlns="http://www.w3.org/2000/svg"
   xmlns:svg="http://www.w3.org/2000/svg">
  <defs
     id="defs16" />
  <sodipodi:namedview
     id="namedview14"
     pagecolor="#ffffff"
     bordercolor="#666666"
     borderopacity="1.0"
     inkscape:pageshadow="2"
     inkscape:pageopacity="0.0"
     inkscape:pagecheckerboard="0"
     showgrid="false"
     inkscape:zoom="0.48724077"
     inkscape:cx="194.97547"
     inkscape:cy="-179.58267"
     inkscape:window-width="1920"
     inkscape:window-height="991"
     inkscape:window-x="-9"
     inkscape:window-y="-9"
     inkscape:window-maximized="1"
     inkscape:current-layer="svg12" />
  <!-- symbol fill -->
  <path
     d="m 466.29792,30.975252 h -9.9625 l 7.08333,-7.845833 h 9.96458 z m -181.84167,0 h -9.9625 l 7.08333,-7.845833 h 9.9625 z m 191.58958,0 9.89375,-10.975 h -29.46041 l -9.89375,10.96875 h -19.91875 q 3.42291,-3.797916 6.85,-7.595833 c 0.57916,-0.64375 1.35208,-1.058333 1.11666,-2.170833 -0.24166,-1.15 -0.98958,-1.204167 -1.96666,-1.204167 h -25.58334 l -9.89166,10.96875 h -21.4375 l 9.88958,-10.966667 h -9.74583 l -9.89167,10.96875 h -19.92917 l 5.20834,-5.785416 c 0.43541,-0.48125 0.87291,-0.964584 1.30833,-1.458334 a 8.825,8.825 0 0 0 1.275,-1.458333 1.3,1.3 0 0 0 -0.22083,-1.802083 c -0.55209,-0.575 -1.15209,-0.466667 -1.81459,-0.466667 H 336.25 l 2.45833,-2.725 h -9.75 q -3.35416,3.716667 -6.70625,7.435417 a 17.233333,17.233333 0 0 1 -8.08958,5.6375 33.73125,33.73125 0 0 1 -9.95,0.625 h -10.01875 l 9.90417,-10.970834 h -49.32709 q 2.89792,-3.210416 5.78959,-6.41875 a 36.2,36.2 0 0 1 6.10625,-6.0687497 C 272.09792,3.7627523 277.5,4.454419 283.33333,4.454419 L 287.36042,2.5230683e-4 H 274.8125 c -4.73125,0 -7.77292,-0.0729166668 -12.18333,2.26041669317 a 34.460417,34.460417 0 0 0 -9.20209,8.427083 q -4.2,4.6625 -8.40208,9.31875 h -10.41667 l -2.81666,3.125 h 10.41666 l -7.07291,7.845834 h -22.94167 l 6.85,-7.595834 c 0.58125,-0.64375 1.35208,-1.058333 1.11667,-2.170833 -0.24375,-1.15 -0.98959,-1.204167 -1.96667,-1.204167 h -25.56667 l -9.89375,10.96875 h -21.44375 l 9.89375,-10.975 h -9.74791 l -9.89584,10.96875 H 131.6125 l 6.85,-7.595833 c 0.58125,-0.64375 1.35,-1.058333 1.11875,-2.170833 -0.24375,-1.15 -0.98958,-1.204167 -1.97083,-1.204167 h -25.56459 l -9.89166,10.96875 H 80.708333 L 90.6,20.000252 h -9.747917 l -9.891666,10.96875 H 51.041667 L 56.25,25.189836 57.558333,23.731502 a 8.8666667,8.8666667 0 0 0 1.275,-1.458333 1.3041667,1.3041667 0 0 0 -0.220833,-1.802083 c -0.552083,-0.575 -1.152083,-0.466667 -1.816667,-0.466667 H 41.2125 l 2.45625,-2.725 H 33.922917 L 21.570833,30.975252 H 3.3666667 L 0,34.710669 H 18.202083 L 2.6416667,51.962752 h 9.7500003 l 26.002083,-28.8375 h 9.964583 q -3.46875,3.84375 -6.935416,7.689584 a 8.8270833,8.8270833 0 0 0 -1.575,2.020833 1.51875,1.51875 0 0 0 1.3625,1.875 c 1.722916,0.129167 3.4375,0 5.154166,0 H 108.54167 L 118.975,23.125252 h 9.96458 q -3.47291,3.84375 -6.93541,7.689584 a 8.75,8.75 0 0 0 -1.575,2.020833 1.5166667,1.5166667 0 0 0 1.3625,1.875 c 1.72291,0.129167 3.43541,0 5.15208,0 h 62.16667 l 10.44791,-11.585417 h 9.9625 l -7.52708,8.347917 c -0.6625,0.735417 -1.45833,1.270833 -0.83333,2.435417 0.625,1.164583 1.55833,0.797916 2.51458,0.797916 h 28.09792 l -15.55834,17.252084 h 9.74584 l 25.99166,-28.833334 h 19.86459 q -3.69792,4.102084 -7.4,8.204167 c -0.6375,0.708333 -1.5,1.172917 -1.05417,2.38125 0.44583,1.208333 1.37292,0.991667 2.35208,0.991667 h 38.675 c 3.68125,0 7.3625,0.179166 11.04167,-0.03333 9.14583,-0.525 12.70833,-5.6875 17.99792,-11.547916 h 9.96458 q -3.46875,3.84375 -6.93542,7.689583 a 8.75,8.75 0 0 0 -1.57291,2.020833 1.5166667,1.5166667 0 0 0 1.36041,1.875 c 1.72292,0.129167 3.4375,0 5.15417,0 h 62.16875 l 10.45208,-11.58125 h 9.96459 l -7.9875,8.85625 a 1.53125,1.53125 0 0 0 0.2375,2.539584 11.910417,11.910417 0 0 0 2.93958,0.183333 h 77.45417 L 500,30.975252 Z"
     id="path2"
     style="fill:#081427;fill-opacity:1;stroke-width:2.08333" />
  <path
     d="M 99.264583,10.398169 H 89.516667 L 85.4625,14.896086 h 9.747917 z"
     id="path4"
     style="fill:#081427;fill-opacity:1;stroke-width:2.08333" />
  <path
     d="m 394.3125,10.398169 h -9.74792 l -4.05416,4.497917 h 9.74583 z"
     id="path6"
     style="fill:#081427;fill-opacity:1;stroke-width:2.08333" />
  <path
     d="M 179.84792,10.398169 H 170.1 l -4.05833,4.497917 h 9.75 z"
     id="path8"
     style="fill:#081427;fill-opacity:1;stroke-width:2.08333" />
</svg>
