<?xml version="1.0" encoding="utf-8"?>
<!-- Generator: Adobe Illustrator 23.0.6, SVG Export Plug-In . SVG Version: 6.00 Build 0)  -->
<svg version="1.1" id="Livello_1" xmlns="http://www.w3.org/2000/svg" xmlns:xlink="http://www.w3.org/1999/xlink" x="0px" y="0px"
	 viewBox="0 0 281.3 425.8" style="enable-background:new 0 0 281.3 425.8;" xml:space="preserve">
<style type="text/css">
	.st0{fill-rule:evenodd;clip-rule:evenodd;fill:#E00000;}
	.st1{fill-rule:evenodd;clip-rule:evenodd;fill:#FFFFFF;}
	.st2{fill-rule:evenodd;clip-rule:evenodd;}
	.st3{fill:#FFFFFF;}
</style>
<path id="FIAT_background" class="st0" d="M10.6,138.9h260c-2,68.7-3,137.9-6,213c-1,23.9,0.5,53.8-10,63c-9.1,8-35.6,6-56,6h-122
	c-20.3,0-44.2,1.9-53-8c-9.4-10.5-7.5-42.5-8-64c-1.7-70.2-4.4-139.3-7-207C8.4,140.5,9.3,139.2,10.6,138.9z"/>
<path id="polski_background" class="st1" d="M251.8,4.9c-94.7,0.5-222.9-4.6-235,4c-15.4,11-10.2,40.2-10.1,58
	c0.2,22.9,1.8,39.3,2,65H274C267,92.5,298.2,4.6,251.8,4.9z"/>
<path class="st2" d="M272.6,7.9C262.1-2.4,230.5,0,207.1,0H73C45.7,0,21.9-3.1,9.6,5.9c-11.6,8.5-9.9,23-9,45
	c4.7,109.8,8.4,207.6,10,314c0.2,15.7-0.7,40.1,5,49c9.2,14.4,36.1,11,63,11h122c17.3,0,45.2,4,57-4c12.8-8.6,11.1-30.2,12-53
	c3.5-86.9,5.5-171.8,8-250C277.8,88.2,288.4,23.4,272.6,7.9z M264.6,351.9c-1,23.9,0.5,53.8-10,63c-9.2,8-35.6,6-56,6h-122
	c-20.3,0-44.2,1.9-53-8c-9.4-10.5-7.5-42.5-8-64c-1.7-70.3-7-210-7-210H271C269,207.6,267.6,276.9,264.6,351.9z M271.6,131.9H8.6
	c-0.2-25.7-1.8-42.1-2-65c-0.1-17.8-5.3-47,10-58c12-8.6,139.1-3.5,233-4c25.1,0.8,28.6,22.1,27.3,49.6
	C275.6,81.2,272.4,113,271.6,131.9z"/>
<g id="polski_2_">
	<g>
		<path d="M212.3,113.2c0,0,0-24.7,0-36.7c0-0.8-0.2-1.7-0.4-2.5c-0.2-0.7-0.7-1.1-1.4-1.3c-1.7-0.3-3.4-0.4-5.1-0.4
			c0,13.7,0,27.3,0,41c-3.6,0-7.1,0-10.6,0c0-30,0-90.1,0-90.1h10.6c0,0,0,26.3,0,39.1c0,0.8,0,0.7,0.6,0.6c1.1-0.1,2.1-0.1,3.1-0.3
			c2-0.4,2.9-1.5,3.1-3.6c0.1-0.6,0.1-1.3,0.1-1.9c0-11.1,0-33.9,0-33.9h10.6c0,0,0,23.6,0,35.1c0,0.9-0.1,1.9-0.3,2.8
			c-0.5,2.6-2.2,4.1-4.3,5.4c-0.1,0.1-0.3,0.1-0.5,0.2c1.2,0.4,2.2,0.9,3.1,1.6c1.3,1.1,2,2.4,2,4.2c0,13.4,0,40.7,0,40.7H212.3z"/>
		<path d="M101.7,68.6c0,11.3,0,22.6,0,33.9c0,1.8-0.2,3.5-0.9,5.2c-1.1,2.4-3,3.8-5.2,4.8c-1.8,0.8-3.7,1.2-5.6,1.3
			c-2.7,0.2-5.4,0.1-8-0.6c-1.8-0.5-3.4-1.2-4.9-2.3c-2.2-1.7-3.3-4.1-3.5-6.9c0-0.5,0-1.1,0-1.6c0-22.4,0-44.7,0-67.1
			c0-1.9,0.2-3.8,0.9-5.6c1.3-3.3,3.8-5.4,7.1-6.3c2.8-0.8,5.7-0.9,8.6-0.7c1.4,0.1,2.8,0.3,4.2,0.6c4,0.8,6.2,3.5,7,7.5
			c0.3,1.4,0.4,2.8,0.4,4.2C101.7,46.1,101.7,57.3,101.7,68.6z M84.1,68.3c0,11.5,0,23,0,34.6c0,0.3,0,0.7,0,1
			c0.1,1.3,0.9,2.3,2.1,2.7c0.4,0.1,0.8,0.2,1.3,0.2c1.9,0.1,3.2-0.9,3.5-2.8c0.1-0.3,0.1-0.7,0.1-1c0-23.3,0-46.5,0-69.8
			c0-0.8-0.2-1.5-0.6-2.1c-0.3-0.5-0.7-0.9-1.3-1c-1-0.2-2-0.3-3,0c-0.4,0.1-0.8,0.3-1,0.6c-0.7,0.8-1,1.7-1,2.8
			C84.1,45,84.1,56.7,84.1,68.3z"/>
		<path d="M40.3,90.5c0,7.5,0,15.1,0,22.6c-3.6,0-7.2,0-10.8,0c0-30,0-60,0-90.1c0.1,0,0.3,0,0.4,0c4.8,0,9.6,0,14.3,0
			c3.1,0,6.2,0.5,9.1,1.9c0.4,0.2,0.7,0.4,1.1,0.6c2.2,1.3,3.3,3.3,3.3,5.9c0,0.2,0,0.5,0,0.7c0,14.8,0,29.5,0,44.3
			c0,1.8-0.1,3.6-0.3,5.4c-0.5,4-2.8,6.5-6.5,7.6c-2.4,0.7-4.8,1-7.2,1.1C42.6,90.4,41.4,90.5,40.3,90.5z M40.3,83.2
			c1.5,0,3,0,4.4-0.4c1.1-0.3,1.8-1,2-2.1c0.2-1.1,0.3-2.2,0.3-3.3c0-14.4,0-28.8,0-43.2c0-0.3,0-0.7,0-1c-0.1-1.5-0.8-2.3-2.2-2.5
			c-1.2-0.2-2.4-0.2-3.6-0.2c-0.3,0-0.6,0-0.9,0C40.3,48,40.3,65.6,40.3,83.2z"/>
		<path d="M152.1,89.9c3.5,0.1,7,0.1,10.6,0.2c0,0.2,0,0.4,0,0.6c0,4,0,8,0,12.1c0,0.4,0,0.8,0.1,1.2c0.2,1.3,1,2,2.2,2.4
			c0.8,0.2,1.7,0.2,2.5,0c1.3-0.4,2.1-1.4,2.1-2.9c0-0.2,0-0.5,0-0.7c0-5.2,0-10.5,0-15.7c0-1.9-0.4-3.6-1.4-5.1
			c-2-3.2-4.1-6.3-6.2-9.5c-2.7-4.2-5.4-8.4-8.1-12.6c-0.8-1.3-1.5-2.6-1.8-4.1c-0.1-0.5-0.1-1.1-0.1-1.6c0-6.5,0-12.9,0-19.4
			c0-2.2,0.3-4.4,1.4-6.4c1.6-3,4.1-4.7,7.3-5.4c3.3-0.8,6.6-0.7,10-0.3c1.2,0.1,2.3,0.4,3.4,0.8c2.9,0.9,4.7,3,5.6,5.9
			c0.5,1.4,0.7,2.9,0.7,4.4c0,6,0,12,0,18.1c0,0.1,0,0.2,0,0.4c-3.6,0.1-7.2,0.1-10.8,0.2c0-0.3,0-0.4,0-0.6c0-6.3,0-12.5,0-18.8
			c0-0.9-0.3-1.6-0.7-2.3c-0.4-0.7-1.1-0.8-1.8-0.9c-0.7,0-1.4,0-2.1,0.1c-1.3,0.2-2.3,1.4-2.3,2.7c0,6.2,0,12.4,0,18.7
			c0,2.1,0.8,3.9,1.9,5.7c4.3,6.7,8.7,13.4,13,20c1.9,3,2.9,6.3,2.9,9.9c0,5.2,0,10.5,0,15.7c0,2.5-0.6,4.7-2.1,6.7
			c-1.4,1.8-3.3,2.8-5.3,3.5c-2.6,0.9-5.3,1.1-8,1c-2.4-0.1-4.7-0.5-6.9-1.5c-2.3-1-4.2-2.6-5.3-5.1c-0.5-1.2-0.8-2.6-0.8-3.9
			c0-4.3,0-8.7,0-13C152.1,90,152.1,90,152.1,89.9z"/>
		<path d="M138.8,113.2l-22,0V23h10.8c0,0,0,55.3,0,83c3.8,0,7.4,0,11.2,0"/>
		<rect x="239.8" y="22.8" width="10.6" height="90.1"/>
	</g>
</g>
<g id="FIAT">
	<polygon class="st3" points="241.6,155.9 227.2,155.9 227.2,155.9 206.9,155.9 206.9,155.9 192.3,155.9 192.3,179.9 206.9,179.9 
		206.9,403.8 227.2,403.8 227.2,179.9 241.6,179.9 	"/>
	<polygon class="st3" points="61.3,257.9 61.3,179.9 80.6,179.9 80.6,155.9 61.3,155.9 60.3,155.9 41,155.9 40,155.9 40,155.9 
		40,179.9 40,179.9 40,257.9 40,281.9 40,403.8 41,403.8 60.3,403.8 61.3,403.8 61.3,281.9 80.6,281.9 81.6,281.9 81.6,257.9 
		80.6,257.9 	"/>
	<polygon class="st3" points="88.5,156 87.5,156 87.5,404 88.5,404 107.8,404 108.8,404 108.8,156 107.8,156 	"/>
	<path class="st3" d="M142.8,155.9h-20.3v248h20.3v-122h29.1V404h20.4V238.7l-38.4-82.8H142.8z M142.8,257.9v-77.8l29.1,61.6v16.2
		H142.8z"/>
</g>
</svg>
