<?xml version="1.0" encoding="UTF-8" standalone="no"?>
<svg
   xmlns:dc="http://purl.org/dc/elements/1.1/"
   xmlns:cc="http://creativecommons.org/ns#"
   xmlns:rdf="http://www.w3.org/1999/02/22-rdf-syntax-ns#"
   xmlns:svg="http://www.w3.org/2000/svg"
   xmlns="http://www.w3.org/2000/svg"
   xmlns:sodipodi="http://sodipodi.sourceforge.net/DTD/sodipodi-0.dtd"
   xmlns:inkscape="http://www.inkscape.org/namespaces/inkscape"
   sodipodi:docname="Praga-Logo.svg"
   inkscape:version="1.0 (4035a4fb49, 2020-05-01)"
   id="svg25"
   version="1.1"
   viewBox="0 0 79.375008 39.208576"
   height="39.208576mm"
   width="79.375008mm">
  <defs
     id="defs19" />
  <sodipodi:namedview
     inkscape:window-maximized="0"
     inkscape:window-y="185"
     inkscape:window-x="303"
     inkscape:window-height="1208"
     inkscape:window-width="1424"
     fit-margin-bottom="0"
     fit-margin-right="0"
     fit-margin-left="0"
     fit-margin-top="0"
     showgrid="false"
     inkscape:document-rotation="0"
     inkscape:current-layer="layer1"
     inkscape:document-units="mm"
     inkscape:cy="620.93203"
     inkscape:cx="1028.7178"
     inkscape:zoom="0.35"
     inkscape:pageshadow="2"
     inkscape:pageopacity="0.0"
     borderopacity="1.0"
     bordercolor="#666666"
     pagecolor="#ffffff"
     id="base" />
  <metadata
     id="metadata22">
    <rdf:RDF>
      <cc:Work
         rdf:about="">
        <dc:format>image/svg+xml</dc:format>
        <dc:type
           rdf:resource="http://purl.org/dc/dcmitype/StillImage" />
        <dc:title></dc:title>
      </cc:Work>
    </rdf:RDF>
  </metadata>
  <g
     transform="translate(166.34826,16.1216)"
     id="layer1"
     inkscape:groupmode="layer"
     inkscape:label="Layer 1">
    <path
       d="m -95.191349,6.7151959 c -0.626212,1.2314075 -1.483573,2.5216509 -2.824249,2.5216509 a 2.0047125,2.0047125 0 0 1 -2.004722,-2.0089147 c 0,-3.1520636 3.782474,-7.24134107 8.19537,-7.14467805 l -3.362206,6.62774035 m -15.184534,0 c -0.62621,1.231406 -1.48357,2.521651 -2.82425,2.521651 a 2.0089151,2.0089151 0 0 1 -2.00472,-2.0047133 c 0,-3.1520636 3.80349,-7.24134107 8.19116,-7.14467805 l -3.36219,6.62353735 m -4.47594,8.6912896 h -7.47668 c -0.65984,-0.941417 -1.90805,-1.580234 -3.54714,-1.580234 -1.73152,0 -3.18147,0.546357 -3.99261,1.580234 h -26.4269 a 0.42027514,0.42027514 0 0 1 -0.39085,-0.613602 l 5.74515,-11.3474293 a 41.993893,41.993893 0 0 0 7.91799,-1.6811 0.4580999,0.4580999 0 0 1 0.10928,0 0.42027514,0.42027514 0 0 1 0.42029,0.4202746 0.44549165,0.44549165 0 0 1 -0.0462,0.2017321 l -3.13946,6.2957227 a 1.7315336,1.7315336 0 0 0 1.52979,2.5216509 1.7861694,1.7861694 0 0 0 0.54217,-0.08406 l 9.81342,-2.8494658 c 0.0337,3.7236368 5.14417,4.1313048 7.14467,1.4205305 a 1.7357364,1.7357364 0 0 0 2.22745,1.4373413 h 0.0294 l 6.04356,-1.975294 c 0.64723,2.454407 3.94218,2.941925 6.05196,1.491977 a 23.884237,23.884237 0 0 1 -2.55528,4.761717 m -13.75979,2.101376 h 11.97783 c -5.50139,5.497199 -11.9148,3.164671 -11.97783,0 m -34.3785,-21.2533094 c -0.36143,-4.8037446 6.16544,-8.9812786 13.31432,-10.4564456 6.93874,-1.433138 11.71307,1.223002 11.94422,4.3918756 0.23115,3.1688741 -2.14341,5.2324253 -6.08978,5.8838518 a 6.3041272,6.3041272 0 0 1 -3.26974,-0.1975294 l 4.09347,-8.086094 -5.11896,1.6811 c -2.99235,1.0464862 -3.72362,3.4756771 -2.7528,5.4635778 l -3.71522,7.283368 c -4.62303,-0.13869 -8.11971,-2.10137624 -8.40551,-5.9637042 m 40.62379,3.83291002 -3.36219,6.62353578 c -0.62621,1.231406 -1.47938,2.5216509 -2.82006,2.5216509 a 2.0089151,2.0089151 0 0 1 -2.0089,-2.0047133 c 0,-3.1520636 3.78248,-7.24133941 8.19536,-7.14467639 m 35.021529,8.06928289 h -0.08403 l -4.623031,0.8699687 a 0.44549165,0.44549165 0 0 1 -0.130253,0.021015 0.42027514,0.42027514 0 0 1 -0.420269,-0.4202746 0.39505863,0.39505863 0 0 1 0.05035,-0.1975291 c 1.260826,-2.4460014 4.749107,-9.24605334 4.749107,-9.24605334 -7.106846,-0.58418236 -11.620609,0.71026431 -14.419633,5.71994514 a 6.9807702,6.9807702 0 0 0 -1.03388,3.3622001 l -5.22823,1.3700975 c 2.17704,-4.1481165 5.4846,-10.47325798 5.4846,-10.47325798 -7.11526,-0.56316872 -11.6038,0.72707653 -14.40283,5.74095878 a 7.0816363,7.0816363 0 0 0 -1.04228,3.3622001 l -4.1313,0.7775104 a 0.42027514,0.42027514 0 0 1 -0.12612,0.021015 0.42027514,0.42027514 0 0 1 -0.42029,-0.4202762 0.42027514,0.42027514 0 0 1 0.0462,-0.1975291 c 1.26083,-2.446003 4.74492,-9.24605432 4.74492,-9.24605432 -7.13207,-0.60099348 -11.62061,0.68925177 -14.40283,5.70313402 a 8.2542039,8.2542039 0 0 0 -0.95823,2.4838253 l -8.0987,1.6264657 a 0.44549165,0.44549165 0 0 1 -0.13025,0 0.42027514,0.42027514 0 0 1 -0.42029,-0.4202762 0.39505863,0.39505863 0 0 1 0.0505,-0.1975291 l 1.11373,-2.2778903 c 0.92881,-1.8113872 1.80719,-3.9085588 4.65665,-4.9718552 a 2.1223894,2.1223894 0 0 0 -0.0253,0.285786 1.7273309,1.7273309 0 0 0 3.25713,0.8111313 6.0813813,6.0813813 0 0 0 0.31521,-0.6178037 1.8197913,1.8197913 0 0 0 0.17652,-0.75649522 1.7315336,1.7315336 0 0 0 -1.73154,-1.72733117 1.8366024,1.8366024 0 0 0 -0.48332,0.0672435 l -3.11002,1.00445845 0.22694,-0.42027621 a 0.42027514,0.42027514 0 0 0 0.0421,-0.18912349 0.42027514,0.42027514 0 0 0 -0.42027,-0.42027526 0.44969441,0.44969441 0 0 0 -0.17231,0.0336225 c -2.69397,0.72707527 -7.51452,2.1265923 -11.72569,2.744396 l 2.30733,-4.5683902 a 8.1113103,8.1113103 0 0 0 3.94638,0.256368 c 6.49325,-1.0548907 9.98574,-4.2447783 9.6369,-8.0440663 -0.35722,-3.891747 -6.26209,-6.926134 -15.62583,-5.236628 -10.43121,1.878629 -16.94549,7.0858388 -16.42015,12.5494155 0.42029,4.2994148 5.00129,7.0017842 11.00282,6.7916461 l -5.46359,10.7716524 a 1.7357364,1.7357364 0 0 1 -1.5256,0.928808 h -2.01311 l -1.07171,2.101376 h 34.84082 c 0,7.064826 11.43148,7.825522 17.65155,0 h 23.632068 l 1.088511,-2.101376 h -23.291649 a 16.768978,16.768978 0 0 0 0.76911,-1.529801 c 2.18963,-4.0094251 7.56495,-4.6524469 7.56495,-4.6524469 0.81114,2.8326549 5.190405,2.9419269 7.022799,0.4959257 a 1.7315336,1.7315336 0 0 0 1.714723,1.5129912 1.6811005,1.6811005 0 0 0 0.512733,-0.07566 h 0.03368 l 6.63195,-2.2106485 a 0.42027514,0.42027514 0 0 0 -0.117665,-0.79852"
       fill="#fff"
       id="Layer_1-2"
       data-name="Layer 1"
       style="fill:#000000;stroke-width:0.420275" />
  </g>
</svg>
