<?xml version="1.0" encoding="UTF-8" standalone="no"?>
<!DOCTYPE svg PUBLIC "-//W3C//DTD SVG 1.0//EN" "http://www.w3.org/TR/2001/REC-SVG-20010904/DTD/svg10.dtd">
<!-- Created with Inkscape (http://www.inkscape.org/) -->
<svg
   xmlns:svg="http://www.w3.org/2000/svg"
   xmlns="http://www.w3.org/2000/svg"
   version="1.0"
   width="800"
   height="800"
   id="svg2">
  <defs
     id="defs4" />
  <g
     id="layer1">
    <path
       d="M 451.84122,284.51917 A 65.760933,65.760933 0 1 1 320.31936,284.51917 A 65.760933,65.760933 0 1 1 451.84122,284.51917 z"
       transform="matrix(5.3746192,0,0,5.3746192,-1674.8121,-1121.98)"
       id="path4344"
       style="opacity:1;fill:#ffffff;fill-opacity:1;fill-rule:nonzero;stroke:#000000;stroke-width:4;stroke-linecap:round;stroke-linejoin:round;stroke-miterlimit:4;stroke-dasharray:none;stroke-dashoffset:0;stroke-opacity:1" />
    <path
       d="M 451.84122,284.51917 A 65.760933,65.760933 0 1 1 320.31936,284.51917 A 65.760933,65.760933 0 1 1 451.84122,284.51917 z"
       transform="matrix(4.9983959,0,0,4.9983959,-1529.5597,-1014.9372)"
       id="path4342"
       style="opacity:1;fill:#000000;fill-opacity:1;fill-rule:nonzero;stroke:none;stroke-width:4;stroke-linecap:round;stroke-linejoin:round;stroke-miterlimit:4;stroke-dasharray:none;stroke-dashoffset:0;stroke-opacity:1" />
    <path
       d="M 415.75348,172.34721 C 407.92134,172.34721 401.53929,178.57301 401.53929,186.4052 L 401.53929,280.90612 C 401.53929,288.73826 407.92129,295.12026 415.75348,295.12031 L 496.97741,295.12031 C 504.80955,295.12031 511.19165,288.73821 511.1916,280.90612 L 511.1916,242.01236 L 488.07402,242.01236 L 488.07402,261.38114 C 488.07407,265.32987 484.99376,268.56633 481.04503,268.56633 L 436.68426,268.56633 C 432.73553,268.56633 429.65527,265.32987 429.65527,261.38114 L 429.65527,201.71279 C 429.65527,197.76406 432.73553,194.52759 436.68426,194.52759 L 481.04503,194.52759 C 484.99381,194.52759 488.07402,197.76406 488.07402,201.71279 L 488.07402,217.17658 L 511.1916,217.17658 L 511.1916,186.4052 C 511.1916,178.57306 504.8096,172.34721 496.97741,172.34721 L 415.75348,172.34721 z M 179.89169,172.81581 C 173.84583,172.81581 168.9577,177.70394 168.9577,183.7498 L 168.9577,284.96732 C 168.9577,291.01318 173.84583,295.90136 179.89169,295.90131 L 183.79668,295.90131 C 189.84254,295.90131 194.73068,291.01323 194.73068,284.96732 L 194.73068,246.22975 L 260.17842,246.22975 C 266.22428,246.22975 271.11241,241.34162 271.11241,235.29576 L 271.11241,183.7498 C 271.11241,177.70394 266.22428,172.81581 260.17842,172.81581 L 179.89169,172.81581 z M 281.10921,172.81581 L 281.10921,284.96732 C 281.10921,291.01318 285.99734,295.90136 292.0432,295.90131 L 379.98371,295.90131 C 386.02957,295.90131 390.91775,291.01323 390.9177,284.96732 L 390.9177,172.81581 L 363.27032,172.81581 L 363.27032,259.81914 C 363.27027,265.86495 364.63019,270.75313 358.58433,270.75313 L 313.59878,270.75313 C 307.55287,270.75313 308.60038,265.865 308.60038,259.81914 L 308.60038,172.81581 L 281.10921,172.81581 z M 523.53139,172.81581 L 523.53139,295.90131 L 551.02257,295.90131 L 551.02257,242.16856 L 605.69253,242.16856 L 605.69253,295.90131 L 633.3399,295.90131 L 633.3399,172.81581 L 605.69253,172.81581 L 605.69253,217.95758 L 551.02257,217.95758 L 551.02257,172.81581 L 523.53139,172.81581 z M 194.73068,193.278 L 237.68564,193.278 C 243.7315,193.278 248.46343,193.01153 248.46343,199.05739 L 248.46343,220.14437 C 248.46348,226.19028 243.7315,225.92377 237.68564,225.92377 L 194.73068,225.92377 L 194.73068,193.278 z"
       id="rect4254"
       style="opacity:1;fill:#ffffff;fill-opacity:1;fill-rule:nonzero;stroke:none;stroke-width:4;stroke-linecap:round;stroke-linejoin:round;stroke-miterlimit:4;stroke-dasharray:none;stroke-dashoffset:0;stroke-opacity:1" />
    <path
       d="M 168.12207,307.08442 L 636.73836,307.08442 L 636.73836,453.00083 C 636.73836,467.62329 636.02239,481.67713 634.64643,495.16205 C 618.42449,654.14093 510.46898,734.04119 402.49514,734.29566 C 285.3194,734.57187 168.12207,641.04853 168.12207,453.00083 L 168.12207,307.08442 z"
       id="path4306"
       style="fill:#ffffff;fill-rule:evenodd;stroke:none;stroke-width:1px;stroke-linecap:butt;stroke-linejoin:miter;stroke-opacity:1" />
    <path
       d="M 168.12207,307.08442 L 402.43021,307.08442 L 402.43021,495.03014 L 170.18035,495.03014 C 168.82639,481.58821 168.12207,467.57855 168.12207,453.00083 L 168.12207,307.08442 z"
       id="path4310"
       style="fill:#42a500;fill-opacity:1;fill-rule:evenodd;stroke:none;stroke-width:1px;stroke-linecap:butt;stroke-linejoin:miter;stroke-opacity:1" />
    <path
       d="M 634.64643,495.16205 C 618.42449,654.14093 510.46898,734.04119 402.49514,734.29566 L 402.43021,495.09212 L 634.64643,495.16205 z"
       id="path4340"
       style="fill:#42a500;fill-opacity:1;fill-rule:evenodd;stroke:none;stroke-width:1px;stroke-linecap:butt;stroke-linejoin:miter;stroke-opacity:1" />
  </g>
</svg>
