<?xml version="1.0" encoding="UTF-8" standalone="no"?>
<!-- Created with Inkscape (http://www.inkscape.org/) -->

<svg
   xmlns:dc="http://purl.org/dc/elements/1.1/"
   xmlns:cc="http://creativecommons.org/ns#"
   xmlns:rdf="http://www.w3.org/1999/02/22-rdf-syntax-ns#"
   xmlns:svg="http://www.w3.org/2000/svg"
   xmlns="http://www.w3.org/2000/svg"
   xmlns:sodipodi="http://sodipodi.sourceforge.net/DTD/sodipodi-0.dtd"
   xmlns:inkscape="http://www.inkscape.org/namespaces/inkscape"
   width="164.53294"
   height="40.219921"
   id="svg3605"
   version="1.1"
   inkscape:version="0.48.5 r10040"
   sodipodi:docname="Logo revoz.svg">
  <defs
     id="defs3607">
    <clipPath
       id="clipPath3185-5"
       clipPathUnits="userSpaceOnUse">
      <path
         inkscape:connector-curvature="0"
         id="path3187-7"
         d="m 0,0 595.276,0 0,841.89 L 0,841.89 0,0 z" />
    </clipPath>
    <clipPath
       id="clipPath3209"
       clipPathUnits="userSpaceOnUse">
      <path
         inkscape:connector-curvature="0"
         id="path3211"
         d="m 0,0 595.276,0 0,841.89 L 0,841.89 0,0 z" />
    </clipPath>
    <clipPath
       id="clipPath3185"
       clipPathUnits="userSpaceOnUse">
      <path
         inkscape:connector-curvature="0"
         id="path3187"
         d="m 0,0 595.276,0 0,841.89 L 0,841.89 0,0 z" />
    </clipPath>
  </defs>
  <sodipodi:namedview
     id="base"
     pagecolor="#ffffff"
     bordercolor="#666666"
     borderopacity="1.0"
     inkscape:pageopacity="0.0"
     inkscape:pageshadow="2"
     inkscape:zoom="2"
     inkscape:cx="150.47328"
     inkscape:cy="-1.5919796"
     inkscape:document-units="px"
     inkscape:current-layer="layer1"
     showgrid="false"
     fit-margin-left="0.1"
     fit-margin-top="0.1"
     fit-margin-right="0.1"
     fit-margin-bottom="0.1"
     inkscape:window-width="968"
     inkscape:window-height="492"
     inkscape:window-x="216"
     inkscape:window-y="159"
     inkscape:window-maximized="0"
     showguides="true"
     inkscape:guide-bbox="true">
    <sodipodi:guide
       orientation="1,0"
       position="74.953319,7.0710678"
       id="guide3035" />
  </sodipodi:namedview>
  <metadata
     id="metadata3610">
    <rdf:RDF>
      <cc:Work
         rdf:about="">
        <dc:format>image/svg+xml</dc:format>
        <dc:type
           rdf:resource="http://purl.org/dc/dcmitype/StillImage" />
        <dc:title />
      </cc:Work>
    </rdf:RDF>
  </metadata>
  <g
     inkscape:label="Capa 1"
     inkscape:groupmode="layer"
     id="layer1"
     transform="translate(456.55328,-403.67389)">
    <g
       id="g3137"
       transform="matrix(1.25,0,0,-1.25,-448.67984,409.2817)">
      <path
         inkscape:connector-curvature="0"
         d="m 0,0 c 0,0.984 -0.446,2.226 -1.522,2.226 -1.3,0 -1.82,-1.335 -1.82,-4.639 0,-3.192 0.295,-5.197 1.838,-5.197 0.631,0 1.652,0.687 1.652,2.116 l 0,1.356 -1.763,0 0,1.966 4.325,0 0,-7.146 -1.968,0 0,1.226 -0.036,0 c -0.633,-1.039 -1.542,-1.486 -2.785,-1.486 -3.287,0 -3.938,2.451 -3.938,7.035 0,4.455 1.04,6.738 4.457,6.738 C 1.374,4.195 2.562,2.691 2.562,0 L 0,0 z"
         style="fill:none;stroke:#000000;stroke-width:0.40000001;stroke-linecap:butt;stroke-linejoin:miter;stroke-miterlimit:10;stroke-opacity:1;stroke-dasharray:none"
         id="path3139" />
    </g>
    <g
       id="g3145"
       transform="matrix(1.25,0,0,-1.25,-439.57646,411.6027)">
      <path
         inkscape:connector-curvature="0"
         d="m 0,0 1.115,0 c 1.282,0 2.006,0.558 2.006,1.987 0,1.224 -0.65,1.837 -1.858,1.837 L 0,3.824 0,0 z m -2.674,5.792 4.94,0 c 2.191,0 3.528,-1.151 3.528,-3.416 0,-1.763 -0.705,-2.95 -2.209,-3.267 l 0,-0.037 c 1.82,-0.241 2.099,-1.243 2.136,-4.046 0.018,-1.391 0.092,-2.115 0.593,-2.376 l 0,-0.111 -2.896,0 C 3.157,-7.089 3.102,-6.59 3.083,-6.07 L 3.008,-3.527 C 2.971,-2.488 2.509,-1.855 1.43,-1.855 l -1.43,0 0,-5.606 -2.674,0 0,13.253 z"
         style="fill:none;stroke:#000000;stroke-width:0.40000001;stroke-linecap:butt;stroke-linejoin:miter;stroke-miterlimit:10;stroke-opacity:1;stroke-dasharray:none"
         id="path3147" />
    </g>
    <g
       id="g3153"
       transform="matrix(1.25,0,0,-1.25,-424.55221,418.79395)">
      <path
         inkscape:connector-curvature="0"
         d="M 0,0 C 1.579,0 1.838,1.356 1.838,4.917 1.838,8.464 1.579,9.836 0,9.836 -1.578,9.836 -1.837,8.464 -1.837,4.917 -1.837,1.356 -1.578,0 0,0 m 0,11.805 c 4.011,0 4.513,-2.859 4.513,-6.888 0,-4.025 -0.502,-6.884 -4.513,-6.884 -4.01,0 -4.511,2.859 -4.511,6.884 0,4.029 0.501,6.888 4.511,6.888"
         style="fill:none;stroke:#000000;stroke-width:0.40000001;stroke-linecap:butt;stroke-linejoin:miter;stroke-miterlimit:10;stroke-opacity:1;stroke-dasharray:none"
         id="path3155" />
    </g>
    <g
       id="g3161"
       transform="matrix(1.25,0,0,-1.25,-413.58996,404.36282)">
      <path
         inkscape:connector-curvature="0"
         d="m 0,0 0,-9.243 c 0,-1.319 0.316,-2.302 1.56,-2.302 1.245,0 1.56,0.983 1.56,2.302 l 0,9.243 2.674,0 0,-9.243 c 0,-3.379 -2.061,-4.269 -4.234,-4.269 -2.172,0 -4.235,0.723 -4.235,4.269 L -2.675,0 0,0 z"
         style="fill:none;stroke:#000000;stroke-width:0.40000001;stroke-linecap:butt;stroke-linejoin:miter;stroke-miterlimit:10;stroke-opacity:1;stroke-dasharray:none"
         id="path3163" />
    </g>
    <path
       id="path3171"
       style="fill:none;stroke:#000000;stroke-width:0.5;stroke-linecap:butt;stroke-linejoin:miter;stroke-miterlimit:10;stroke-opacity:1;stroke-dasharray:none"
       d="m -400.32909,411.8572 1.48375,0 c 1.32375,0 2.23125,-0.79 2.23125,-2.4825 0,-1.625 -0.65125,-2.5525 -2.32375,-2.5525 l -1.39125,0 0,5.035 z m -3.34375,-7.495 5.84875,0 c 3.39,0 4.55,2.48375 4.55,4.96625 0,3.435 -2.11125,4.98875 -5.26875,4.98875 l -1.78625,0 0,6.61125 -3.34375,0 0,-16.56625 z"
       inkscape:connector-curvature="0" />
    <g
       id="g3177"
       transform="matrix(1.25,0,0,-1.25,-382.61034,404.36285)">
      <path
         inkscape:connector-curvature="0"
         d="m 0,0 0,-2.19 -4.736,0 0,-3.118 4.458,0 0,-2.191 -4.458,0 0,-3.564 4.922,0 0,-2.19 -7.597,0 L -7.411,0 0,0 z"
         style="fill:none;stroke:#000000;stroke-width:0.40000001;stroke-linecap:butt;stroke-linejoin:miter;stroke-miterlimit:10;stroke-opacity:1;stroke-dasharray:none"
         id="path3179" />
    </g>
    <g
       id="g3181"
       transform="matrix(1.25,0,0,-1.25,-1000.7817,1429.076)">
      <g
         id="g3183"
         clip-path="url(#clipPath3185)">
        <g
           id="g3189"
           transform="translate(503.5425,813.9778)">
          <path
             inkscape:connector-curvature="0"
             d="m 0,0 1.114,0 c 1.28,0 2.003,0.557 2.003,1.986 0,1.223 -0.649,1.835 -1.854,1.835 L 0,3.821 0,0 z m -2.669,5.787 4.932,0 c 2.188,0 3.524,-1.15 3.524,-3.413 0,-1.762 -0.704,-2.948 -2.207,-3.264 l 0,-0.038 C 5.399,-1.167 5.676,-2.169 5.714,-4.97 5.732,-6.36 5.806,-7.083 6.306,-7.344 l 0,-0.11 -2.893,0 c -0.26,0.371 -0.315,0.87 -0.333,1.39 l -0.075,2.54 C 2.969,-2.485 2.504,-1.853 1.43,-1.853 l -1.43,0 0,-5.601 -2.669,0 0,13.241 z"
             style="fill:#000101;fill-opacity:1;fill-rule:nonzero;stroke:none"
             id="path3191" />
        </g>
      </g>
    </g>
    <g
       id="g3193"
       transform="matrix(1.25,0,0,-1.25,-352.20559,404.3701)">
      <path
         inkscape:connector-curvature="0"
         d="m 0,0 0,-2.188 -4.728,0 0,-3.116 4.45,0 0,-2.189 -4.45,0 0,-3.56 4.914,0 0,-2.188 -7.586,0 L -7.4,0 0,0 z"
         style="fill:#000101;fill-opacity:1;fill-rule:nonzero;stroke:none"
         id="path3195" />
    </g>
    <g
       id="g3197"
       transform="matrix(1.25,0,0,-1.25,-346.10796,404.3701)">
      <path
         inkscape:connector-curvature="0"
         d="m 0,0 3.226,-9.069 0.038,0 0,9.069 2.448,0 0,-13.241 -3.042,0 -3.264,9.272 -0.037,0 0,-9.272 -2.448,0 L -3.079,0 0,0 z"
         style="fill:#000101;fill-opacity:1;fill-rule:nonzero;stroke:none"
         id="path3199" />
    </g>
    <g
       id="g3201"
       transform="matrix(1.25,0,0,-1.25,-332.77959,414.6856)">
      <path
         inkscape:connector-curvature="0"
         d="m 0,0 2.597,0 -1.28,5.954 -0.038,0 L 0,0 z m -0.353,8.252 3.302,0 3.503,-13.241 -2.779,0 -0.613,2.801 -3.523,0 -0.613,-2.801 -2.782,0 3.505,13.241 z"
         style="fill:#000101;fill-opacity:1;fill-rule:nonzero;stroke:none"
         id="path3203" />
    </g>
    <g
       id="g3205"
       transform="matrix(1.25,0,0,-1.25,-1000.7817,1429.076)">
      <g
         id="g3207"
         clip-path="url(#clipPath3209)">
        <g
           id="g3213"
           transform="translate(544.2306,819.7647)">
          <path
             inkscape:connector-curvature="0"
             d="m 0,0 0,-9.235 c 0,-1.318 0.314,-2.3 1.558,-2.3 1.243,0 1.558,0.982 1.558,2.3 l 0,9.235 2.67,0 0,-9.235 c 0,-3.376 -2.058,-4.266 -4.228,-4.266 -2.17,0 -4.229,0.723 -4.229,4.266 L -2.671,0 0,0 z"
             style="fill:#000101;fill-opacity:1;fill-rule:nonzero;stroke:none"
             id="path3215" />
        </g>
      </g>
    </g>
    <g
       id="g3217"
       transform="matrix(1.25,0,0,-1.25,-310.45721,420.92272)">
      <path
         inkscape:connector-curvature="0"
         d="m 0,0 0,13.241 2.67,0 0,-11.052 4.731,0 L 7.401,0 0,0 z"
         style="fill:#000101;fill-opacity:1;fill-rule:nonzero;stroke:none"
         id="path3219" />
    </g>
    <g
       id="g3221"
       transform="matrix(1.25,0,0,-1.25,-292.12034,404.3701)">
      <path
         inkscape:connector-curvature="0"
         d="m 0,0 0,-2.188 -2.892,0 0,-11.053 -2.671,0 0,11.053 -2.893,0 0,2.188 L 0,0 z"
         style="fill:#000101;fill-opacity:1;fill-rule:nonzero;stroke:none"
         id="path3223" />
    </g>
    <g
       id="g3181-2"
       transform="matrix(1.25,0,0,-1.25,-978.43157,1451.7425)">
      <g
         id="g3183-1"
         clip-path="url(#clipPath3185-5)">
        <g
           id="g3189-8"
           transform="translate(503.5425,813.9778)">
          <path
             inkscape:connector-curvature="0"
             d="m 0,0 1.114,0 c 1.28,0 2.003,0.557 2.003,1.986 0,1.223 -0.649,1.835 -1.854,1.835 L 0,3.821 0,0 z m -2.669,5.787 4.932,0 c 2.188,0 3.524,-1.15 3.524,-3.413 0,-1.762 -0.704,-2.948 -2.207,-3.264 l 0,-0.038 C 5.399,-1.167 5.676,-2.169 5.714,-4.97 5.732,-6.36 5.806,-7.083 6.306,-7.344 l 0,-0.11 -2.893,0 c -0.26,0.371 -0.315,0.87 -0.333,1.39 l -0.075,2.54 C 2.969,-2.485 2.504,-1.853 1.43,-1.853 l -1.43,0 0,-5.601 -2.669,0 0,13.241 z"
             style="fill:#000101;fill-opacity:1;fill-rule:nonzero;stroke:none"
             id="path3191-5" />
        </g>
      </g>
    </g>
    <g
       id="g3193-0"
       transform="matrix(1.25,0,0,-1.25,-329.85545,427.03663)">
      <path
         inkscape:connector-curvature="0"
         d="m 0,0 0,-2.188 -4.728,0 0,-3.116 4.45,0 0,-2.189 -4.45,0 0,-3.56 4.914,0 0,-2.188 -7.586,0 L -7.4,0 0,0 z"
         style="fill:#000101;fill-opacity:1;fill-rule:nonzero;stroke:none"
         id="path3195-4" />
    </g>
    <path
       inkscape:connector-curvature="0"
       id="path3384-4"
       style="font-size:23.75px;font-variant:normal;font-weight:bold;font-stretch:condensed;writing-mode:lr-tb;fill:#000000;fill-opacity:1;fill-rule:nonzero;stroke:none;font-family:HelveticaNeueLT Std Cn;-inkscape-font-specification:HelveticaNeueLTStd-BdCn"
       d="m -328.88533,427.00341 3.16878,0 3.24247,12.15705 3.23429,-12.15705 3.16877,0 -4.52799,16.47048 -3.75833,0 -4.52799,-16.47048" />
    <path
       inkscape:connector-curvature="0"
       id="path3388-8"
       style="font-size:23.75px;font-variant:normal;font-weight:bold;font-stretch:condensed;writing-mode:lr-tb;fill:#000000;fill-opacity:1;fill-rule:nonzero;stroke:none;font-family:HelveticaNeueLT Std Cn;-inkscape-font-specification:HelveticaNeueLTStd-BdCn"
       d="m -302.40394,427.00341 9.9925,0 0,2.57041 -6.37769,10.68981 6.56082,0 0,3.21026 -10.35876,0 0,-2.57041 6.37769,-10.68981 -6.19456,0 0,-3.21026" />
    <g
       id="g3153-5"
       transform="matrix(1.195745,0,0,-1.1949051,-309.76894,441.02864)"
       style="fill:#000000">
      <path
         inkscape:connector-curvature="0"
         d="M 0,0 C 1.579,0 1.838,1.356 1.838,4.917 1.838,8.464 1.579,9.836 0,9.836 -1.578,9.836 -1.837,8.464 -1.837,4.917 -1.837,1.356 -1.578,0 0,0 m 0,11.805 c 4.011,0 4.513,-2.859 4.513,-6.888 0,-4.025 -0.502,-6.884 -4.513,-6.884 -4.01,0 -4.511,2.859 -4.511,6.884 0,4.029 0.501,6.888 4.511,6.888"
         style="fill:#000000;stroke:#000000;stroke-width:0.40000001;stroke-linecap:butt;stroke-linejoin:miter;stroke-miterlimit:10;stroke-opacity:1;stroke-dasharray:none"
         id="path3155-4" />
    </g>
  </g>
</svg>
