<?xml version="1.0" encoding="UTF-8" standalone="no"?>
<!-- Created with Inkscape (http://www.inkscape.org/) -->

<svg
   xmlns:svg="http://www.w3.org/2000/svg"
   xmlns="http://www.w3.org/2000/svg"
   version="1.1"
   width="295"
   height="48"
   id="svg111789">
  <defs
     id="defs111791" />
  <g
     transform="translate(-572.78646,-596.87514)"
     id="layer1">
    <path
       d="m 830.05221,625.61899 12.79,0 -6.8075,-14.91 -5.9825,14.91 z m -20.4975,-26.895 -0.014,33.54 13.5775,-33.52 25.9225,0 18.245,45.015 -17.005,0 -3.1375,-6.8425 -21.745,0 -2.745,6.8425 -30.4875,0 0,-45.035 17.39,0 z m -111.305,26.895 12.82,0 -6.835,-15.3875 -5.985,15.3875 z m -6.455,-26.875 25.5425,0 13.8625,33.425 0,-33.445 22.13,0 18.4175,24.235 0,-24.215 16.7125,0 0,45.01 -20.415,0 -20.51,-26.7775 0,26.6825 -28.8675,0 -2.9425,-6.93 -22.1275,0 -3.0475,7.03 -16.84,0 1.8225,-4.5625 c -5.7575,4.185 -10.385,5.425 -19.31,5.425 -13.9975,0 -21.175,-3.45 -26.72,-12.8325 -2.745,8.93 -11.21,12.7125 -28.465,12.7125 -17.9275,0 -27.75,-5.3575 -27.75,-15.13 l 0,-0.43 19.75,0 c 0,4.0475 3.2375,6.16 9.43,6.16 3.575,0 6.9975,-2.325 6.9975,-4.75 0,-2.8675 -2.44,-4.215 -7.8775,-4.3525 l -7.41,-0.1926 c -12.4775,-0.3175 -18.99,-4.9725 -18.99,-13.5675 0,-10.0825 8.8625,-15.0125 26.9925,-15.0125 16.3075,0 25.3325,5.135 25.3325,14.4125 l -0.006,0.59 -19.0875,0 c 0,-4.7525 -2.0875,-6.6525 -7.315,-6.6525 -4.5425,0 -7.0225,1.56 -7.0225,4.4225 0,2.555 2.435,4.045 6.745,4.13 l 9.9675,0.1874 6.745,0.57 c 3.19,0.27 7.3775,2.465 9.9675,5.2225 1.4275,-15.99 9.9,-22.98 27.84,-22.98 16.72,0 27.715,7.1575 27.715,18.04 l -0.002,0.66 -18.1375,0.008 c -0.9725,-5.245 -4.1925,-7.79 -9.8475,-7.79 -6.9175,0 -10.4875,4.6975 -10.4875,13.815 0,7.0175 4.265,11.735 10.61,11.735 5.5275,0 8.5625,-2.475 9.9125,-8.075 l 15.9525,0 10.732,-26.7776"
       id="path58"
       style="fill:#00275d;fill-opacity:1;fill-rule:nonzero;stroke:none" />
  </g>
</svg>
