<?xml version="1.0" encoding="utf-8"?>
<!-- Generator: Adobe Illustrator 25.1.0, SVG Export Plug-In . SVG Version: 6.00 Build 0)  -->
<svg version="1.1" id="Ebene_1" xmlns="http://www.w3.org/2000/svg" xmlns:xlink="http://www.w3.org/1999/xlink" x="0px" y="0px"
	 viewBox="0 0 283.5 96.4" style="enable-background:new 0 0 283.5 96.4;" xml:space="preserve">
<style type="text/css">
	.st0{fill:#FFFFFF;}
	.st1{fill:#1D1D1B;}
	.st2{fill:#9C1006;}
	.st3{fill:#1D1D1B;stroke:#1D1D1B;stroke-width:0.28;}
</style>
<g id="Setra_Logo_02_2011">
	<g id="SchwarzWeiss_Outline">
		<path class="st0" d="M24.3,59.1c-5.7,0-8-0.8-9.2-1.4c-2.4-1.2-3.4-4.3-3.7-5.5L1.3,14.3C-0.3,8.7,1.4,5.5,3.1,3.8
			c3-3,5.9-3.1,15.5-3.1h258.8c1.9,0,3.7,1,4.7,2.6c0.7,1.1,0.9,2.4,0.6,3.7c-2.3,9.7-5.2,19.2-8.7,28.6c-1.8,4.6-3.2,7.9-3.8,8.9
			c-1.3,2.4-3.6,4-6.3,4.4C234.4,54.1,75.8,59.1,26.9,59.1L24.3,59.1L24.3,59.1z"/>
		<path class="st1" d="M277.4,0c2.2,0,4.2,1.1,5.2,3c0.7,1.2,1,2.6,0.7,4c-2.4,9.7-5.3,19.3-8.7,28.7c-1.8,4.6-3.2,7.9-3.8,8.9
			c-1.3,2.6-3.8,4.3-6.7,4.7C234.4,54.7,75.8,59.7,26.9,59.7h-2.6c-5.9,0-8.2-0.8-9.5-1.5c-2.6-1.3-3.7-4.6-4.1-6L0.7,14.5
			C-1,8.5,0.8,5.1,2.6,3.3C5.9,0.1,9.2,0,18.6,0H277.4 M277.4,1.3H18.6c-9.4,0-12.2,0.1-15,2.9C2,5.8,0.4,8.8,1.9,14.1L12.1,52
			c0.3,1.2,1.2,4,3.4,5.1c1.1,0.6,3.3,1.3,8.9,1.3h2.6c48.8,0,207.3-5,237-10.3c2.5-0.3,4.6-1.8,5.8-4c0.5-1,2-4.3,3.7-8.8
			c3.4-9.3,6.3-18.8,8.6-28.5c0.2-1.1,0-2.3-0.6-3.2C280.7,2.2,279.1,1.3,277.4,1.3L277.4,1.3z"/>
		<g id="SchwarzWeiss_Outline-2">
			<path class="st2" d="M24.3,56.1c-6,0-7.1-0.5-8.1-1.3c-0.8-0.6-1.4-1.5-1.7-2.5L4.2,13.5c-0.4-1.6-1.3-5.3,1-7.7
				c2-2,3.7-2.2,13.4-2.2h258.8c0.9,0,1.7,0.5,2.1,1.2c0.3,0.5,0.4,1.1,0.3,1.7c-2.3,9.5-5.2,18.8-8.5,27.9
				c-1.9,4.8-3.3,7.9-3.6,8.6c-0.8,1.6-2.4,2.6-4.1,2.8C234.6,51,79.3,56.1,26.9,56.1L24.3,56.1L24.3,56.1z"/>
		</g>
	</g>
</g>
<g id="Medium_20pt_12pt_Kopie">
	<path class="st3" d="M57.5,76.7v1.5H54V90h-1.7V78.2h-3.5v-1.5H57.5z"/>
	<path class="st3" d="M61.2,76.6v5c0.6-0.9,1.7-1.4,2.7-1.3c1-0.1,2,0.4,2.6,1.3c0.4,0.6,0.5,1.2,0.5,3V90h-1.6v-5.2
		c0.1-0.7,0-1.4-0.3-2.1c-0.3-0.6-0.9-1-1.6-0.9c-0.8,0-1.5,0.4-1.9,1.1c-0.3,0.6-0.5,1.3-0.4,2.1V90h-1.6V76.6H61.2z"/>
	<path class="st3" d="M71.1,85.6c0.1,2.2,1,3.3,2.7,3.3c0.9,0.1,1.8-0.5,2.1-1.4l1.5,0.1c-0.4,1.6-2,2.7-3.6,2.6
		c-2.6,0-4.3-1.9-4.3-4.9s1.7-5.1,4.2-5.1s4,1.9,4,4.9v0.4H71.1z M75.9,84.4c-0.2-1.8-1-2.7-2.3-2.7s-2.2,0.9-2.5,2.7H75.9z"/>
	<path class="st3" d="M90.2,80.2c0-1.3-1.1-2.3-2.4-2.2c0,0-0.1,0-0.1,0c-1.2-0.1-2.2,0.7-2.3,1.9c0,0,0,0,0,0.1
		c0,0.5,0.3,1,0.8,1.3c0.7,0.4,1.5,0.8,2.3,1.1c1.1,0.4,2.1,1,3,1.8c0.6,0.7,0.8,1.5,0.8,2.3c0,2.3-1.8,3.9-4.4,3.9
		c-1.4,0.1-2.8-0.5-3.8-1.6c-0.6-0.8-0.9-1.8-0.8-2.8h1.7c-0.1,1.5,1.1,2.8,2.6,2.9c0.1,0,0.3,0,0.4,0c1.5,0,2.6-0.9,2.6-2.1
		c0-0.6-0.3-1.2-0.8-1.6c-0.7-0.5-1.4-0.8-2.2-1.1c-1-0.4-1.9-0.9-2.7-1.5c-0.8-0.6-1.2-1.5-1.2-2.5c0-2.1,1.7-3.6,4.1-3.6
		c1.3-0.1,2.6,0.5,3.4,1.6c0.4,0.7,0.7,1.4,0.7,2.2L90.2,80.2z"/>
	<path class="st3" d="M96.8,77.6c0,0.6-0.5,1.1-1,1.1c0,0,0,0-0.1,0c-0.5,0.1-1-0.3-1.1-0.9c0-0.1,0-0.1,0-0.2
		c0-0.6,0.5-1.1,1.1-1.1c0,0,0,0,0.1,0c0.6,0,1.1,0.4,1.1,1C96.8,77.6,96.8,77.6,96.8,77.6z M96.5,80.6V90h-1.7v-9.4L96.5,80.6z"/>
	<path class="st3" d="M107.4,81.8h-1.9c0.5,0.6,0.8,1.3,0.8,2.1c0,0.8-0.3,1.6-1,2.2c-0.7,0.4-1.4,0.6-2.1,0.8c-0.5,0-1,0.2-1.5,0.4
		c-0.3,0.1-0.5,0.4-0.5,0.6s0.2,0.5,1.9,0.6c1,0,2.1,0.2,3,0.6c0.8,0.4,1.3,1.3,1.3,2.2c0,1.9-1.7,3-4.4,3s-4.4-1.1-4.4-2.8
		c0-1.1,0.6-1.8,2-2.3c-0.7-0.3-1-0.6-1-1.1s0.5-1,1.7-1.5c-1.2-0.4-1.9-1.5-1.8-2.7c0-2,1.4-3.3,3.6-3.3c0.5,0,1,0.1,1.5,0.2
		l2.9-0.1L107.4,81.8z M99.9,91.2c0,1,1.2,1.6,2.9,1.6s2.8-0.6,2.8-1.6s-1-1.6-3-1.6C101,89.7,99.9,90.3,99.9,91.2z M100.8,83.7
		c0.2,1.1,1.3,1.8,2.4,1.5c0.7-0.2,1.3-0.8,1.5-1.5c0.1-1-0.7-1.9-1.7-2c-0.1,0-0.1,0-0.2,0c-1-0.1-1.9,0.7-2,1.8
		C100.8,83.5,100.8,83.6,100.8,83.7z"/>
	<path class="st3" d="M110.8,80.6c0.2,0.4,0.2,0.9,0.2,1.3c0.6-1,1.7-1.6,2.9-1.6c1,0,1.9,0.4,2.5,1.1c0.4,0.7,0.6,1.5,0.6,2.3V90
		h-1.6v-5.2c0.1-0.7,0-1.4-0.2-2.1c-0.3-0.6-0.9-1-1.6-0.9c-0.8,0-1.6,0.4-2,1.1c-0.3,0.6-0.5,1.3-0.4,2V90h-1.6v-7
		c0.1-0.8,0-1.7-0.3-2.5L110.8,80.6z"/>
	<path class="st3" d="M131.2,85.3c0,2.9-1.8,5-4.2,5s-4.3-2.1-4.3-5.1s1.8-4.9,4.3-4.9S131.2,82.4,131.2,85.3z M124.4,85.3
		c0,2.2,1,3.7,2.6,3.7s2.6-1.5,2.6-3.6s-1-3.7-2.6-3.7S124.3,83.1,124.4,85.3L124.4,85.3z"/>
	<path class="st3" d="M137.8,80.6v1.3h-2.3V90h-1.7v-8.2h-1.3v-1.2h1.3V80c-0.1-0.8,0-1.7,0.4-2.5c0.5-0.7,1.3-1.2,2.2-1.1
		c0.6,0,1.1,0.1,1.6,0.3v1.4c-0.4-0.2-0.9-0.3-1.4-0.3c-0.9,0-1.2,0.6-1.2,2.2v0.6L137.8,80.6z"/>
	<path class="st3" d="M151,82.4v1.5h-5.4v4.7h6V90h-7.7V76.7h7.5v1.5h-5.8v4.2H151z"/>
	<path class="st3" d="M155.6,80.6l2.1,3.2l2.1-3.2h1.9l-3,4.4l3.4,5h-1.9l-2.5-3.8l-2.6,3.8h-1.9l3.5-5l-3-4.4H155.6z"/>
	<path class="st3" d="M169,83.7c-0.2-1.4-0.8-2-2-2c-1.5,0-2.4,1.4-2.4,3.7s0.9,3.6,2.5,3.6c1.2,0,1.8-0.6,2-2.2h1.6
		c-0.2,2.2-1.5,3.5-3.6,3.5c-2.5,0-4.1-2-4.1-5s1.6-5,4.1-5c2,0,3.3,1.2,3.5,3.4L169,83.7z"/>
	<path class="st3" d="M174.2,85.6c0.1,2.2,1,3.3,2.7,3.3c0.9,0.1,1.8-0.5,2.2-1.4l1.5,0.1c-0.4,1.6-2,2.7-3.6,2.6
		c-2.6,0-4.3-1.9-4.3-4.9s1.7-5.1,4.2-5.1s3.9,1.9,3.9,4.9v0.4H174.2z M179,84.4c-0.2-1.8-1-2.7-2.3-2.7s-2.2,0.9-2.5,2.7H179z"/>
	<path class="st3" d="M184.8,76.6V90h-1.7V76.6H184.8z"/>
	<path class="st3" d="M189.4,76.6V90h-1.7V76.6H189.4z"/>
	<path class="st3" d="M193.6,85.6c0.1,2.2,1,3.3,2.7,3.3c0.9,0.1,1.8-0.5,2.1-1.4l1.5,0.1c-0.4,1.6-2,2.7-3.6,2.6
		c-2.6,0-4.3-1.9-4.3-4.9s1.7-5.1,4.2-5.1s3.9,1.9,3.9,4.9v0.4H193.6z M198.4,84.4c-0.2-1.8-1-2.7-2.3-2.7s-2.2,0.9-2.5,2.7H198.4z"
		/>
	<path class="st3" d="M203.8,80.6c0.2,0.4,0.2,0.9,0.2,1.3c0.6-1,1.7-1.6,2.9-1.6c1,0,1.9,0.4,2.5,1.1c0.4,0.7,0.6,1.5,0.6,2.3V90
		h-1.6v-5.2c0.1-0.7,0-1.4-0.2-2.1c-0.3-0.6-0.9-1-1.6-0.9c-0.8,0-1.6,0.4-2,1.1c-0.3,0.6-0.5,1.3-0.4,2V90h-1.6v-7
		c0.1-0.8,0-1.7-0.3-2.5L203.8,80.6z"/>
	<path class="st3" d="M218.4,83.7c-0.2-1.4-0.8-2-2-2c-1.5,0-2.4,1.4-2.4,3.7s0.9,3.6,2.5,3.6c1.2,0,1.8-0.6,2-2.2h1.6
		c-0.2,2.2-1.5,3.5-3.6,3.5c-2.5,0-4.1-2-4.1-5s1.6-5,4.1-5c2.1,0,3.3,1.2,3.5,3.4L218.4,83.7z"/>
	<path class="st3" d="M223.6,85.6c0.1,2.2,1,3.3,2.7,3.3c0.9,0.1,1.8-0.5,2.1-1.4l1.5,0.1c-0.4,1.6-2,2.7-3.6,2.6
		c-2.6,0-4.3-1.9-4.3-4.9s1.7-5.1,4.2-5.1s3.9,1.9,3.9,4.9v0.4H223.6z M228.4,84.4c-0.2-1.8-1-2.7-2.3-2.7s-2.2,0.9-2.5,2.7H228.4z"
		/>
	<path class="st3" d="M234.6,89c0,0.7-0.6,1.2-1.2,1.2c-0.7,0-1.2-0.6-1.2-1.2c0-0.7,0.5-1.2,1.2-1.2c0,0,0,0,0,0
		C234.1,87.8,234.6,88.3,234.6,89z"/>
</g>
<g id="RZ_Schriftzug">
	<path class="st0" d="M233.3,35.8h-9.8c-0.3,0-0.5-0.2-0.5-0.5v-3.6h-6.6v3.6c0,0.3-0.3,0.5-0.6,0.5h-9.7c-0.3,0-0.5-0.2-0.6-0.5
		v-9.7c0-3,2.4-5.4,5.4-5.4h17.4c3,0,5.4,2.4,5.4,5.4v9.7C233.8,35.6,233.6,35.8,233.3,35.8L233.3,35.8z M216.4,28.5h6.6v-4.3
		c0-0.1-0.1-0.1-0.1-0.1h-6.2c-0.1,0-0.1,0.1-0.1,0.1L216.4,28.5L216.4,28.5z"/>
	<path class="st1" d="M223.6,36.1c-0.4,0-0.8-0.4-0.8-0.8c0,0,0,0,0,0l0,0v-3.4h-6v3.4c0,0.4-0.4,0.8-0.8,0.8c0,0,0,0,0,0h-9.7
		c-0.4,0-0.8-0.3-0.8-0.8c0,0,0,0,0,0l0,0v-9.7c0-3.1,2.5-5.6,5.6-5.7h17.4c3.1,0,5.7,2.5,5.7,5.7l0,0v9.7c0,0.4-0.4,0.8-0.8,0.8
		l0,0v-0.5c0.2,0,0.3-0.1,0.3-0.3c0,0,0,0,0,0l0,0v-9.7c0-2.9-2.3-5.2-5.2-5.2H211c-2.8,0-5.2,2.3-5.2,5.2l0,0v9.7
		c0,0.2,0.1,0.3,0.3,0.3c0,0,0,0,0,0h9.7c0.2,0,0.3-0.1,0.3-0.3c0,0,0,0,0,0l0,0v-3.9h7.1v3.9c0,0.1,0.1,0.3,0.3,0.3c0,0,0,0,0,0
		h9.8v0.5H223.6z M216.4,28.7h-0.3v-4.6c0-0.2,0.2-0.4,0.4-0.4h6.3c0.2,0,0.4,0.2,0.4,0.4l0,0v4.6H216.4z M222.8,28.2v-3.9h-6v4
		L222.8,28.2z"/>
	<path class="st0" d="M194.1,35.8h-12.1l-0.1-0.1l-4.1-4.1h-1.8v3.6c0,0.3-0.2,0.5-0.6,0.5l0,0h-9.7c-0.3,0-0.6-0.2-0.6-0.5
		c0,0,0,0,0,0V20.7c0-0.3,0.2-0.5,0.6-0.5l0,0h21.9c3,0,5.4,2.3,5.4,5.3c0,0,0,0.1,0,0.1v0.7c0,2.3-1.5,4.4-3.7,5.1
		c0.6,0.7,2.8,2.7,4.3,4.1L194.1,35.8z M176.1,28.5h5.4c1,0,1.9-0.8,1.9-1.9c0,0,0,0,0,0v-0.7c0-1-0.8-1.9-1.8-1.9c0,0-0.1,0-0.1,0
		h-5.4L176.1,28.5L176.1,28.5z"/>
	<path class="st1" d="M194.1,36.1H182l-0.1-0.1v-0.1l-4-4h-1.4v3.4c0,0.4-0.4,0.8-0.8,0.8h-9.9c-0.4,0-0.8-0.4-0.8-0.8l0,0V20.7
		c0-0.4,0.4-0.8,0.8-0.8h21.9c3.1,0,5.7,2.5,5.7,5.6c0,0,0,0.1,0,0.1l0,0v0.7c0,2.3-1.4,4.3-3.5,5.2l0,0c0.9,0.8,2.7,2.6,4,3.8l0,0
		l0.4,0.3l-0.2,0.2l0,0l0.2-0.2l0.5,0.5L194.1,36.1z M193.5,35.6c-1.5-1.4-3.6-3.4-4.2-4l0,0l-0.3-0.3l0.4-0.1
		c2.1-0.7,3.5-2.7,3.5-4.9l0,0v-0.7c0-2.8-2.2-5.1-5.1-5.2c0,0-0.1,0-0.1,0h-21.9c-0.2,0-0.3,0.1-0.3,0.3l0,0v14.6
		c0,0.2,0.1,0.3,0.3,0.3h9.7c0.2,0,0.3-0.1,0.3-0.3l0,0v-3.9h2.2l4.2,4.2L193.5,35.6z M176.1,28.7h-0.3v-5h5.6
		c1.2,0,2.1,0.9,2.1,2.1c0,0,0,0,0,0.1l0,0v0.7c0,1.2-0.9,2.1-2.1,2.1c0,0,0,0,0,0L176.1,28.7L176.1,28.7z M181.5,28.2
		c0.9,0,1.6-0.7,1.6-1.6c0,0,0,0,0,0l0,0v-0.7c0-0.9-0.7-1.6-1.6-1.6c0,0,0,0-0.1,0h-5.1v4H181.5z"/>
	<path class="st0" d="M145.5,35.8h-9.7c-0.3,0-0.5-0.2-0.6-0.5V24H126c-0.3,0-0.6-0.2-0.6-0.5v0v-2.8c0-0.3,0.2-0.5,0.6-0.5l0,0
		h29.2c0.3,0,0.6,0.2,0.6,0.5v0v2.8c0,0.3-0.2,0.5-0.6,0.5l0,0H146v11.3C146,35.6,145.7,35.8,145.5,35.8L145.5,35.8z"/>
	<path class="st1" d="M135.8,36.1c-0.4,0-0.8-0.3-0.8-0.8c0,0,0,0,0,0l0,0v-11H126c-0.4,0-0.8-0.3-0.8-0.8c0,0,0,0,0,0l0,0v-2.8
		c0-0.4,0.4-0.8,0.8-0.8c0,0,0,0,0,0h29.2c0.4,0,0.8,0.4,0.8,0.8l0,0v2.8c0,0.4-0.4,0.8-0.8,0.8h-8.9v11c0,0.4-0.4,0.8-0.8,0.8l0,0
		v-0.5c0.2,0,0.3-0.1,0.3-0.3l0,0V23.7h9.4c0.2,0,0.3-0.1,0.3-0.3l0,0v-2.8c0-0.2-0.1-0.3-0.3-0.3c0,0,0,0,0,0H126
		c-0.2,0-0.3,0.1-0.3,0.3c0,0,0,0,0,0l0,0v2.8c0,0.2,0.1,0.3,0.3,0.3l0,0h9.4v11.5c0,0.2,0.1,0.3,0.3,0.3h9.7v0.5H135.8z"/>
	<path class="st0" d="M116.3,35.8H91.9c-0.3,0-0.5-0.2-0.6-0.5V20.7c0-0.3,0.2-0.5,0.6-0.5l0,0h24.4c0.3,0,0.5,0.2,0.5,0.5
		c0,0,0,0,0,0v2.8c0,0.3-0.2,0.5-0.5,0.5h-14.1v2.4h14.1c0.3,0,0.5,0.2,0.5,0.5c0,0,0,0,0,0V29c0,0.3-0.2,0.5-0.5,0.5l0,0h-14.1v2.4
		h14.1c0.3,0,0.5,0.2,0.5,0.5l0,0v2.8C116.8,35.6,116.6,35.8,116.3,35.8L116.3,35.8L116.3,35.8z"/>
	<path class="st1" d="M91.9,36.1c-0.4,0-0.8-0.4-0.8-0.8l0,0V20.6c0-0.4,0.4-0.8,0.8-0.8h24.4c0.4,0,0.8,0.4,0.8,0.8v0l0,0v2.8
		c0,0.4-0.4,0.8-0.8,0.8l0,0h-13.8v1.9h13.8c0.4,0,0.8,0.4,0.8,0.8c0,0,0,0,0,0l0,0V29c0,0.4-0.4,0.8-0.8,0.8l0,0h-13.8v1.9h13.8
		c0.4,0,0.8,0.4,0.8,0.8v0l0,0v2.8c0,0.4-0.4,0.8-0.8,0.8l0,0l0,0v-0.5c0.2,0,0.3-0.1,0.3-0.3c0,0,0,0,0,0l0,0v-2.8
		c0-0.2-0.1-0.3-0.3-0.3h-14.3v-2.9h14.3c0.2,0,0.3-0.1,0.3-0.3l0,0v-2.1c0-0.2-0.1-0.3-0.3-0.3c0,0,0,0,0,0h-14.3v-2.9h14.3
		c0.2,0,0.3-0.1,0.3-0.3c0,0,0,0,0,0l0,0v-2.8c0-0.1-0.1-0.3-0.3-0.3c0,0,0,0,0,0H91.9c-0.2,0-0.3,0.1-0.3,0.3c0,0,0,0,0,0l0,0v14.6
		c0,0.2,0.1,0.3,0.3,0.3l0,0h24.4v0.5H91.9z"/>
	<path class="st0" d="M73.5,35.8H50.9c-0.3,0-0.5-0.2-0.5-0.5v-2.8c0-0.3,0.2-0.5,0.5-0.5h17.5v-2.4H56.8c-6.2,0-7.2-3-7.2-4.7
		c0-1.4,0.7-4.7,7.2-4.7h22.6c0.3,0,0.6,0.2,0.6,0.5v0v2.8c0,0.3-0.2,0.5-0.6,0.5l0,0H61.8v2.4h11.6c6.2,0,7.2,3,7.2,4.7
		C80.6,32.5,79.9,35.8,73.5,35.8z"/>
	<path class="st1" d="M73.5,36.1v-0.5c6.4,0,6.9-3.1,6.9-4.5l0,0c0-1.7-0.8-4.4-6.9-4.5H61.6v-2.9h17.8c0.2,0,0.3-0.1,0.3-0.3l0,0
		v-2.8c0-0.2-0.1-0.3-0.3-0.3H56.8c-6.4,0-6.9,3.1-6.9,4.5l0,0c0,1.6,0.8,4.4,6.9,4.4h11.9v2.9H50.9c-0.2,0-0.3,0.1-0.3,0.3l0,0v2.8
		c0,0.2,0.1,0.3,0.3,0.3l0,0h22.6V36.1l-22.6,0c-0.4,0-0.8-0.3-0.8-0.8c0,0,0,0,0,0l0,0v-2.8c0-0.4,0.4-0.8,0.8-0.8l0,0h17.3v-1.9
		H56.8c-3.2,0-5-0.8-6.1-1.8l0,0c-0.9-0.8-1.3-2-1.3-3.2l0,0c0-1.1,0.4-2.3,1.2-3.1l0,0c1-1.1,2.9-1.9,6.2-1.9h22.6
		c0.4,0,0.8,0.4,0.8,0.8c0,0,0,0,0,0l0,0v2.8c0,0.4-0.3,0.8-0.8,0.8c0,0,0,0,0,0H62.1v1.9h11.4c3.2,0,5,0.8,6.1,1.8l0,0
		c0.9,0.8,1.3,2,1.3,3.2l0,0c0,1.1-0.4,2.3-1.2,3.1l0,0C78.7,35.2,76.7,36.1,73.5,36.1L73.5,36.1L73.5,36.1z"/>
</g>
<path class="st1" d="M239.4,79.2v-2.7h1v2.7l2.6-0.8l0.3,1l-2.6,0.8l1.6,2.2l-0.8,0.6l-1.6-2.2l-1.6,2.2l-0.9-0.6l1.6-2.2l-2.6-0.8
	l0.3-1L239.4,79.2z"/>
</svg>
