<svg width="1332" height="1036" xmlns="http://www.w3.org/2000/svg" xmlns:xlink="http://www.w3.org/1999/xlink" xml:space="preserve" overflow="hidden"><defs><clipPath id="clip0"><rect x="1362" y="218" width="1332" height="1036"/></clipPath></defs><g clip-path="url(#clip0)" transform="translate(-1362 -218)"><path d="M2012.41 218.367 2044.54 218 2340.81 434.294 2351 465.052 2237.75 814.904 2210.66 832.29 1844.39 833 1819.12 814.081 1706 464.178 1716.05 434.56 2012.41 218.367Z" fill="#FFFFFF" fill-rule="evenodd"/><path d="M322.062 225.908C323.913 225.764 325.805 224.587 327.666 222.306L508.8 7.19292C510.904 3.98917 509.902 0.405121 505.351 0L138.811 0.062987C133.18 0.393191 131.977 4.59709 135.825 9.2963L316.706 223.307C318.402 225.163 320.212 226.053 322.062 225.908ZM640.045 372.91C643.734 373.923 646.828 371.871 645.801 367.401L532.465 18.1283C530.411 12.8727 526.051 13.0245 522.78 18.1412L375.545 256.646C373.073 261.028 374.404 264.65 379.881 266.777ZM1.57909 374.001C3.0125 375.017 5.3305 375.074 8.1529 373.973L267.182 267.727C271.757 265.637 272.798 261.926 269.619 256.973L121.412 17.8859C119.015 14.8974 115.306 14.7327 113.523 18.95L0.312857 368.273C-0.402654 371.009 0.146159 372.984 1.57909 374.001ZM312.777 614.241C314.186 613.19 314.957 610.998 314.779 607.965L293.989 328.299C293.42 323.283 290.212 321.143 284.536 322.65L11.7997 390.002C8.2193 391.357 6.91724 394.84 10.3735 397.842L306.95 613.677C309.322 615.203 311.368 615.292 312.777 614.241ZM334.198 614.477C335.438 615.24 337.145 615.228 339.106 614.043L635.601 398.108C639.962 394.536 638.466 390.42 632.596 388.887L360.723 322.282C355.794 321.282 352.774 323.676 352.441 329.553L332.095 610.257C332.186 612.176 332.958 613.714 334.198 614.477Z" fill="#0069E5" fill-rule="evenodd" transform="matrix(1 0 0 -1 1705 833)"/><path d="M2551.19 1023.82 2516.34 1147.44 2586.9 1147.44ZM2492.54 967.131 2607.72 967.131 2694 1251.44 2616.65 1251.44 2601.77 1202.42 2500.19 1202.42 2486.59 1251.44 2407.54 1251.44ZM1764.06 967.131 1883.92 967.131 1937.9 1145.73 1940.87 1145.73 1991.87 967.131 2114.7 967.131 2114.7 1251.44 2039.9 1251.44 2045.43 1033.63 2043.3 1033.63 1972.75 1251.44 1907.3 1251.44 1835.04 1033.63 1832.49 1033.63 1838.87 1251.44 1764.06 1251.44ZM1641.87 967.131 1717.95 967.131 1717.95 1251.44 1641.87 1251.44ZM1476.12 965.852C1478.24 965.852 1480.3 965.852 1482.28 965.852 1498.71 965.852 1513.73 966.776 1527.33 968.623 1540.93 970.47 1553.26 973.099 1564.31 976.509 1575.07 980.225 1583.22 988.015 1588.75 999.879 1594.27 1011.74 1597.03 1027.82 1597.03 1048.12 1597.03 1048.4 1597.03 1048.76 1597.03 1049.19 1597.03 1049.61 1597.03 1050.11 1597.03 1050.68 1597.03 1050.96 1597.03 1051.25 1597.03 1051.53 1597.03 1051.81 1597.03 1052.1 1597.03 1052.38 1596.75 1052.67 1596.61 1053.02 1596.61 1053.45 1596.61 1053.87 1596.61 1054.37 1596.61 1054.94 1596.61 1055.22 1596.61 1055.44 1596.61 1055.58 1596.61 1055.72 1596.61 1055.79 1596.61 1055.79L1596.61 1056.22 1524.36 1056.22C1524.36 1049.4 1523.65 1043.79 1522.23 1039.38 1520.81 1034.98 1518.69 1031.78 1515.86 1029.79 1513.02 1028.09 1509.2 1026.74 1504.38 1025.74 1499.56 1024.75 1493.75 1024.25 1486.95 1024.25L1479.3 1023.4C1479.02 1023.96 1478.74 1024.25 1478.45 1024.25 1478.17 1024.25 1477.89 1024.25 1477.6 1024.25 1477.32 1024.25 1477.04 1024.25 1476.75 1024.25 1476.47 1024.25 1476.19 1024.25 1475.9 1024.25 1471.37 1024.25 1466.91 1024.6 1462.52 1025.31 1458.12 1026.03 1453.94 1027.09 1449.98 1028.51 1446.01 1029.65 1443.04 1032.06 1441.05 1035.76 1439.07 1039.45 1438.08 1044.28 1438.08 1050.25 1438.08 1054.8 1438.43 1058.63 1439.14 1061.76 1439.85 1064.89 1441.05 1067.58 1442.75 1069.86 1444.45 1071.84 1446.86 1073.47 1449.98 1074.75 1453.09 1076.02 1456.92 1076.8 1461.45 1077.08 1463.72 1077.37 1465.92 1077.58 1468.04 1077.72 1470.17 1077.87 1472.36 1077.94 1474.63 1077.94 1476.9 1078.22 1479.16 1078.43 1481.43 1078.57 1483.7 1078.71 1485.96 1078.78 1488.23 1078.78 1488.51 1078.78 1488.8 1078.78 1489.08 1078.78 1489.36 1078.78 1489.65 1078.78 1489.93 1078.78 1490.21 1078.78 1490.57 1078.78 1490.99 1078.78 1491.42 1078.78 1491.77 1078.78 1492.05 1078.78 1506.22 1079.35 1519.82 1080.7 1532.86 1082.83 1545.89 1084.95 1558.22 1087.86 1569.83 1091.54 1581.45 1095.22 1590.23 1102.88 1596.18 1114.5 1602.13 1126.12 1605.11 1141.57 1605.11 1160.84 1605.11 1161.97 1605.11 1163.04 1605.11 1164.03 1605.11 1165.02 1605.11 1165.94 1605.11 1166.79 1605.11 1167.92 1605.11 1168.99 1605.11 1169.98 1605.11 1170.97 1605.11 1172.03 1605.11 1173.17 1605.11 1174.3 1605.11 1175.37 1605.11 1176.36 1605.11 1177.35 1604.97 1178.27 1604.68 1179.12 1604.68 1180.25 1604.61 1181.31 1604.47 1182.31 1604.33 1183.3 1604.26 1184.36 1604.26 1185.5 1603.98 1190.03 1603.41 1194.43 1602.56 1198.68 1601.71 1202.93 1600.58 1207.18 1599.16 1211.43 1598.03 1215.68 1596.25 1219.58 1593.85 1223.12 1591.44 1226.67 1588.53 1229.85 1585.13 1232.69 1580.6 1236.38 1575.78 1239.58 1570.68 1242.28 1565.58 1244.98 1560.2 1247.04 1554.53 1248.46 1548.87 1249.6 1543.13 1250.52 1537.32 1251.23 1531.51 1251.94 1525.63 1252.44 1519.68 1252.72 1518.83 1252.72 1517.98 1252.72 1517.13 1252.72 1516.28 1252.72 1515.43 1252.86 1514.58 1253.15 1513.73 1253.15 1512.88 1253.15 1512.03 1253.15 1511.18 1253.15 1510.33 1253.15 1509.48 1253.15 1508.63 1253.15 1507.78 1253.15 1506.93 1253.15 1506.08 1253.15 1505.37 1253.15 1504.81 1253.15 1503.96 1253.15 1503.11 1253.15 1502.26 1253.15 1501.41 1253.15 1500.56 1253.15 1499.71 1253.15L1481 1253.15C1461.45 1253.15 1444.24 1252.15 1429.36 1250.16 1414.49 1248.17 1402.09 1245.05 1392.18 1240.79 1381.98 1236.53 1374.4 1227.67 1369.44 1214.21 1364.48 1200.74 1362 1182.8 1362 1160.4L1434.25 1159.55C1434.25 1165.22 1434.68 1170.18 1435.53 1174.44 1436.38 1178.69 1437.79 1182.38 1439.78 1185.49 1441.48 1188.33 1444.31 1190.53 1448.28 1192.09 1452.24 1193.65 1457.2 1194.42 1463.15 1194.42L1495.88 1193.58C1496.45 1193.86 1497.08 1194.01 1497.79 1194.01 1498.5 1194.01 1499.14 1194.01 1499.71 1194.01 1503.67 1194.01 1507.36 1193.65 1510.76 1192.94 1514.16 1192.23 1517.27 1191.31 1520.11 1190.18 1523.51 1188.75 1526.06 1185.99 1527.76 1181.88 1529.46 1177.77 1530.31 1172.6 1530.31 1166.36 1530.31 1160.4 1529.53 1155.58 1527.97 1151.9 1526.41 1148.21 1524.07 1145.8 1520.96 1144.67 1518.12 1143.25 1514.65 1142.19 1510.54 1141.48 1506.43 1140.77 1501.97 1140.27 1497.15 1139.98 1496.87 1139.98 1496.59 1139.98 1496.3 1139.98 1496.02 1139.98 1495.74 1139.98 1495.45 1139.98 1495.17 1139.98 1494.96 1139.98 1494.82 1139.98 1494.68 1139.98 1494.46 1139.98 1494.18 1139.98 1491.63 1139.98 1489.22 1139.91 1486.95 1139.77 1484.69 1139.63 1482.42 1139.42 1480.15 1139.14 1478.17 1139.14 1476.12 1139.07 1473.99 1138.92 1471.87 1138.78 1469.67 1138.57 1467.4 1138.29 1450.97 1137.43 1436.31 1135.73 1423.41 1133.18 1410.52 1130.63 1399.4 1127.23 1390.05 1122.97 1380.7 1118.72 1373.76 1110.28 1369.23 1097.67 1364.69 1085.05 1362.42 1068.39 1362.42 1047.69 1362.42 1035.12 1363.77 1024.12 1366.46 1014.7 1369.15 1005.27 1373.19 997.266 1378.58 990.695 1383.96 984.124 1391.11 978.981 1400.04 975.267 1408.96 971.553 1419.8 969.125 1432.55 967.984 1436.52 967.699 1440.56 967.486 1444.67 967.344 1448.77 967.202 1452.95 966.989 1457.2 966.705 1459.47 966.705 1461.6 966.634 1463.58 966.492 1465.56 966.35 1467.69 966.279 1469.95 966.279 1471.94 965.994 1473.99 965.852 1476.12 965.852ZM2304.05 965C2304.9 965.568 2305.82 965.852 2306.81 965.852 2307.8 965.852 2308.86 965.852 2310 965.852 2311.13 965.852 2312.19 965.852 2313.19 965.852 2314.18 965.852 2315.24 965.852 2316.37 965.852 2323.74 966.137 2331.04 966.847 2338.26 967.984 2345.49 969.12 2352.5 970.825 2359.3 973.099 2366.1 975.074 2372.19 978.394 2377.58 983.056 2382.96 987.718 2387.63 993.439 2391.6 1000.22 2393.58 1003.61 2395.21 1007.14 2396.49 1010.82 2397.76 1014.49 2398.83 1018.3 2399.68 1022.26 2399.96 1024.23 2400.24 1026.21 2400.53 1028.19 2400.81 1030.17 2401.09 1032 2401.38 1033.69 2401.66 1035.67 2401.87 1037.65 2402.01 1039.63 2402.16 1041.61 2402.23 1043.59 2402.23 1045.56 2402.23 1046.7 2402.23 1047.84 2402.23 1048.97 2402.23 1050.11 2402.23 1051.25 2402.23 1052.38 2402.23 1052.95 2402.23 1053.52 2402.23 1054.09 2402.23 1054.66 2402.37 1055.22 2402.65 1055.79 2402.65 1056.36 2402.65 1056.86 2402.65 1057.28 2402.65 1057.71 2402.65 1058.21 2402.65 1058.78 2402.65 1059.06 2402.65 1059.34 2402.65 1059.63 2402.65 1059.91 2402.65 1060.2 2402.65 1060.48 2402.65 1060.76 2402.65 1060.98 2402.65 1061.12 2402.65 1061.26 2402.65 1061.33 2402.65 1061.33 2402.65 1061.62 2402.65 1061.83 2402.65 1061.97 2402.65 1062.11 2402.65 1062.33 2402.65 1062.61 2402.65 1062.9 2402.65 1063.11 2402.65 1063.25 2402.65 1063.39 2402.65 1063.61 2402.65 1063.89L2402.65 1068.58 2326.15 1068.58C2326.15 1061.76 2325.44 1055.93 2324.02 1051.1 2322.61 1046.27 2320.62 1042.44 2318.07 1039.59 2315.24 1036.75 2311.34 1034.62 2306.39 1033.2 2301.43 1031.78 2295.26 1031.07 2287.9 1031.07L2275.15 1030.22C2274.86 1030.5 2274.44 1030.71 2273.87 1030.86 2273.3 1031 2272.88 1031.07 2272.6 1031.07 2272.03 1031.07 2271.53 1031.07 2271.11 1031.07 2270.68 1031.07 2270.19 1031.07 2269.62 1031.07 2269.05 1031.07 2268.49 1031.07 2267.92 1031.07 2267.35 1031.07 2266.93 1031.07 2266.65 1031.07 2266.08 1031.35 2265.58 1031.5 2265.16 1031.5 2264.73 1031.5 2264.24 1031.5 2263.67 1031.5 2261.4 1031.78 2259.21 1032.13 2257.08 1032.56 2254.96 1032.99 2252.76 1033.48 2250.5 1034.05 2248.51 1034.91 2246.67 1035.9 2244.97 1037.04 2243.27 1038.17 2241.71 1039.59 2240.3 1041.3 2238.88 1043 2237.67 1044.71 2236.68 1046.41 2235.69 1048.12 2234.91 1049.97 2234.35 1051.96 2234.06 1053.94 2233.71 1055.93 2233.28 1057.92 2232.86 1059.91 2232.65 1061.9 2232.65 1063.89 2232.65 1064.17 2232.65 1064.46 2232.65 1064.74 2232.65 1065.03 2232.65 1065.31 2232.65 1065.6 2232.36 1065.88 2232.22 1066.16 2232.22 1066.45 2232.22 1066.73 2232.22 1067.02 2232.22 1067.3 2232.22 1067.58 2232.22 1067.87 2232.22 1068.15 2232.22 1068.44 2232.22 1068.58 2232.22 1068.58 2232.22 1068.86 2232.22 1069.15 2232.22 1069.43 2232.22 1069.72 2232.22 1070 2232.22 1070.28 2232.22 1071.43 2232.15 1072.5 2232.01 1073.5 2231.87 1074.5 2231.79 1075.43 2231.79 1076.29 2231.51 1077.43 2231.37 1078.5 2231.37 1079.5 2231.37 1080.49 2231.37 1081.56 2231.37 1082.71 2231.37 1083.85 2231.37 1084.92 2231.37 1085.92 2231.37 1086.92 2231.37 1087.85 2231.37 1088.71 2231.09 1089.85 2230.95 1090.92 2230.95 1091.92 2230.95 1092.92 2230.95 1093.84 2230.95 1094.7 2230.95 1096.7 2230.95 1098.77 2230.95 1100.92 2230.95 1103.06 2230.95 1105.27 2230.95 1107.56 2230.95 1109.55 2230.95 1111.55 2230.95 1113.55 2230.95 1115.55 2230.95 1117.55 2230.95 1119.55 2230.95 1120.12 2230.95 1120.77 2230.95 1121.48 2230.95 1122.19 2230.95 1122.83 2230.95 1123.41 2230.95 1123.98 2230.95 1124.55 2230.95 1125.12 2230.95 1125.69 2230.95 1126.26 2230.95 1126.83 2230.95 1127.69 2230.95 1128.4 2230.95 1128.97 2230.95 1129.55 2230.95 1130.12 2230.95 1130.69 2230.95 1131.26 2230.95 1131.9 2230.95 1132.62 2230.95 1133.33 2230.95 1133.97 2230.95 1134.54 2230.95 1145.11 2231.72 1153.89 2233.28 1160.89 2234.84 1167.89 2237.04 1173.38 2239.87 1177.38 2242.99 1181.1 2247.8 1183.95 2254.32 1185.95 2260.84 1187.95 2269.34 1188.95 2279.82 1188.95 2287.19 1188.95 2293.78 1188.45 2299.59 1187.45 2305.39 1186.45 2310.42 1184.95 2314.67 1182.96 2318.92 1180.67 2322.18 1176.95 2324.45 1171.81 2326.72 1166.67 2327.85 1159.96 2327.85 1151.68 2327.85 1151.39 2327.85 1151.11 2327.85 1150.82 2327.85 1150.54 2327.85 1150.25 2327.85 1149.97 2327.85 1149.68 2327.85 1149.39 2327.85 1149.11 2327.85 1148.82 2327.85 1148.54 2327.85 1148.26 2327.57 1147.97 2327.42 1147.68 2327.42 1147.4 2327.42 1147.11 2327.42 1146.83 2327.42 1146.54 2327.42 1146.25 2327.42 1145.97 2327.42 1145.68 2327.42 1145.4 2327.42 1145.11 2327.42 1144.83L2327.42 1143.97 2402.65 1143.97 2402.65 1152.54C2402.65 1161.68 2402.3 1170.39 2401.59 1178.67 2400.88 1186.95 2399.82 1194.95 2398.4 1202.66 2396.98 1210.37 2393.73 1217.44 2388.63 1223.87 2383.53 1230.29 2376.73 1235.93 2368.23 1240.79 2363.69 1243.63 2359.02 1245.9 2354.2 1247.61 2349.38 1249.31 2344.42 1250.59 2339.32 1251.44 2336.77 1251.73 2334.22 1252.01 2331.67 1252.29 2329.12 1252.58 2326.57 1252.86 2324.02 1253.15 2321.19 1253.15 2318.5 1253.29 2315.95 1253.57 2313.4 1253.86 2310.85 1254 2308.3 1254 2307.73 1254 2307.09 1254 2306.39 1254 2305.68 1254 2305.04 1254 2304.47 1254 2303.91 1254 2303.27 1254 2302.56 1254 2301.85 1254 2301.21 1254 2300.65 1254 2297.81 1254 2295.05 1254 2292.36 1254 2289.67 1254 2287.05 1254 2284.5 1254 2283.08 1254 2281.73 1254 2280.46 1254 2279.18 1254 2277.84 1254 2276.42 1254 2275.29 1253.72 2274.08 1253.57 2272.81 1253.57 2271.53 1253.57 2270.19 1253.57 2268.77 1253.57 2267.35 1253.57 2265.94 1253.57 2264.52 1253.57 2263.1 1253.57 2261.83 1253.57 2260.7 1253.57 2259.28 1253.29 2257.93 1253.15 2256.66 1253.15 2255.38 1253.15 2254.04 1253.15 2252.62 1253.15 2249.79 1253.15 2247.02 1253.15 2244.33 1253.15 2241.64 1253.15 2239.02 1253.15 2236.47 1253.15 2217.77 1251.44 2202.68 1247.1 2191.21 1240.13 2179.73 1233.16 2171.87 1223.69 2167.62 1211.74 2163.08 1199.79 2159.68 1186.77 2157.42 1172.68 2155.15 1158.59 2153.88 1143.72 2153.59 1128.07L2153.17 1090.51C2153.17 1066.32 2155.5 1046.04 2160.18 1029.67 2164.85 1013.31 2171.87 1000.72 2181.22 991.894 2190.57 983.356 2203.53 976.881 2220.11 972.469 2236.68 968.058 2256.87 965.852 2280.67 965.852Z" fill="#0069E5" fill-rule="evenodd"/></g></svg>