<svg xmlns="http://www.w3.org/2000/svg" width="3000" height="3000" viewBox="0 0 3000 3000" version="1.1"><path d="M 1421.500 0.629 C 1418.750 0.827, 1406.375 1.690, 1394 2.546 C 1224.445 14.277, 1048.695 58.023, 891.994 127.502 C 741.474 194.241, 608.471 281.289, 487 392.562 C 462.685 414.836, 412.019 465.480, 389.497 490.022 C 287.369 601.315, 196.688 738.899, 133.785 878 C 69.820 1019.449, 29.882 1161.488, 10.066 1318 C 1.950 1382.105, 1.500 1391.824, 1.500 1503 C 1.500 1607.446, 1.493 1607.282, 8.079 1665.864 C 29.719 1858.361, 87.474 2043.832, 178.298 2212.500 C 287.777 2415.812, 447.539 2595.844, 635.075 2727.232 C 676.400 2756.185, 732.478 2792.149, 752 2802.220 C 757.225 2804.916, 764.650 2809.041, 768.500 2811.389 C 788.474 2823.567, 848.652 2853.711, 886.756 2870.624 C 1034.572 2936.234, 1184.933 2976.516, 1345.058 2993.404 C 1401.858 2999.394, 1404.545 2999.500, 1500 2999.500 C 1595.385 2999.500, 1597.557 2999.415, 1655 2993.426 C 2101.405 2946.887, 2500.624 2705.988, 2749.782 2332.807 C 2882.051 2134.698, 2965.154 1906.359, 2991.976 1667.338 C 2998.545 1608.800, 2999.231 1596.159, 2999.729 1524.500 C 3000.360 1433.530, 2998.839 1392.185, 2992.925 1339.561 C 2976.004 1189.012, 2940.588 1052.115, 2883.474 916.500 C 2853.360 844.994, 2803.295 748.877, 2772.029 702.543 C 2769.263 698.444, 2767 694.612, 2767 694.028 C 2767 691.070, 2727.157 634.166, 2694.512 590.500 C 2659.810 544.083, 2630.650 510.128, 2579.883 457.021 C 2504.553 378.220, 2415.208 304.251, 2323 244.347 C 2119.128 111.899, 1900.850 33.891, 1660.500 7.583 C 1603.528 1.347, 1591.866 0.814, 1506 0.531 C 1462.275 0.386, 1424.250 0.430, 1421.500 0.629 M 1453.500 188.606 C 1377.477 192.341, 1315.848 199.545, 1249 212.511 C 1078.448 245.591, 915.740 312.529, 772.614 408.494 C 757.701 418.493, 738.300 431.508, 729.500 437.417 C 720.700 443.325, 711.475 450.092, 709 452.454 C 706.525 454.817, 699.325 460.728, 693 465.590 C 612.003 527.855, 524.487 616.040, 459.874 700.500 C 370.699 817.067, 304.358 940.855, 258.365 1076.500 C 220.908 1186.969, 199.365 1295.419, 190.330 1419 C 188.167 1448.578, 187.838 1537.124, 189.777 1567.500 C 192.882 1616.141, 195.053 1641.004, 196.667 1646.412 C 197.227 1648.289, 202.768 1648.316, 511.789 1647.912 L 826.342 1647.500 945.021 2004 C 1070.519 2380.986, 1084.600 2422.979, 1085.982 2424.374 C 1086.472 2424.868, 1091.204 2411.822, 1096.865 2394.374 C 1102.374 2377.393, 1126.966 2301.400, 1151.512 2225.500 C 1176.058 2149.600, 1207.099 2053.750, 1220.490 2012.500 C 1245.155 1936.526, 1267.226 1868.344, 1315.501 1719 C 1330.169 1673.625, 1358.070 1587.450, 1377.504 1527.500 C 1396.937 1467.550, 1421.008 1393.075, 1430.994 1362 C 1448.971 1306.059, 1499.824 1148.859, 1556.510 974 C 1572.646 924.225, 1605.268 823.425, 1629.003 750 C 1652.737 676.575, 1688.284 566.775, 1707.995 506 C 1727.707 445.225, 1755.157 360.400, 1768.997 317.500 C 1794.174 239.457, 1799.221 225, 1801.293 225 C 1804.689 225, 1799.206 222.898, 1789.944 220.649 C 1734.069 207.078, 1658.304 196.166, 1580 190.412 C 1559.967 188.939, 1472.214 187.687, 1453.500 188.606 M 2053.395 313.750 C 2056.457 323.858, 2120.017 531.123, 2148.997 625.500 C 2169.432 692.050, 2213.141 834.475, 2246.129 942 C 2279.117 1049.525, 2310.429 1151.563, 2315.712 1168.750 L 2325.318 1200 2489.409 1199.905 C 2653.806 1199.810, 2775.353 1198.981, 2776.387 1197.946 C 2778.341 1195.993, 2756.780 1118.989, 2742.888 1078.304 C 2731.305 1044.381, 2714.688 1001.607, 2700.425 969 C 2691.946 949.615, 2656.116 878.007, 2643.924 856.081 C 2630.679 832.259, 2597.362 779.395, 2577.699 751 C 2498.966 637.304, 2397.654 532.705, 2285 448.806 C 2223.712 403.161, 2164.335 366.154, 2097.500 331.943 C 2074.352 320.094, 2056.693 312, 2053.989 312 C 2053.371 312, 2053.104 312.788, 2053.395 313.750 M 1903.709 606.750 C 1903.421 607.712, 1901.107 614.125, 1898.569 621 C 1896.030 627.875, 1885.596 659.375, 1875.382 691 C 1865.168 722.625, 1822.174 855.600, 1779.839 986.500 C 1737.504 1117.400, 1696.402 1244.525, 1688.501 1269 C 1680.600 1293.475, 1643.771 1407.325, 1606.658 1522 C 1569.545 1636.675, 1529.878 1759.300, 1518.508 1794.500 C 1495.462 1865.852, 1434.708 2053.524, 1389.990 2191.500 C 1380.721 2220.100, 1363.619 2272.975, 1351.987 2309 C 1265.935 2575.500, 1210.215 2747.148, 1206.343 2757.662 C 1203.836 2764.468, 1200.750 2771.563, 1199.485 2773.426 L 1197.186 2776.815 1199.343 2777.422 C 1214.616 2781.720, 1260.822 2790.705, 1297 2796.412 C 1335.870 2802.543, 1373.187 2806.643, 1422.500 2810.201 C 1446.922 2811.963, 1552.979 2811.968, 1577.500 2810.208 C 1697.718 2801.579, 1794.933 2783.281, 1902.500 2749.034 C 2001.100 2717.642, 2104.997 2669.604, 2193 2614.718 C 2326.170 2531.662, 2439.642 2429.315, 2536.938 2304.500 C 2689.566 2108.705, 2782.833 1872.876, 2806.462 1623 C 2811.766 1566.913, 2813.734 1512.063, 2812.120 1465.289 C 2811.498 1447.255, 2810.992 1430.813, 2810.995 1428.750 L 2811 1425 2474.122 1425 C 2205.796 1425, 2137.051 1424.746, 2136.290 1423.750 C 2135.765 1423.063, 2131.391 1408.325, 2126.570 1391 C 2112.898 1341.868, 1934.538 707.345, 1916.242 642.750 C 1910.361 621.987, 1905.253 605, 1904.891 605 C 1904.529 605, 1903.997 605.788, 1903.709 606.750 M 443 1876.088 C 375.075 1876.505, 302.334 1877.158, 281.353 1877.538 L 243.206 1878.230 253.980 1910.365 C 285.290 2003.748, 318.150 2077.105, 365.804 2160 C 391.773 2205.175, 419.216 2246.072, 457.009 2295.921 C 564.869 2438.186, 710.765 2564.232, 865 2648.403 C 891.424 2662.823, 942.801 2688.532, 943.600 2687.733 C 944.241 2687.093, 921.965 2620.349, 802.013 2263.500 C 749.094 2106.067, 706.329 1978.650, 678.249 1894.750 L 671.640 1875 619.070 1875.165 C 590.156 1875.256, 510.925 1875.671, 443 1876.088" stroke="none" fill="#000000" fill-rule="evenodd"/></svg>