<?xml version="1.0" encoding="UTF-8"?>
<svg width="55.715mm" height="25.834mm" version="1.1" viewBox="0 0 55.715 25.834" xmlns="http://www.w3.org/2000/svg" xmlns:cc="http://creativecommons.org/ns#" xmlns:dc="http://purl.org/dc/elements/1.1/" xmlns:rdf="http://www.w3.org/1999/02/22-rdf-syntax-ns#" xmlns:xlink="http://www.w3.org/1999/xlink">
 <defs>
  <linearGradient id="linearGradient1344">
   <stop stop-color="#fff" offset="0"/>
   <stop stop-color="#fff" stop-opacity="0" offset="1"/>
  </linearGradient>
  <linearGradient id="linearGradient1322" x1="164.05" x2="156.48" y1="113.37" y2="113.35" gradientTransform="matrix(1.7069 0 0 1 -117.07 0)" gradientUnits="userSpaceOnUse">
   <stop stop-color="#fff" offset="0"/>
   <stop stop-color="#fff" stop-opacity="0" offset="1"/>
  </linearGradient>
  <linearGradient id="linearGradient1330" x1="155.68" x2="148.41" y1="118.1" y2="115.45" gradientUnits="userSpaceOnUse">
   <stop stop-color="#fff" offset="0"/>
   <stop stop-color="#fff" stop-opacity="0" offset="1"/>
  </linearGradient>
  <linearGradient id="linearGradient1338" x1="150.09" x2="144.14" y1="119.5" y2="115.79" gradientUnits="userSpaceOnUse">
   <stop stop-color="#fff" offset="0"/>
   <stop stop-color="#fff" stop-opacity="0" offset="1"/>
  </linearGradient>
  <linearGradient id="linearGradient1346" x1="146.87" x2="141.89" y1="121.44" y2="115.64" gradientUnits="userSpaceOnUse" xlink:href="#linearGradient1344"/>
  <linearGradient id="linearGradient1354" x1="142.36" x2="140.26" y1="123.73" y2="116.63" gradientUnits="userSpaceOnUse" xlink:href="#linearGradient1344"/>
  <linearGradient id="linearGradient1362" x1="139.34" x2="139.39" y1="125.13" y2="116.3" gradientUnits="userSpaceOnUse">
   <stop stop-color="#fff" offset="0"/>
   <stop stop-color="#fff" stop-opacity="0" offset="1"/>
  </linearGradient>
  <linearGradient id="linearGradient1394" x1="136.39" x2="138.32" y1="123.97" y2="116.69" gradientUnits="userSpaceOnUse">
   <stop stop-color="#fff" offset="0"/>
   <stop stop-color="#fff" stop-opacity="0" offset="1"/>
  </linearGradient>
  <linearGradient id="linearGradient1402" x1="133.93" x2="137.07" y1="122.63" y2="116.34" gradientUnits="userSpaceOnUse">
   <stop stop-color="#fff" offset="0"/>
   <stop stop-color="#fff" stop-opacity="0" offset="1"/>
  </linearGradient>
  <linearGradient id="linearGradient1410" x1="144.68" x2="140.64" y1="122.8" y2="114.68" gradientUnits="userSpaceOnUse">
   <stop stop-color="#fff" offset="0"/>
   <stop stop-color="#fff" stop-opacity="0" offset="1"/>
  </linearGradient>
  <linearGradient id="linearGradient1418" x1="155.22" x2="147.04" y1="108.37" y2="111.27" gradientUnits="userSpaceOnUse">
   <stop stop-color="#fff" offset="0"/>
   <stop stop-color="#fff" stop-opacity="0" offset="1"/>
  </linearGradient>
  <linearGradient id="linearGradient1426" x1="127.4" x2="133.63" y1="120.09" y2="116.22" gradientUnits="userSpaceOnUse">
   <stop stop-color="#fff" offset="0"/>
   <stop stop-color="#fff" stop-opacity="0" offset="1"/>
  </linearGradient>
  <linearGradient id="linearGradient1434" x1="131.01" x2="134.84" y1="121.91" y2="117.33" gradientUnits="userSpaceOnUse">
   <stop stop-color="#fff" offset="0"/>
   <stop stop-color="#fff" stop-opacity="0" offset="1"/>
  </linearGradient>
  <linearGradient id="linearGradient1442" x1="133.9" x2="136.25" y1="122.98" y2="118.03" gradientUnits="userSpaceOnUse">
   <stop stop-color="#fff" offset="0"/>
   <stop stop-color="#fff" stop-opacity="0" offset="1"/>
  </linearGradient>
  <linearGradient id="linearGradient1450" x1="136.29" x2="137.83" y1="124.06" y2="118.91" gradientUnits="userSpaceOnUse">
   <stop stop-color="#fff" offset="0"/>
   <stop stop-color="#fff" stop-opacity="0" offset="1"/>
  </linearGradient>
  <linearGradient id="linearGradient1458" x1="139.38" x2="139.37" y1="101.36" y2="107.42" gradientUnits="userSpaceOnUse">
   <stop stop-color="#fff" offset="0"/>
   <stop stop-color="#fff" stop-opacity="0" offset="1"/>
  </linearGradient>
  <linearGradient id="linearGradient1466" x1="136.2" x2="137.84" y1="123.78" y2="118.56" gradientUnits="userSpaceOnUse">
   <stop stop-color="#fff" offset="0"/>
   <stop stop-color="#fff" stop-opacity="0" offset="1"/>
  </linearGradient>
  <linearGradient id="linearGradient1474" x1="133.96" x2="136.33" y1="122.74" y2="118.08" gradientUnits="userSpaceOnUse">
   <stop stop-color="#fff" offset="0"/>
   <stop stop-color="#fff" stop-opacity="0" offset="1"/>
  </linearGradient>
  <linearGradient id="linearGradient1482" x1="131.44" x2="135.56" y1="121.61" y2="116.94" gradientUnits="userSpaceOnUse">
   <stop stop-color="#fff" offset="0"/>
   <stop stop-color="#fff" stop-opacity="0" offset="1"/>
  </linearGradient>
  <linearGradient id="linearGradient1490" x1="127.59" x2="133.12" y1="119.85" y2="116.96" gradientUnits="userSpaceOnUse">
   <stop stop-color="#fff" offset="0"/>
   <stop stop-color="#fff" stop-opacity="0" offset="1"/>
  </linearGradient>
  <linearGradient id="linearGradient1498" x1="123.61" x2="130.07" y1="108.54" y2="110.91" gradientUnits="userSpaceOnUse">
   <stop stop-color="#fff" offset="0"/>
   <stop stop-color="#fff" stop-opacity="0" offset="1"/>
  </linearGradient>
  <linearGradient id="linearGradient1506" x1="113.17" x2="125.94" y1="113.25" y2="113.28" gradientUnits="userSpaceOnUse">
   <stop stop-color="#fff" offset="0"/>
   <stop stop-color="#fff" stop-opacity="0" offset="1"/>
  </linearGradient>
  <linearGradient id="linearGradient1514" x1="131.77" x2="136.01" y1="121.66" y2="116.58" gradientUnits="userSpaceOnUse">
   <stop stop-color="#fff" offset="0"/>
   <stop stop-color="#fff" stop-opacity="0" offset="1"/>
  </linearGradient>
  <linearGradient id="linearGradient1522" x1="127.58" x2="133.76" y1="119.8" y2="116.28" gradientUnits="userSpaceOnUse">
   <stop stop-color="#fff" offset="0"/>
   <stop stop-color="#fff" stop-opacity="0" offset="1"/>
  </linearGradient>
  <linearGradient id="linearGradient1530" x1="122.66" x2="129.94" y1="117.59" y2="115.23" gradientUnits="userSpaceOnUse">
   <stop stop-color="#fff" offset="0"/>
   <stop stop-color="#fff" stop-opacity="0" offset="1"/>
  </linearGradient>
 </defs>
 <metadata>
  <rdf:RDF>
   <cc:Work rdf:about="">
    <dc:format>image/svg+xml</dc:format>
    <dc:type rdf:resource="http://purl.org/dc/dcmitype/StillImage"/>
    <dc:title/>
   </cc:Work>
  </rdf:RDF>
 </metadata>
 <g transform="translate(-111.48 -100.32)">
  <path d="m139.34 100.82 27.358 12.417-27.358 12.417-27.358-12.417z" fill="#b31d00" stroke="#b31d00" stroke-linecap="round" stroke-linejoin="round"/>
  <path d="m139.34 113.26-0.73499 11.523 0.73296 0.33073 0.80384-0.33073z" fill="url(#linearGradient1362)"/>
  <g>
   <path d="m139.34 113.26-3.754 10.132 1.4777 0.75295z" fill="url(#linearGradient1394)"/>
   <path d="m138.99 112.95-5.6982 9.4688 1.3416 0.58747z" fill="url(#linearGradient1402)"/>
   <path d="m138.99 112.95-8.0439 8.3364 1.4538 0.67714z" fill="url(#linearGradient1514)"/>
   <path d="m138.04 113.71-11.09 5.7557 1.57 0.73993z" fill="url(#linearGradient1522)"/>
  </g>
  <g>
   <path d="m139.34 113.26 3.6654 10.191-1.395 0.63483z" fill="url(#linearGradient1354)"/>
   <path d="m139.69 112.95 5.6509 9.3744-1.3416 0.68196z" fill="url(#linearGradient1410)"/>
   <path d="m139.69 112.95 8.0409 8.3545-1.4376 0.62855z" fill="url(#linearGradient1346)"/>
   <path d="m140.65 113.71 11.06 5.8518-1.6201 0.72564z" fill="url(#linearGradient1338)"/>
  </g>
  <g transform="matrix(1 0 0 -1 -.19781 226.63)">
   <path d="m139.34 113.26-3.6287 10.254 1.3524 0.63102z" fill="url(#linearGradient1466)"/>
   <path d="m138.99 112.95-5.7287 9.4743 1.3736 0.65547z" fill="url(#linearGradient1474)"/>
   <path d="m138.99 112.95-8.1662 8.3211 1.5211 0.69537z" fill="url(#linearGradient1482)"/>
   <path d="m138.04 113.71-11.032 5.8643 1.712 0.73158z" fill="url(#linearGradient1490)"/>
  </g>
  <g transform="rotate(180 139.24 113.36)">
   <path d="m139.34 113.26-3.7874 10.496 1.3941 0.62267z" fill="url(#linearGradient1450)"/>
   <path d="m138.99 112.95-5.8517 9.6696 1.3889 0.63471z" fill="url(#linearGradient1442)"/>
   <path d="m138.99 112.95-8.517 8.4714 1.5712 0.69537z" fill="url(#linearGradient1434)"/>
   <path d="m137.43 114.05-10.698 5.6805 1.6118 0.73158z" fill="url(#linearGradient1426)"/>
  </g>
  <g>
   <path d="m139.34 112.05-0.73499-10.357 0.7684-0.33409 0.7684 0.33409z" fill="url(#linearGradient1458)"/>
   <path d="m145.29 114.24 10.94 3.1973-1.774 0.79691z" fill="url(#linearGradient1330)"/>
   <path d="m144.47 112.43 11.267-3.6261-1.6063-0.72z" fill="url(#linearGradient1418)"/>
   <path d="m134.1 112.34-11.395-3.3848 1.8365-0.87723z" fill="url(#linearGradient1498)"/>
   <path d="m134.19 113.6-12.151 3.6329 1.7184 0.81817z" fill="url(#linearGradient1530)"/>
   <path d="m137.93 113.16-23.103 0.86027-1.6621-0.7851 1.6621-0.7517z" fill="url(#linearGradient1506)"/>
   <path d="m144 113.38 19.791 0.63476 1.6621-0.7684-1.6621-0.7684z" fill="url(#linearGradient1322)"/>
  </g>
  <g fill="none" stroke="#fff" stroke-width=".965">
   <path d="m123.72 115.93 5.301 2.2904-0.13363-3.072-4.823-2.6261v-2.5057l4.9342-1.9377"/>
   <path d="m134.98 106.94v13.096m-2.4054-12.829 4.744-0.60135"/>
   <path d="m141.29 117.03 4.8109-0.86863m-4.744 4.0759v-13.698l4.8108 1.0691-0.0668 11.96"/>
   <path d="m153.65 112.95 1.2027 2.8732m-4.9445 2.2718v-9.2208l4.9445 2.0045v1.47l-4.9445 2.3386"/>
  </g>
 </g>
</svg>
