<?xml version="1.0" encoding="UTF-8" ?>
<!DOCTYPE svg PUBLIC "-//W3C//DTD SVG 1.1//EN" "http://www.w3.org/Graphics/SVG/1.1/DTD/svg11.dtd">
<svg width="1090pt" height="207pt" viewBox="0 0 1090 207" version="1.1" xmlns="http://www.w3.org/2000/svg">
<g id="#ffffffff">
</g>
<g id="#ed1c24ff">
<path fill="#ed1c24" opacity="1.00" d=" M 67.46 15.77 C 70.49 14.43 73.97 15.42 77.06 14.17 C 89.32 13.42 101.60 14.20 113.53 17.23 C 115.48 18.04 117.53 18.60 119.55 19.21 C 129.73 23.09 139.19 29.68 144.96 39.08 C 149.95 47.13 151.94 56.63 152.38 65.99 C 143.94 66.39 135.32 65.07 127.05 67.00 C 123.94 67.08 120.82 66.96 117.71 67.01 C 116.19 58.37 111.88 49.02 103.12 45.79 C 100.10 44.13 96.53 44.40 93.43 43.11 C 87.62 43.13 81.67 42.33 75.99 43.89 C 70.22 44.71 64.29 46.81 60.15 51.06 C 55.29 56.08 55.95 64.99 61.36 69.36 C 68.28 75.02 77.30 76.89 85.55 79.75 C 88.87 80.55 92.15 81.54 95.48 82.27 C 97.18 82.78 98.90 83.20 100.59 83.72 C 102.57 84.21 104.54 84.75 106.53 85.25 C 108.79 86.12 111.16 86.68 113.52 87.23 C 120.77 89.77 128.43 91.58 134.96 95.83 C 146.36 102.70 154.44 114.78 156.25 127.99 C 158.76 141.49 156.40 156.08 148.40 167.40 C 141.92 177.33 131.58 184.18 120.40 187.76 C 118.46 188.35 116.51 188.88 114.53 189.29 C 110.42 190.34 106.19 191.04 101.94 191.17 C 97.12 192.65 92.03 191.78 87.08 192.00 C 83.51 191.86 79.81 192.52 76.37 191.31 C 60.84 190.16 44.88 184.57 34.10 172.88 C 23.81 162.19 19.34 147.40 17.46 133.00 C 23.09 133.53 28.44 131.46 34.08 131.89 C 38.26 130.24 42.84 131.75 47.05 130.29 C 48.40 130.03 49.76 129.88 51.14 129.86 C 53.08 138.92 56.18 148.31 63.41 154.58 C 73.99 163.73 89.56 164.85 102.56 161.20 C 103.05 161.12 104.03 160.94 104.52 160.86 C 109.64 158.95 114.76 156.43 118.25 152.08 C 122.55 146.81 123.80 139.10 121.18 132.81 C 118.89 127.99 114.28 124.69 109.44 122.73 C 107.23 121.64 104.80 121.11 102.51 120.23 C 100.14 119.67 97.78 119.04 95.48 118.24 C 88.12 116.53 80.86 114.40 73.48 112.75 C 68.42 111.22 63.38 109.64 58.43 107.77 C 50.73 104.67 43.09 100.81 37.25 94.77 C 28.74 86.52 23.70 74.83 23.69 62.97 C 23.25 48.43 30.70 34.15 42.49 25.76 C 46.10 22.95 50.31 21.11 54.43 19.20 C 58.71 17.84 62.96 16.25 67.46 15.77 Z" />
<path fill="#ed1c24" opacity="1.00" d=" M 232.47 18.23 C 250.00 13.10 268.79 12.42 286.55 16.70 C 287.89 16.99 289.26 17.24 290.53 17.80 C 291.03 17.89 292.02 18.07 292.51 18.15 C 303.21 21.84 313.42 27.43 321.40 35.57 C 334.82 48.54 342.53 66.55 344.88 84.90 C 347.63 105.41 346.27 126.95 338.18 146.19 C 330.91 163.04 317.48 177.35 300.61 184.78 C 297.01 186.40 293.24 187.51 289.53 188.76 C 283.44 190.46 277.16 190.95 271.00 192.01 C 264.84 191.96 258.69 192.11 252.54 191.89 C 249.83 190.23 246.43 191.49 243.51 190.34 C 224.00 187.13 205.63 176.18 194.60 159.61 C 183.10 143.21 179.06 122.70 179.37 102.95 C 179.23 79.87 185.39 55.66 201.31 38.31 C 209.61 28.91 220.61 22.18 232.47 18.23 M 254.47 43.81 C 242.94 44.70 232.17 51.47 225.79 61.04 C 218.04 72.39 215.40 86.42 215.15 99.94 C 214.88 112.39 216.29 125.18 221.56 136.60 C 226.74 148.26 236.73 158.27 249.38 161.32 C 250.98 162.03 252.75 162.00 254.46 162.19 C 254.84 162.36 255.61 162.68 256.00 162.84 C 263.54 163.50 271.16 162.98 278.44 160.79 C 286.33 158.09 293.40 153.03 298.30 146.25 C 307.48 133.55 310.39 117.41 310.21 102.02 C 310.20 86.48 307.34 69.94 297.26 57.58 C 288.87 47.16 275.06 42.51 262.00 42.98 C 259.49 43.13 256.75 42.47 254.47 43.81 Z" />
<path fill="#ed1c24" opacity="1.00" d=" M 796.48 17.23 C 807.91 14.18 819.68 13.48 831.47 14.11 C 833.09 15.32 835.15 14.85 837.03 15.10 C 850.03 17.26 862.71 22.62 872.46 31.63 C 882.07 39.92 887.43 51.88 891.13 63.76 C 888.57 64.48 885.93 64.88 883.46 65.82 C 882.47 65.94 881.49 66.06 880.53 66.18 C 875.94 67.73 871.10 68.35 866.46 69.73 C 863.15 70.13 859.92 71.72 856.65 71.73 C 854.71 63.94 850.87 56.47 844.58 51.31 C 837.54 45.39 828.15 42.56 819.03 42.97 C 807.14 42.90 794.68 47.86 787.75 57.87 C 779.55 69.48 777.56 84.16 777.17 98.03 C 776.96 113.29 777.93 129.28 784.94 143.13 C 788.81 150.85 795.43 157.31 803.59 160.31 C 804.56 160.65 805.53 160.99 806.50 161.34 C 808.08 161.99 809.79 162.02 811.47 162.20 C 815.85 163.90 820.82 162.70 825.44 162.88 C 829.77 161.57 834.37 160.80 838.23 158.22 C 849.56 151.33 855.02 138.28 857.84 125.87 C 861.61 127.47 865.62 128.36 869.49 129.71 C 870.53 130.05 871.57 130.42 872.62 130.79 C 873.09 130.89 874.04 131.07 874.51 131.17 C 878.04 132.73 881.87 133.40 885.47 134.75 C 887.38 135.37 889.31 135.93 891.32 136.21 C 891.22 137.31 891.06 138.40 890.82 139.48 C 886.42 153.79 879.02 167.68 867.19 177.21 C 860.11 183.14 851.50 187.07 842.58 189.31 C 837.54 190.93 832.23 191.06 827.08 192.01 C 820.74 191.66 814.24 192.84 808.05 191.13 C 806.54 190.95 805.04 190.94 803.54 190.86 C 795.20 188.83 786.74 186.39 779.36 181.79 C 763.80 172.49 752.53 157.00 746.71 139.99 C 740.66 121.69 740.16 101.94 742.94 83.00 C 745.99 63.69 754.59 44.65 769.59 31.72 C 775.65 26.23 782.92 22.28 790.45 19.21 C 792.47 18.59 794.53 18.07 796.48 17.23 Z" />
<path fill="#ed1c24" opacity="1.00" d=" M 372.86 17.00 C 390.16 17.03 407.47 16.92 424.78 17.06 C 435.23 56.15 445.48 95.30 456.08 134.35 C 466.33 95.23 476.47 56.09 486.82 17.00 C 504.15 17.01 521.49 16.99 538.82 17.01 C 538.82 74.34 538.82 131.67 538.82 189.00 C 528.06 189.01 517.30 189.00 506.55 189.00 C 506.47 144.20 506.68 99.40 506.44 54.60 C 495.10 99.40 483.70 144.17 472.49 189.00 C 461.34 188.95 450.19 189.11 439.05 188.92 C 427.92 144.12 416.44 99.40 405.35 54.59 C 404.90 99.39 405.29 144.20 405.16 189.00 C 394.39 189.00 383.62 189.00 372.86 189.00 C 372.85 131.67 372.85 74.33 372.86 17.00 Z" />
<path fill="#ed1c24" opacity="1.00" d=" M 623.08 17.00 C 635.34 17.03 647.61 16.94 659.87 17.05 C 682.80 74.36 705.71 131.69 728.68 188.98 C 716.09 189.02 703.50 189.00 690.92 188.99 C 685.97 175.99 680.84 163.05 676.00 150.00 C 653.00 150.00 630.00 149.99 607.01 150.01 C 602.38 163.02 597.60 175.98 592.96 188.99 C 580.69 189.00 568.43 189.01 556.17 188.99 C 578.35 131.61 600.87 74.37 623.08 17.00 M 640.06 59.79 C 632.68 80.20 625.16 100.55 617.76 120.95 C 633.42 121.06 649.08 120.98 664.74 120.99 C 656.92 99.88 649.06 78.78 641.37 57.62 C 640.82 58.28 640.38 59.00 640.06 59.79 Z" />
<path fill="#ed1c24" opacity="1.00" d=" M 971.08 17.00 C 983.34 17.03 995.61 16.94 1007.87 17.05 C 1030.80 74.36 1053.71 131.69 1076.68 188.98 C 1064.09 189.02 1051.50 189.00 1038.91 188.99 C 1033.97 175.99 1028.84 163.05 1024.00 150.01 C 1001.00 150.00 978.00 150.00 955.01 150.00 C 950.37 163.02 945.61 175.99 940.96 188.99 C 928.69 189.00 916.43 189.01 904.18 188.99 C 926.35 131.61 948.87 74.37 971.08 17.00 M 985.89 65.83 C 979.17 84.20 972.45 102.57 965.76 120.95 C 981.42 121.06 997.08 120.98 1012.74 120.99 C 1004.90 99.87 997.07 78.75 989.34 57.59 C 987.54 60.02 987.03 63.09 985.89 65.83 Z" />
</g>
</svg>
