<?xml version="1.0" encoding="utf-8"?>
<!-- Generator: Adobe Illustrator 22.0.1, SVG Export Plug-In . SVG Version: 6.00 Build 0)  -->
<svg version="1.1" id="Layer_1" xmlns="http://www.w3.org/2000/svg" xmlns:xlink="http://www.w3.org/1999/xlink" x="0px" y="0px"
	 viewBox="0 0 204 144" style="enable-background:new 0 0 204 144;" xml:space="preserve">
<g>
	<g>
		<path d="M137.1015625,22.6367188c-12.0878906,0-22.046875,5.3530273-29.6015625,15.9106445
			c-6.5200195,9.1264648-9.8261719,19.9594727-9.8261719,32.1977539c0,12.2392578,3.3066406,23.1142578,9.828125,32.3222656
			c7.5507813,10.4726563,17.5097656,15.7851563,29.5996094,15.7851563c12.0078125,0,21.9257813-5.3125,29.4785156-15.7880859
			v-0.0009766c6.6025391-9.1269531,9.9501953-20.0009766,9.9501953-32.3183594
			c0-12.315918-3.3476563-23.1474609-9.9492188-32.1938477C159.0253906,27.9897461,149.1074219,22.6367188,137.1015625,22.6367188z
			 M153.1728516,92.4521484c-4.0820313,6.9902344-9.4912109,10.5371094-16.0751953,10.5371094
			c-6.5859375,0-11.9951172-3.546875-16.0751953-10.5410156c-3.6552734-6.0761719-5.5097656-13.3798828-5.5097656-21.703125
			c0-8.237793,1.8544922-15.5415039,5.5117188-21.7075195c4.0810547-6.909668,9.4892578-10.4130859,16.0732422-10.4130859
			c6.5810547,0,11.9892578,3.503418,16.0761719,10.4135742c3.5810547,6.0043945,5.3974609,13.3081055,5.3974609,21.7070313
			C158.5712891,79.1445313,156.7548828,86.4482422,153.1728516,92.4521484z"/>
		<path d="M97.6704102,100.7568359H49.0864258l0.4101563-0.7421875c1.2905273-2.3359375,2.9257813-4.3496094,4.859375-5.9853516
			c2.4311523-2.0566406,4.824707-2.9365234,9.1699219-4.5341797c4.8457031-1.78125,7.0092773-2.5078125,8.3022461-2.9423828
			c1.2167969-0.4091797,1.6723633-0.5625,2.8999023-1.0996094c3.7446289-1.6396484,7.9882813-3.4970703,12.1010742-7.5244141
			c3.4931641-3.4199219,5.3354492-6.8623047,6.3251953-8.7114258c1.0107422-1.887207,2.5375977-4.7387695,3.4101563-8.9082031
			c0.8393555-4.0112305,0.6259766-7.1542969,0.5112305-8.8432617c-0.1738281-2.5620117-0.465332-6.8505859-2.8251953-11.6894531
			c-1.0668945-2.1875-3.5463867-6.3857422-8.1645508-9.9267578c-2.3276367-1.7841797-4.3540039-2.7456055-5.8334961-3.4477539
			c-5.2700195-2.4990234-11.2133789-3.7651367-17.6704102-3.7651367c-8.3046875,0-15.6831055,1.9150391-21.9614258,5.6958008
			c-0.4418945,0.3064575-0.8837891,0.612915-1.3256836,0.9194336c-7.7124023,5.0083008-11.6801758,13.0410156-11.7978516,23.8803711
			h15.8662109c0.1098633-5.6875,2.1137695-9.628418,5.9604492-11.7192383
			c3.4511719-1.8505859,7.7026367-2.7885742,12.6386719-2.7885742c2.6606445,0,5.1557617,0.2329102,7.4155273,0.6923828
			c2.2753906,0.4638672,4.3276367,1.2124023,6.1005859,2.2255859c2.4873047,1.4521484,4.2460938,3.2792969,5.2324219,5.4331055
			c0.3422852,0.746582,0.8149414,2.0405273,0.9702148,4.6430664c0.1606445,2.6865234,0.4589844,7.6870117-2.2333984,12.4550781
			c-2.1025391,3.7236328-5.059082,5.6025391-7.6674805,7.2597656c-1.5405273,0.9790039-2.1469727,1.1958008-12.2729492,4.8198242
			l-3.7006836,1.3242188c-1.7148438,0.6142578-5.2392578,2.0175781-9.5756836,4.5166016
			c-0.3813477,0.21875-0.753418,0.4550781-1.1899414,0.7490234c-5.9121094,3.9794922-10.5766602,9.7539063-13.8637695,17.1640625
			c-2.3481445,5.2939453-3.5849609,10.9560547-3.6777344,16.8369141h70.1708984V100.7568359z"/>
	</g>
	<g>
		<path d="M198.1704102,125.2741699c0-0.5761719-0.4316406-0.8642578-1.1523438-0.8642578
			c-0.8632813,0-3.0234375-0.2880859-5.0390625-0.8642578c-4.1757813-1.2958984-6.1933594-3.4560547-8.4960938-6.4794922
			c-1.2827148-1.6497803-6.4559326-10.1463013-12.1937866-19.7188721c-1.1461182,2.1801758-2.4394531,4.2852783-3.8984985,6.302124
			c-1.1761475,1.6314087-2.4153442,3.1255493-3.7028809,4.5123901c0.819458,1.4429932,1.6491699,2.8898315,2.4586182,4.3293457
			c0.3845215,1.1846924,0.9087524,3.3831177,0.366272,6.0037231c-0.1358643,0.6564941-0.4171753,2.015625-1.25,3.25
			c-2.3619995,3.5009155-7.4681396,3.4901123-8.166626,3.4787598c0.3171387,0.0189819,0.6342773,0.0379639,0.951416,0.0569458
			h-17.9590454c0.6414185-0.0189819,1.2828369-0.0379639,1.9242554-0.0569458
			c-0.6949463,0.0174561-7.1705933,0.0997925-10.59375-3.7287598c-0.675415-0.7553711-1.2318726-1.6339111-1.6231079-2.3301392
			c-5.2920532-1.0159302-10.1070557-3.1782837-14.4207764-6.4661865
			c-4.3674316,6.8577271-7.3393555,9.8757324-11.5230103,10.9916382c-0.4586792,0.1223755-0.9154663,0.2214966-1.364502,0.3075562
			c-0.6137085-0.1237183-1.2536011-0.2721558-1.8829956-0.4520874c-3.8521118-1.1954346-5.8677368-3.1359863-7.9656982-5.8015137
			H77.4490356c0.0944214,0.7700195,0.1035767,1.9188843-0.3748169,3.1882324c-0.2105713,0.5586548-0.7280273,1.7033081-1.875,2.6875
			c-1.8829956,1.6156616-4.0906982,1.6216431-4.6875,1.6037598c0.3115234,0.0189819,0.6229858,0.0379639,0.9345093,0.0569458
			H40.7595825c0.4173584-0.0189819,0.8347778-0.0379639,1.2521362-0.0569458
			c-0.7470093,0.0404053-4.3036499,0.1535645-7.125-2.4787598c-0.5759277-0.5373535-2.2302856-2.1269531-2.6875-4.8125
			c-0.0110474-0.0647583-0.0102539-0.1242065-0.0195923-0.1882324h-5.6879272l0.0024414-0.5019531
			c0.0170288-3.6102295,0.4669189-7.1385498,1.3170776-10.5592651l-3.3815308,5.3432007
			c-4.6079102,7.34375-7.6318359,10.5117188-11.9516602,11.6640625c-2.159668,0.5761719-4.3198242,0.7197266-5.4716797,0.7197266
			c-0.0696411,0-0.6403198,0.0636597-0.987854,0.4503174c-0.0479736,0.0534058-0.2398071,0.2668457-0.1760254,0.4203491
			l5.2089233,6.864563h182.1033325l4.6699219-6.1542358c0.1189575-0.0993652,0.2047729-0.2153931,0.2617798-0.3449707
			l0.0136719-0.0180664l-0.0056152-0.0004883C198.1395264,125.5181274,198.1704102,125.4025269,198.1704102,125.2741699z"/>
		<path d="M166.5810547,38.5512695c-0.4185791-0.585083-0.847168-1.1479492-1.2801514-1.7010498
			c-3.0542603,4.96875-6.8833008,11.0720215-10.1290283,16.1401978c0.9835205,2.2645874,1.7515869,4.6807251,2.3071289,7.2382813
			l11.7437744-17.6537476C168.4071655,41.1987305,167.5319214,39.8543091,166.5810547,38.5512695z"/>
		<path d="M133.5523071,22.8115845c-6.1726074,0.5648193-11.7453003,2.614502-16.668457,6.149231
			c0.6479492,0.9885254,1.2908325,2.0383301,1.9447021,3.1468506l6.6688843,11.2122803
			c3.0941772-2.9122314,6.6891479-4.4754028,10.7479858-4.6668091c-1.4766235-2.6821289-2.9299316-5.3585205-4.3794556-8.0612793
			c-0.2973633-0.757019-0.8191528-2.4104004-0.3533325-4.3469849
			C131.6223755,25.7886353,132.0029907,24.4788208,133.5523071,22.8115845z"/>
		<path d="M9.0165405,19.0808105c0.3223267,0.4481812,0.9787598,0.4990234,1.1577759,0.4990234
			c0.8637695,0,3.7436523,0.2880859,6.0478516,1.0083008c4.8959961,1.7280273,7.9199219,5.9038086,11.2314453,11.5195313
			l2.9779053,5.0066528c1.751709-3.0408936,4.0759888-5.6443481,6.9874268-7.7817993
			c0.4006958-0.3053589,0.8014526-0.6107178,1.2021484-0.9160156c0.3087158-0.2058105,0.6343384-0.3828125,0.9485474-0.5793457
			c0.019104-0.7001343,0.1186523-1.5403442,0.4420776-2.4672852c0.6531982-1.8724365,1.8128052-2.9824829,2.5-3.625
			c1.7629395-1.6484985,3.6177979-2.2677002,5.25-2.8125c0.7844238-0.2618408,1.5137329-0.4467773,2.1831055-0.5878906
			c6.3438721-0.0150146,12.6876221-0.0300293,19.0314941-0.0450439c1.522522,0.4502563,2.7221069,1.0032349,3.5354004,1.4454346
			c1.8581543,1.0103149,3.6164551,1.9663086,4.625,4c0.0602417,0.121521,0.0923462,0.236145,0.1430054,0.3556519
			c1.1574707,0.4170532,2.2948608,0.8731079,3.3965454,1.3955688c1.5249023,0.7236328,3.6064453,1.7109375,6.0180664,3.5595703
			c0.0419312,0.0321655,0.0770264,0.06604,0.1185913,0.0982666c3.1818848-4.6394653,5.6761475-7.7655029,9.1836548-8.8538818
			c1.5839844-0.5761719,3.7436523-0.7202148,4.7519531-0.7202148c0.1625366,0,0.2944336-0.0280762,0.4338989-0.0493164
			c0.1168823,0.0212402,0.2264404,0.0493164,0.3658447,0.0493164c0.8642578,0,3.7431641,0.2880859,6.0478516,1.0083008
			c3.652771,1.2891235,6.2630005,3.9415894,8.7286377,7.5367432c5.3919067-3.8669434,11.5393677-6.0161743,18.3928223-6.4170532
			c2.6477661-2.2397461,5.7260132-3.175293,7.6749878-3.5823364c5.7072144-0.0135498,11.4144287-0.0269775,17.1216431-0.0405273
			c2.4483643,0.2820435,6.0639648,1.2597046,8.4984131,3.8474121c1.1911011,1.2660522,1.5930176,2.404541,1.6875,2.6875
			c0.9589844,2.87146-0.3855591,5.5369263-0.798584,6.2887573c-0.8168335,1.3787231-1.8607178,3.1033936-3.0406494,5.0291748
			c0.5200806,0.6542358,1.0308838,1.3287964,1.5307007,2.0275269c0.8730469,1.1963501,1.6875,2.4246826,2.4486694,3.6813965
			l6.4414673-9.6831055c4.1777344-6.1918945,6.9121094-10.3676758,11.0878906-11.6635742
			c1.5839844-0.5761719,3.7441406-0.7202148,4.7519531-0.7202148c1.0097656,0,1.5839844-0.4316406,1.5839844-1.0078125
			c0-0.2236938-0.1118164-0.4243774-0.3370361-0.5877075c-1.5462646-2.0432129-3.0925293-4.0863037-4.6387939-6.1295166
			c-58.352478,0.1382446-116.704834,0.2765503-175.057312,0.4147949c-1.5941772,2.057373-3.1884155,4.1148071-4.7826538,6.1721802
			h0.000061C8.7808838,18.6278687,8.8945313,18.9111938,9.0165405,19.0808105z"/>
		<path d="M55.8066406,77.4775391c-0.3092651,0.1107788-0.6962891,0.257019-1.1174316,0.4209595
			c2.4284668,4.0909424,4.8232422,8.1546631,7.1962891,12.203125c0.5166626-0.192749,1.0585327-0.3925781,1.6403809-0.6065063
			c4.8457031-1.78125,7.0092773-2.5078125,8.3022461-2.9423828c0.5682373-0.1911011,0.9697876-0.3266602,1.3621826-0.4713135
			c-2.7079468-4.5517578-5.2457886-8.8303223-7.2666016-12.2337646c-1.5650024,0.5690918-3.6176758,1.3040161-6.4163818,2.3056641
			L55.8066406,77.4775391z"/>
		<path d="M81.961853,100.7568359H68.078125c3.0855713,5.3530884,6.1231689,10.684082,9.0713501,15.9873047h14.7240601
			C90.4935303,114.8195801,86.5665894,108.4095459,81.961853,100.7568359z"/>
		<path d="M53.1248169,78.5360107c-1.8271484,0.7802124-4.203064,1.9074707-6.8938599,3.4581299
			c-0.3813477,0.21875-0.753418,0.4550781-1.1899414,0.7490234c-1.4631958,0.9849243-2.848877,2.0813599-4.1572876,3.2837524
			l-11.1552124,17.6265259c-1.4055786,4.1901245-2.1577759,8.5749512-2.2290039,13.0906982h4.59375
			c-0.0466919-2.2876587,0.8833008-3.9879761,1.1923828-4.5063477L53.1248169,78.5360107z"/>
		<path d="M153.1000977,66.8112793l3.6047974-5.4188843c-0.5053711-2.6161499-1.2265015-5.0884399-2.1774902-7.3973389
			c-2.1170044,3.2943726-3.9313354,6.0592041-5.0288696,7.6321411c-4.7232666-7.8132324-8.8122559-14.9386597-12.7097168-21.9921875
			c-4.0783081,0.0739746-7.6810303,1.6038208-10.7661133,4.5680542l15.8449707,26.6399536L125.456665,96.7731934
			c1.7833862,1.8782349,3.7467041,3.2537231,5.8834229,4.1167603l14.1271973-23.9990845
			c2.6432495,4.4490356,5.2442017,8.8623047,7.8214111,13.260498c2.3953247-4.6444092,3.7952881-10.0140381,4.1705933-16.0322876
			C155.2861328,70.4586182,153.6868896,67.7692261,153.1000977,66.8112793z"/>
		<path d="M73.7099609,86.9546509C73.2416992,87.1315918,72.7952881,87.2820435,72.1464844,87.5
			c-1.2875977,0.4335938-3.4428711,1.1572266-8.2758789,2.9345703c-0.5220337,0.1918945-1.0090332,0.3710938-1.4729004,0.543457
			c1.7183838,2.9349976,3.4216919,5.8627319,5.1055908,8.7788086h13.8575439
			C78.8788452,95.6268311,76.2369385,91.2005005,73.7099609,86.9546509z"/>
		<path d="M166.5800781,103.0634766c1.5512085-2.1442261,2.9156494-4.3884888,4.1063232-6.7216797
			c-4.3328247-7.2353516-8.9129028-14.9545898-12.3494873-20.7442627
			c-0.5256958,5.8225708-2.0183716,11.034729-4.4585571,15.5604858c3.1568604,5.3945923,6.2559814,10.7570801,9.291687,16.0922241
			c1.1831665-1.2924805,2.3239136-2.6793213,3.4100342-4.185791V103.0634766z"/>
		<path d="M42.6322021,83.2642212c0.6055908-0.4663086,1.2169189-0.9245605,1.850708-1.3511353
			c0.4584961-0.3076172,0.8491211-0.5556641,1.2495117-0.7861328c3.3849487-1.9503174,6.2778931-3.2399292,8.2329712-4.0188599
			l0.1278687-0.2172241c0.0270386,0.0454712,0.0532837,0.0903931,0.0803223,0.1358643
			c0.4956665-0.1948853,0.942688-0.3639526,1.2961426-0.4906006l3.7006836-1.3251953
			c2.7000732-0.9660034,4.7001343-1.6818848,6.2336426-2.2384033c-1.8239746-3.0710449-3.1550293-5.3063965-3.6789551-6.1612549
			l15.2850952-22.9752808c-0.6060791-0.5092163-1.2786865-0.9880371-2.0316772-1.4277954
			c-1.0717773-0.6122437-2.2677612-1.1118774-3.5504761-1.5169678C66.4523315,48.8935547,60.5476074,58.1550903,58.125,61.6271973
			c-3.7927856-6.2727051-7.1737061-12.1002808-10.3783569-17.8061523c-2.2387695,2.1616821-3.3882446,5.4376221-3.3882446,9.8112793
			v0.5H40.553772l9.9393921,16.7106934L42.6322021,83.2642212z"/>
		<path d="M129.1688843,117.932373c-0.6149292-1.8448486-0.9701538-3.2717285-1.072876-4.104187
			c-0.5192261-4.2062378,0.7313232-8.0521851,1.4098511-9.8223267l1.3193359-2.241272
			c-2.1464233-0.8884277-4.1230469-2.262207-5.921875-4.1171265l-8.9880371,14.2015381
			c3.9958496,3.0577393,8.4342041,5.1185303,13.2925415,6.1698608
			C129.1832275,117.9650879,129.1688843,117.932373,129.1688843,117.932373z"/>
		<path d="M80.2524414,26.4018555c-0.8414307-0.3989868-1.7061157-0.7549438-2.5812378-1.0909424
			c0.1515503,0.6941528,0.196167,1.3217163,0.2155151,1.80896c0.0908813,2.2873535-0.6203613,4.0620728-1.0688477,4.9790649
			c-1.3013916,2.1694946-2.9970093,4.9364014-4.8464966,7.9174805c1.2585449,0.4138794,2.4390869,0.9157104,3.5071411,1.526062
			c0.7689819,0.4489746,1.4596558,0.9379272,2.0880737,1.4571533l7.3421021-11.0360107
			c0.4631958-0.6868896,0.9063721-1.3446655,1.3380737-1.9807129c-0.0562134-0.0437622-0.1040039-0.0897217-0.1608276-0.1333008
			C83.7583008,28.0654297,81.7319336,27.1040039,80.2524414,26.4018555z"/>
		<path d="M31.026001,38.1137085l8.9329224,15.0186157h3.4043579c0.0877075-4.5413208,1.4036865-7.9487305,3.8803711-10.2102051
			c-2.6029053-4.6513062-5.0992432-9.2350464-7.5975952-13.9136963c-0.1170654,0.0811768-0.2340698,0.1623535-0.3511353,0.2435303
			C35.7327881,31.5651245,32.9801025,34.5316162,31.026001,38.1137085z"/>
	</g>
</g>
</svg>
