<?xml version="1.0" encoding="utf-8"?>
<!-- Generator: Adobe Illustrator 17.1.0, SVG Export Plug-In . SVG Version: 6.00 Build 0)  -->
<!DOCTYPE svg PUBLIC "-//W3C//DTD SVG 1.1//EN" "http://www.w3.org/Graphics/SVG/1.1/DTD/svg11.dtd">
<svg version="1.1" id="Capa_3" xmlns="http://www.w3.org/2000/svg" xmlns:xlink="http://www.w3.org/1999/xlink" x="0px" y="0px"
	 viewBox="0 0 566.9 566.9" enable-background="new 0 0 566.9 566.9" xml:space="preserve">
<g>
	<path fill="#004186" d="M102.4,443.8v59.7c0,17.8,10.2,26.9,28.3,26.9c18.5,0,28.7-8.6,28.7-26.9v-59.7h35.2V502
		c0,32-24.3,47.2-65.1,47.2c-39.4,0-62.6-14.5-62.6-47.5v-57.8H102.4z"/>
	<path fill="#004186" d="M470.9,444.5h-81.6c-15.7,0-28.5,12.8-28.5,28.5v47.1c0,15.7,12.8,28.5,28.5,28.5h81.6
		c15.7,0,28.5-12.8,28.5-28.5v-47.1C499.4,457.2,486.6,444.5,470.9,444.5z M468.2,509.5c0,8.7-7,15.7-15.7,15.7h-44.9
		c-8.7,0-15.7-7-15.7-15.7v-25.9c0-8.7,7-15.7,15.7-15.7h44.9c8.7,0,15.7,7,15.7,15.7V509.5z"/>
	<g>
		<circle fill="#004186" cx="475.9" cy="407.4" r="23.5"/>
		<g>
			<path fill="#FBFFFB" d="M465.2,401.3h-5.3v-3.8h15.3v3.8h-5.4v16.1h-4.5V401.3z"/>
			<path fill="#FBFFFB" d="M482,401.3h-5.3v-3.8h15.3v3.8h-5.4v16.1H482V401.3z"/>
		</g>
	</g>
	<linearGradient id="SVGID_1_" gradientUnits="userSpaceOnUse" x1="283.2917" y1="197.305" x2="283.2917" y2="407.4155">
		<stop  offset="0" style="stop-color:#FFFFFF"/>
		<stop  offset="0.6091" style="stop-color:#000000"/>
	</linearGradient>
	<path fill="url(#SVGID_1_)" d="M371.1,262.8l-0.4,0.7l51.1-39.1l13.4-25.9l-1.8-1.1l-12.9,15l-17.8,5.8l-24.4-0.6l-27.2-2.6
		l-12.6,8.6l-2.9,9.6l-0.3,95.4c0,28.2-22.9,51.2-51.1,51.2h-2.1c-28.2,0-51.1-22.9-51.1-51.2l-0.3-95.4l-3.7-12.2l-15.4-6.5
		l-25.6,3.2l-35.9-2.9l-16.6-17.3l-2,1.1l14.7,28.3l49.5,35.6V327c0,28.9,16.3,54.1,40.3,66.7c13.5,8.7,29.6,13.7,46.8,13.7h1.8
		c18.6,0,35.8-5.9,50-15.8c21.5-12.9,35.9-36.3,36.4-63c0.2-2.6,0.4-5.3,0.4-7.9V262.8z"/>
	<path fill="#848482" d="M312,17.7c-16,0,90.1,91,90.1,139.6c0,21-16.4,25.9-30.5,28.7l-55.8-0.1c-5,0-9,4-9,9v143.8
		c0,12.8-10.4,23.2-23.2,23.2h-0.5c-12.8,0-23.2-10.4-23.2-23.2V194.9c0-5-4-9-9-9l-56.5,0.1c-14-2.7-30.5-7.7-30.5-28.7
		c0-48.6,106.2-139.6,90.1-139.6s-124.1,118-124.1,166.6s64.5,32.5,64.5,32.5l11.6-1.2c11.3-1.2,21.7,6.2,24.3,17.2l0,0.2l0,0v96
		c0,28.4,23,51.3,51.3,51.3h1h0.4h1c28.4,0,51.3-23,51.3-51.3v-96l0,0l0-0.2c2.6-11,13-18.4,24.3-17.2l11.6,1.2
		c0,0,64.5,16.1,64.5-32.5S328,17.7,312,17.7z"/>
	<g>
		<linearGradient id="SVGID_2_" gradientUnits="userSpaceOnUse" x1="173.8583" y1="17.7312" x2="173.8583" y2="263.4662">
			<stop  offset="0" style="stop-color:#FFFFFF"/>
			<stop  offset="0.6952" style="stop-color:#000000"/>
		</linearGradient>
		<path fill="url(#SVGID_2_)" d="M92.1,184.4c0,48.6,86.5,79.1,102.5,79.1s-64.5-30.5-64.5-79.1S270.3,17.7,254.3,17.7
			S92.1,135.8,92.1,184.4z"/>
		<linearGradient id="SVGID_3_" gradientUnits="userSpaceOnUse" x1="392.4341" y1="17.7312" x2="392.4341" y2="263.4662">
			<stop  offset="0" style="stop-color:#FFFFFF"/>
			<stop  offset="0.6952" style="stop-color:#000000"/>
		</linearGradient>
		<path fill="url(#SVGID_3_)" d="M474.1,184.4c0,48.6-86.5,79.1-102.5,79.1c-16,0,64.5-30.5,64.5-79.1S296,17.7,312,17.7
			S474.1,135.8,474.1,184.4z"/>
	</g>
	<path fill="#004186" d="M339.6,529.1c0-2.5-0.3-5-0.8-7.4c-0.5-2.4-1.5-4.7-2.9-6.7c-1.4-2.1-3.3-3.9-5.7-5.4
		c-2.4-1.5-5.6-2.7-9.4-3.4c6.9-3,12-7,15.5-12c3.5-5,5.2-10.4,5.2-16.1c0-3.9-1-7.8-2.9-11.7c-2-3.9-4.8-7.4-8.6-10.5
		c-3.8-3.1-8.4-5.6-13.9-7.6c-5.5-2-11.9-2.9-19.1-2.9l-74.5-0.1c-3.2-0.2-6.1-0.2-8.5,0v102.3h29.9V515h39.7
		c4.4,0,8.1,0.5,11.2,1.4c3,1,5.5,2.2,7.5,3.8s3.3,3.3,4.2,5.3c0.8,1.9,1.3,3.9,1.3,6v16.2h31.7c0.3,0.2,0.5,0.3,0.5,0
		c0,0,0-1.3,0-3.5L339.6,529.1z M291.6,495.4c-2.9,0.8-6,1.3-9.3,1.3h-37.7v-32.1h37.7c3.5,0,6.8,0.4,9.7,1.2c3,0.8,5.5,1.9,7.7,3.3
		c2.2,1.4,3.8,3.1,5.1,5c1.2,1.9,1.8,4,1.8,6.3c0,2.3-0.7,4.4-2,6.4c-1.3,2-3.1,3.7-5.3,5.2C297.1,493.4,294.6,494.6,291.6,495.4z"
		/>
</g>
</svg>
